<svg width="500" height="500" viewBox="0 0 500 500" fill="none" xmlns="http://www.w3.org/2000/svg">
<rect fill="none" width="500" height="500"/>
<path fill="#ffffff" d="M406.7,172.8l-97-79c-0.6-0.5-1.5-0.5-2.1,0l-97,79c-0.7,0.6-1.2,1.5-1.2,2.5v117.2c7.7,1,15.1,3.6,21.8,7.6
			c5.3,3.5,11.6,5.3,17.9,5c6.3,0.2,12.6-1.5,17.9-5c9.2-5.6,19.9-8.4,30.6-8.2c10.8-0.2,21.4,2.6,30.6,8.2c11,6.7,24.9,6.7,35.9,0
			c9.2-5.6,19.8-8.4,30.6-8.2c4.4,0,8.9,0.4,13.2,1.3V175.3C407.8,174.3,407.4,173.4,406.7,172.8z"/>
		<path fill="#ffffff" d="M394.6,371.3c-10.8-0.2-21.4,2.6-30.6,8.2c-11,6.7-24.9,6.7-35.9,0c-9.2-5.6-19.8-8.4-30.6-8.2
			c-10.8-0.2-21.4,2.6-30.6,8.2c-5.3,3.5-11.5,5.2-17.9,5c-6.4,0.2-12.6-1.5-17.9-5c-9.2-5.6-19.9-8.4-30.6-8.2
			c-10.8-0.2-21.4,2.6-30.6,8.2c-5.3,3.5-11.6,5.2-17.9,5c-6.4,0.2-12.6-1.6-17.9-5c-9.2-5.6-19.8-8.4-30.6-8.2
			c-7.3,0-13.2,5.9-13.2,13.2c0,7.3,5.9,13.2,13.2,13.2c6.4-0.2,12.6,1.6,17.9,5c9.2,5.6,19.8,8.4,30.6,8.2
			c10.8,0.2,21.4-2.6,30.6-8.2c5.3-3.5,11.6-5.2,17.9-5c6.4-0.2,12.6,1.5,17.9,5c9.2,5.6,19.9,8.4,30.6,8.2
			c10.8,0.2,21.4-2.6,30.6-8.2c11-6.7,24.9-6.7,35.9,0c18.9,10.9,42.3,10.9,61.2,0c5.3-3.5,11.6-5.2,17.9-5
			c7.3,0,13.2-5.9,13.2-13.2C407.9,377.2,401.9,371.3,394.6,371.3z"/>
		<path fill="#ffffff" d="M394.6,318.4c-10.8-0.2-21.4,2.6-30.6,8.2c-11,6.7-24.9,6.7-35.9,0c-9.2-5.6-19.8-8.4-30.6-8.2
			c-10.8-0.2-21.4,2.6-30.6,8.2c-5.3,3.5-11.6,5.2-17.9,5c-6.3,0.2-12.6-1.5-17.9-5c-9.2-5.6-19.8-8.4-30.6-8.2
			c-10.8-0.2-21.4,2.6-30.6,8.2c-5.3,3.5-11.6,5.2-17.9,5c-6.3,0.2-12.6-1.5-17.9-5c-9.2-5.6-19.8-8.5-30.6-8.2
			c-7.3,0-13.2,5.9-13.2,13.2c0,7.3,5.9,13.2,13.2,13.2c6.3-0.2,12.6,1.5,17.9,5c9.2,5.6,19.8,8.4,30.6,8.2
			c10.8,0.2,21.4-2.6,30.6-8.2c5.3-3.5,11.6-5.2,17.9-5c6.3-0.2,12.6,1.5,17.9,5c9.2,5.6,19.8,8.4,30.6,8.2
			c10.8,0.2,21.4-2.6,30.6-8.2c11-6.7,24.8-6.7,35.9,0c18.9,11,42.3,11,61.2,0c5.3-3.5,11.6-5.2,17.9-5c7.3,0,13.2-5.9,13.2-13.2
			C407.9,324.3,401.9,318.4,394.6,318.4z"/>
</svg>
