<svg width="500" height="500" viewBox="0 0 500 500" fill="none" xmlns="http://www.w3.org/2000/svg">
<rect fill="none" width="500" height="500"/>
<path fill="#ffffff" d="M380.2,273.3c-19.6-24.6-43.1-43.3-67.7-62.8c-5.3,14.6-9.6,27.2-17.3,41.1c-12.3,22.5-33.9,51.3-41.2,78.7
		c-1.6,5.3-2.5,10.8-2.5,16.5c0,0.2,0,0.4,0,0.5c0,3.1,0.2,6.1,0.7,9.1c0.6,3.2,1.4,6.1,2.4,8.9c7.7,21.9,28.6,39.1,54.9,45.1
		c-0.2-0.1-0.4-0.2-0.5-0.3c-16.8-10.7-25.9-33.2-15.8-60c6.7-17.9,22.8-25.8,22.8-25.8c-10.7,14.6-8.5,25.8-2.9,26.2
		c9.3,0.7,8.7-11.2,15.1-26c7.7-17.7,15.8-18.1,15.8-18.1c-4.2,14.1,1.7,26.8,12.8,37.7c23,21.6,14.9,52-2.7,65.6
		c32-8.4,55.2-33.4,55.2-63c0-0.1,0-0.2,0-0.3C411,320.1,396.5,293.8,380.2,273.3z"/>
	<path fill="#ffffff" d="M269,263.4c4.4-7.1,8.5-13.7,11.8-19.7c0.5-1,1.1-2,1.6-3l-22.3-27.4h13.4c7.4,0,11.2-8.2,6.7-13.4l-73.6-90.7
		c-3-4.5-9.7-4.5-12.6,0l-72.1,89.2c-4.5,5.2,0,13.4,6.7,13.4h13.4l-42.4,52c-5.9,8.2-0.7,20.1,9.7,20.1h21.6l-44.6,55.8
		c-7.4,9.7-0.7,23.8,11.2,23.8h82.8l-1.9,47.1h45.8l-2.1-45.6h15.4c-0.5-1.8-0.9-3.7-1.2-5.6c-0.7-3.8-1-7.8-1-11.9
		c0-0.2,0-0.4,0-0.6c0-7.1,1.1-14.2,3.1-21.1C244.1,303.9,257.4,282.4,269,263.4z"/>
</svg>
