<svg width="500" height="500" viewBox="0 0 500 500" fill="none" xmlns="http://www.w3.org/2000/svg">
<rect fill="none" width="500" height="500"/>
<path fill="#FFFFFF" d="M251.5,161.1c36.4,0,62.1,7.3,73,13.5h0c2.7,1.6,6.2,0.6,7.8-2.1c1.6-2.7,0.6-6.2-2.1-7.8
	c-12.1-6.9-40-15-78.7-15c-3.2,0-5.7,2.6-5.7,5.7C245.8,158.6,248.4,161.1,251.5,161.1L251.5,161.1z"/>
<path fill="#FFFFFF" d="M172.9,174.6c12.1,6.9,40,15,78.7,15c3.2,0,5.7-2.6,5.7-5.7s-2.6-5.7-5.7-5.7c-36.4,0-62.1-7.3-73-13.5
	c-2.7-1.6-6.2-0.6-7.8,2.1C169.2,169.6,170.1,173.1,172.9,174.6L172.9,174.6z"/>
<path fill="#FFFFFF" d="M434.2,397.6c-0.3-2.7-2.4-4.8-5.1-5.1l0,0c-33-3.7-58.1-24.4-67.1-55.6c-6.5-22.4-2-166.9-2-167.2
	c0-27.8-55.9-42.8-108.5-42.8c-48.7,0-100.1,12.9-107.6,36.8c-0.7,2.2-1,4.5-0.9,6.9c0.1,6.3,4.4,143.9-2.1,166.4
	c-9,31.1-34.1,51.9-67.1,55.5c-2.7,0.3-4.8,2.4-5.1,5.1c-0.3,2.7,1.3,5.2,3.9,6c18.3,5,37.4,6.2,56.2,3.4
	c18.8-2.8,36.7-9.4,52.8-19.5c-2.2,11.2-9,29.8-29.6,49.4c-1.7,1.6-2.3,4.2-1.3,6.4c0.9,2.2,3.2,3.6,5.5,3.5
	c3.3-0.2,73.2-4.3,95.3-44.2c22.1,39.9,92,44,95.3,44.2c0.1,0,0.2,0,0.3,0c2.3,0,4.4-1.4,5.3-3.6c0.9-2.2,0.3-4.6-1.4-6.3
	c-20.8-19.7-27.5-38.2-29.7-49.4v0c15.4,9.6,32.6,16.2,50.6,19.2c17.9,3,36.3,2.4,54-1.7C430,404.4,434.8,402.4,434.2,397.6z
	 M180.2,304.8c0,3.2-2.6,5.7-5.7,5.7s-5.7-2.6-5.7-5.7v-88.1c0-3.2,2.6-5.7,5.7-5.7s5.7,2.6,5.7,5.7V304.8z M225.7,279.3
	c0,3.2-2.6,5.7-5.7,5.7c-3.2,0-5.7-2.6-5.7-5.7v-49.6c0-3.2,2.6-5.7,5.7-5.7c3.2,0,5.7,2.6,5.7,5.7V279.3z M251.5,201.1
	c-55.6,0-97.1-16.6-97.1-31.4c0-14.8,41.5-31.4,97.1-31.4s97.1,16.6,97.1,31.4C348.6,184.5,307.1,201.1,251.5,201.1z"/>
</svg>