<svg width="500" height="500" viewBox="0 0 500 500" fill="none" xmlns="http://www.w3.org/2000/svg">
<rect fill="none" width="500" height="500"/>
	<path fill="#FFFFFF" d="M450.8,440.6h-65.6v-11.9c41.4-3.9,73.5-39,73.5-80.9l0-0.8l-0.1-0.1c-0.4-3.4-3.1-6.2-6.6-6.7
	c-24.3-3.4-44,1.2-58.4,13.8c-6.7,5.8-12.1,13.2-16.2,22.1c-4-8.8-9.5-16.2-16.2-22.1c-14.4-12.6-34.1-17.2-58.4-13.8
	c-3.8,0.5-6.6,3.8-6.6,7.6c0,41.9,32.1,77,73.5,80.9l0,11.9H126.1v-11.9c41.4-3.9,73.5-39,73.5-80.9c0-3.8-2.8-7.1-6.6-7.6
	c-24.3-3.4-44,1.2-58.4,13.8c-6.7,5.8-12.1,13.2-16.2,22.1c-4-8.8-9.4-16.2-16.2-22.1c-14.4-12.6-34.1-17.2-58.4-13.8
	c-3.8,0.5-6.6,3.8-6.6,7.6c0,41.9,32.1,77,73.5,80.9l0,11.9H44.7c-4.2,0-7.7,3.5-7.7,7.7s3.5,7.7,7.7,7.7h406.1
	c4.2,0,7.7-3.5,7.7-7.7S455.1,440.6,450.8,440.6z M110.7,410.6v2.6c-30.3-3.6-54.6-28.1-57.8-58.5c16.4-1.1,29.5,2.5,39.1,10.8
	c16.5,14.3,18.4,38.6,18.6,43.5c0,0.4,0,0.7,0,0.8C110.7,410.1,110.7,410.3,110.7,410.6z M369.8,410.6v2.5
	c-30.3-3.6-54.6-28.1-57.8-58.5c16.4-1.1,29.6,2.5,39.1,10.8c16.5,14.3,18.4,38.5,18.6,43.5c0,0.4,0,0.7,0,0.8
	C369.8,410.1,369.8,410.3,369.8,410.6z M126.1,409c0.2-4.9,2.1-29.2,18.6-43.6c9.6-8.3,22.7-11.9,39.1-10.8
	c-3.2,30.4-27.4,54.9-57.7,58.5v-3.3C126.1,409.7,126.1,409.5,126.1,409z M385.2,409c0.2-5,2.1-29.2,18.6-43.5
	c9.6-8.3,22.7-11.9,39.1-10.8c-3.2,30.4-27.4,54.9-57.7,58.5v-3.3C385.2,409.7,385.2,409.4,385.2,409z"/>
<path fill="#FFFFFF" d="M144.8,264.7c0.2,15.2,5.9,29.9,16.1,41.2c10.4,11.5,24.6,18.7,40,20.3c13.8,1.4,27.6-1.7,39.3-9v135.9h15.4
	V319.6c11.8,6.1,25.4,8.3,38.6,6.1c14.6-2.4,28-9.9,37.6-21.2c9.6-11.2,14.9-25.6,14.9-40.3c12.6-3.7,23.9-11.3,32-21.7
	c8.5-10.9,13.1-24.5,13.1-38.3c0-18.4-8-35.6-21.9-47.5c5.7-13.8,6.3-29,1.7-43.2c-4.8-14.8-14.9-27.2-28.4-35
	c-13-7.4-28-10-42.7-7.2c-7.2-13-18.7-23-32.6-28.2c-14.5-5.5-30.5-5.4-44.9,0.3c-13.8,5.4-25.2,15.5-32.2,28.5
	c-14.9-3.5-30.4-1.4-43.9,5.9c-14.1,7.6-24.6,20.1-29.6,35.3c-4.8,14.6-4.2,30.2,1.9,44.3c-11.3,9.9-18.5,23.5-20.6,38.5
	c-2.1,15.6,1.7,31.2,10.6,44.1C117.8,252.2,130.3,261,144.8,264.7z M133.2,165.7c1.6-1.1,2.7-3.8,2.7-6.2c0-2-0.6-3.9-0.7-4.3
	c-0.3-1.2-7.1-25.3-3.4-37c3.9-12,12.6-22.2,24-27.8c11.3-5.6,24.7-6.4,36.6-2.2l0.4,0.1h0.1c0.2,0.1,0.5,0.1,0.7,0.2l1.8,0
	c0.3,0,0.8,0,1.4-0.2l0.2,0c0.5-0.1,0.9-0.3,1.3-0.5l0.1-0.1c0.3-0.2,0.7-0.4,1-0.6l0.3-0.2l-0.6-0.8l0.7,0.8
	c0.2-0.2,0.5-0.4,0.7-0.6l0.1-0.1c0.1-0.1,0.2-0.2,0.2-0.3c0.3-0.3,0.5-0.6,0.7-0.9l0.1-0.2c0.2-0.4,0.4-0.7,0.6-1.1
	c4.7-11.7,13.7-20.8,25.3-25.8c11.4-4.9,24.6-5,36.1-0.3c11.5,4.7,20.6,13.5,25.5,24.9l-0.2,0.2l0.9,1.3l0.3,0.6h0.1
	c0.2,0.3,0.4,0.5,0.7,0.8c2,2,4.9,2.7,7.6,1.9c12.1-3.6,24.8-2.4,35.9,3.6c11.1,6,19.2,15.9,22.8,28c3.6,11.9,2.2,25-3.7,35.9
	l-0.3,0.6v0.2c-1.5,3.3-0.4,7.3,2.7,9.4c10.3,7,17.6,18.1,19.8,30.5c2.3,12.3-0.6,25.3-7.7,35.5c-7.2,10.2-18.3,17.3-30.6,19.4
	c-0.3,0-0.5,0.1-0.7,0.2c-0.2,0.1-0.5,0.1-0.7,0.2c-0.2,0.1-0.5,0.2-0.7,0.3l-0.4,0.2l-0.8,0.6c-0.2,0.1-0.3,0.3-0.5,0.4l-0.8,0.7
	v0.1c-0.1,0.1-0.1,0.2-0.2,0.3c-0.1,0.2-0.3,0.4-0.4,0.6c-0.1,0.2-0.2,0.4-0.4,0.6c-0.1,0.2-0.2,0.5-0.3,0.8
	c-0.1,0.2-0.1,0.4-0.2,0.7c-0.1,0.2-0.1,0.5-0.1,0.7c0,0.2-0.1,0.5-0.1,0.8c0,0.3,0,0.5,0,0.7l0,0.6c1.4,13.3-2.9,26.6-11.8,36.5
	c-8.9,9.9-21.7,15.6-35,15.6c0,0-0.1,0-0.1,0c-10.3,0-20.4-3.4-28.5-9.7v-23.7c0.1-0.1,0.1-0.1,0.2-0.2l36.5-40.4
	c1.4-1.5,2.1-3.5,2-5.6c-0.1-2.1-1-4-2.5-5.3c-1.5-1.4-3.5-2.1-5.6-2c-2.1,0.1-4,1-5.3,2.5l-25.2,28v-37.8l15.7-17.4l0.8-0.9
	c2.7-3.2,2.4-8-0.7-10.8c-3.1-2.8-7.9-2.6-10.8,0.5l-5,5.6v-8.7c0-4.3-3.5-7.7-7.7-7.7s-7.7,3.5-7.7,7.7v36.3l-11.1-10
	c-1.5-1.5-3.6-2.3-5.6-2.2c-2.1,0.1-4.1,1-5.5,2.6c-1.4,1.6-2.1,3.6-1.9,5.7c0.2,2.1,1.2,4,2.7,5.3l21.6,19.3v55.6
	c-8.9,8.7-20.6,13.4-33.1,13.3c-12.5-0.1-24.3-5-33.2-13.9c-8.8-8.9-13.7-20.7-13.7-33.2c0-1-0.2-1.9-0.5-2.8
	c0.2-0.6,0.4-1.1,0.5-1.7c0.6-4.2-2.3-8.1-6.5-8.7c-12.4-1.8-23.7-8.7-31.1-18.8c-7.4-10.1-10.5-23-8.5-35.4
	C116,184.2,123,173,133.2,165.7L133.2,165.7z"/>
</svg>
