<svg width="500" height="500" viewBox="0 0 500 500" fill="none" xmlns="http://www.w3.org/2000/svg">
<rect fill="none" width="500" height="500"/>
<path fill="#ffffff" d="M317.7,294.1c60.3-79.6,100-200.3,2.6-231.7C245.1,38,80.4,73.7,88.5,135.4c-1.6,45.7,36,75.8,67.2,93.8
	c37.8,24,55.2,37.2,36,74.7c-18.7,34.2,4.8,81.2,44,85c26.5,1.8,39.7,23.7,33.8,45.3c-1.1,5.1,1.5,10.2,6.3,12.5
	c4.6,2.2,10.5,0.8,13.5-3.2c22.1-27.9,31.5-49.1,28.8-64.7C311.2,346.4,257.2,359.7,317.7,294.1z M295.1,380.5
	c3,1.4-0.8,22.2-4.9,29.5c-12.7-52-59.5-29.3-78.1-62c-5.7-10.7-5.8-23.1-0.2-34c39.7-72.8-42.3-95.4-83.8-133
	c28,11.7,75.7,12.3,120.7,5.5c0.9-0.1,1.8-0.3,2.7-0.5c48.9-8.2,93-29.4,89.7-57.6c-3.6-30.7-60.1-40.4-114-34
	c-33.8,4-64,13.6-82.8,26.3c-4.9,3.3-6.1,9.9-2.9,14.8c3.3,4.9,9.9,6.2,14.7,2.9c15.9-10.8,43.4-19.3,73.5-22.9
	c25-2.9,48.7-2.1,66.9,2.2c16.7,4,23.3,10,23.6,13.1c0.4,3-4.7,10.4-20,18.2c-12.5,6.3-28.4,11.4-46.2,14.8
	c-63.7,10.7-136.6,3-142.9-26.6c-1.4-28,52.2-52.8,109.6-60.3c57.4-7.5,137.7-1.2,137.7,59.4c-1,42.3-15.7,89.8-58.7,144.3
	C271.8,308.5,246.1,351.4,295.1,380.5z"/>
</svg>
