<svg width="500" height="500" viewBox="0 0 500 500" fill="none" xmlns="http://www.w3.org/2000/svg">
<rect fill="none" width="500" height="500"/>
	<path fill="#FFFFFF" d="M437.3,286.2H317l2.1-8.1h0c1.6-6,7-10.2,13.2-10.2h104.9c5,0,9.1-4.1,9.1-9.1c0-5-4.1-9.1-9.1-9.1h-53.9
	c1.1-38,9-60.9,13.5-70.9h0c10,4.3,18.5,11.6,24.1,20.9c2.6,4.3,8.2,5.7,12.5,3.1c2.1-1.2,3.6-3.3,4.2-5.6c0.6-2.3,0.2-4.8-1-6.9
	c-5.8-9.7-14-17.9-23.7-23.7c3.1-1.3,6.4-1.8,9.7-1.3c3.3,0.5,6.4,2,8.9,4.2c1.7,1.7,4,2.7,6.5,2.7c2.4,0,4.8-0.9,6.5-2.7
	c1.7-1.7,2.7-4.1,2.7-6.5c0-2.4-1-4.8-2.7-6.5c-14.7-14.7-34.2-10.1-47.7-2.8h0c-2.7-4.6-6.4-8.6-10.8-11.7
	c-11.2-7.9-26.5-10.1-45.4-6.3c-2.4,0.4-4.5,1.8-5.9,3.8c-1.4,2-1.9,4.5-1.4,6.9c0.5,2.4,1.9,4.5,3.9,5.8c2,1.3,4.5,1.8,6.9,1.3
	c12.9-2.6,23.2-1.7,30.1,2.6c-14.5,0.8-28.5,5-41,12.5c-2.1,1.2-3.7,3.2-4.4,5.5c-0.7,2.3-0.3,4.9,0.9,7c1.2,2.1,3.2,3.7,5.6,4.3
	c2.4,0.6,4.9,0.3,7-1c11-6.8,23.7-10.3,36.7-10.2c-5.4,13.2-12.7,37.6-13.7,75.2h-32.7c-7,0-13.9,2.3-19.4,6.6
	c-5.6,4.3-9.6,10.3-11.4,17.1l-25.7,97.3c-2.6,9.7-8.3,18.3-16.3,24.4c-8,6.1-17.7,9.5-27.8,9.5H63.4c-5,0-9.1,4.1-9.1,9.1
	c0,5,4.1,9.1,9.1,9.1h168.4c14.1,0,27.7-4.7,38.9-13.3c11.2-8.6,19.2-20.6,22.8-34.2l18.8-71h125.1c5,0,9.1-4.1,9.1-9.1
	C446.4,290.3,442.3,286.2,437.3,286.2L437.3,286.2z"/>
<path fill="#FFFFFF" d="M279.3,249.4c-7.9-0.2-15.7,1.9-22.5,6.1c-8.1,4.9-18.3,4.9-26.4,0c-6.8-4.1-14.6-6.2-22.5-6.1
	c-7.9-0.2-15.7,1.9-22.5,6.1c-3.9,2.5-8.5,3.8-13.2,3.7c-4.7,0.1-9.3-1.1-13.2-3.7c-6.8-4.1-14.6-6.2-22.5-6.1
	c-7.9-0.2-15.7,1.9-22.5,6.1c-3.9,2.5-8.5,3.8-13.2,3.7c-4.7,0.1-9.3-1.1-13.2-3.7c-6.8-4.1-14.6-6.2-22.5-6.1
	c-5.4,0-9.7,4.4-9.7,9.7c0,5.4,4.4,9.7,9.7,9.7c4.7-0.1,9.3,1.1,13.2,3.7c6.8,4.1,14.6,6.2,22.5,6.1c7.9,0.2,15.7-1.9,22.5-6.1
	c3.9-2.5,8.5-3.8,13.2-3.7c4.7-0.1,9.3,1.1,13.2,3.7c6.8,4.1,14.6,6.2,22.5,6.1c7.9,0.2,15.7-1.9,22.5-6.1c8.1-4.9,18.3-4.9,26.4,0
	c13.9,8.1,31.1,8.1,45,0c3.9-2.5,8.5-3.8,13.2-3.7c5.4,0,9.7-4.4,9.7-9.7C289,253.8,284.7,249.4,279.3,249.4z"/>
<path fill="#FFFFFF" d="M240,374.4c-0.4,0-0.9,0-1.3,0.1c-2.9-0.6-5.7-1.6-8.3-3.2c-6.8-4.1-14.6-6.2-22.5-6.1
	c-7.9-0.2-15.7,1.9-22.5,6.1c-3.9,2.5-8.5,3.8-13.2,3.7c-4.7,0.1-9.3-1.1-13.2-3.7c-6.8-4.1-14.6-6.2-22.5-6.1
	c-7.9-0.2-15.7,1.9-22.5,6.1c-3.9,2.5-8.5,3.8-13.2,3.7c-4.7,0.1-9.3-1.1-13.2-3.7c-6.8-4.1-14.6-6.2-22.5-6.1
	c-5.4,0-9.7,4.4-9.7,9.7c0,5.4,4.4,9.7,9.7,9.7c4.7-0.1,9.3,1.1,13.2,3.7c6.8,4.1,14.6,6.2,22.5,6.1c7.9,0.2,15.7-1.9,22.5-6.1
	c3.9-2.5,8.5-3.8,13.2-3.7c4.7-0.1,9.3,1.1,13.2,3.7c6.8,4.1,14.6,6.2,22.5,6.1c7.9,0.2,15.7-1.9,22.5-6.1c8.1-4.9,18.3-4.9,26.4,0
	c5.2,3,10.9,4.9,16.6,5.7c0.7,0.2,1.5,0.3,2.2,0.3c5.5,0,10-4.5,10-10C249.9,378.9,245.5,374.4,240,374.4z"/>
<path fill="#FFFFFF" d="M272.7,340.2c0-5.5-4.5-10-10-10c-2.6,0-5,1-6.8,2.7c-8,4.4-17.7,4.2-25.5-0.5c-6.8-4.1-14.6-6.2-22.5-6.1
	c-7.9-0.2-15.7,1.9-22.5,6.1c-3.9,2.5-8.5,3.8-13.2,3.7c-4.7,0.1-9.3-1.1-13.2-3.7c-6.8-4.1-14.6-6.2-22.5-6.1
	c-7.9-0.2-15.7,1.9-22.5,6.1c-3.9,2.5-8.5,3.8-13.2,3.7c-4.7,0.1-9.3-1.1-13.2-3.7c-6.8-4.1-14.6-6.2-22.5-6.1
	c-5.4,0-9.7,4.4-9.7,9.7c0,5.4,4.4,9.7,9.7,9.7c4.7-0.1,9.3,1.1,13.2,3.7c6.8,4.1,14.6,6.2,22.5,6.1c7.9,0.2,15.7-1.9,22.5-6.1
	c3.9-2.5,8.5-3.8,13.2-3.7c4.7-0.1,9.3,1.1,13.2,3.7c6.8,4.1,14.6,6.2,22.5,6.1c7.9,0.2,15.7-1.9,22.5-6.1c8.1-4.9,18.3-4.9,26.4,0
	c13.9,8,31,8.1,44.8,0.1C269.9,348.2,272.7,344.5,272.7,340.2z"/>
<path fill="#FFFFFF" d="M278.9,299.4c0-5.5-4.5-10-10-10c-2.2,0-4.3,0.7-5.9,2c-2.1,0.8-4.2,1.9-6.2,3.1c-8.1,4.9-18.3,4.9-26.4,0
	c-6.8-4.1-14.6-6.2-22.5-6.1c-7.9-0.2-15.7,1.9-22.5,6.1c-3.9,2.5-8.5,3.8-13.2,3.7c-4.7,0.1-9.3-1.1-13.2-3.7
	c-6.8-4.1-14.6-6.2-22.5-6.1c-7.9-0.2-15.7,1.9-22.5,6.1c-3.9,2.5-8.5,3.8-13.2,3.7c-4.7,0.1-9.3-1.1-13.2-3.7
	c-6.8-4.1-14.6-6.2-22.5-6.1c-5.4,0-9.7,4.4-9.7,9.7s4.4,9.7,9.7,9.7c4.7-0.1,9.3,1.1,13.2,3.7c6.8,4.1,14.6,6.2,22.5,6.1
	c7.9,0.2,15.7-1.9,22.5-6.1c3.9-2.5,8.5-3.8,13.2-3.7c4.7-0.1,9.3,1.1,13.2,3.7c6.8,4.1,14.6,6.2,22.5,6.1
	c7.9,0.2,15.7-1.9,22.5-6.1c8.1-4.9,18.3-4.9,26.4,0c13.9,8.1,31.1,8.1,45,0c1.6-1.1,3.4-1.9,5.2-2.5
	C275.7,308,278.9,304.1,278.9,299.4z"/>
</svg>
