<svg width="500" height="500" viewBox="0 0 500 500" fill="none" xmlns="http://www.w3.org/2000/svg">
<rect fill="none" width="500" height="500"/>
	<path fill="#FFFFFF" d="M266.3,230.5c-14-3.6-20-3.6-34,0l17,29.4L266.3,230.5z"/>
<path fill="#FFFFFF" d="M298.5,286.2h-34l17,29.4C291.5,305.4,294.5,300.3,298.5,286.2z"/>
<path fill="#FFFFFF" d="M381.7,112.2c0-26-61.7-48.5-132.5-48.5c-70.9,0-132.5,23.9-132.5,48.5c0,0,0,0.1,0,0.1v0.1v5.2v0.1
	c0,0,0,0.1,0,0.1c0,5.7,3.3,11.3,9.2,16.7v0.1c19.7,17.8,68.8,31.9,123.3,31.9c54.5,0,103.6-13.3,123.3-31.3v13.7
	c-19.7,18-68.8,31.3-123.3,31.3s-103.6-14.1-123.3-31.9v-13.6c-5.9,5.3-9.2,11-9.2,16.7c0,0,0,0.1,0,0.1v0.1v5.2v0.1
	c0,0,0,0.1,0,0.1c0,5.7,3.3,11.3,9.2,16.7v50.6c-5.9,5.3-9.2,11-9.2,16.7c0,0,0,0.1,0,0.1v0.1v5.2v0.1c0,0,0,0.1,0,0.1
	c0,5.7,3.3,11.3,9.2,16.7V314c-5.9,5.3-9.2,11-9.2,16.7c0,0,0,0.1,0,0.1v0.1v5.2v0.1c0,0,0,0.1,0,0.1c0,5.6,3.2,11.1,8.9,16.4
	c-5.7,5.2-8.9,10.8-8.9,16.4c0,0,0,0.1,0,0.1v0.1v5.2v0.1c0,0,0,0.1,0,0.1c0,24.7,61.7,48.5,132.5,48.5
	c70.9,0,132.5-22.5,132.5-48.5c0,0,0-0.1,0-0.1c0,0,0-1.1,0-2.7c0-1.7,0-2.8,0-2.7c0,0,0-0.1,0-0.1c0-5.7-2.9-11.2-8.3-16.4
	c5.3-5.2,8.3-10.7,8.3-16.4c0,0,0-0.1,0-0.1c0,0,0-5.6,0-5.6c0-6-3.3-11.8-9.2-17.2V264c5.9-5.4,9.2-11.2,9.2-17.2c0,0,0-0.1,0-0.1
	c0,0,0-5.6,0-5.6c0-6-3.3-11.8-9.2-17.2v-49.4c5.9-5.4,9.2-11.2,9.2-17.2c0,0,0-0.1,0-0.1c0,0,0-1.1,0-2.7c0-1.7,0-2.8,0-2.7
	c0,0,0-0.1,0-0.1c0-5.8-3.1-11.5-8.7-16.7c5.6-5.3,8.7-10.9,8.7-16.7c0,0,0-0.1,0-0.1c0,0,0-1.1,0-2.7c0-1.7,0-2.8,0-2.7
	C381.7,112.3,381.7,112.3,381.7,112.2z M326.2,123.7c-7.1,0-12.8-3.8-12.8-8.6s5.7-8.6,12.8-8.6s12.8,3.8,12.8,8.6
	S333.3,123.7,326.2,123.7z M182.8,268.8h51.6l-25.8-44.7c24-18.4,57.4-18.3,81.4,0l-25.8,44.7h51.6c3.9,30-12.8,58.9-40.7,70.5
	l-25.8-44.7l-25.8,44.7C195.6,327.7,178.9,298.8,182.8,268.8z M372.5,367.6c-19.7,18-68.8,31.3-123.3,31.3S145.6,384.8,125.9,367
	v-13.7c19.7,17.8,68.8,31.9,123.3,31.9c54.5,0,103.6-13.3,123.3-31.3V367.6z"/>
<path fill="#FFFFFF" d="M234.2,286.2h-33.9c3.9,14,6.9,19.2,17,29.4L234.2,286.2z"/>
</svg>