<svg width="500" height="500" viewBox="0 0 500 500" fill="none" xmlns="http://www.w3.org/2000/svg">
<rect fill="none" width="500" height="500"/>
<path fill="#FFFFFF" d="M138.6,350.7H54.8L141.9,212l9.8,27.7l28.3-16.4l11.8,39.4l20.1-19.3l15.4,16.1c2,2.1,3.6,4.5,4.9,7.1
		c7.1,14.3,1.3,31.6-13,38.9l-45.7,22.7c-13.8,6.9-19.4,23.8-12.5,37.6c6.9,13.9,23.7,19.6,37.6,12.7c3.6-1.9,6.9-4.5,9.5-7.8
		c5.3,19.4,25.3,30.7,44.5,25.2c6.2-1.6,11.8-4.9,16.3-9.4c21.7,13.5,50.4,7,64.1-14.8c0.6-1.1,1.4-2.4,2-3.8
		c9.5,7.5,23.3,6,30.9-3.5c7.5-9.5,6-23.2-3.5-30.7c-1.9-1.6-4-2.9-6.4-3.5L290.3,307c-3-1.1-5.9-2.8-8.5-4.8
		c-12.4-10-14.4-28.3-4.4-40.8l19.4-24.1l19.9,24.1l5.4-44.2l17,5.8l4-27.7l17.1,7l0.9,0.5l78.8,147.7h-49.8c0,2.1-0.1,4.4-0.4,6.7
		c-0.5,3-1.3,5.9-2.4,8.7h78.2l-159-298.1l-69.4,102.7l-50.1-59.1L27.1,366h113.2C139,361.1,138.3,356,138.6,350.7z"/>
</svg>
