<svg width="500" height="500" viewBox="0 0 500 500" fill="none" xmlns="http://www.w3.org/2000/svg">
<rect fill="none" width="500" height="500"/>
	<path fill="#FFFFFF" d="M277.4,365.6l16-22.5h-79.7l19.1,22.5H277.4z"/>
	<path fill="#FFFFFF" d="M234.3,377.8l-4,10.9l47.7,34.6l30.7-22.4l-30.3-23.1H234.3z"/>
	<path fill="#FFFFFF" d="M218.3,385.7L223,373l-25.3-29.9h-34.3l3.2,25.6l24.8,23.1L218.3,385.7z"/>
	<path fill="#FFFFFF" d="M333.8,366l-9.1-22.9h-16.3l-19.5,27.3l28.4,21.7L333.8,366z"/>
	<path fill="#FFFFFF" d="M351.2,428.5l5,18.3h65.1v-11.5L381.7,422L351.2,428.5z"/>
	<path fill="#FFFFFF" d="M318.4,408.9l-32.7,23.8l7,14.1h50.9l-5.4-19.7L318.4,408.9z"/>
	<path fill="#FFFFFF" d="M221.6,397.5l-29.5,6.7l-29.9,20.5l22.2,22.1h94.7l-6-11.9L221.6,397.5z"/>
	<path fill="#FFFFFF" d="M410.4,372.3l27.2,26.7h4.1V348L410.4,372.3z"/>
	<path fill="#FFFFFF" d="M392.2,377.1l-48.4-4l-17,26.9l18.7,17.2l32.2-6.8L392.2,377.1z"/>
	<path fill="#FFFFFF" d="M344.9,360.9l54.5,4.5l28.8-22.3h-90.3L344.9,360.9z"/>
	<path fill="#FFFFFF" d="M430.8,409.4l-27.5-27.1L390.4,412l39.1,13.1c2.5,0.9,4.2,3.2,4.2,5.8l0,15.9h8.1v-35.6h-6.6
		C433.5,411.1,431.9,410.5,430.8,409.4L430.8,409.4z"/>
	<path fill="#FFFFFF" d="M179.8,397.8l-21.4-20h-52.3l-3.3,30.4l48.5,9.2L179.8,397.8z"/>
	<path fill="#FFFFFF" d="M95,419.1C95,419.1,95,419.1,95,419.1c-0.6-0.2-1.1-0.3-1.6-0.6L66,404.8l0,41.9h101.1l-17.3-17.3L95,419.1z"
		/>
	<path fill="#FFFFFF" d="M102.8,365.6h51.1l-2.7-22.5H73.5L102.8,365.6z"/>
	<path fill="#FFFFFF" d="M94.2,374.4l-31-23.8v39.2L91,403.8L94.2,374.4z"/>
<path fill="#FFFFFF" d="M193.2,290.8c0.1,0,0.1-0.1,0.1-0.1c3.9-4.9,24.4-31.2,24.4-43.8c0-9.6-5.6-18.4-14.3-22.5v-8.5
	c0-9.9,8-17.9,17.9-17.9h17.9v138.8h21.5V140.5c0.3-15.7,13.2-28.3,28.9-28.3c15.6,0,28.3,12.7,28.3,28.3c0,0.1,0,0.2,0,0.3h0v4.9
	c-8.7,4.1-14.3,12.9-14.3,22.5c0,12.5,20.5,38.9,24.4,43.8c0.3,0.3,0.8,0.4,1.1,0.1c0.1,0,0.1-0.1,0.1-0.1
	c3.9-4.9,24.4-31.2,24.4-43.8c0-9.6-5.6-18.4-14.3-22.5v-4.9h0c0-0.1,0-0.2,0-0.3c0-27.5-22.3-49.7-49.7-49.7
	c-27.6,0-50.1,22.2-50.4,49.7v36.1h-17.9c-1.2,0-2.4,0.1-3.6,0.2c-18.8,1.8-33.7,16.7-35.5,35.5c-0.1,1.2-0.2,2.4-0.2,3.6v8.5
	c-8.7,4.1-14.3,12.9-14.3,22.5c0,12.5,20.5,38.9,24.4,43.8C192.3,291,192.8,291.1,193.2,290.8z"/>
</svg>