<svg width="500" height="500" viewBox="0 0 500 500" fill="none" xmlns="http://www.w3.org/2000/svg">
<rect fill="none" width="500" height="500"/>
<path fill="#ffffff" d="M389.4,218.1c-5.1,0-9.3,4.2-9.3,9.3l0,0v9.3h-25.6c-2.2-19.3-9.8-37.5-21.9-52.7l18.1-18.1l7.3,6.2
	c3.6,3.6,9.5,3.6,13.2,0c3.6-3.6,3.6-9.5,0-13.2l0,0l-31-30.9c-3.6-3.6-9.5-3.6-13.2,0c-3.6,3.6-3.6,9.5,0,13.2l0,0l6.2,7.3
	l-18.1,18.1c-15.2-12-33.5-19.6-52.7-21.9V119h9.3c5.1,0,9.3-4.2,9.3-9.3s-4.2-9.3-9.3-9.3l0,0h-43.3c-5.1,0-9.3,4.2-9.3,9.3
	s4.1,9.3,9.2,9.3h9.3v25.6c-19.3,2.2-37.5,9.8-52.7,21.9l-18.1-18.1l6.2-7.3c3.6-3.6,3.6-9.5,0-13.2c-3.6-3.6-9.5-3.6-13.2,0l0,0
	l-30.2,31c-3.6,3.6-3.6,9.5,0,13.2c3.6,3.6,9.5,3.6,13.1,0l6.5-6.2l18.1,18.1c-12,15.2-19.6,33.5-21.9,52.7H120v-9.3
	c0-5.1-4.2-9.3-9.3-9.3c-5.1,0-9.3,4.2-9.3,9.3v43.3c0,5.1,4.2,9.3,9.3,9.3s9.3-4.1,9.3-9.2l0,0v-9.3h25.6
	c2.2,19.3,9.8,37.5,21.9,52.7l-18.1,18.1l-7.3-6.2c-3.6-3.6-9.5-3.6-13.2,0c-3.6,3.6-3.6,9.5,0,13.2l31,30.9c3.6,3.6,9.5,3.6,13.2,0
	c3.6-3.6,3.6-9.5,0-13.2l0,0l-6.2-7.3l18.1-18.1c15.2,12,33.5,19.6,52.7,21.9v25.6h-9.3c-5.1,0-9.3,4.2-9.3,9.3s4.2,9.3,9.3,9.3
	h43.3c5.1,0,9.3-4.2,9.3-9.3s-4.2-9.3-9.3-9.3l0,0h-9.3v-25.6c19.3-2.2,37.5-9.8,52.7-21.9l18.1,18.1l-6.2,7.3
	c-3.6,3.6-3.6,9.5,0,13.2s9.5,3.6,13.2,0l31-31c3.6-3.6,3.6-9.5,0-13.2c-3.6-3.6-9.5-3.6-13.2,0l-7.3,6.2l-18.1-18.1
	c12-15.2,19.6-33.5,21.9-52.7h25.6v9.3c0,5.1,4.2,9.3,9.3,9.3s9.3-4.2,9.3-9.3l0,0v-43.3C398.7,222.2,394.6,218.1,389.4,218.1
	L389.4,218.1z M216,224.3c-12,0-21.7-9.7-21.7-21.7s9.7-21.7,21.7-21.7s21.7,9.7,21.7,21.7C237.6,214.6,228,224.3,216,224.3
	L216,224.3z M287.2,304.8c-6.8,0-12.4-5.6-12.4-12.4s5.6-12.4,12.4-12.4c6.8,0,12.4,5.6,12.4,12.4S294.1,304.8,287.2,304.8z"/>
</svg>