<svg width="500" height="500" viewBox="0 0 500 500" fill="none" xmlns="http://www.w3.org/2000/svg">
<rect fill="none" width="500" height="500"/>
<path fill="#ffffff" d="M379.8,239.7c22.4-29.4,28.8-56,17.9-74.9c-8.8-15.3-27.5-23.3-54-23.3c-10.1,0-21.4,1.2-33.6,3.7
	C295.7,103,273.6,79,249,79c-24.6,0-46.7,24.1-61,66.1c-12.2-2.4-23.4-3.7-33.6-3.7c-26.5,0-45.2,8.1-54,23.3
	c-10.9,18.9-4.6,45.5,17.9,75c2.7,3.5,5.6,7.1,8.9,10.9c-3.3,3.8-6.3,7.4-8.9,10.9c-22.5,29.4-28.8,56.1-17.9,74.9
	c8.8,15.3,27.5,23.3,54,23.3c10.1,0,21.4-1.2,33.6-3.7c14.3,42.1,36.4,66.1,61,66.1c24.6,0,46.7-24.1,61-66.1
	c12.1,2.4,23.4,3.7,33.6,3.7c26.5,0,45.2-8.1,54-23.3c12.3-21.3,2.5-52.5-26.8-85.9C374.2,246.8,377.1,243.2,379.8,239.7z
	 M325.1,230.3c8.2,6.6,15.8,13.4,22.7,20.3c-6.9,6.9-14.5,13.7-22.7,20.3c0.3-6.8,0.5-13.6,0.5-20.4
	C325.6,243.9,325.4,237.1,325.1,230.3z M323.3,207.7c-1.8-16.4-4.6-32.1-8.5-46.5c10.5-2,20.1-3,28.8-3c14.1,0,32.4,2.6,39.5,15
	c7.2,12.5,1.1,33-16.7,56.4c-2.1,2.8-4.5,5.7-7.1,8.7C348.7,227.7,336.6,217.5,323.3,207.7z M323.3,293.5
	c13.3-9.8,25.4-20,35.9-30.5c23.1,26.7,32.1,50.9,23.9,65.1c-7.1,12.4-25.4,15-39.5,15c-8.6,0-18.3-1-28.8-3
	C318.7,325.6,321.5,309.9,323.3,293.5z M304.6,306.3c-1.6,10.4-3.7,20.4-6.2,29.8c-9.3-2.5-19-5.7-28.9-9.5c6-3.1,12-6.3,17.9-9.7
	C293.1,313.6,298.9,310.1,304.6,306.3z M249,336.3c15.2,6.6,30.1,12,44.5,15.9c-11.6,33.5-28.1,53.3-44.5,53.3
	c-16.4,0-32.9-19.8-44.5-53.3C218.9,348.3,233.8,342.9,249,336.3z M210.7,316.9L210.7,316.9c5.8,3.4,11.8,6.6,17.9,9.7
	c-9.9,3.8-19.6,7-28.9,9.5c-2.5-9.4-4.6-19.4-6.2-29.8C199.2,310,204.9,313.6,210.7,316.9z M193.4,194.8c1.6-10.4,3.7-20.4,6.2-29.8
	c9.4,2.5,19,5.7,28.9,9.5c-6.1,3.1-12.1,6.4-17.9,9.7C204.9,187.6,199.2,191.1,193.4,194.8z M204.5,149
	c11.6-33.5,28.1-53.3,44.5-53.3c16.4,0,32.9,19.8,44.5,53.3c-14.4,3.9-29.3,9.2-44.5,15.9C233.8,158.3,218.9,152.9,204.5,149z
	 M287.3,184.3c-5.8-3.4-11.8-6.6-17.9-9.7c9.9-3.8,19.6-7,28.9-9.5c2.5,9.4,4.6,19.4,6.2,29.8C298.9,191.1,293.1,187.6,287.3,184.3z
	 M308.9,250.6c0,11.2-0.5,22.6-1.5,33.7c-9.1,6.4-18.7,12.5-28.4,18.1c-9.7,5.6-19.7,10.8-29.9,15.5c-10.2-4.7-20.3-9.9-29.9-15.5
	c-9.7-5.6-19.2-11.7-28.4-18.1c-1-11.2-1.5-22.5-1.5-33.7c0-11.2,0.5-22.6,1.5-33.7c9.1-6.4,18.7-12.5,28.4-18.1
	c9.7-5.6,19.7-10.8,29.9-15.5c10.1,4.7,20.2,9.9,29.9,15.5c9.7,5.6,19.2,11.7,28.4,18.2C308.3,228,308.9,239.4,308.9,250.6z
	 M172.9,271c-8.3-6.7-15.9-13.5-22.8-20.4c6.9-6.9,14.5-13.7,22.8-20.4c-0.3,6.8-0.5,13.7-0.5,20.4
	C172.4,257.3,172.6,264.2,172.9,271z M174.7,207.7c-13.4,9.8-25.5,20.1-36,30.6c-2.6-3-5-5.9-7.1-8.7l0,0
	c-17.8-23.4-23.9-43.9-16.7-56.4c7.1-12.4,25.4-15,39.5-15c8.6,0,18.3,1,28.8,3C179.4,175.6,176.5,191.2,174.7,207.7z M138.7,262.9
	c10.6,10.5,22.7,20.8,36,30.6c1.8,16.5,4.6,32.1,8.5,46.5c-10.5,2-20.1,3-28.8,3c-14.1,0-32.4-2.6-39.5-15
	c-7.2-12.5-1.1-33.1,16.7-56.4C133.7,268.8,136.1,265.9,138.7,262.9z"/>
<circle fill="#ffffff" cx="249" cy="250.6" r="22.7"/>
</svg>