<svg width="500" height="500" viewBox="0 0 500 500" fill="none" xmlns="http://www.w3.org/2000/svg">
<rect fill="none" width="500" height="500"/>
<path fill="#FFFFFF" d="M263.9,131.3c0-25.4-20.6-46-46-46s-46,20.6-46,46v177.5c-27.1,25.4-28.4,68-3,95c25.4,27.1,68,28.4,95,3
	c13.5-12.7,21.2-30.5,21.2-49c0-18.6-7.7-36.3-21.2-49V131.3z M217.9,403.9c-25.4,0-46-20.6-46-46c0-14,6.3-27.2,17.3-35.9l4-3.2
	V131.3c0-13.7,11.1-24.8,24.8-24.8c13.7,0,24.8,11.1,24.8,24.8v187.5l4,3.2c19.8,15.9,23.1,44.8,7.2,64.6
	C245.1,397.6,231.9,403.9,217.9,403.9z"/>
<rect x="295.8" y="156.1" fill="#FFFFFF" width="84.9" height="21.2"/>
<path fill="#FFFFFF" d="M189.6,357c-0.1,3.8,0.5,7.8,2.1,11.6c5.9,14.5,22.4,21.5,36.9,15.6c11.3-4.6,18.1-15.6,17.7-27.2H189.6z"/>
</svg>