<svg width="500" height="500" viewBox="0 0 500 500" fill="none" xmlns="http://www.w3.org/2000/svg">
<rect fill="none" width="500" height="500"/>
<path fill="#ffffff" d="M263.9,131.3c0-25.4-20.6-46-46-46s-46,20.6-46,46v177.5c-27.1,25.4-28.4,68-3,95c25.4,27.1,68,28.4,95,3
	c13.5-12.7,21.2-30.5,21.2-49c0-18.6-7.7-36.3-21.2-49V131.3z M217.9,403.9c-25.4,0-46-20.6-46-46c0-14,6.3-27.2,17.3-35.9l4-3.2
	V131.3c0-13.7,11.1-24.8,24.8-24.8c13.7,0,24.8,11.1,24.8,24.8v187.5l4,3.2c19.8,15.9,23.1,44.8,7.2,64.6
	C245.1,397.6,231.9,403.9,217.9,403.9z"/>
<path fill="#ffffff" d="M228.5,331.7V145.5c0-5.9-4.8-10.6-10.6-10.6c-5.9,0-10.6,4.8-10.6,10.6v186.2c-14.5,5.9-21.5,22.4-15.6,36.9
	c5.9,14.5,22.4,21.5,36.9,15.6c14.5-5.9,21.5-22.4,15.6-36.9C241.3,340.2,235.6,334.5,228.5,331.7z"/>
<polygon fill="#ffffff" points="380.7,156.1 348.9,156.1 348.9,124.3 327.6,124.3 327.6,156.1 295.8,156.1 295.8,177.4 327.6,177.4 
	327.6,209.2 348.9,209.2 348.9,177.4 380.7,177.4 "/>
</svg>
