<svg width="500" height="500" viewBox="0 0 500 500" fill="none" xmlns="http://www.w3.org/2000/svg">
<rect fill="none" width="500" height="500"/>
	<path fill="#FFFFFF" d="M177.1,236c0-5.8-4.9-10.5-10.5-10.5c-5.8,0-10.5,4.7-10.5,10.5c0,5.6,4.7,10.3,10.5,10.3
		C172.2,246.4,177.1,241.7,177.1,236z"/>
	<path fill="#FFFFFF" d="M184.1,252.6c-0.8-0.8-1.8-1.1-2.7-0.5c-0.5,0.5-7.5,10.4-7.5,10.4c-0.5,0.8-0.5,1.7,0.2,2.4
		c0.8,1,1.4,1.3,2,1.3h6.5h6.4c0.5,0,1.1-0.3,1.4-0.7c1.1-1.3,1.1-2.3,0.8-3L184.1,252.6z"/>
	<path fill="#FFFFFF" d="M198.3,225.5c-5.7,0-10.4,4.7-10.4,10.5c0,5.6,4.7,10.3,10.4,10.3c5.8,0,10.5-4.7,10.5-10.3
		C208.8,230.2,204.1,225.5,198.3,225.5z"/>
	<path fill="#FFFFFF" d="M433.5,149.6l-94.9,77.5h-30.4l0,0c-14,0-25.4,11.4-25.4,25.4v94.4c0,14,11.4,25.4,25.4,25.4h17.9
		c-0.4-2.8-0.5-5.7-0.5-8.7c0-38,30.8-68.9,68.9-68.9s68.9,30.8,68.9,68.9c0,2.9-0.2,5.8-0.5,8.7h37.1V149.6H433.5z"/>
	<path fill="#FFFFFF" d="M394.4,312.1c-28.4,0-51.5,23.1-51.5,51.5c0,28.4,23.1,51.5,51.5,51.5c28.4,0,51.5-23.1,51.5-51.5
		C445.9,335.2,422.8,312.1,394.4,312.1z M394.4,382.9c-10.6,0-19.2-8.6-19.2-19.2c0-10.6,8.6-19.2,19.2-19.2
		c10.6,0,19.2,8.6,19.2,19.2C413.6,374.3,405,382.9,394.4,382.9z"/>
	<path fill="#FFFFFF" d="M329.5,201.7l9.7-8c-12.9-16.8-34.3-27.2-64.3-23c-29.2-45.6-97.5-42.9-122.9,4.9
		c-120.4-27.3-103.2,176.7,2.6,138.3c23.5,35.3,71.3,40.9,102.7,17l0,0v-78.3c0-28,22.8-50.9,50.9-50.9H329.5z M202.7,264.4
		c1,3.6,1,7.4,0,11c-3,11.1-14.6,17.8-25.8,14.8c-11.2-3-17.8-14.5-14.8-25.8c-6.4-3.5-11.5-8.8-15.3-15
		c-11.1-19.5-4.4-44.5,15.3-55.8c19.5-11.2,44.5-4.4,55.8,15.1C229,228.3,222.3,253.2,202.7,264.4z"/>
</svg>
