<svg width="500" height="500" viewBox="0 0 500 500" fill="none" xmlns="http://www.w3.org/2000/svg">
<rect fill="none" width="500" height="500"/>
<path fill="#ffffff" d="M81.9,280v147.3H414V239.4c-19.9,0-52.2,3-89.4,7.1l-1.1-30.4h39.8c6,0,9.4-7.1,5.6-12l-22.5-28.2h10.9
	c5.3,0,8.3-6,4.9-10.1l-21.4-26.3h6.8c3.8,0,5.6-4.1,3.4-6.8l-37.2-45.8c-1.5-2.3-4.9-2.3-6.4,0l-36.4,45.1c-2.3,2.6,0,6.8,3.4,6.8
	h6.8L259.6,165c-3,4.1-0.4,10.1,4.9,10.1h10.9l-22.5,28.2c-3.8,4.9-0.4,12,5.6,12h39.8l-1.1,33.8c-27.8,3.4-57.5,7.5-85.3,11.3
	l20.8,30.4l-33.6,44.7l20.2,33.8L189,403.6l8.6-34.6L164.3,336l23.4-36.8L163,267.6C115.7,274.7,81.5,280,81.9,280z"/>
</svg>
