<svg width="500" height="500" viewBox="0 0 500 500" fill="none" xmlns="http://www.w3.org/2000/svg">
<rect fill="none" width="500" height="500"/>
<path fill="#ffffff" d="M431.8,278.3C409,191.1,323.8,135,234.6,148.8c-9.8,1.5-19.2,4.4-28.1,8.7c13.4-36.7,38.8-68.1,72.1-88.9
	c-87.3,22.6-143.4,108-129.5,197.3c1.5,9.7,4.3,19.1,8.5,28c-36.8-13.5-68.1-38.8-88.9-72.2c22.8,87.5,108,143.3,197.1,129.5
	c9.8-1.5,19.2-4.3,28.1-8.4c-13.4,36.8-38.8,68-72.1,88.8c87.3-22.7,143.3-107.9,129.5-197c-1.5-9.7-4.4-19.3-8.5-28.2
	C379.6,219.6,411,245.3,431.8,278.3z M250,301c-28.2,0-51-22.8-51-51s22.8-51,51-51s51,22.8,51,51S278.2,301,250,301z"/>
</svg>
