<svg width="500" height="500" viewBox="0 0 500 500" fill="none" xmlns="http://www.w3.org/2000/svg">
<rect fill="none" width="500" height="500"/>
<path fill="#ffffff" d="M405.3,215.5l-50.7-35.1c-0.6-0.3-1.3-0.3-1.8,0L302,215.5c-0.4,0.2-0.6,0.6-0.7,1v42.2
			c-1.4-0.1-2.9-0.1-4.4-0.1c-10.6-0.2-21.1,2.6-30.3,8.1c-5.2,3.4-11.4,5.2-17.7,5c-21.3-0.8-38.4-17.9-39.2-39.2
			c-0.7-20.5,15.4-37.8,36-38.5c5.8,0,11.5,1.5,16.5,4.3c6.3,3.5,14.3,1.2,17.8-5.1s1.2-14.3-5.1-17.8c-8.9-5-19-7.6-29.2-7.6
			c-35,0.8-62.8,29.7-62.1,64.7c0.9,35.7,29.6,64.4,65.2,65.4l0.1,0l0,0l0,0l0,0c10.6,0.2,21.1-2.6,30.2-8.1
			c5.2-3.5,11.4-5.2,17.7-5c6.2-0.2,12.4,1.5,17.6,4.9c7.8,4.8,16.8,7.6,25.9,8c1.4,0.1,2.8,0.1,4.3,0.1c10.6,0.2,21.1-2.6,30.3-8.1
			c3.4-2.2,7.2-3.7,11.2-4.4c0.7-0.1,1.4-0.3,2.1-0.3c1-0.1,2-0.1,3.1-0.1c0.4-0.1,0.9-0.1,1.3-0.1c4.4,0,8.8,0.4,13.1,1.3v-69.5
			C405.9,216.1,405.6,215.7,405.3,215.5z"/>
		<path fill="#ffffff" d="M392.9,362.7c-10.6-0.2-21.1,2.6-30.2,8.1c-10.9,6.6-24.5,6.6-35.4,0c-9.1-5.5-19.6-8.3-30.2-8.1
			c-10.6-0.2-21.1,2.6-30.2,8.1c-5.3,3.4-11.4,5.1-17.7,4.9c-6.3,0.2-12.4-1.5-17.7-4.9c-9.1-5.5-19.6-8.3-30.2-8.1
			c-10.6-0.2-21.1,2.6-30.2,8.1c-5.3,3.4-11.4,5.1-17.7,4.9c-6.3,0.2-12.4-1.5-17.7-4.9c-9.1-5.5-19.6-8.3-30.2-8.1
			c-7.2,0-13.1,5.9-13.1,13.1c0,7.2,5.9,13.1,13.1,13.1c6.3-0.2,12.4,1.5,17.7,4.9c9.1,5.5,19.6,8.3,30.2,8.1
			c10.6,0.2,21.1-2.6,30.2-8.1c5.3-3.4,11.4-5.1,17.7-4.9c6.3-0.2,12.4,1.5,17.7,4.9c9.1,5.5,19.6,8.3,30.2,8.1
			c10.6,0.2,21.1-2.6,30.2-8.1c10.9-6.6,24.5-6.6,35.4,0c18.7,10.8,41.8,10.8,60.5,0c5.3-3.4,11.4-5.1,17.7-4.9
			c7.2,0,13.1-5.9,13.1-13.1C405.9,368.6,400.1,362.7,392.9,362.7z"/>
		<path fill="#ffffff" d="M392.9,310.4c-10.6-0.2-21.1,2.6-30.2,8.1c-10.9,6.6-24.5,6.6-35.4,0c-9.1-5.5-19.6-8.3-30.2-8.1
			c-10.6-0.2-21.1,2.6-30.2,8.1c-5.3,3.4-11.4,5.1-17.7,4.9c-6.3,0.2-12.4-1.5-17.7-4.9c-9.1-5.5-19.6-8.3-30.2-8.1
			c-10.6-0.2-21.1,2.6-30.2,8.1c-5.3,3.4-11.4,5.1-17.7,4.9c-6.3,0.2-12.4-1.5-17.7-4.9c-9.1-5.5-19.6-8.3-30.2-8.1
			c-7.2,0-13.1,5.9-13.1,13.1c0,7.2,5.9,13.1,13.1,13.1c6.3-0.2,12.4,1.5,17.7,4.9c9.1,5.5,19.6,8.3,30.2,8.1
			c10.6,0.2,21.1-2.6,30.2-8.1c5.3-3.4,11.4-5.1,17.7-4.9c6.3-0.2,12.4,1.5,17.7,4.9c9.1,5.5,19.6,8.3,30.2,8.1
			c10.6,0.2,21.1-2.6,30.2-8.1c10.9-6.6,24.5-6.6,35.4,0c18.7,10.8,41.8,10.8,60.5,0c5.3-3.4,11.4-5.1,17.7-4.9
			c7.2,0,13.1-5.9,13.1-13.1C405.9,316.3,400.1,310.4,392.9,310.4z"/>
		<path fill="#ffffff" d="M119,291.3c7.2,0,13.1-5.9,13.1-13.1c0-2.1-0.5-4.2-1.5-6c-27.6-52.8-7.1-118,45.8-145.6
			c15.4-8,32.5-12.2,49.9-12.2c27.2,0.4,53.2,11,72.9,29.7c5.3,4.9,13.6,4.5,18.5-0.8s4.5-13.6-0.8-18.5
			c-24.5-23.1-56.8-36.2-90.5-36.6c-74,0-134,60.1-134,134.1c0,21.6,5.2,42.8,15.2,62C109.6,288.6,114.1,291.3,119,291.3z"/>
</svg>
