<svg width="500" height="500" viewBox="0 0 500 500" fill="none" xmlns="http://www.w3.org/2000/svg">
<rect fill="none" width="500" height="500"/>
		<path fill="#ffffff" d="M406.8,383.8h-80.1V219c0.3-15.7,13.2-28.3,28.9-28.3c15.6,0,28.3,12.7,28.3,28.3c0,0.1,0,0.2,0,0.3h0v4.9
			c-8.7,4.1-14.3,12.9-14.3,22.5c0,12.5,20.5,38.9,24.4,43.8c0.3,0.3,0.8,0.4,1.1,0.1c0.1,0,0.1-0.1,0.1-0.1
			c3.9-4.9,24.4-31.2,24.4-43.8c0-9.6-5.6-18.4-14.3-22.5v-4.9h0c0-0.1,0-0.2,0-0.3c0-27.5-22.3-49.7-49.7-49.7
			c-27.6,0-50.1,22.2-50.4,49.7v36.1h-17.9c-1.2,0-2.4,0.1-3.6,0.2c-18.8,1.8-33.7,16.7-35.5,35.5c-0.1,1.2-0.2,2.4-0.2,3.6v8.5
			c-8.7,4.1-14.3,12.9-14.3,22.5c0,12.5,20.5,38.9,24.4,43.8c0.3,0.3,0.8,0.4,1.1,0.1c0.1,0,0.1-0.1,0.1-0.1
			c3.9-4.9,24.4-31.2,24.4-43.8c0-9.6-5.6-18.4-14.3-22.5v-8.5c0-9.9,8-17.9,17.9-17.9h17.9v107.3h-216v35.8h317.5V383.8z"/>
		<path fill="#ffffff" d="M165.8,119.2c5.9,0,10.7-4.8,10.7-10.7V87c0-5.9-4.8-10.7-10.7-10.7c-5.9,0-10.7,4.8-10.7,10.7v21.5
			C155,114.4,159.8,119.2,165.8,119.2z"/>
		<path fill="#ffffff" d="M155,222.9v21.5c0,5.9,4.8,10.7,10.7,10.7c5.9,0,10.7-4.8,10.7-10.7v-21.5c0-5.9-4.8-10.7-10.7-10.7
			C159.8,212.2,155,217,155,222.9z"/>
		<path fill="#ffffff" d="M213.8,132.8l15.2-15.2c4.2-4.2,4.3-11,0.1-15.2c-4.2-4.2-11-4.3-15.2-0.1c0,0-0.1,0.1-0.1,0.1l-15.2,15.2
			c-4.2,4.2-4.2,11,0,15.2S209.6,137,213.8,132.8z"/>
		<path fill="#ffffff" d="M117.7,198.6l-15.2,15.2c-4.2,4.2-4.1,11,0.1,15.2c4.2,4.1,10.9,4.1,15.1,0l15.2-15.2c4.2-4.2,4.2-11,0-15.2
			C128.7,194.4,121.9,194.4,117.7,198.6z"/>
		<path fill="#ffffff" d="M212.2,165.7c0,5.9,4.8,10.7,10.7,10.7h21.5c5.9,0,10.7-4.8,10.7-10.7c0-5.9-4.8-10.7-10.7-10.7H223
			C217,155,212.2,159.8,212.2,165.7z"/>
		<path fill="#ffffff" d="M87.1,176.4h21.5c5.9,0,10.7-4.8,10.7-10.7c0-5.9-4.8-10.7-10.7-10.7H87.1c-5.9,0-10.7,4.8-10.7,10.7
			C76.4,171.6,81.2,176.4,87.1,176.4z"/>
		<path fill="#ffffff" d="M198.6,198.6c-4.2,4.2-4.2,11,0,15.2l15.2,15.2c4.2,4.2,11,4.1,15.2-0.1c4.1-4.2,4.1-10.9,0-15.1l-15.2-15.2
			C209.6,194.4,202.8,194.4,198.6,198.6z"/>
		<path fill="#ffffff" d="M117.7,132.8c4.2,4.2,11,4.2,15.2,0s4.2-11,0-15.2l-15.2-15.2c-4.2-4.2-11-4.1-15.2,0.1
			c-4.1,4.2-4.1,10.9,0,15.1L117.7,132.8z"/>
		<circle fill="#ffffff" cx="165.8" cy="165.7" r="32.2"/>
</svg>
