<svg width="500" height="500" viewBox="0 0 500 500" fill="none" xmlns="http://www.w3.org/2000/svg">
<rect fill="none" width="500" height="500"/>
<path fill="#ffffff" d="M186.7,285.6c-9.8-4.4-20.8-4.7-31-0.9c-10.1,3.8-18.1,11.4-22.6,21.2l-0.3,0.6v0c-4.2,9.7-4.4,20.5-0.7,30.4
	c3.8,10.1,11.4,18.1,21.2,22.5c5.3,2.4,10.8,3.6,16.5,3.6c15.9,0,30.5-9.4,37-23.9C216.2,318.8,207.1,294.8,186.7,285.6z M192,332.4
	c-2.6,5.9-7.4,10.3-13.4,12.6c-6,2.3-12.5,2.1-18.4-0.5c-5.9-2.6-10.3-7.4-12.6-13.4c-2.3-5.9-2.1-12.4,0.5-18.2l0.1-0.2
	c2.6-5.9,7.4-10.3,13.4-12.6c6-2.3,12.5-2.1,18.4,0.5C192.1,306,197.5,320.3,192,332.4z"/>
<path fill="#ffffff" d="M260.7,314.3H248c-0.9-8.2-3-16.1-6.3-23.6l11-6.4c3.9-2.3,5.3-7.3,3-11.2c-1.1-1.9-2.9-3.3-5-3.8
	c-2.1-0.6-4.3-0.3-6.2,0.8l-11,6.3c-4.8-6.7-10.7-12.5-17.3-17.3l6.3-11c2.3-3.9,0.9-9-3-11.2c-3.9-2.3-9-0.9-11.2,3l-6.4,11
	c-7.5-3.4-15.4-5.5-23.6-6.3V232c0-4.5-3.7-8.2-8.2-8.2c-4.5,0-8.2,3.7-8.2,8.2v12.7c-8.2,0.9-16.1,3-23.6,6.3l-6.4-11
	c-1.1-1.9-2.9-3.3-5-3.8c-2.1-0.6-4.3-0.3-6.2,0.8c-3.9,2.3-5.3,7.3-3,11.2l6.3,11c-6.7,4.8-12.5,10.7-17.3,17.3l-11-6.3
	c-3.9-2.3-9-0.9-11.2,3c-2.3,3.9-0.9,9,3,11.2l11,6.4c-3.4,7.5-5.5,15.4-6.3,23.6H79.5c-4.5,0-8.2,3.7-8.2,8.2
	c0,4.5,3.7,8.2,8.2,8.2h12.7c0.9,8.2,3,16.1,6.3,23.6l-11,6.4c-3.9,2.3-5.3,7.3-3,11.2c1.5,2.5,4.2,4.1,7.1,4.1
	c1.4,0,2.9-0.4,4.1-1.1l11-6.3c4.8,6.7,10.7,12.5,17.3,17.3l-6.3,11c-2.3,3.9-0.9,9,3,11.2c1.2,0.7,2.7,1.1,4.1,1.1
	c2.9,0,5.7-1.6,7.1-4.1l6.4-11c7.5,3.4,15.4,5.5,23.6,6.3v12.7c0,4.5,3.7,8.2,8.2,8.2c4.5,0,8.2-3.7,8.2-8.2v-12.7
	c8.2-0.9,16.1-3,23.6-6.3l6.4,11c1.5,2.5,4.2,4.1,7.1,4.1c1.4,0,2.9-0.4,4.1-1.1c3.9-2.3,5.3-7.3,3-11.2l-6.3-11
	c6.7-4.8,12.5-10.7,17.3-17.3l11,6.3c1.2,0.7,2.7,1.1,4.1,1.1c2.9,0,5.7-1.6,7.1-4.1c2.3-3.9,0.9-9-3-11.2l-11-6.4
	c3.4-7.5,5.5-15.4,6.3-23.6h12.7c4.5,0,8.2-3.7,8.2-8.2C268.9,318,265.2,314.3,260.7,314.3z M232.1,322.5c0,34.2-27.8,62-62,62
	c-34.2,0-62-27.8-62-62c0-34.2,27.8-62,62-62C204.3,260.6,232.1,288.4,232.1,322.5z"/>
<path fill="#ffffff" d="M344,138.4c-3.8-10.1-11.4-18.1-21.2-22.5c-9.8-4.4-20.8-4.8-31-0.9c-10.1,3.8-18.1,11.4-22.6,21.2l-0.3,0.6v0
	c-4.2,9.7-4.4,20.5-0.7,30.4c3.8,10.1,11.4,18.1,21.3,22.5c5.2,2.4,10.8,3.6,16.5,3.6c15.9,0,30.5-9.4,37-23.9
	C347.5,159.5,347.9,148.5,344,138.4z M328.1,162.6c-5.4,12.1-19.7,17.5-31.8,12.1c-5.9-2.6-10.3-7.4-12.6-13.4
	c-2.3-5.9-2.1-12.4,0.5-18.2l0.1-0.2c5.4-12.1,19.7-17.5,31.8-12.1c5.9,2.6,10.3,7.4,12.6,13.4C330.9,150.2,330.8,156.7,328.1,162.6
	z"/>
<path fill="#ffffff" d="M396.8,144.5h-12.7c-0.9-8.2-3-16.1-6.3-23.6l11-6.4c3.9-2.3,5.3-7.3,3-11.2c-2.3-3.9-7.3-5.3-11.2-3l-11,6.3
	c-4.8-6.7-10.7-12.5-17.3-17.3l6.3-11c2.3-3.9,0.9-9-3-11.2c-3.9-2.3-9-0.9-11.2,3l-6.4,11c-7.5-3.4-15.4-5.5-23.6-6.3V62.1
	c0-4.5-3.7-8.2-8.2-8.2c-4.5,0-8.2,3.7-8.2,8.2v12.7c-8.2,0.9-16.1,3-23.6,6.3l-6.4-11c-1.1-1.9-2.9-3.3-5-3.8
	c-2.1-0.6-4.3-0.3-6.2,0.8c-3.9,2.3-5.3,7.3-3,11.2l6.3,11c-6.7,4.8-12.5,10.7-17.3,17.3l-11-6.3c-3.9-2.3-9-0.9-11.2,3
	c-2.3,3.9-0.9,9,3,11.2l11,6.4c-3.4,7.5-5.5,15.4-6.3,23.6h-12.7c-4.5,0-8.2,3.7-8.2,8.2c0,4.5,3.7,8.2,8.2,8.2h12.7
	c0.9,8.2,3,16.1,6.3,23.6l-11,6.4c-3.9,2.3-5.3,7.3-3,11.2c1.5,2.5,4.2,4.1,7.1,4.1c1.4,0,2.9-0.4,4.1-1.1l11-6.3
	c4.8,6.7,10.7,12.5,17.3,17.3l-6.3,11c-2.3,3.9-0.9,9,3,11.2c1.2,0.7,2.7,1.1,4.1,1.1c2.9,0,5.7-1.6,7.1-4.1l6.4-11
	c7.5,3.4,15.4,5.5,23.6,6.3v12.7c0,4.5,3.7,8.2,8.2,8.2c4.5,0,8.2-3.7,8.2-8.2v-12.7c8.2-0.9,16.1-3,23.6-6.3l6.4,11
	c1.5,2.5,4.2,4.1,7.1,4.1c1.4,0,2.9-0.4,4.1-1.1c3.9-2.3,5.3-7.3,3-11.2l-6.3-11c6.7-4.8,12.5-10.7,17.3-17.3l11,6.3
	c1.2,0.7,2.7,1.1,4.1,1.1c2.9,0,5.7-1.6,7.1-4.1c2.3-3.9,0.9-9-3-11.2l-11-6.4c3.4-7.5,5.5-15.4,6.3-23.6h12.7
	c4.5,0,8.2-3.7,8.2-8.2C405,148.2,401.3,144.5,396.8,144.5z M368.2,152.7c0,34.2-27.8,62-62,62c-34.2,0-62-27.8-62-62
	c0-34.2,27.8-62,62-62C340.4,90.8,368.2,118.6,368.2,152.7z"/>
<path fill="#ffffff" d="M163.3,145.5L134,116.2c-12.1-12.1-31.7-12.1-43.8,0c-12.1,12.1-12.1,31.7,0,43.8l29.3,29.3
	c5.8,5.8,13.6,9.1,21.9,9.1c8.3,0,16-3.2,21.9-9.1c5.8-5.8,9.1-13.6,9.1-21.9C172.3,159.1,169.1,151.3,163.3,145.5z M151.8,177.5
	l-0.2,0.2c-5.7,5.7-14.9,5.7-20.5,0l-29.3-29.3c-5.7-5.7-5.7-14.9,0-20.5c2.7-2.7,6.4-4.2,10.3-4.2c3.9,0,7.5,1.5,10.3,4.2
	l29.3,29.3C157.2,162.7,157.3,171.8,151.8,177.5z"/>
<path fill="#ffffff" d="M383.8,292.1c-1-8.2-5.2-15.5-11.8-20.5c-6.5-5.1-14.7-7.3-22.8-6.2l-41.1,5.3c-16.9,2.2-28.9,17.7-26.8,34.6
	c2,15.6,15.3,27,30.7,27c1.3,0,2.6-0.1,3.9-0.3l41.1-5.3c4.4-0.6,8.5-2,12.2-4.3C379.7,316,385.4,304.1,383.8,292.1z M364.6,304.9
	c-2.4,3.1-5.8,5-9.6,5.5l-41.1,5.3c-3.8,0.5-7.6-0.5-10.7-2.9c-3.1-2.4-5-5.8-5.5-9.6c-0.7-5.7,2-11.2,6.8-14.2
	c1.7-1.1,3.7-1.7,5.7-2l41.1-5.3c0.6-0.1,1.2-0.1,1.9-0.1c3.2,0,6.3,1.1,8.9,3c3.1,2.4,5,5.8,5.5,9.6v0
	C368,298,367,301.8,364.6,304.9z"/>
<path fill="#ffffff" d="M439.4,322c-5.3-6.3-12.8-10.1-21.1-10.8c-8.3-0.7-16.3,1.9-22.6,7.2l-31.6,26.8c-13,11-14.6,30.6-3.6,43.6l0,0
	c5.3,6.3,12.8,10.2,21.1,10.8c0.9,0.1,1.8,0.1,2.6,0.1c5.7,0,11.2-1.5,16-4.5c1.4-0.8,2.7-1.8,3.9-2.8l31.6-26.8
	c6.3-5.3,10.2-12.8,10.8-21.1C447.3,336.3,444.7,328.3,439.4,322z M430.2,343.2c-0.3,3.9-2.1,7.4-5.1,9.9l-31.6,26.8
	c-3,2.5-6.7,3.7-10.6,3.4c-3.9-0.3-7.4-2.1-9.9-5.1c-2.5-3-3.7-6.7-3.4-10.6c0.3-3.9,2.1-7.4,5.1-9.9l31.6-26.8
	c0.6-0.5,1.2-0.9,1.8-1.3c6-3.7,14.1-2.4,18.7,3C429.3,335.6,430.5,339.3,430.2,343.2z"/>
</svg>