<svg width="500" height="500" viewBox="0 0 500 500" fill="none" xmlns="http://www.w3.org/2000/svg">
<rect fill="none" width="500" height="500"/>
<path fill="#FFFFFF" d="M421.8,286.6c-1.3-45.8-20.4-89.2-53.4-121c-32.9-31.8-77-49.4-122.8-49c-2.9,0-5.7,1.1-7.7,3.2
c-2.1,2-3.2,4.8-3.3,7.7c0,2.9,1.2,5.6,3.3,7.7c2.1,2,4.8,3.1,7.7,3.1c35.5-0.2,70,11.9,97.6,34.2c27.6,22.3,46.6,53.5,53.8,88.3
c-0.6,0-1.2-0.1-1.7-0.1h-14.5c-4.9,0-9.6,1.3-13.8,3.9c-4.2,2.5-7.5,6.2-9.7,10.5h-7.8l-46.8-46.2l0,0c-2.8-2.7-6.5-4.2-10.4-4.2
c-3.9,0-7.6,1.5-10.4,4.2L263.4,247l-18.4-18.1h0c-2.8-2.7-6.5-4.2-10.4-4.2s-7.6,1.5-10.4,4.2l-46.7,46.2H123l0,0
c-9,0-17.3,4.8-21.8,12.6c-4.5,7.8-4.5,17.4,0,25.2c4.5,7.8,12.8,12.6,21.8,12.6h3.4l-46.7,46.1v0c-1.8,1.7-3,3.9-3.4,6.3
c-0.4,2.4,0.1,4.9,1.3,7.1c1.7,2.9,4.7,4.8,8,5.2c3.3,0.4,6.7-0.7,9.1-3.1l62.4-61.6h12.6c0,3.7,1.5,7.3,4.1,9.9l-36.6,36.2v0
c-2.2,2-3.4,4.7-3.5,7.7c-0.1,2.9,1,5.8,3,7.9c2,2.1,4.8,3.3,7.8,3.3c2.9,0,5.7-1.2,7.8-3.3l47.9-47.2h55.5l-32,31.7v0
c-2.2,2-3.4,4.7-3.5,7.7c-0.1,2.9,1,5.8,3,7.9c2,2.1,4.8,3.3,7.8,3.3c2.9,0,5.7-1.2,7.8-3.3l35.4-34.9l35.3,34.9
c2.1,2.1,4.9,3.2,7.8,3.2c2.9,0,5.7-1.1,7.8-3.2c2-2,3.2-4.8,3.2-7.7c0-2.9-1.2-5.6-3.2-7.7l-32.3-31.9h33.9l47.8,47.2l0,0
c2.1,2.1,4.9,3.2,7.8,3.2c2.9,0,5.7-1.1,7.8-3.2c2-2,3.2-4.8,3.2-7.7c0-2.9-1.2-5.6-3.2-7.7l-32.3-31.9h37.7
c7.1,0,13.9-2.8,18.9-7.8c5-5,7.8-11.8,7.8-18.9v-25.9C421.8,287,421.8,286.8,421.8,286.6L421.8,286.6z M234.9,275.1h-26.7l26.4-26
l13.3,13.2L234.9,275.1z M291.8,275.1l-13-12.8l13.4-13.2l26.4,26L291.8,275.1z M396.6,311.1c-2.9,0-5.6-1.1-7.6-3.2
c-2-2-3.2-4.8-3.2-7.6c0-2.9,1.1-5.6,3.2-7.6c2-2,4.8-3.2,7.6-3.2c2.9,0,5.6,1.1,7.6,3.2c2,2,3.2,4.8,3.2,7.6c0,2.9-1.1,5.6-3.2,7.6
C402.2,309.9,399.5,311.1,396.6,311.1L396.6,311.1z"/>
</svg>