<svg width="500" height="500" viewBox="0 0 500 500" fill="none" xmlns="http://www.w3.org/2000/svg">
<rect fill="none" width="500" height="500"/>
	<polygon fill="#ffffff" points="250.3,148.1 228.4,168.1 208.4,148.1 217.5,129.9 	"/>
	<polygon fill="#ffffff" points="308.7,169.9 338.6,209.8 334.6,231.8 276.7,231.8 244.8,203.8 254.8,175.9 	"/>
	<polygon fill="#ffffff" points="318.9,277.4 301.8,286 293.2,268.9 306.1,251.8 	"/>
	<polygon fill="#ffffff" points="377.6,284.6 360.2,306.3 340.6,306.3 334.1,286.6 342.8,260.9 	"/>
	<polygon fill="#ffffff" points="324.8,104.7 316,131.1 287.2,131.1 261.8,86.7 290.4,64.3 	"/>
	<path fill="#ffffff" d="M87.6,417.3h322.7l-58.2-80l-38.2-20l-29.1-14.5l-18-60.8l-56.6-28.3l-18.2-52.8L87.6,92.4
		C87.6,92.4,87.6,417.3,87.6,417.3z M246.4,282.6l-4,17.9l-17.9,2l4-21.9L246.4,282.6z M223,359.1l8.2-16.5l16.5-8.2l24.3,22
		l-18.6,25.3L223,359.1z"/>
</svg>
