<svg width="500" height="500" viewBox="0 0 500 500" fill="none" xmlns="http://www.w3.org/2000/svg">
<rect fill="none" width="500" height="500"/>
	<path fill="#ffffff" d="M176.2,225.4c2.4-0.9,4.4-2.9,5.5-5.2c4.2-8.6,10.9-15.6,19.1-20.2c-11.3-0.9-22.7,0.9-33.2,5.4
		c-5.6,2.4-8.2,8.7-5.9,14.3C164.3,225.2,170.7,227.8,176.2,225.4z"/>
	<path fill="#ffffff" d="M319.8,213.8c-11.2-2.3-22.7-1.8-33.6,1.3c9,2.9,16.9,8.4,22.7,15.9c3.6,4.8,10.5,5.8,15.2,2.1
		c4.9-3.7,5.7-10.4,2.1-15.3C324.6,215.8,322.3,214.3,319.8,213.8z"/>
	<path fill="#ffffff" d="M410.2,422.6L283.3,227.6l-24.1,22.1c2.2-21.5,6.1-42.8,11.5-63.7c5,4,11.4,6.3,18.3,6.3
		c11.9,0,22.2-7,26.9-17.1c2.5,0.5,5.1,0.8,7.8,0.8c22.3,0,40.5-18.1,40.5-40.5S346,95,323.6,95c-6.8,0-13.1,1.7-18.7,4.6
		c-7.1-23.8-29.2-41.2-55.3-41.2c-26.2,0-48.2,17.4-55.4,41.2c-5.6-2.9-12-4.6-18.8-4.6c-22.3,0-40.5,18.1-40.5,40.5
		s18.1,40.5,40.5,40.5c2.8,0,5.6-0.3,8.2-0.8c4.7,10.2,15,17.2,26.9,17.2c7,0,13.5-2.5,18.6-6.6c4.6,17.9,8.1,36,10.4,54.4
		l-32.7-32.9L79.3,422.6H410.2z M210.1,233.2l43.3,43.5l26.8-24.5l100.5,154.5H107.4L210.1,233.2z"/>
</svg>
