<?xml version="1.0" encoding="utf-8"?>
<!-- Generator: Adobe Illustrator 26.1.0, SVG Export Plug-In . SVG Version: 6.00 Build 0)  -->
<svg version="1.1" id="Layer_1" xmlns="http://www.w3.org/2000/svg" xmlns:xlink="http://www.w3.org/1999/xlink" x="0px" y="0px"
	 viewBox="0 0 1050 725" style="enable-background:new 0 0 1050 725;" xml:space="preserve">
<style type="text/css">
	.st0{fill:#FF885F;}
	.st1{fill:none;stroke:#FF885F;stroke-width:30;stroke-linecap:round;stroke-miterlimit:10;}
</style>
<path class="st0" d="M525,243.7c-47.6,0-90.8,31-115.8,82.8l-3.3,6.6l3.3,6.7c25,51.8,68.3,82.8,115.8,82.8
	c47.6,0,90.8-31,115.8-82.8l3.3-6.7l-3.3-6.6C615.8,274.7,572.5,243.7,525,243.7z M525,391.9c-33.6,0-64.8-21.8-84.9-58.8
	c20.1-36.9,51.4-58.8,84.9-58.8s64.8,22.4,84.8,58.8C589.9,370.1,558.5,391.9,525,391.9z"/>
<path class="st0" d="M542.6,340.5c-14.5,0-26.2-11.7-26.2-26.2l0,0c-0.1-7.2,3-14.2,8.3-19.1h-1c-21.1,0-38.1,17.1-38.1,38.1
	c0,21.1,17.1,38.1,38.1,38.1c21.1,0,38.1-17.1,38.1-38.1c0,0,0-0.1,0-0.1c0,0,0,0,0-0.9C556.8,337.6,549.8,340.5,542.6,340.5z"/>
<path class="st0" d="M719.3,446.7c-11.6-11.6-31.8-11.6-43.4,0l-6.4,6.4l-7.2-7.2c12.5-15,14.6-34.7,5.7-38.3
	c-9-3.6-73.1,85.7-38.5,56.9l15.5,13.3l-6.4,6.4c-5.8,5.8-9,13.5-9,21.7s3.2,15.9,9,21.7l168.8,168.8c5.8,5.8,13.5,9,21.7,9
	c8.2,0,15.9-3.2,21.7-9l37.5-37.5c12-12,12-31.4,0-43.4L719.3,446.7z M828.9,668.9l-163-163l31.6-31.6l163,163L828.9,668.9z"/>
<g>
	<path class="st0" d="M407.7,130.7c9.1-5.2,12.2-16.7,7-25.8L396.9,74c-5.2-9.1-16.7-12.2-25.8-7c-9.1,5.2-12.2,16.7-7,25.8
		l17.8,30.9C387.2,132.9,398.6,136,407.7,130.7z"/>
	<path class="st0" d="M298.9,220.7c6.2,3.7,13.4,3.6,19.4,0.1c3-1.7,5.1-3.7,7.1-7.3c5.1-9.4,2.6-20.8-6.8-25.9l-30.5-18
		c-9.4-5.1-20.8-2.6-25.9,6.8c-5.1,9.4-2.6,20.8,6.8,25.9L298.9,220.7z"/>
	<path class="st0" d="M275.1,306.9l-35.4,0.2c-10.7-0.3-19.2,8.6-19,18.9c-0.3,10.7,8.6,19.2,18.9,19l35.4-0.2
		c3.1-0.2,6.9-0.7,9.9-2.4c5.5-3.1,9.8-9.6,9.7-16.8C294.7,315.8,285.7,307.2,275.1,306.9z"/>
	<path class="st0" d="M324.3,439.1c-5.2-9.1-16.7-12.2-25.8-7l-30.9,17.8c-9.1,5.2-12.2,16.7-7,25.8c5.2,9.1,16.7,12.2,25.8,7
		l30.9-17.8C326.8,460.2,329.6,448.2,324.3,439.1z"/>
	<path class="st0" d="M380.9,529.2l-18,30.5c-5.1,9.4-2.6,20.8,6.8,25.9c6.2,3.7,13.4,3.6,19.4,0.1c3-1.7,5.1-3.7,7.1-7.3l18-30.5
		c5.1-9.4,2.6-20.8-6.8-25.9C398,516.9,386,519.8,380.9,529.2z"/>
	<path class="st0" d="M800.7,308.2l-35.4,0.2c-10.7-0.3-19.2,8.6-19,18.9c-0.3,10.7,8.6,19.2,18.9,19l35.4-0.2
		c3.1-0.2,6.9-0.7,9.9-2.4c5.5-3.1,9.8-9.6,9.7-16.8C819.4,316.9,811.4,308.6,800.7,308.2z"/>
	<path class="st0" d="M754,170.6L723,188.4c-9.1,5.2-12.2,16.7-7,25.8c5.2,9.1,16.7,12.2,25.8,7l30.9-17.8c9.1-5.2,12.2-16.7,7-25.8
		C774.5,168.5,763.1,165.4,754,170.6z"/>
	<path class="st0" d="M652.4,131.4c3-1.7,5.1-3.7,7.1-7.3l18-30.5c5.1-9.4,2.6-20.8-6.8-25.9c-9.4-5.1-20.8-2.6-25.9,6.8l-18,30.5
		c-5.1,9.4-2.6,20.8,6.8,25.9C640.1,135.2,646.9,134.5,652.4,131.4z"/>
	<path class="st0" d="M520.7,101.4c3.1-0.2,6.9-0.7,9.9-2.4c5.5-3.1,9.8-9.6,9.7-16.8l-0.2-35.4c0.3-10.7-8.6-19.2-18.9-19
		c-10.7-0.3-19.2,8.6-19,18.9l0.2,35.4C501.7,92.1,510,101,520.7,101.4z"/>
</g>
<circle class="st1" cx="519.9" cy="327.3" r="168.3"/>
<g>
	<path class="st0" d="M500.6,571.6l-0.3,35.4c0.3,10.7,8.2,19.3,18.9,19c7.2,0.1,13.4-3.6,16.9-9.6c1.8-3,2.5-5.8,2.5-9.9l0.3-35.4
		c-0.3-10.7-8.2-19.3-18.9-19C509.3,552.4,500.4,560.9,500.6,571.6z"/>
</g>
</svg>
