<?xml version="1.0" encoding="utf-8"?>
<!-- Generator: Adobe Illustrator 26.1.0, SVG Export Plug-In . SVG Version: 6.00 Build 0)  -->
<svg version="1.1" id="Layer_1" xmlns="http://www.w3.org/2000/svg" xmlns:xlink="http://www.w3.org/1999/xlink" x="0px" y="0px"
	 viewBox="0 0 1050 725" style="enable-background:new 0 0 1050 725;" xml:space="preserve">
<style type="text/css">
	.st0{fill:none;stroke:#FF885F;stroke-width:30;stroke-linecap:round;stroke-miterlimit:10;}
	.st1{fill:none;stroke:#FF885F;stroke-width:30;stroke-miterlimit:10;}
	.st2{fill:none;}
</style>
<g>
	<path class="st0" d="M716.3,241.7c30.7-29.1,72.1-47,117.7-47c94.4,0,171,76.5,171,171c0,94.4-76.5,171-171,171
		c-44.3,0-84.7-16.9-115.1-44.6"/>
	<circle class="st1" cx="834" cy="316.3" r="73.3"/>
	<path class="st1" d="M834,536.6c-44.8,0-85.6-17.3-116-45.5c1.1-51.8,36.2-95.3,83.8-109c9.7,4.8,20.6,7.4,32.2,7.4
		s22.5-2.7,32.2-7.4c47.7,13.7,82.7,57.2,83.8,109C919.6,519.4,878.8,536.6,834,536.6z"/>
</g>
<g>
	<path class="st2" d="M508.2,595.5c-0.1-9.7,7.6-17.6,17.3-17.7l0,0c9.7-0.1,17.6,7.6,17.7,17.3l0,0c0.1,9.7-7.6,17.6-17.3,17.7l0,0
		c-0.1,0-0.1,0-0.2,0l0,0C516.1,612.8,508.3,605.1,508.2,595.5z M462,605.3L462,605.3L462,605.3c-9.4-2.4-15-11.9-12.7-21.3l0,0
		c2.4-9.4,11.9-15,21.3-12.7l0,0c9.4,2.4,15,11.9,12.7,21.3l0,0c-2,7.9-9.1,13.2-17,13.2l0,0C464.9,605.8,463.4,605.6,462,605.3z
		 M568.1,591.6c-2.6-9.3,2.8-19,12.1-21.6l0,0c9.3-2.6,19,2.8,21.6,12.1l0,0c2.6,9.3-2.8,19-12.1,21.6l0,0l0,0l0,0
		c-1.6,0.4-3.2,0.6-4.7,0.6l0,0C577.2,604.4,570.2,599.3,568.1,591.6z M402.2,581.4L402.2,581.4L402.2,581.4
		c-8.4-4.7-11.4-15.4-6.7-23.8l0,0c4.7-8.4,15.4-11.4,23.8-6.7h0c8.4,4.7,11.4,15.4,6.7,23.8l0,0c-3.2,5.7-9.2,9-15.3,9l0,0
		C407.8,583.6,404.9,582.9,402.2,581.4z M624.9,572.3c-4.9-8.3-2.2-19,6.1-24l0,0c8.3-4.9,19-2.2,24,6.1l0,0
		c4.9,8.3,2.2,19.1-6.1,24l0,0c-2.8,1.7-5.9,2.4-8.9,2.4l0,0C633.9,580.9,628.1,577.8,624.9,572.3z M350.6,542.9
		c-6.9-6.7-7.1-17.8-0.3-24.7l0,0c6.7-6.9,17.8-7.1,24.7-0.4l0,0c6.9,6.7,7.1,17.8,0.4,24.8l0,0c-3.4,3.5-8,5.3-12.5,5.3l0,0
		C358.4,547.8,354,546.2,350.6,542.9z M674.7,538.9c-6.9-6.8-7-17.8-0.2-24.7l0,0c6.8-6.9,17.9-7,24.8-0.2l0,0
		c6.9,6.8,7,17.9,0.2,24.8l0,0l0,0l0,0c-3.4,3.5-8,5.2-12.5,5.2l0,0C682.5,543.9,678.1,542.3,674.7,538.9z M347.8,216
		c-6.8-6.8-6.9-17.9,0-24.8l0,0c6.8-6.9,17.9-6.9,24.8,0l0,0c6.9,6.8,6.9,17.9,0,24.8l0,0c-3.4,3.4-7.9,5.1-12.4,5.1l0,0
		C355.7,221.1,351.3,219.4,347.8,216z M672.1,214.7L672.1,214.7c-6.9-6.8-6.9-17.9-0.1-24.8l0,0c6.8-6.9,17.9-6.9,24.7-0.1l0,0
		c0,0,0,0,0,0l0,0c6.9,6.8,6.9,17.9,0.1,24.8l0,0c-3.4,3.5-7.9,5.2-12.5,5.2l0,0C679.9,219.8,675.5,218.1,672.1,214.7z M392.4,175.8
		c-4.9-8.4-2-19.1,6.3-23.9l0,0c8.4-4.9,19.1-2,23.9,6.3l0,0c4.9,8.4,2,19.1-6.3,23.9l0,0c-2.8,1.6-5.8,2.4-8.8,2.4l0,0
		C401.5,184.5,395.7,181.4,392.4,175.8z M628,181.3c-8.4-4.8-11.3-15.5-6.5-23.9l0,0c4.8-8.4,15.5-11.3,23.9-6.5l0,0
		c8.4,4.8,11.3,15.5,6.5,23.9l0,0c-3.2,5.7-9.1,8.8-15.2,8.8l0,0C633.8,183.6,630.8,182.9,628,181.3z M445.8,148.5
		c-2.5-9.3,3-18.9,12.3-21.5l0,0c9.3-2.5,18.9,3,21.5,12.3l0,0c2.5,9.3-3,18.9-12.3,21.5l0,0c-1.5,0.4-3.1,0.6-4.6,0.6l0,0
		C455,161.4,447.9,156.3,445.8,148.5z M576.9,160.4L576.9,160.4c-9.3-2.5-14.9-12-12.5-21.4l0,0c2.5-9.4,12-14.9,21.4-12.5l0,0l0,0
		l0,0c9.3,2.5,14.9,12,12.5,21.4l0,0c-2.1,7.9-9.2,13.1-16.9,13.1l0,0C579.9,161,578.4,160.8,576.9,160.4z M504.5,136
		c0-9.7,7.8-17.5,17.4-17.6l0,0c9.7,0,17.5,7.8,17.6,17.4l0,0c0,9.7-7.8,17.5-17.4,17.6l0,0c0,0,0,0-0.1,0l0,0
		C512.4,153.5,504.5,145.7,504.5,136z"/>
</g>
<path class="st0" d="M329.5,241.7c-30.7-29.1-72.1-47-117.7-47c-94.4,0-171,76.5-171,171c0,94.4,76.5,171,171,171
	c44.3,0,84.7-16.9,115.1-44.6"/>
<circle class="st1" cx="211.8" cy="316.3" r="73.3"/>
<path class="st1" d="M211.8,536.6c44.8,0,85.6-17.3,116-45.5c-1.1-51.8-36.2-95.3-83.8-109c-9.7,4.8-20.6,7.4-32.2,7.4
	c-11.6,0-22.5-2.7-32.2-7.4c-47.7,13.7-82.7,57.2-83.8,109C126.3,519.4,167,536.6,211.8,536.6z"/>
<circle class="st1" cx="522.9" cy="365.7" r="171"/>
<circle class="st1" cx="522.9" cy="316.3" r="73.3"/>
<path class="st1" d="M522.9,536.6c44.8,0,85.6-17.3,116-45.5c-1.1-51.8-36.2-95.3-83.8-109c-9.7,4.8-20.6,7.4-32.2,7.4
	c-11.6,0-22.5-2.7-32.2-7.4c-47.7,13.7-82.7,57.2-83.8,109C437.4,519.4,478.1,536.6,522.9,536.6z"/>
</svg>
