<?xml version="1.0" encoding="utf-8"?>
<!-- Generator: Adobe Illustrator 26.1.0, SVG Export Plug-In . SVG Version: 6.00 Build 0)  -->
<svg version="1.1" id="Layer_1" xmlns="http://www.w3.org/2000/svg" xmlns:xlink="http://www.w3.org/1999/xlink" x="0px" y="0px"
	 viewBox="0 0 1050 725" style="enable-background:new 0 0 1050 725;" xml:space="preserve">
<style type="text/css">
	.st0{fill:none;stroke:#FF885F;stroke-width:30;stroke-miterlimit:10;}
	.st1{fill:#FF885F;}
</style>
<circle class="st0" cx="525" cy="260.5" r="171"/>
<circle class="st0" cx="525" cy="211.1" r="73.3"/>
<path class="st0" d="M525,431.4c44.8,0,85.6-17.3,116-45.5c-1.1-51.8-36.2-95.3-83.8-109c-9.7,4.8-20.6,7.4-32.2,7.4
	c-11.6,0-22.5-2.7-32.2-7.4c-47.7,13.7-82.7,57.2-83.8,109C439.4,414.2,480.2,431.4,525,431.4z"/>
<circle class="st0" cx="188.9" cy="260.4" r="60.8"/>
<circle class="st1" cx="301.4" cy="260.7" r="16.4"/>
<circle class="st0" cx="861.1" cy="260.6" r="60.8"/>
<circle class="st1" cx="748.6" cy="260.2" r="16.4"/>
<circle class="st0" cx="762.6" cy="498.2" r="60.8"/>
<circle class="st1" cx="683.3" cy="418.4" r="16.4"/>
<circle class="st0" cx="524.9" cy="596.6" r="60.8"/>
<circle class="st1" cx="525.3" cy="484.1" r="16.4"/>
<circle class="st0" cx="287.3" cy="498.1" r="60.8"/>
<circle class="st1" cx="367" cy="418.8" r="16.4"/>
</svg>
