<svg version="1.1" xmlns="http://www.w3.org/2000/svg" xmlns:xlink="http://www.w3.org/1999/xlink" x="0px" y="0px"
	 viewBox="0 0 1430 500" style="enable-background:new 0 0 1430 500;" xml:space="preserve">
<g>
	<path fill="#ffffff" d="M546.3,303.8c-27-8.1-46.6-33.2-46.6-62.9c0-5.4,0.6-10.6,1.8-15.5l42.6,5.5c0,0,16.4,0.7,15.8,29.7
		C559.3,288.7,546.3,303.8,546.3,303.8"/>
	<path fill="#ffffff" d="M584.4,303.8c27-8.1,46.6-33.2,46.6-62.9c0-5.4-0.6-10.6-1.8-15.5l-42.6,5.5c0,0-16.4,0.7-15.8,29.7
		C571.4,288.7,584.4,303.8,584.4,303.8"/>
	<path fill="#ffffff" d="M565.3,193.9c5.5,0,9.9,4.4,9.9,9.9c0,4.3-2.9,7.5-6.5,9.4c-0.4,0.2-0.8,0.4-0.8,1.1c0.1,0.7,2.1,1.1,3,1.3
		l57.3,6.6c-8-27.2-33.2-47-63-47h-0.1c-29.8,0-54.9,19.8-63,47l57.3-6.6c0.9-0.2,2.9-0.6,3-1.3c0.1-0.7-0.3-0.9-0.8-1.1
		c-3.6-1.9-6.5-5.1-6.5-9.4C555.4,198.4,559.9,193.9,565.3,193.9"/>
	<path fill="#ffffff" d="M591.5,350.3l3.9-2.4c0,0-18.4-25-59.6-25c-21.1,0-32,8.5-46.8,8.5c0,0-6.1,0.7-11.9-2.9c0,0,7,10.2,32.5,10.2
		c18.7,0,32-10.9,45.1-10.9C572.6,327.7,586,343.7,591.5,350.3"/>
	<path fill="#ffffff" d="M534.3,350.3l-3.9-2.4c0,0,18.4-25,59.6-25c21.1,0,32,8.5,46.8,8.5c0,0,6.1,0.7,11.9-2.9c0,0-7,10.2-32.5,10.2
		c-18.7,0-32-10.9-45.1-10.9C553.2,327.7,539.9,343.7,534.3,350.3"/>
	<path fill="#ffffff" d="M514.7,320.7c-0.7,1.9-8.6-0.4-13.9,1.2c-6,1.8-37.5,5.6-51.3-27.2c0,0,13.1,14.1,23.3,15
		c10.2,1,21.3,3.4,30.8,8.7l2.2,0.5c0,0-0.3-1-1.2-1.5c-1.2-0.7-11-3.8-15.8-19.4c-2.4-8-1.9-13.8-2.9-17.9c0,0,10.7,11.9,15,19.4
		C505.2,307.1,505.7,315.6,514.7,320.7"/>
	<path fill="#ffffff" d="M482.5,304.2c-0.8,0.8-2.8-0.5-3.5-0.8c-0.7-0.4-6-2.8-14.9-5.9c-8.9-3.1-25.3-17.1-23.8-41
		c0,0,2.3,9,9.1,14.9c6.8,5.9,9.2,6.7,13.3,11.5c4.1,4.9,13.4,15.9,13.8,15.8c0.4-0.1,0.5-0.7-0.2-1.3c-0.7-0.6-3.2-6.7-4.7-8.7
		c-1.6-2.1-6.3-16.2,0.6-33.7c0,0,7.4,12.7,6.9,25.6c-0.5,12.8-1.1,9.8,2.1,20.5C481.2,300.9,482.9,303.8,482.5,304.2"/>
	<path fill="#ffffff" d="M461.9,273c-0.4,0.4-2.3-2.3-3.8-4.9c-1.4-2.5-11.6-13.5-13-15.6c-1.3-2.2-12.7-16-4.1-36.5
		c0,0,0.8-0.2,0.8,4.6c0,4.9,4.5,15.6,8.1,20.2c3.6,4.6,6.9,12,7.6,19.9c0,0,0.5,1.5,1.1,1.6c0.6,0.1,0.6-1.5,0.6-1.5
		s-0.5-7.3-0.5-12.2c0-5,2.2-13.5,6.9-18.3c0,0,2.2-2.4,3.5-5.3c0,0,0.8-1.9,2.1-2.9c0,0,1,13.9-3.8,26.9c-4.7,13-6.3,15.2-5.6,22.2
		C462,271.2,462.2,272.8,461.9,273"/>
	<path fill="#ffffff" d="M453.9,234.7c-0.5,0-0.8-1.7-1.1-3c-0.2-1.3-1.7-9.1-2.7-10.8c-1-1.7-4.6-9.5-4.7-18.5
		c-0.1-9.1,4-21.5,13.2-31.3c0,0-0.4,2.9-2.8,9.3c-2.4,6.4-1,12.5-0.7,13.6c0.3,1.1,1.1,8.6,1.1,12.1c0,2.8-0.7,12.4-1.3,14.3
		c0,0-0.2,1.3,0.2,1.3c0.5,0,1-1.1,1-1.1s0.5-7.5,6.1-14.3c5.6-6.8,15.6-10.9,17.2-13.9c0,0-0.7,10.7-12.5,23.1
		c-10.5,11.1-7.4,5.5-10.8,14.5c0,0-1.5,3.4-1.5,4.1C454.7,235,453.9,234.7,453.9,234.7"/>
	<path fill="#ffffff" d="M460.4,198.9c0,0-0.2-1.5,1.6-4.7c1.8-3.3-0.1-9.1,2.3-17.6c2.4-8.5,6.9-23,24-31.8c0,0-1.7,1.6-2.5,2.8
		c-0.8,1.2-5.5,9.9-6.8,16c-1.3,6.1-7.2,16.2-9.3,18.5c-2.2,2.3-1.2,2.6-1.2,2.6s1.1-0.3,2.2-1.9c1.1-1.7,6.7-8,12.8-9.5
		c6.2-1.5,16-4.4,16.6-5c0,0-10.7,10.9-20.5,16.5c-9.8,5.6-10.9,3.9-16.7,11.4C462.8,196.2,460.8,198.9,460.4,198.9"/>
	<path fill="#ffffff" d="M483.9,166.5c0,0,0-1,1.8-2.7c1.8-1.7,3.6-6.8,6.8-11.5c3.2-4.7,10.3-17.1,28.9-20c0,0-5.6,4.1-6.4,5.5
		c-0.8,1.3-6.3,8.5-8.7,10.9c-2.4,2.4-9.3,7.5-11.6,8.6c0,0-1.2,1-1,1.3c0.2,0.4,1.4-0.4,1.4-0.4s6.4-5,14.2-5.2
		c7.8-0.2,15.9,0.1,17.1,0.2c0,0-7.3,5-24.6,8.1c-17.3,3.2-14.1,3.3-16.7,5C485,166.4,484.4,166.8,483.9,166.5"/>
	<path fill="#ffffff" d="M514.8,146.4c0,0,0.4-1,3.2-1.8c2.8-0.8,2.5-3.5,11-8c8.5-4.5,17.3-6.5,26.3-2.8c0,0-3.8,0.5-4.4,0.7
		c-0.6,0.2-7,1.9-8.8,2.9c-1.8,1-11.2,5.1-14.9,5.8c-3.8,0.7-1.9,1-1.9,1s0.8,0.4,1.6,0.4s9.1-0.8,14.5,1.1c5.5,1.9,5.3,2.7,7.5,3.4
		c2.2,0.7,4.7,1.2,5.1,2.1c0,0-5.5,0.5-8.7,0.5c-3.3,0-11.9-0.8-16-2.8c-4.1-1.9-8.9-2.8-10.4-2.4
		C517.2,146.7,515.3,146.7,514.8,146.4"/>
	<path fill="#ffffff" d="M549.2,142.1c0,0,0.4-0.5,2.8-1c2.4-0.5,3-1.9,8.7-3.2c5.7-1.2,14.5-2.3,22.7,3.3c0,0-5-0.1-6.1-0.1
		c-1.1,0-10.6,1.7-12.7,1.7s-6.5-1-7.2-0.3c-0.6,0.7,4,1.7,4.7,1.9c0.7,0.2,4,0.5,8.1,4.5c4.1,4,7,6.2,7.5,6.4
		c0,0-12.1-2.8-15.2-4.5c-3-1.7-8.2-6.9-9.1-7.3C552.7,143.3,549.2,142.1,549.2,142.1"/>
	<path fill="#ffffff" d="M577.2,147.1c0,0,7.6-0.2,13.2,3.3c5.6,3.5,10.1,8.1,10.5,10.9c0,0-3.1-2.7-5.2-3.3c-2.1-0.6-7.9-3.9-9.1-4.6
		C585.5,152.7,578.4,148.2,577.2,147.1"/>
	<path fill="#ffffff" d="M613.1,322c0,0,1.1-1.1,4.7-4.2c3.6-3.2,4.6-7.8,8.6-14.9c4-7.1,7.4-12.1,15.5-19.4c0,0-1.5,5.5-1.6,7.2
		c-0.1,1.7-1.5,11.2-6.1,16.6c-4.6,5.5-4.8,6.7-10.2,9.9c0,0-2.1,1.5-1.9,1.9c0.1,0.5,3.6-0.1,3.6-0.1s3.9-1.5,5.1-2.2
		c1.2-0.7,6.7-3.5,8.8-4.4c2.2-0.8,4-1.7,8.9-3.2c4.8-1.5,22.4-5.9,29.3-17.1c0,0-2.1,6.5-4.6,9.6c-2.5,3-17,22.1-37,21.7
		c0,0-7.9-0.6-12-1.3c-4.1-0.7-5.6-0.7-6.2-0.6C617.6,321.7,613.7,322.4,613.1,322"/>
	<path fill="#ffffff" d="M657.8,254c0,0-7.5,11.8-9.2,28.7c-1.7,17,1.2,11.9-1.6,19.4c0,0-1,1.9-0.6,2.1c0.4,0.1,1.8-0.7,7.1-4
		c5.3-3.3,10.6-2.3,21.9-13.2c11.4-10.9,13.7-32.6,13.9-34.4c0,0-1.7,1.7-2.5,4.6c-0.8,2.9-2.7,5.2-3,5.6
		c-0.4,0.4-12.7,13.9-14.2,15.2c-1.5,1.2-8.7,10.1-10.3,12.6c-1.6,2.5-6.2,7.2-7,6.8c0,0,0.1-1.1,0.5-1.9c0.4-0.8,3.8-5.5,5.2-10.8
		c1.5-5.3,1.8-8.6,1.9-12C660.1,269.2,658,256.7,657.8,254"/>
	<path fill="#ffffff" d="M668,270.4c0,0-0.8-1.8-0.1-3c0.4-0.7,0.7-6.5-1.5-11.3c-2.2-4.7-6.9-17.8-6.5-26.6c0.4-8.7,1.3-9.9,1.3-9.9
		s2.4,7.1,3.2,8.4c0.7,1.2,8,14.1,7.4,21.1c-0.6,7-1,9.2-0.6,9.3c0.4,0.1,1.2-0.8,1.3-1.7c0.1-0.8,1.3-5.7,3.6-11.4
		c2.3-5.7,11.6-18.3,13.7-26.7c0,0,3,14.5-5.1,28.1c-8.1,13.6-9,10.6-12.4,16.7C669,269.7,668.5,270.4,668,270.4"/>
	<path fill="#ffffff" d="M675.4,231.9c-0.6-0.1-0.2-5.7-1.7-7.5c-1.5-1.8-13.9-16.6-16.6-31.4c0,0,7.9,8,9.2,8.9
		c1.3,0.8,6.7,6.2,8.2,10.8c1.6,4.6,1.2,8.5,1.8,8.6c0.6,0.1,0.6-5.1,0.6-5.1s0.1-10.2,1-15c0.8-4.9,3-13,2.1-17.1
		c0,0,4.7,7.5,4.5,18.2c-0.2,10.7-4.7,19.2-5.3,20.4c-0.6,1.2-2.3,6.4-2.3,7.5C676.9,231.2,675.4,231.9,675.4,231.9"/>
	<path fill="#ffffff" d="M660.6,156.1c0,0,16.4,9.7,13.8,42.2c0,0,0,1.5-1-0.1c-1-1.6-4.5-6.1-6.1-7c-1.6-1-16.1-9.8-22.3-23.4
		c0,0,1-0.2,2.4,1.1c1.5,1.3,5.9,3.6,6.7,4c0.7,0.4,5.8,1.7,9.6,5.8c3.8,4.1,5.1,7.1,6.2,9.6c0,0,1.1,0.8,0.4-1.6
		c-0.7-2.4-0.8-4-2.8-7c-1.9-3-3.6-8.5-3.9-12.2C663.4,163.6,662.3,158,660.6,156.1"/>
	<path fill="#ffffff" d="M657.8,167.5c0,0,0.4-2.2-1.2-5.2c-1.6-3-0.3-6.4-5.3-14.4c-2.8-4.5-12.5-8-12.5-8s2.8,3.9,4.6,6.1
		c1.8,2.2,2.4,3.8,3,4.8c0.6,1.1,4,4.3,5.2,6.2c0.2,0.4,0.7,1.3,0.7,1.9c0,0.6-1.3-0.4-1.7-0.7c-0.4-0.4-6.3-4.8-10.1-5.6
		c-3.8-0.7-10.9-1.5-12.8-2.4c0,0,8.5,7.6,17.7,9.9C654.7,162.4,657.8,167.5,657.8,167.5"/>
	<path fill="#ffffff" d="M638.7,147.4c0,0-8.5-11.5-23.6-11.3c0,0,0.8,0.8,2.5,1.2c1.7,0.4,4.7,3.4,6.3,4.4
		C625.5,142.7,628.7,145.1,638.7,147.4"/>
	<path fill="#ffffff" d="M173.4,131.7v142.4c0,12.4-2.1,23.4-6.2,33c-4.1,9.5-9.9,17.5-17.2,23.9c-7.3,6.4-16,11.3-26.2,14.5
		c-10.1,3.3-21.2,4.9-33.1,4.9c-12.1,0-23.1-1.6-33.3-4.9c-10.1-3.3-18.8-8.1-26.2-14.5c-7.3-6.4-13-14.4-17.1-23.9
		c-4.1-9.5-6.2-20.5-6.2-33V131.7h44.5v142.4c0,14.1,3.4,24.4,10.1,30.9c6.8,6.5,16.1,9.7,28.1,9.7c12.1,0,21.4-3.2,28.1-9.7
		c6.7-6.5,10-16.8,10-30.9V131.7H173.4z"/>
	<polygon fill="#ffffff" points="385.3,347.4 340.9,347.4 254.3,205.5 254.3,347.4 209.9,347.4 209.9,131.7 254.3,131.7 341,273.9 
		341,131.7 385.3,131.7 	"/>
</g>
<g>
	<path fill="#ffffff" d="M772.1,222.8c-9.3,0-16.9-2.9-22.8-8.8c-5.9-5.8-8.8-13.6-8.8-23.3v-1.7c0-6.5,1.2-12.4,3.7-17.5
		c2.5-5.1,6-9.1,10.5-11.9c4.5-2.8,9.7-4.2,15.5-4.2c8.7,0,15.6,2.8,20.6,8.4c5,5.6,7.5,13.5,7.5,23.8v7.1h-40.5
		c0.5,4.2,2.2,7.6,5,10.2c2.8,2.6,6.3,3.8,10.5,3.8c6.5,0,11.7-2.4,15.4-7.3l8.3,9.5c-2.5,3.7-6,6.5-10.3,8.6
		C782.2,221.8,777.4,222.8,772.1,222.8 M770.1,169.5c-3.4,0-6.1,1.2-8.2,3.5c-2.1,2.3-3.4,5.7-4,10h23.7v-1.4
		c-0.1-3.9-1.1-6.8-3.1-8.9C776.5,170.5,773.7,169.5,770.1,169.5"/>
	<path fill="#ffffff" d="M824.3,156.7l0.5,7.5c4.6-5.8,10.7-8.7,18.3-8.7c6.7,0,11.8,2,15.1,6.1c3.3,4,5,10.1,5.1,18.1v41.9h-17v-41.5
		c0-3.7-0.8-6.4-2.3-8c-1.6-1.7-4.2-2.5-7.8-2.5c-4.8,0-8.4,2.1-10.8,6.2v45.8h-17v-64.9H824.3z"/>
	<polygon fill="#ffffff" points="900.7,200.4 912.5,156.7 930.3,156.7 908.8,221.6 892.5,221.6 871.1,156.7 888.8,156.7 	"/>
	<path fill="#ffffff" d="M938.3,139.9c0-2.6,0.9-4.8,2.6-6.4c1.7-1.7,4-2.5,7-2.5c2.9,0,5.2,0.8,6.9,2.5c1.7,1.7,2.6,3.8,2.6,6.4
		c0,2.6-0.9,4.8-2.6,6.5c-1.7,1.7-4,2.5-6.9,2.5c-2.9,0-5.2-0.8-6.9-2.5C939.2,144.7,938.3,142.5,938.3,139.9 M956.4,221.6h-17.1
		v-64.9h17.1V221.6z"/>
	<path fill="#ffffff" d="M1006.9,173c-2.3-0.3-4.4-0.5-6.1-0.5c-6.4,0-10.6,2.2-12.7,6.7v42.5h-17v-64.9h16.1l0.5,7.7
		c3.4-6,8.1-9,14.2-9c1.9,0,3.6,0.3,5.3,0.8L1006.9,173z"/>
	<path fill="#ffffff" d="M1011,188.6c0-6.5,1.2-12.2,3.6-17.2c2.4-5,5.9-8.9,10.5-11.7c4.6-2.8,9.9-4.1,15.9-4.1c8.6,0,15.6,2.7,21,8
		c5.4,5.4,8.5,12.7,9.1,21.8l0.1,4.4c0,10-2.7,17.9-8.2,24c-5.5,6-12.8,9-21.9,9c-9.2,0-16.5-3-22-9c-5.5-6-8.2-14.2-8.2-24.5V188.6
		z M1028,189.8c0,6.2,1.1,10.9,3.4,14.2c2.3,3.3,5.5,4.9,9.8,4.9c4.1,0,7.3-1.6,9.6-4.8c2.3-3.2,3.5-8.4,3.5-15.5
		c0-6-1.2-10.7-3.5-14.1c-2.3-3.3-5.6-5-9.8-5c-4.2,0-7.4,1.7-9.6,5C1029.2,177.7,1028,182.9,1028,189.8"/>
	<path fill="#ffffff" d="M1098.2,156.7l0.5,7.5c4.6-5.8,10.7-8.7,18.3-8.7c6.7,0,11.8,2,15.1,6.1c3.3,4,5,10.1,5.1,18.1v41.9h-17v-41.5
		c0-3.7-0.8-6.4-2.3-8c-1.6-1.7-4.2-2.5-7.8-2.5c-4.8,0-8.4,2.1-10.8,6.2v45.8h-17v-64.9H1098.2z"/>
	<path fill="#ffffff" d="M1166.7,156.7l0.5,7.3c4.5-5.6,10.6-8.5,18.3-8.5c8.2,0,13.8,3.3,16.9,9.9c4.5-6.6,10.8-9.9,19.1-9.9
		c6.9,0,12,2.1,15.4,6.2c3.4,4.1,5,10.3,5,18.5v41.5h-17.1v-41.4c0-3.7-0.7-6.4-2.1-8.1c-1.4-1.7-3.9-2.6-7.5-2.6
		c-5.1,0-8.6,2.5-10.6,7.5l0.1,44.6h-17v-41.3c0-3.8-0.7-6.5-2.2-8.2c-1.4-1.7-3.9-2.5-7.4-2.5c-4.8,0-8.3,2-10.5,6.1v45.9h-17
		v-64.9H1166.7z"/>
	<path fill="#ffffff" d="M1285.1,222.8c-9.3,0-16.9-2.9-22.8-8.8c-5.9-5.8-8.8-13.6-8.8-23.3v-1.7c0-6.5,1.2-12.4,3.7-17.5
		c2.5-5.1,6-9.1,10.5-11.9c4.5-2.8,9.7-4.2,15.5-4.2c8.7,0,15.6,2.8,20.6,8.4c5,5.6,7.5,13.5,7.5,23.8v7.1h-40.5
		c0.5,4.2,2.2,7.6,5,10.2c2.8,2.6,6.3,3.8,10.5,3.8c6.5,0,11.7-2.4,15.4-7.3l8.3,9.5c-2.5,3.7-6,6.5-10.3,8.6
		C1295.2,221.8,1290.4,222.8,1285.1,222.8 M1283.1,169.5c-3.4,0-6.1,1.2-8.2,3.5c-2.1,2.3-3.4,5.7-4,10h23.6v-1.4
		c-0.1-3.9-1.1-6.8-3.1-8.9C1289.5,170.5,1286.7,169.5,1283.1,169.5"/>
	<path fill="#ffffff" d="M1337.3,156.7l0.5,7.5c4.6-5.8,10.7-8.7,18.3-8.7c6.7,0,11.8,2,15.1,6.1c3.3,4,5,10.1,5.1,18.1v41.9h-17v-41.5
		c0-3.7-0.8-6.4-2.3-8c-1.6-1.7-4.2-2.5-7.8-2.5c-4.8,0-8.4,2.1-10.8,6.2v45.8h-17v-64.9H1337.3z"/>
	<path fill="#ffffff" d="M1410.2,140.7v16h10.9v12.7h-10.9v32.4c0,2.4,0.4,4.1,1.4,5.2c0.9,1,2.6,1.6,5.2,1.6c1.9,0,3.5-0.1,5-0.4v13.1
		c-3.3,1-6.8,1.6-10.3,1.6c-11.9,0-18-6.1-18.2-18.4v-35h-9.3v-12.7h9.3v-16H1410.2z"/>
	<path fill="#ffffff" d="M800.1,306.6c0,10-2.2,18-6.7,24c-4.4,6-10.5,9-18,9c-6.4,0-11.6-2.3-15.6-6.8v30.6h-17v-89.9h15.8l0.6,6.4
		c4.1-5,9.5-7.6,16.1-7.6c7.8,0,13.9,3,18.3,8.9c4.4,5.9,6.5,14.1,6.5,24.5V306.6z M783.1,305.3c0-6-1.1-10.7-3.2-14
		c-2.1-3.3-5.1-4.9-9.1-4.9c-5.3,0-9,2.1-11,6.2v26.6c2.1,4.3,5.8,6.4,11.1,6.4C779,325.7,783.1,318.9,783.1,305.3"/>
	<path fill="#ffffff" d="M847.1,289.8c-2.3-0.3-4.4-0.5-6.1-0.5c-6.4,0-10.7,2.2-12.7,6.7v42.5h-17v-64.9h16.1l0.5,7.7
		c3.4-6,8.1-8.9,14.2-8.9c1.9,0,3.6,0.3,5.3,0.8L847.1,289.8z"/>
	<path fill="#ffffff" d="M851.2,305.4c0-6.5,1.2-12.2,3.6-17.2c2.4-5,5.9-8.9,10.5-11.7c4.6-2.8,9.9-4.1,15.9-4.1c8.6,0,15.6,2.7,21,8
		c5.4,5.4,8.5,12.7,9.1,21.8l0.1,4.4c0,10-2.7,17.9-8.2,24c-5.5,6-12.8,9-21.9,9c-9.2,0-16.5-3-22-9c-5.5-6-8.2-14.2-8.2-24.5V305.4
		z M868.2,306.6c0,6.2,1.1,10.9,3.4,14.2c2.3,3.3,5.5,4.9,9.8,4.9c4.1,0,7.3-1.6,9.6-4.8c2.3-3.2,3.5-8.4,3.5-15.5
		c0-6-1.2-10.7-3.5-14.1c-2.3-3.3-5.6-5-9.8-5c-4.2,0-7.4,1.6-9.6,5C869.4,294.5,868.2,299.7,868.2,306.6"/>
	<path fill="#ffffff" d="M920.3,305.5c0-10,2.3-18,7-24.1c4.6-6.1,10.9-9.1,18.8-9.1c7,0,12.4,2.4,16.3,7.3l0.7-6.1h15.4v62.8
		c0,5.7-1.3,10.6-3.8,14.8c-2.5,4.2-6.1,7.4-10.7,9.6c-4.6,2.2-10,3.3-16.1,3.3c-4.7,0-9.2-1-13.7-2.9c-4.4-1.9-7.8-4.4-10.1-7.4
		l7.5-10.6c4.2,4.8,9.4,7.3,15.4,7.3c4.5,0,8-1.2,10.5-3.7c2.5-2.5,3.8-6,3.8-10.5v-3.5c-3.9,4.5-9.1,6.8-15.5,6.8
		c-7.6,0-13.8-3.1-18.6-9.2c-4.7-6.1-7.1-14.2-7.1-24.3V305.5z M937.3,306.8c0,5.9,1.2,10.5,3.5,13.8c2.3,3.4,5.5,5,9.5,5
		c5.2,0,8.9-2,11.1-6v-27.3c-2.3-4-5.9-6-11-6c-4.1,0-7.3,1.7-9.6,5.1C938.4,294.9,937.3,300,937.3,306.8"/>
	<path fill="#ffffff" d="M1028,289.8c-2.3-0.3-4.4-0.5-6.1-0.5c-6.4,0-10.6,2.2-12.7,6.7v42.5h-17v-64.9h16.1l0.5,7.7
		c3.4-6,8.1-8.9,14.2-8.9c1.9,0,3.6,0.3,5.3,0.8L1028,289.8z"/>
	<path fill="#ffffff" d="M1072,338.4c-0.8-1.6-1.4-3.5-1.7-5.8c-4.1,4.7-9.5,7-16.1,7c-6.2,0-11.4-1.8-15.5-5.5
		c-4.1-3.7-6.2-8.3-6.2-13.9c0-6.9,2.5-12.2,7.5-15.8c5-3.7,12.2-5.5,21.7-5.6h7.8V295c0-3-0.8-5.4-2.3-7.2s-3.9-2.7-7.1-2.7
		c-2.9,0-5.1,0.7-6.7,2.1c-1.6,1.4-2.4,3.3-2.4,5.8h-17c0-3.8,1.1-7.2,3.4-10.4c2.3-3.2,5.5-5.7,9.6-7.5c4.2-1.8,8.8-2.7,14-2.7
		c7.8,0,14.1,2,18.7,6c4.6,4,6.9,9.7,6.9,16.9v28.1c0,6.2,0.9,10.8,2.5,14v1H1072z M1058,326.4c2.5,0,4.8-0.6,6.9-1.7
		c2.1-1.1,3.7-2.7,4.7-4.6v-11.2h-6.4c-8.5,0-13,3-13.6,9l-0.1,1c0,2.2,0.7,3.9,2.2,5.3C1053.3,325.7,1055.4,326.4,1058,326.4"/>
	<path fill="#ffffff" d="M1116.4,273.5l0.5,7.3c4.5-5.6,10.6-8.5,18.3-8.5c8.2,0,13.8,3.3,16.9,9.9c4.5-6.6,10.8-9.9,19.1-9.9
		c6.9,0,12,2.1,15.4,6.2c3.4,4.1,5,10.3,5,18.5v41.5h-17.1V297c0-3.7-0.7-6.4-2.1-8.1c-1.4-1.7-3.9-2.6-7.5-2.6
		c-5.1,0-8.6,2.5-10.6,7.4l0.1,44.6h-17v-41.3c0-3.8-0.7-6.5-2.2-8.2c-1.4-1.7-3.9-2.5-7.4-2.5c-4.8,0-8.3,2-10.5,6.1v45.9h-17
		v-64.9H1116.4z"/>
	<path fill="#ffffff" d="M1221.4,273.5l0.5,7.3c4.5-5.6,10.6-8.5,18.3-8.5c8.2,0,13.8,3.3,16.9,9.9c4.5-6.6,10.8-9.9,19.1-9.9
		c6.9,0,12,2.1,15.4,6.2c3.4,4.1,5,10.3,5,18.5v41.5h-17.1V297c0-3.7-0.7-6.4-2.1-8.1c-1.4-1.7-3.9-2.6-7.5-2.6
		c-5.1,0-8.6,2.5-10.6,7.4l0.1,44.6h-17v-41.3c0-3.8-0.7-6.5-2.2-8.2c-1.4-1.7-3.9-2.5-7.4-2.5c-4.8,0-8.3,2-10.5,6.1v45.9h-17
		v-64.9H1221.4z"/>
	<path fill="#ffffff" d="M1339.8,339.6c-9.3,0-16.9-2.9-22.8-8.8c-5.9-5.8-8.8-13.6-8.8-23.3v-1.7c0-6.5,1.2-12.4,3.7-17.5
		c2.5-5.1,6-9.1,10.5-11.9c4.5-2.8,9.7-4.2,15.5-4.2c8.7,0,15.6,2.8,20.6,8.4c5,5.6,7.5,13.5,7.5,23.8v7.1h-40.5
		c0.5,4.2,2.2,7.6,5,10.2c2.8,2.6,6.3,3.8,10.5,3.8c6.5,0,11.7-2.4,15.3-7.3l8.4,9.5c-2.5,3.7-6,6.5-10.3,8.6
		C1349.9,338.6,1345.1,339.6,1339.8,339.6 M1337.9,286.3c-3.4,0-6.1,1.2-8.2,3.5c-2.1,2.3-3.4,5.7-4,10h23.6v-1.4
		c-0.1-3.9-1.1-6.8-3.1-8.9C1344.3,287.3,1341.5,286.3,1337.9,286.3"/>
</g>
</svg>
