<?xml version="1.0" encoding="utf-8"?>
<!-- Generator: Adobe Illustrator 27.0.0, SVG Export Plug-In . SVG Version: 6.00 Build 0)  -->
<svg version="1.1" id="Layer_1" xmlns="http://www.w3.org/2000/svg" xmlns:xlink="http://www.w3.org/1999/xlink" x="0px" y="0px"
	 viewBox="0 0 1200 430.4" style="enable-background:new 0 0 1200 430.4;" xml:space="preserve">
<style type="text/css">
	.st0{fill:#FFFFFF;}
</style>
<g>
	<polygon class="st0" points="138.5,236.5 137.9,235 137.4,236.9 139.2,238.1 	"/>
	<polygon class="st0" points="93,280.5 90.8,279.7 91.1,282.8 92.7,284 92.6,285.4 94.4,285.8 94.3,283.4 	"/>
	<polygon class="st0" points="118.5,317.2 116.2,316.9 116.1,318.8 118.5,322.4 120.5,320.1 118.7,318.4 	"/>
	<polygon class="st0" points="241.2,262.4 240.1,263.8 240.3,266.1 241.3,267.1 242.2,266.4 242,263.7 242.4,263.2 	"/>
	<path class="st0" d="M257.9,240.7l1-1.6c0,0,0.1-0.7,0.3-1.1c0.1-0.3-1.7-0.1-1.7-0.1l-0.2-1.1l-2.5-0.1l-1,2l3.2,1.7L257.9,240.7z
		"/>
	<path class="st0" d="M255,176.6c0,0-0.1,1.4-0.2,1.9c-0.1,0.5,1.1,0.9,1.1,0.9s0.5,1.1,0.7,1.6c0.2,0.5,1.2,0.3,1.2,0.3l0.1-2.4
		l-1.1-1.9L255,176.6z"/>
	<polygon class="st0" points="242.9,186.3 243.9,187.5 241.4,188.9 242.3,189.3 242.3,190.9 241.3,191.8 241.3,194 240,194.7 
		239.2,197 242.5,196.7 243.9,195.9 243.9,194.7 248.3,195.3 248.9,193.2 246.9,192.6 245.2,192.5 243.8,193.7 244,191.2 245.1,191 
		244.6,189.1 246.8,189 246.3,185.2 245.3,184.9 	"/>
	<path class="st0" d="M220.9,147.4l-1.9-3.5l-2.7-1.2l-0.1-0.9l-0.8,0c-0.1,0.3-0.2,2.5-0.2,2.5l3.8,5.8l2.8,0.2l0.8,0.7h2.4l-2-2.8
		L220.9,147.4z"/>
	<polygon class="st0" points="228.1,153.9 227.8,152.9 226,153.1 226,155.1 227.3,156.1 231.3,156.1 230.1,154.4 	"/>
	<polygon class="st0" points="251.2,134.3 253.3,134.5 252.3,133.6 252.4,130.4 251.5,129.3 247,129.6 246.4,130.6 249.9,132 	"/>
	<path class="st0" d="M305.6,243.2l-0.3-2.7c0,0-1.9,1.6-2,1.9c0,0.3-0.1,1.8-0.1,1.8l1.5-0.2L305.6,243.2z"/>
	<polygon class="st0" points="294,270.1 292.9,270 292.5,271.4 291.5,272 291.8,273.6 293.7,273.4 295.7,271.1 295.9,269 
		294.6,268.8 	"/>
	<polygon class="st0" points="298.6,269.2 299.4,266.4 298,265.8 297.5,268.2 	"/>
	<polygon class="st0" points="301.3,263.4 300.3,263 299.5,264.3 299.8,264.8 	"/>
	<polygon class="st0" points="186.4,257.1 186.4,256.3 185.6,256.8 185.6,257.6 186.1,258 	"/>
	<path class="st0" d="M87.3,138.3c-13.2,11.4-19.4,8-31.5,26.4c0.7-1.1,2.7-4.3,2.8-5.2c2.6-35.2,3.8-36.8,8.2-60.3
		c-16.3,23.8-23,51.1-17.4,82.3C61,172.6,85.1,159.4,87.3,138.3z"/>
	<path class="st0" d="M95.9,106c-16.8,9-31.1,22.7-32.5,44.3C83.5,139,91,120.3,95.9,106z"/>
	<path class="st0" d="M71.6,171.5c-11.9,6.3-23.1,19.8-27.4,31.2c2.2-17.7-4.1-46-4.3-67.3c-17.1,27.2-11.6,65.2,0.3,93.2
		C50.4,209,69.9,193.7,71.6,171.5z"/>
	<path class="st0" d="M58.5,209.5c-9.8,9.5-12.9,20.5-16.7,32.7c-9.7-17.4-14.8-36.3-22-55.2c-5.6,33.7,6.9,56.2,25.8,77.4
		C53.3,247.8,65,227.5,58.5,209.5z"/>
	<path class="st0" d="M63.3,312.7c1.6-23.2,7.7-47.7-2.6-69.4c-6.5,13.2-8.7,21.9-8.4,44.1c-7.4-18.6-22.5-30.9-34.7-49.8
		C20.9,271.3,34.2,292.7,63.3,312.7z"/>
	<path class="st0" d="M69.9,281.3c2.2,16.9-3.1,22.4,3.8,48c-19.1-19.4-31.4-21.7-42.8-39l10.3,26.9c9.7,21.1,33,28,53.6,31.7
		C88.3,325.6,87.8,298.7,69.9,281.3z"/>
	<path class="st0" d="M133.8,367.9c-18-7-18.2-44.8-41.7-54.4c0,0,0,0,0,0.3c9.9,16.8,3.3,33.2,17.3,44.8c-14.6-9.5-39-6.1-50.9-14
		c6.5,8.5,15.2,17.9,24.4,23.2C98.6,376.8,116.5,366.8,133.8,367.9z"/>
	<path class="st0" d="M200.5,375.5c-1.4,0.6-2.7,1.2-4,1.7c-1.3-0.6-2.6-1.1-4-1.7c-33.8-14.4-75.5,1.4-108,3.5
		c30.9,22.2,94.9-3.3,103.6-1.7c1.7,0.3,3.4,0.9,5.1,1.5c-24.6,11.3-34.5,20.6-34.2,27.2c0.2,4.6,12.4-9.7,19.7-14.8
		c5.8-4.4,11.7-8.4,17.8-11.1c6,2.7,12,6.7,17.7,11.1c7.3,5,19.6,19.4,19.8,14.8c0.3-6.6-9.6-15.8-34.2-27.2
		c1.7-0.6,3.4-1.1,5.1-1.4c8.7-1.7,72.7,23.9,103.6,1.7C276,376.8,234.3,361,200.5,375.5z"/>
	<path class="st0" d="M337.3,164.8c-12.1-18.5-18.3-15.1-31.5-26.5c2.2,21.1,26.3,34.3,37.9,43.3c5.5-31.3-1.2-58.6-17.4-82.3
		c4.4,23.5,5.6,25,8.2,60.3C334.5,160.4,336.7,163.8,337.3,164.8z"/>
	<path class="st0" d="M329.7,150.4c-1.4-21.6-15.7-35.4-32.5-44.3C302.1,120.3,309.6,139,329.7,150.4z"/>
	<path class="st0" d="M321.5,171.5c1.6,22.2,21.1,37.5,31.4,57c11.9-28,17.3-66,0.3-93.2c-0.2,21.3-6.6,49.6-4.3,67.3
		C344.6,191.3,333.4,177.8,321.5,171.5z"/>
	<path class="st0" d="M334.5,209.5c-6.5,18,5.2,38.3,12.9,54.9c18.9-21.2,31.4-43.7,25.8-77.4c-7.2,18.9-12.3,37.8-22,55.2
		C347.5,230,344.3,219,334.5,209.5z"/>
	<path class="st0" d="M332.4,243.3c-10.3,21.6-4.2,46.2-2.6,69.4c29.1-19.9,42.4-41.4,45.7-75.1c-12.3,18.9-27.3,31.1-34.7,49.8
		C341.1,265.2,338.9,256.5,332.4,243.3z"/>
	<path class="st0" d="M319.4,329.3c6.9-25.5,1.6-31.1,3.8-48c-17.9,17.4-18.4,44.3-24.9,67.6c20.6-3.7,43.9-10.6,53.6-31.7
		l10.3-26.9C350.8,307.6,338.5,309.9,319.4,329.3z"/>
	<path class="st0" d="M300.9,313.8c0.1-0.4,0-0.3,0-0.3c-23.5,9.6-23.7,47.4-41.7,54.4c17.3-1,35.2,9,50.9,0
		c9.2-5.3,17.9-14.8,24.4-23.2c-11.9,7.9-36.3,4.5-50.9,14C297.6,347,291,330.6,300.9,313.8z"/>
	<polygon class="st0" points="448.9,197.1 464.6,154.2 464.9,154.2 480.5,197.1 481.8,197.1 503.7,138.7 496.7,138.7 481.2,180.5 
		481,180.5 465.4,138.1 464.1,138.1 448.8,180.5 448.6,180.5 432.9,138.7 425.8,138.7 447.6,197.1 	"/>
	<path class="st0" d="M537.7,197.6c8.7,0,15.8-2.8,21.5-8.5c5.7-5.7,8.5-12.9,8.5-21.4c0-8.5-2.8-15.7-8.5-21.4
		c-5.7-5.8-12.9-8.7-21.5-8.7c-8.4,0-15.6,2.9-21.5,8.8c-5.9,5.8-8.8,12.9-8.8,21.3c0,8.7,2.7,15.9,8.1,21.5
		C521,194.8,528.4,197.6,537.7,197.6z M521.1,150.6c4.3-4.6,9.9-6.9,16.6-6.9c6.7,0,12.2,2.3,16.5,7c4.3,4.6,6.5,10.2,6.5,17
		c0,6.7-2.1,12.3-6.4,17c-4.2,4.6-9.8,6.9-16.6,6.9c-7,0-12.6-2.2-16.7-6.7c-4.1-4.5-6.3-10.2-6.3-17.2
		C514.7,160.9,516.8,155.1,521.1,150.6z"/>
	<path class="st0" d="M586.5,144.3h12.6c8.5,0,14.1,4.8,14.1,12.9c0,7.4-6.7,13.5-19.1,13.9v1.1l20.6,24.4h8.8l-19-21.7
		c4.9-1.3,8.8-3.6,11.6-7c2.8-3.4,4.2-7.2,4.2-11.4c0-5.7-2-10.1-6.1-13.3c-4-3.3-8.7-4.8-14.1-4.8h-20.8v58.1h7.1V144.3z"/>
	<polygon class="st0" points="669.8,190.7 639.4,190.7 639.4,138.5 632.3,138.5 632.3,196.7 669.8,196.7 	"/>
	<path class="st0" d="M726.3,167.4c0-8.7-2.6-15.7-7.8-21c-5.1-5.3-12.1-7.9-20.9-7.9h-19.9v58.2h20.9c8.5,0,15.3-2.7,20.3-8.1
		C723.8,183.2,726.3,176.1,726.3,167.4z M714.1,184.3c-3.4,4.2-8.6,6.3-15.4,6.4h-13.8v-46.3h13c7.1,0,12.4,2.1,16,6.4
		c3.6,4.3,5.5,9.9,5.5,16.6C719.4,174.4,717.6,180.1,714.1,184.3z"/>
	<path class="st0" d="M482.8,291.5h6.8v-58.6h-1.5l-27.2,37l-27.4-37H432v58.6h6.8v-40.6l0.2-0.2l21.1,28.2h1.4l21.1-28.9l0.3,0.2
		c0,4.8,0,11.6-0.1,20.7V291.5z"/>
	<polygon class="st0" points="543.1,285.5 510.9,285.5 510.9,263.8 538.7,263.8 538.7,258 510.9,258 510.9,239.2 540.9,239.2 
		540.9,233.3 503.8,233.3 503.8,291.5 543.1,291.5 	"/>
	<polygon class="st0" points="565.9,291.5 573,291.5 573,239.2 591.5,239.2 591.5,233.2 547.2,233.2 547.2,239.2 565.9,239.2 	"/>
	<polygon class="st0" points="637,239.2 637,233.3 599.9,233.3 599.9,291.5 639.2,291.5 639.2,285.5 607,285.5 607,263.8 
		634.7,263.8 634.7,258 607,258 607,239.2 	"/>
	<path class="st0" d="M646.6,262.5c0,8.7,2.7,15.9,8.1,21.5c5.5,5.6,12.9,8.5,22.2,8.5c8.7,0,15.9-2.8,21.5-8.5
		c5.7-5.7,8.5-12.9,8.5-21.4c0-8.5-2.8-15.7-8.5-21.4c-5.7-5.8-12.9-8.7-21.5-8.7c-8.4,0-15.6,2.9-21.5,8.8
		C649.5,247,646.6,254.1,646.6,262.5z M676.9,238.5c6.7,0,12.2,2.3,16.5,7c4.3,4.6,6.5,10.2,6.5,17c0,6.7-2.1,12.3-6.4,17
		c-4.2,4.6-9.8,6.9-16.6,6.9c-7,0-12.6-2.2-16.7-6.7c-4.1-4.5-6.3-10.2-6.3-17.2c0-6.8,2.1-12.5,6.4-17.1
		C664.7,240.8,670.2,238.5,676.9,238.5z"/>
	<path class="st0" d="M752.4,252.1c0,7.4-6.7,13.5-19.1,13.9v1.1l20.6,24.4h8.8l-19-21.7c4.9-1.3,8.8-3.6,11.6-7
		c2.8-3.4,4.2-7.2,4.2-11.4c0-5.7-2-10.1-6.1-13.3c-4-3.3-8.7-4.8-14.1-4.8h-20.8v58.1h7.1v-52.4h12.6
		C746.7,239.1,752.4,244,752.4,252.1z"/>
	<path class="st0" d="M799.3,292.4c8.7,0,15.9-2.8,21.5-8.5c5.7-5.7,8.5-12.9,8.5-21.4c0-8.5-2.8-15.7-8.5-21.4
		c-5.7-5.8-12.9-8.7-21.5-8.7c-8.4,0-15.6,2.9-21.5,8.8c-5.9,5.8-8.8,12.9-8.8,21.3c0,8.7,2.7,15.9,8.1,21.5
		C782.6,289.6,790,292.4,799.3,292.4z M782.8,245.4c4.3-4.6,9.9-6.9,16.6-6.9c6.7,0,12.2,2.3,16.5,7c4.3,4.6,6.5,10.2,6.5,17
		c0,6.7-2.1,12.3-6.4,17c-4.2,4.6-9.8,6.9-16.6,6.9c-7,0-12.6-2.2-16.7-6.7c-4.1-4.5-6.3-10.2-6.3-17.2
		C776.3,255.7,778.4,250,782.8,245.4z"/>
	<polygon class="st0" points="878.6,285.5 848.2,285.5 848.2,233.3 841,233.3 841,291.5 878.6,291.5 	"/>
	<path class="st0" d="M940.9,262.5c0-8.5-2.8-15.7-8.5-21.4c-5.7-5.8-12.9-8.7-21.5-8.7c-8.4,0-15.6,2.9-21.5,8.8
		c-5.9,5.8-8.8,12.9-8.8,21.3c0,8.7,2.7,15.9,8.1,21.5c5.5,5.6,12.9,8.5,22.2,8.5c8.7,0,15.9-2.8,21.5-8.5
		C938.1,278.2,940.9,271,940.9,262.5z M910.9,286.3c-7,0-12.6-2.2-16.7-6.7c-4.1-4.5-6.3-10.2-6.3-17.2c0-6.8,2.1-12.5,6.4-17.1
		c4.3-4.6,9.9-6.9,16.6-6.9c6.7,0,12.2,2.3,16.5,7c4.3,4.6,6.5,10.2,6.5,17c0,6.7-2.1,12.3-6.4,17
		C923.2,284.1,917.7,286.3,910.9,286.3z"/>
	<path class="st0" d="M998.9,262.6h-6.6v21.6c-3.6,1.5-7.6,2.3-11.7,2.3c-7.4,0-13.1-2.2-17.1-6.5c-4-4.4-6-10.1-6-17.1
		c0-7.5,2.3-13.4,6.8-17.8c4.5-4.5,10.1-6.7,16.9-6.7c5.5,0,10.7,1.2,15.3,3.7v-6.7c-3.9-2.1-9.1-3.2-15.7-3.2
		c-8.8,0-16.1,2.9-21.9,8.8c-5.8,5.8-8.7,13.1-8.7,21.8c0,8.5,2.6,15.6,7.7,21.1c5.2,5.5,12.3,8.4,21.6,8.4c8,0,14.5-1.2,19.5-3.5
		V262.6z"/>
	<rect x="1012.3" y="233.3" class="st0" width="7" height="58.2"/>
	<path class="st0" d="M1045.5,279.9c-4.1-4.3-6.2-10-6.2-17.2c0-7.5,2.3-13.4,6.8-17.8c4.6-4.4,10.2-6.6,17-6.6
		c5,0,9.6,1.1,13.7,3.1v-6.5c-3.4-1.8-8.3-2.6-14.5-2.6c-8.7,0-15.9,2.9-21.7,8.7c-5.7,5.8-8.6,13-8.6,21.8s2.6,15.9,7.9,21.4
		c5.3,5.5,12.6,8.3,22,8.3c7,0,12.6-1.3,17.1-4.1v-6.5c-5.4,3-10.8,4.5-16.4,4.5C1055.4,286.3,1049.7,284.2,1045.5,279.9z"/>
	<path class="st0" d="M1108.4,232.8l-25.7,58.7h7l5.5-13.1h27.4l5.6,13.1h7.2l-25.5-58.7H1108.4z M1097.3,273.2l11.4-26.6h0.4
		l11.4,26.6H1097.3z"/>
	<polygon class="st0" points="1150.6,285.5 1150.6,233.3 1143.4,233.3 1143.4,291.5 1181,291.5 1181,285.5 	"/>
	<path class="st0" d="M459.8,327.2c-8.4,0-15.6,2.9-21.5,8.8c-5.9,5.8-8.8,12.9-8.8,21.3c0,8.7,2.7,15.9,8.1,21.5
		c5.5,5.6,12.9,8.5,22.2,8.5c8.7,0,15.8-2.8,21.5-8.5c5.7-5.7,8.5-12.9,8.5-21.4c0-8.5-2.8-15.7-8.5-21.4
		C475.6,330.1,468.5,327.2,459.8,327.2z M476.4,374.3c-4.2,4.6-9.8,6.9-16.6,6.9c-7,0-12.6-2.2-16.7-6.7c-4.1-4.5-6.3-10.2-6.3-17.2
		c0-6.8,2.1-12.5,6.4-17.1c4.3-4.6,9.9-6.9,16.6-6.9c6.7,0,12.2,2.3,16.5,7c4.3,4.6,6.5,10.2,6.5,17
		C482.8,364,480.7,369.6,476.4,374.3z"/>
	<path class="st0" d="M538.2,357.8c2.8-3.4,4.2-7.2,4.2-11.4c0-5.7-2-10.1-6.1-13.3c-4-3.3-8.7-4.8-14.1-4.8h-20.8v58.1h7.1V334
		h12.6c8.5,0,14.1,4.8,14.1,12.9c0,7.4-6.7,13.5-19.1,13.9v1.1l20.6,24.4h8.8l-19-21.7C531.5,363.4,535.4,361.1,538.2,357.8z"/>
	<path class="st0" d="M594,379c-3.6,1.5-7.6,2.3-11.7,2.3c-7.4,0-13.1-2.2-17.1-6.5c-4-4.4-6-10.1-6-17.1c0-7.5,2.3-13.4,6.8-17.8
		c4.5-4.5,10.1-6.7,16.9-6.7c5.5,0,10.7,1.2,15.3,3.7v-6.7c-3.9-2.1-9.1-3.2-15.7-3.2c-8.8,0-16.1,2.9-21.9,8.8
		c-5.8,5.8-8.7,13.1-8.7,21.8c0,8.5,2.6,15.6,7.7,21.1c5.2,5.5,12.3,8.4,21.6,8.4c8,0,14.5-1.2,19.5-3.5v-26.2H594V379z"/>
	<path class="st0" d="M633.2,327.6l-25.7,58.7h7l5.5-13.1h27.4l5.5,13.1h7.2l-25.5-58.7H633.2z M622.1,368.1l11.4-26.6h0.4
		l11.4,26.6H622.1z"/>
	<polygon class="st0" points="709.8,371.8 709.4,371.8 669,327.5 667.4,327.5 667.4,386.4 674.4,386.4 674.4,342.3 674.6,342.3 
		715.1,386.8 716.7,386.8 716.7,328.2 709.8,328.2 	"/>
	<rect x="731.7" y="328.2" class="st0" width="7" height="58.2"/>
	<polygon class="st0" points="751.9,334.1 779.7,334.1 748.4,385.5 748.4,386.4 790.4,386.4 790.4,380.5 759.4,380.5 790.4,329.1 
		790.4,328.2 751.9,328.2 	"/>
	<path class="st0" d="M819.4,327.6l-25.7,58.7h7l5.5-13.1h27.4l5.5,13.1h7.2l-25.5-58.7H819.4z M808.3,368.1l11.4-26.6h0.4
		l11.4,26.6H808.3z"/>
	<polygon class="st0" points="842.5,334.1 861.1,334.1 861.1,386.4 868.3,386.4 868.3,334.1 886.8,334.1 886.8,328.1 842.5,328.1 	
		"/>
	<rect x="895.9" y="328.2" class="st0" width="7" height="58.2"/>
	<path class="st0" d="M945.8,327.2c-8.4,0-15.6,2.9-21.5,8.8c-5.9,5.8-8.8,12.9-8.8,21.3c0,8.7,2.7,15.9,8.1,21.5
		c5.5,5.6,12.9,8.5,22.2,8.5c8.7,0,15.9-2.8,21.5-8.5c5.7-5.7,8.5-12.9,8.5-21.4c0-8.5-2.8-15.7-8.5-21.4
		C961.6,330.1,954.5,327.2,945.8,327.2z M962.4,374.3c-4.2,4.6-9.8,6.9-16.6,6.9c-7,0-12.6-2.2-16.7-6.7c-4.1-4.5-6.3-10.2-6.3-17.2
		c0-6.8,2.1-12.5,6.4-17.1c4.3-4.6,9.9-6.9,16.6-6.9c6.7,0,12.2,2.3,16.5,7c4.3,4.6,6.5,10.2,6.5,17
		C968.8,364,966.7,369.6,962.4,374.3z"/>
	<polygon class="st0" points="1029.9,371.8 1029.6,371.8 989.2,327.5 987.6,327.5 987.6,386.4 994.5,386.4 994.5,342.3 994.8,342.3 
		1035.3,386.8 1036.9,386.8 1036.9,328.2 1029.9,328.2 	"/>
	<path class="st0" d="M108,105.1L108,105.1c0.4,0.6,0.8,1.1,1.5,1.3l35,8.7C101.2,135,71,178.5,71,229.2
		c0,69.2,56.3,125.5,125.5,125.5c69.2,0,125.5-56.3,125.5-125.5c0-50.6-30.2-94.2-73.4-114l35-8.7c0.8-0.2,1.2-0.8,1.5-1.4
		c0.3-0.2,0.6-0.5,0.6-0.9c0-0.4-0.3-0.7-0.6-0.9c-0.3-0.7-0.8-1.3-1.5-1.4L224.9,87l10.7-18.8c0.5-1,0.4-2.2-0.4-2.9
		c-0.8-0.8-2-0.9-2.9-0.4l-17.8,10.2l-1,0.5L198.8,17c-0.2-0.8-0.8-1.3-1.5-1.6c-0.2-0.4-0.5-0.7-1-0.7c-0.5,0-0.9,0.3-1.1,0.8
		c-0.6,0.3-1,0.8-1.2,1.4L181.4,68l-2,7.6l-18.7-10.7c-0.9-0.5-2.2-0.4-2.9,0.4c-0.8,0.8-0.9,2-0.4,2.9l9.6,16.9l1,1.9l-1.8,0.5
		l-56.7,14.2c-0.7,0.2-1.2,0.7-1.5,1.3l0,0c-0.5,0.1-0.8,0.6-0.8,1.1C107.1,104.5,107.5,105,108,105.1z M147.9,116l18.2,4.6l1.9,0.5
		l-1,1.9l-6.8,11.9c-13,5-24.7,12.5-34.4,22l-15.6-15.6C121,130.7,133.8,122.1,147.9,116z M193,200.3l-0.5,0.9
		c-2.4,0.3-4.7,0.9-6.8,1.8l-0.3-0.1l-0.2-1.9l1.7-1.1l3.3-1.3l0.1-1.4l-6.6,1.4l-1.8-0.3l0.3-2.8l-1.2,0.4l-2,2.5l-0.8,2.6
		l-3.8,2.2l-2.8-0.3l-0.7-0.7l-0.8-2l-1.3-0.1l-7.3-7.3c7.8-7.5,18.1-12.5,29.4-13.7l3,11.9c0.2,0.7,0.6,1.1,1.2,1.4c0,0,0,0,0,0.1
		v6.4l-2.4-0.3l-1.7-1l-0.5,1.3L193,200.3z M179.7,230.7l-2.4,1.1l-1.9,0.9l0.2,1.7l-0.7,1.2l-1.7,1.3l-0.7,2.5
		c-0.5-1.2-0.8-2.4-1.1-3.6l0.7,0.2l1.1-4.5l2.7-3.7l1.3-3.3l2.5,1.1l-0.1,2.6l-1.4,1.1L179.7,230.7z M133.6,250l-2.6,0.6l0.3-6.4
		l-3.9-7.1l0.3-2.1l-1.5-2.4l1.3-2.1l1.6-0.2h5.6l-0.1,1l1.1,2.4l-2.2,1.4l-0.2,3.8l1.5,3.2l1.4,5l0.4-4.7l1.5-3.3l-2.4,0.9l0.1-2.8
		l1.3-3.3l-1.3-2.9l0.3-0.6h3.3l1.6,5.6l1.7-3.2l1.2,0.5c0.9,12.5,6.2,23.9,14.4,32.5l-15.6,15.6c-0.2-0.3-0.5-0.5-0.7-0.8l-0.5-1.2
		l-5.7-7.6l-0.2-5.7l-0.1-2.9l-2.9-3.2l0.1-3.8l1.5-2.5L133.6,250z M154,198.3l-0.4-0.1l-3.3,1.5l-5.6,1.2l-4.3,2.7l-1,0.9l1.6,0.5
		l3.1-1l3.1-0.8l1.4,0.5l-0.5,1.2l-2.8,0.1l-6.3,1.4l-3.5,0.3l-1.8,2.8l-0.5,1.9l-1.7,1.8l0.5,3.6l-1,2.6l-1.2,1.8l-0.3,1.9
		l-1.2,1.1l-0.1,2.4l-2.1-0.8l0,2.4h-4.1c0.3-19.7,8.3-37.6,21.1-50.8l15.6,15.6C156.9,194.5,155.4,196.4,154,198.3z M160.1,194.4
		l7.5,7.5l-0.2,0.5l-3.3,0.1l-5.2-3.1l-2.5-0.6C157.5,197.3,158.8,195.8,160.1,194.4z M140.9,224.7l-0.1,2.8l-0.4,0.5h-9.7l0.4-1.7
		l3.3-1l0.2-3.6l-1.1-1.7l1.3-3.3l2.8-1.5l2.3,0.3l0.3,5.2l1.1,0.8l-1.2,1.2L140.9,224.7z M125.3,235.6l-1.5,1.4l-1.6-0.2
		c-0.2-2.1-0.4-4.3-0.4-6.5h4.1l0,0.1l-1.3,3L125.3,235.6z M119.6,228h-22c0.3-26.4,11-50.4,28.2-68l15.6,15.6
		C128.1,189.2,119.9,207.7,119.6,228z M119.6,230.3c0,2,0.2,4,0.4,5.9l-2.3-1.4l-2.6-0.1l-1.5,3l-2.3,0.1l-1.6,4l-2,4.2l0,5.9
		l-7.4,0.1c-1.7-7-2.7-14.2-2.7-21.7H119.6z M126.2,289.1l3.1,3.7l2.5-0.5l-6,6c-3.2-3.2-6-6.7-8.7-10.4L126.2,289.1z M146.5,235.1
		l6,0.5l-0.1,2.1l2.4-0.6l1.1,2.4l2,1.3l1.6,0.3l-0.3,2.6l1.7-2.5l0.3,4.3l2.3,1.8l0.1-3.5l1.7-0.6l0.1-3.3l3.1-2.2l0.1-2.6l0.2,0.1
		c0.4,2.1,1.2,4.1,2,6l-0.4,0.4c0,0,0.4,0.2,0.9,0.5c1.2,2.3,2.6,4.6,4.4,6.5l-15.6,15.6C152.7,256.2,147.8,246.2,146.5,235.1z
		 M160.1,191.2l-15.6-15.6c10.9-10.6,25-17.8,40.7-20.2l5.4,21.4C178.8,178.2,168.2,183.4,160.1,191.2z M142.9,174l-15.6-15.6
		c8.9-8.7,19.4-15.7,31.1-20.6l-1.1,2c-0.5,1-0.4,2.2,0.4,2.9c0.8,0.8,2,0.9,2.9,0.4l18.7-10.7l2,7.6l3.3,13.2
		C168.6,155.8,154.1,163.2,142.9,174z M108.6,142.9l15.6,15.6c-17.6,18-28.6,42.5-28.9,69.6h-22C73.6,194.9,87,164.9,108.6,142.9z
		 M73.3,230.3h22c0.1,7.6,1.1,15,2.8,22.2l-0.7,0.4l-4-0.2l-2.5-2.5l-3,0.3l-2.6,1.1l-3.2-0.4l-1,1.6l-0.9,4l-0.2,5.2l2,1.7
		l-0.2,5.2l4,3.7l0.5-5.9l4.1,2.1l0.4-2.8l2.5,1.8l0.1,2.6l2.6,0.4l3.6,3.2l1.7,3.6l4.6,1.6l0.6,2.2l6.7,4.9
		c3.3,4.8,6.9,9.3,11,13.4l-15.6,15.6C87,293.4,73.6,263.4,73.3,230.3z M195.3,352.4c-33.1-0.3-63.2-13.7-85.1-35.3l15.6-15.6
		c18,17.6,42.5,28.6,69.6,28.9V352.4z M195.3,328.1c-26.4-0.3-50.4-11-68-28.2l8.5-8.5l2.6-0.6l5.8-0.5l1.1-3.3l-0.5-1.2
		c13.4,12.2,31.1,19.8,50.6,20.1V328.1z M195.3,303.8c-19.7-0.3-37.6-8.3-50.8-21.1l15.6-15.6c4.2,4,9,7.3,14.3,9.7l-1.3,0.6
		l-1.4,4.9l-1.5,2.3l4,4.7l-0.3,2.1l3.6,2.3l7.4-0.2l1.6,1.7l8.6,0.9l0.2,0.2V303.8z M195.3,269.5l-5.4,0.6l-1.7,1.3l-3.7-0.7
		l-1.7,0.9l-2.4,0.4l-2,3l-1.4,0.6c-5.8-2.4-11-5.9-15.5-10.1l15.6-15.6c2.8,2.6,6.3,4.6,10,5.9l-0.4,0.5l-0.2,1.6l-0.6,1l1-0.2
		l1.1-0.4l0.5-0.2l-0.6-0.6l0.3-1.3c1.1,0.3,2.2,0.6,3.4,0.8l-0.2,1.2l-2.9,0.7l-1.9,1.8l2.5,1.7l-1.1,1.7l-2.7,0.1l-1.5,0.6
		l-0.6,0.8l-0.7,2.1l1.1,1.1l1.2,1.1l1.2-0.3l3.3-0.6l1.3-1.2l0.2-3.7l3.5,0.2l1,0V269.5z M193.6,254.9l0-0.4l-0.8,0.3
		c-7.8-1.1-14.5-5.7-18.5-12.2c1.5-0.2,5.4-0.4,5.4-0.4l0.5-2.1l1.9-0.9l3-0.3l0.9-5.2l2.2-3.5l-2.9-3.2l-0.9,0.2l-0.7,1.4l0.2-4.3
		l-2-1.7l0.1-2.9l-2.3-1.5l-0.3,2.1l-1,0.9l-1.1-1l1.5-3l-0.2-1.4l-1.6,0.4l-2.4,0.9l-0.2-1.9c0,0,0,0,0,0l1.1,0.3l2.1-0.8l-0.5-3
		c0-0.1,0.1-0.1,0.1-0.2l5.2-0.5l2.6-2.5l-0.1-2.8c0.9-0.4,1.9-0.8,2.9-1.2l1.1,2l4.3,3.3l1.2-0.7l3.9,0.3l-0.7,3.2l-0.9,1.2
		l1.6,1.4l2.1,0.2v3.2l1.3,2.9l-2.3,0.7l-1.3,0.9l-0.3,1.2l4,0.6l0.9,2.8l-1.1,1.1l-0.1,1.4l1.9,0.4l-0.3,1.8l-0.9,0.9l-0.2,2.4
		l0.6,2.4l-1.4,1l-3.4,0l-1.9,1.3l-1.3,5.6l-3,2.4l-0.5,2.5l-0.1,2.7l2.4-2.1l0,1.9l1.6,0.1l2-3.4l-0.2-3l1.2-1.4l1.4-0.1l0.9,2.8
		l2.2,0.4l0.3,1.5l-3.9,1.7l-0.3,2.7l-0.3,0.1c-0.7,0.1-1.4,0.2-2.2,0.2C195.5,255.2,194.5,255.1,193.6,254.9z M235.6,139.8l-1.1-2
		c2.6,1.1,5.1,2.3,7.6,3.6l-2.2,1.2l0,1.3l2.1,1.8l2.7,2l0.4,3.4l1.7,3.1l-1.9,2.2l2.7,1.7l0.3,2.7l2.7-0.9l4,1.9l-0.4,2.1l-1.1,2.4
		l1.9,2.7l-5,5c-0.6-0.6-1.3-1.1-1.9-1.7l-0.2-1.1l-1.4-0.3c-0.4-0.3-0.7-0.7-1.1-1l-0.4-1l-2.5-3.8l1.2-0.1l2,0l-3.6-4.9l-3.2-1.1
		l-2.2-1.5l-0.1-3.9l-0.5-1.2l-5-0.6l0,0.8l3,3l-1.8,2.6l3.4,1l0.9,1.7l-0.9,1.5l0.5,0.9c-8.3-5-17.7-8.5-27.6-10l5.2-20.8l1,0.5
		l17.8,10.2c0.9,0.5,2.2,0.4,2.9-0.4C236,142,236.2,140.8,235.6,139.8z M268.2,178.1c0,0,0.2,1,0.2,1.5c0.1,0.5,1.2,0.7,1.2,0.7
		l2.1,1.8l1.1,3.1c0,0,1.6,1.1,2.1,1.1c0.5,0,2.2,0,2.2,0l1.1-2.4l3.3-1.6l-0.2-2.6l-1.8-3.9c9.8,15.1,15.6,33.1,15.8,52.3h-22
		c-0.2-12.4-3.3-24-8.7-34.3l-0.1-1.2c0,0-1.1-2.1-0.9-2.5c0.1-0.5-1.5-2.3-1.5-2.3s-0.4,0.2-0.8,0.3c-0.4-0.6-0.7-1.2-1.1-1.8
		l0.6-2.9l-0.8-1.1l-1.1-0.7l-0.8,1.7c-2-2.7-4.1-5.2-6.4-7.6l4.8-4.8l0.7,1l1.7-0.5l1,1.1l1.1-0.6l0.4,2.5c0,0,0.2,1.7,0.9,1.9
		c0.7,0.1,2.9,0.1,2.9,0.1l0,0.8L268.2,178.1z M291.6,255.8c-4.5,16.2-13,30.8-24.5,42.5l-12.4-12.4l0.1-0.5l-2.7-3.2l-0.1,0
		c12.9-13.5,20.9-31.7,21.2-51.8h22c-0.1,7.3-1,14.5-2.6,21.3l0-0.1l-0.4,0.9l-1.6,0.1l0,3.9L291.6,255.8z M202.2,265.2l-1.8-0.6
		l-2.7-1.8c0,0,0-0.1-0.1-0.1v-2.3c0.9-0.1,2.7,0.2,2.7,0.2l2.3,1.5l2,1.3l-0.3,1.2l0.2,0.9l1.7-1.1l-0.9-1.2l0.7-0.9l-0.4-1.2
		l0.3-2.4l0.1-2.1l2.5,1.1l1-0.7l-0.9-1l1.4-1.4l2.1,0.6l4.1,1.1l-0.8,2.3l-4,0.3l-4.5,3.1l0.8,2.9l2.3,0.1l3.1-2.5l3.2-0.1l0.9,1
		l-2.4,1.8l-2.6,1.1l-2.6,2.3l-2.8-0.8l-1.2,0.9l-7.8,2l-0.4-0.3v-5.7l1.6,0.6l0.2,1.9l0.7,1l0.8-1.6l0.7-0.9l0.9,0.7L202.2,265.2z
		 M226.7,200.5l0.1,0.6l-1.3,3.8l-0.2-1.6l-0.8-0.6L226.7,200.5z M225.8,198.2l0.1-0.2l0.3-0.2L225.8,198.2z M227.3,271.7l2.5,1.2
		l2.7-0.8l0.7,0.6l0.5-0.9l1-2.8l1.2,1.2l-0.8,3.6l-8.7,1.5l-2.4-1.4C225.1,273.2,226.2,272.5,227.3,271.7z M235,196.8
		c0.1,0.1,0.2,0.3,0.4,0.4l0.2,0.6l0.3,0c0.5,0.6,0.9,1.2,1.4,1.9l-1.2,0.1l-2.4-0.7l-2-1.5l-1.7,1l0.9,1.3l-1.7,2.6l-0.8-3.2
		l-0.4,0.1l5-5c0.5,0.5,1,1.1,1.5,1.7l-0.1,0.1L235,196.8z M246.6,182.6l3.6-0.6l0.8,4l3.3,1.7l-0.4,3.3l-2.4,0.5l2.5,1.7l-1.8-0.3
		l-0.2,1.8l3.3,2l0.4,3.9l4-0.3l2.7,1.4l1.3,3.5l-2.2,2.5l1,3.3l-0.8,4.1l-2.2,0.4l-0.2,6.9l1.1-0.8l2.3-5.2l1.8-1.2l0.4-6.3
		l-0.6-1.7l1.2-1.5l0.4-4.1c3.3,8.2,5.2,17.1,5.3,26.5h-22c0-1.8-0.2-3.5-0.4-5.2l1.3-1.5l-0.3-2.1l1.2-3.2l4.3-0.2l2.4-0.6l0.6-1.8
		l0.7-1.2l1.2-1l-0.5-4.2l-0.8,1.7l-1.1,0.7l-0.5,1.2l-1.3,0.3l-0.2,2.8l-3.3,0.3l0.7-5.4l-2.6-3.4l-2.1-0.6l-2.3,2l-1.6,1l-0.3-3
		l-1.4-0.4c-1.4-2.7-3.1-5.3-5-7.6l0.4-0.4l-0.7-1.1l-1,0c-0.7-0.8-1.4-1.7-2.1-2.5l12.9-12.9l-0.2,1.2l-0.8,0.4L246.6,182.6z
		 M248,175.6l0-0.3c0.1,0.1,0.3,0.2,0.4,0.3l0,0L248,175.6z M254.1,181.9c0.7,0.9,1.4,1.8,2.1,2.8l-0.8,0.4L254.1,181.9z
		 M256.9,185.6c1.9,2.6,3.7,5.4,5.3,8.3l-1.5,1.1L256.9,185.6z M239.3,278l0-4.4l9.1,9.1c-2.7,2.6-5.7,5-8.8,7.2l-2.1-1.4l0.1-2.8
		l2.2-3.5L239.3,278z M238.3,269.4l-0.2-0.7l-0.3,0.2l-2.8-2.8l0-1.2c4.9-5.3,8.7-11.5,11.1-18.5l0.1,0.1l4.6-2.2l2.5-0.1l1.1-1
		l-1.1-2.5l-1.8-0.7l-0.3-1.4l-1.4-0.4l-0.4-3.9l-0.5-1.1c0.1-0.9,0.2-1.8,0.2-2.7h22c-0.3,19.7-8.3,37.6-21.1,50.8L238.3,269.4z
		 M244.6,227.5l2-1.7c0,0.7,0.1,1.4,0.2,2.2h-2.1L244.6,227.5z M229.7,257.6l1.1-2.3l2.3,0.2l2.3-4.3l3.3-4l3.6-0.1l0.1-1.9l1.7,0.2
		c-1.6,4.8-4,9.2-6.9,13.2l-0.7-2.5l-4.6,1.1l-2,3.8l-2.8-2.8L229.7,257.6z M221.8,272.6l-1.7-1l-5-2.4l6.7,0.3l2.3,1.6
		C223.4,271.7,222.6,272.2,221.8,272.6z M199.4,300.6l4.8,2.3l0.2,0.4c-2.2,0.2-4.5,0.4-6.7,0.4v-5L199.4,300.6z M205.4,305.5
		l1.1,2.3l-1.3,3.3l3.5,5.6l2.8,0.1l0.8,3.1l3.8,3l4.3,1.9l2.2-2.7l3.5,0.2l2.2-2.3l3.8-1.7l5.3-5.2l0.9-4.5l1.2-1.8l0.5-6.4
		l2.6-2.5l0.2-3.8l-1.5-2.7c3-2.2,5.9-4.5,8.6-7.1l0.8,0.8l0.1,1.8l-2.2,1.6l-0.1,3.1l1.1,1.2l-0.2,4.5l1.9-0.2l2.6-1.6l1.7-1.1
		l0-4.4l9.9,9.9c-17.6,17.2-41.6,27.9-68,28.2v-22C200.2,306,202.8,305.8,205.4,305.5z M240.2,168.8l0.2,1.5l4.2,2.8l0.2,3.6l1.5,1
		l-13.5,13.5c-8.1-7.8-18.7-13-30.5-14.3l5.4-21.4C219.7,157.3,230.8,162,240.2,168.8z M231.3,192.8L231,193l-3.1-2.5l-2.7-0.1
		l-0.8,0.6l0.1-1.3l-3.9-1l-2.2,0.6l-0.5,1.5l-2.5,1.6l-3.1-0.4l-0.7-1l-0.9-0.2l-0.3,1.2l-1.3-0.2l-0.2,1.2l-1.4,0.3l0,0.5l2.3,0.3
		l0.9-0.3l1.5,0.3l0.6,2.1l4.2-3.4l3.6-1.1c0,0,3.2,2.3,3.5,2.3c0.3,0,2.2,0.1,2.2,0.1l3.7-0.1l-1.5,1.5l-3.2-0.5l-3.2,0.8l0.5,4
		l-4.4-0.2l-1.4-2.3l-3.5-0.4c0,0-3.3,0.7-4.1,0.7c-0.8-0.1-0.3,4.8-0.3,4.8l-1.6,0.4l-0.5,0.2c-0.7-0.3-1.5-0.5-2.2-0.7l0,0
		l-1.8-0.6c0,0,0,0,0,0l-0.4-0.8l-1.5-1.4l2.4-2.4c0,0,1.3-2.2,0.9-1.8c-0.4,0.3-0.5-1.1-0.5-1.1l-4.8,0.6l0.3,2.3l-1.6,2.1v-6.5
		c0.6-0.3,1.1-0.8,1.2-1.5l3-11.9C213.2,180.3,223.4,185.3,231.3,192.8z M197.6,352.4v-22c27-0.3,51.6-11.3,69.6-28.9l15.6,15.6
		C260.7,338.6,230.7,352,197.6,352.4z M284.3,315.4l-15.6-15.6c17.6-18,28.6-42.5,28.9-69.6h22C319.4,263.4,305.9,293.4,284.3,315.4
		z M319.7,228h-22c-0.3-27-11.3-51.6-28.9-69.6l15.6-15.6C305.9,164.9,319.4,194.9,319.7,228z M282.7,141.3l-15.6,15.6
		c-1.1-1-2.2-2-3.3-3l1.1-2.1l-0.9-1l-1.6-0.1c0,0-0.7-2.7-0.7-3c0-0.3-2.9-4.1-2.9-4.1l-0.4-2.1l-0.9,0.3l-0.9,0.8l-0.9-0.4
		l-1.6-0.4l-0.8-2l-2.5-0.2l-1.2-1.4l-2.7,0.8l-3.2,0.5l-0.2,0.5c-3.6-1.9-7.3-3.5-11.1-5l-7.9-13.8l20.2-5
		C259.2,122.1,271.9,130.7,282.7,141.3z M171.7,89.4l24.7,14.6l-34.7-34.8L184,82.2l12.3,21.8V20.7L211,79.3L196.4,104l35.1-34.8
		l-12.9,22.4L196.4,104l0,0h83.3L221,118.7L196.4,104l0,0l0,0l0,0v0l35.1,35l-22.4-12.9L196.4,104v83.3l-14.6-58.6l14.6-24.7l0,0
		l0,0l0,0l0,0h0l-34.7,35l12.9-22.4l21.8-12.7h-83.3L171.7,89.4z"/>
</g>
</svg>
