<?xml version="1.0" encoding="utf-8"?>
<!-- Generator: Adobe Illustrator 27.1.1, SVG Export Plug-In . SVG Version: 6.00 Build 0)  -->
<svg version="1.1" id="Layer_1" xmlns="http://www.w3.org/2000/svg" xmlns:xlink="http://www.w3.org/1999/xlink" x="0px" y="0px"
	 viewBox="0 0 1430 500" style="enable-background:new 0 0 1430 500;" xml:space="preserve">
<style type="text/css">
	.st0{fill:#FFFFFF;}
</style>
<g>
	<g>
		<path class="st0" d="M195,444.6c-107,0-194-88.5-194-197.3C1,138.5,88.1,50,195,50s194,88.5,194,197.3
			C389.1,356.1,302,444.6,195,444.6 M194.3,169.5c0.2,0,15.8,16.9,15.8,30.4c0,14.6-11.2,18.1-15,18.1c-0.2,0-0.4,0-0.7,0h-0.1
			c-0.2,0-0.5,0-0.7,0c-3.8,0-15-3.5-15-18.1C178.6,186.4,194,169.5,194.3,169.5 M48.2,258.3h17.7V225h29.7v-13.9H65.9v-18.5h30.7
			v-13.9H48.2V258.3z M210.3,171.9H229l-21.7-79.5h-23.9L161,171.9h17.3l5-17.8h22.6L210.3,171.9z M202.6,140.7h-16.3l7.6-34.6h1.2
			L202.6,140.7z M284.5,218.5c0,23.4,10.7,41.1,33.1,41.1c22.6,0,33.3-17.8,33.3-41.1c0-23.4-10.8-41.1-33.3-41.1
			C295.2,177.4,284.5,195.1,284.5,218.5 M303.4,218.5c0-15.3,3.7-27.7,14.3-27.7c10.7,0,14.5,12.4,14.5,27.7
			c0,15.3-3.8,27.7-14.5,27.7C307.1,246.2,303.4,233.8,303.4,218.5 M186.8,422.5c1-7.7,2.1-20,2.1-34.5v-2.4
			c0-20.4-0.7-27.2-14.1-31.8c-20.6-6.9-29.1-30.4-24.6-59.6L81.1,115.6c-35.9,32.2-58.6,79.3-58.6,131.7
			C22.5,341.2,95.5,418.2,186.8,422.5 M195,308.7c-27.5-6.5-37.7-32-37.7-54.6L96.8,103.1c-4,2.8-7.8,5.7-11.5,8.8
			c13.3,32.1,73,176.1,73.1,176.3c10.6,25.9,29.8,17.3,34.4,38.7c1.1,5.2,1.2,7.4,1.2,7.4h2.1c0,0,0-2.3,1.2-7.4
			c4.6-21.4,23.8-12.8,34.4-38.7c0.1-0.2,59.8-144.3,73.1-176.3c-3.7-3.1-7.5-6-11.5-8.8l-60.5,150.9c0,22.6-10.2,48.1-37.7,54.6
			H195z M194.9,263.1c-11.7-2.6-26.2-14.4-28.1-29.6c-0.7-5.8-1.2-7.4-0.4-18.8l-53-122c-4.3,2.3-8.4,4.9-12.5,7.6
			c15.8,36.2,64.3,146.8,64.3,147c7.7,16.4,21.1,16.7,25.8,26.5c2.8,5.8,3,11,3.1,11.4h1.8c0-0.4,0.3-5.6,3.1-11.4
			c4.7-9.8,18.1-10.1,25.8-26.5c0-0.1,48.5-110.8,64.4-147c-4-2.7-8.2-5.2-12.5-7.6l-52.9,122c0.8,11.4,0.3,13-0.5,18.8
			c-1.9,15.1-16.4,26.9-28,29.6H194.9z M195.7,242.4l0.8-6.7c3.3-15.5,14.4-13.5,22-28.7c0-0.1,0.1-0.2,0.1-0.2
			c0.2-0.6,37.7-82.4,53.4-116.5c-23.2-11.8-49.3-18.5-77-18.5c-27.6,0-53.8,6.7-77,18.5c15.6,34.2,53.1,116,53.4,116.5
			c0,0,0.1,0.2,0.1,0.2c7.6,15.2,18.6,13.2,22,28.7l0.8,6.7H195.7z M367.6,247.3c0-52.4-22.7-99.4-58.6-131.7l-69.1,178.6
			c4.6,29.2-3.9,52.6-24.6,59.6c-13.4,4.5-14.1,11.4-14.1,31.8v2.4c0,14.5,1.1,26.8,2.1,34.5C294.6,418.2,367.6,341.2,367.6,247.3
			 M77,299.1c0,0,2.5,5.5,4.6,9.4c2.1,3.9,4.9,8.6,4.9,8.6l-4.6,2.7c0,0-3.5-5.9-6.6-12.6c-0.9,0.4-6.3,3.3-7.2,3.8
			c0.5,1,6.1,11.9,6.1,11.9l-4.6,2.7c0,0-5.7-11.2-6.2-12.1c-1,0.5-12.7,6.7-12.7,6.7l-2.8-5.7l28.8-15.3L77,299.1z M95.2,329.1
			l4,4.9L74,355.5l-4.1-4.9l25-21.2L95.2,329.1z M118.6,351.6l5,3.6l-6.5,35.3l-5.7-3.3c0,0,1.4-7.2,1.6-7.9
			c-0.3-0.2-3.6-2.2-6.8-4.6c-3.3-2.4-6.5-5.1-6.8-5.3c-0.6,0.4-7,4.2-7,4.2l-4.9-4.2l30.7-17.6L118.6,351.6z M104,366.6
			c0.6,0.5,2.7,2.3,4.9,3.9c2.3,1.6,4.5,3.1,5.2,3.4c0.3-1.5,2.6-13.1,3.1-15.2C115.3,359.8,105.3,365.8,104,366.6 M139.3,364.6
			c0,0,5.3,2.7,12.9,5.3c5.2,1.8,9.5,3.2,13.8,4.2l-1.5,5.1c0,0-4.1-0.7-10.8-2.8c-0.4,1.1-9.1,26.3-9.1,26.3l-5.9-2.1
			c0,0,8.6-25.2,9-26.3c-6.2-2.4-10.5-4.7-10.5-4.7L139.3,364.6z M243.1,371.3c2.2,1.2,3.7,3.2,4.6,6.1c0.4,1.2,0.6,2.4,0.6,3.5
			c0,4.7-3.2,8.3-9,10.2c0,0-2.9,0.9-3.8,1.2c0.3,1.1,3.8,12.4,3.8,12.4l-5.8,1.5l-9.8-32.2l8.7-2.8
			C236.8,369.9,240.4,369.9,243.1,371.3 M230.9,377.4c0.3,1,2.7,8.8,3,9.8c1.2-0.4,3.8-1.2,3.8-1.2c0.9-0.3,2.9-1.1,3.9-3
			c0.3-0.6,0.5-1.3,0.5-2c0-0.5-0.1-1.1-0.3-1.7c-0.4-1.1-1.1-2-2.1-2.6c-1.8-1-4.2-0.7-5.6-0.3
			C234.1,376.4,231.7,377.1,230.9,377.4 M262.7,357.3l28.5,21.2l-5.1,3.6c0,0-5.7-4.4-6.3-4.9c-0.3,0.2-3.3,2.3-6.4,4.2
			c-3,1.8-6.2,3.5-6.5,3.6c0.1,0.8,1.3,7.9,1.3,7.9l-5.4,2.6l-4.8-35.5L262.7,357.3z M266,379.8c0.9-0.4,3.1-1.6,5.3-3
			c2-1.2,3.5-2.2,4.3-2.8c-1.2-0.9-10.1-7.8-11.9-9.2C264,367.1,265.7,378.3,266,379.8 M295.2,328.1l24.8,22.5l-4.5,5.3
			c0,0-23.3-6.9-26.8-7.9c2.6,2.5,17.1,18,17.1,18l-4.4,4l-23.4-24.2l5.5-5c0,0,22.5,6.8,26,7.8c-2.6-2.5-18.1-16.1-18.1-16.1
			L295.2,328.1z M306.6,311.3l28.8,17l-2.9,5.1l-28.9-17L306.6,311.3z M319.1,283.2l4.9,2.6l-0.5,0.6c-1.6,2-2.3,3-3.1,5.2
			c-0.4,1-0.8,3-0.1,4.4c0.4,0.8,1,1.4,2,1.7c2.2,0.8,4.1-1.2,6.3-3.4c3-3.1,6.8-7,12.9-4.9c6.2,2.1,8.3,7.7,5.7,15.3
			c-0.8,2.3-2.2,4.3-3.5,6.1l-0.3,0.4l-5.1-2.4l0.5-0.6c0.6-0.7,2.7-3.3,3.5-5.8c0.8-2.2,0.7-6-2.6-7.1c-2.7-1-4.8,1.2-7.2,3.7
			c-2.9,3.1-6.2,6.6-11.8,4.7c-2.4-0.8-4.2-2.4-5.3-4.5c-1.2-2.6-1.3-5.8-0.1-9.2c0.7-2.3,2-4.6,3.4-6.5L319.1,283.2z"/>
		<polygon class="st0" points="465.6,90.5 504.9,90.5 504.9,101.9 479.8,101.9 479.8,123 503.7,123 503.7,134.4 479.8,134.4 
			479.8,168.2 465.6,168.2 		"/>
		<path class="st0" d="M536,110c11.7,0,25.2,6.1,25.2,29.5c0,24-13.5,29.6-25.2,29.6c-11.7,0-25.3-5.6-25.3-29.6
			C510.7,116.1,524.3,110,536,110 M536,159.3c8.9,0,10.9-10.2,10.9-19.8c0-9.6-2-19.7-10.9-19.7c-8.9,0-11,10.1-11,19.7
			C525,149.1,527.1,159.3,536,159.3"/>
		<path class="st0" d="M595.7,110c11.7,0,25.1,6.1,25.1,29.5c0,24-13.5,29.6-25.1,29.6c-11.7,0-25.3-5.6-25.3-29.6
			C570.5,116.1,584,110,595.7,110 M595.7,159.3c8.9,0,10.9-10.2,10.9-19.8c0-9.6-2-19.7-10.9-19.7c-8.9,0-11,10.1-11,19.7
			C584.7,149.1,586.8,159.3,595.7,159.3"/>
		<path class="st0" d="M678.8,84.7v73.7c0,4.1,0.1,7.7,0.4,9.8h-12.9c-0.2-1.7-0.4-5-0.4-8.9h-0.3c-2.2,4.9-6.3,9.8-15.3,9.8
			c-14.2,0-20.1-13.6-20.1-29.5c0-18.7,7.4-29.6,19.8-29.6c8.2,0,12.8,4.7,14.8,9.1h0.2V84.7H678.8z M654.1,159
			c8.1,0,10.9-8.8,10.9-19.6c0-11.1-3.1-19.3-10.7-19.3c-7.7,0-10.3,7.5-10.3,18.9C644,152.3,646.1,159,654.1,159"/>
		<path class="st0" d="M723.2,114.2c3.9-1.8,9.4-4.2,18.2-4.2c17.8,0,21.9,8.7,21.9,23v25c0,4.1,0.4,7.9,0.8,10.1h-12.5
			c-0.7-2.2-0.8-5-0.8-7.8h-0.2c-3.4,4.7-7.8,8.7-16,8.7c-8.9,0-17.1-6.1-17.1-16.8c0-15.6,12.7-19.5,30.2-19.5h2.8v-2.1
			c0-5.7-2.8-10.9-10.7-10.9c-6.9,0-13,3.3-15.7,5.6L723.2,114.2z M750.3,140.2h-1.2c-11.8,0-18.8,2.4-18.8,10.8
			c0,5.2,3.5,8.8,8.8,8.8c8.2,0,11.2-6.1,11.2-16.4V140.2z"/>
		<path class="st0" d="M776,120.3c0-3.6-0.1-6.9-0.4-9.5h12.9c0.1,2.9,0.4,5.9,0.4,8.8h0.2c2-3.4,5.9-9.7,15.3-9.7
			c13,0,16.9,9.7,16.9,21.3v36.9h-13.8v-34.4c0-8.8-2.2-12.5-7.9-12.5c-7.2,0-9.8,6.1-9.8,13.5v33.4H776V120.3z"/>
		<path class="st0" d="M880.8,84.7v73.7c0,4.1,0.1,7.7,0.4,9.8h-12.9c-0.2-1.7-0.4-5-0.4-8.9h-0.3c-2.2,4.9-6.3,9.8-15.2,9.8
			c-14.2,0-20.1-13.6-20.1-29.5c0-18.7,7.4-29.6,19.8-29.6c8.2,0,12.8,4.7,14.8,9.1h0.2V84.7H880.8z M856.1,159
			c8.1,0,10.9-8.8,10.9-19.6c0-11.1-3.1-19.3-10.7-19.3c-7.7,0-10.3,7.5-10.3,18.9C846,152.3,848.1,159,856.1,159"/>
		<path class="st0" d="M957.2,149.5h-26.7l-5.6,18.7h-14.2l26-77.7h15.6l25,77.7h-14.7L957.2,149.5z M954.2,138.6l-9.8-36.3h-0.2
			l-10.7,36.3H954.2z"/>
		<path class="st0" d="M986,177.1c3.2,1.8,9.7,4.9,16.9,4.9c13,0,15.1-9,15.1-18v-5.5h-0.2c-2.2,4.5-6.1,9.7-15.1,9.7
			c-8,0-20-5.3-20-28.5c0-15.8,5.7-29.7,20.7-29.7c8.3,0,12.2,4.8,15.1,9.8h0.4c0-3,0.3-5.9,0.5-8.9h12.5c-0.2,3-0.5,6-0.5,9v42.3
			c0,17.9-5.4,30.7-26.5,30.7c-9.1,0-16.4-2.3-19.7-3.6L986,177.1z M1006,158.1c8.7,0,12.1-6.2,12.1-19.3c0-12-4.6-18.5-11.1-18.4
			c-7.2,0.1-10,6.8-10,18.5C997,152.4,1001.3,158.1,1006,158.1"/>
		<path class="st0" d="M1044.4,120.3c0-3.6-0.1-6.9-0.4-9.5h12.5c0.1,3.5,0.5,7,0.5,10.5h0.2c1.7-4.5,6-11.4,14.6-11.4
			c0.9,0,1.6,0.2,2.3,0.3v12.9c-1.2-0.3-2.4-0.6-3.9-0.6c-5.7,0-11.9,3.4-11.9,14.1v31.4h-13.8V120.3z"/>
		<path class="st0" d="M1084.3,86.5h14.2v13.6h-14.2V86.5z M1084.5,110.9h13.8v57.3h-13.8V110.9z"/>
		<path class="st0" d="M1151,166.8c-3.2,1.2-8,2.3-13.6,2.3c-18.9,0-26.9-13.2-26.9-29.5c0-16.3,8.5-29.6,27.7-29.6
			c4.3,0,9.5,1.3,12,2.3l-0.8,10.9c-2.4-1.2-5.9-2.8-9.7-2.8c-10.5,0-15,7-15,19.3c0,10.7,5.1,18.9,15.7,18.9c3.3,0,7.9-1.6,9.8-2.8
			L1151,166.8z"/>
		<path class="st0" d="M1204.8,158.7c0,3.6,0.1,6.9,0.4,9.5h-12.9c-0.1-2.9-0.4-5.9-0.4-8.8l-0.3-0.1l0.1,0.1
			c-2.7,4.2-6.2,9.7-15.2,9.7c-13,0-16.9-9.7-16.9-21.3v-36.9h13.8v34.4c0,8.8,2.5,12.5,8.2,12.5c7.4,0,9.5-6.7,9.5-14v-32.8h13.8
			V158.7z"/>
		<rect x="1218.5" y="84.7" class="st0" width="13.8" height="83.5"/>
		<path class="st0" d="M1251.2,99.1l13.8-4.2v16h11.5V121H1265v29.7c0,6.1,2.2,7.9,6.2,7.9c2.4,0,4.2-0.7,5.2-1.2v9.8
			c-2.1,1-5.1,1.9-9.2,1.9c-10.2,0-16-4.7-16-16.7V121h-9.1v-10.1h9.1V99.1z"/>
		<path class="st0" d="M1330.6,158.7c0,3.6,0.1,6.9,0.4,9.5h-12.9c-0.1-2.9-0.4-5.9-0.4-8.8l-0.3-0.1l0.1,0.1
			c-2.7,4.2-6.2,9.7-15.3,9.7c-13,0-16.9-9.7-16.9-21.3v-36.9h13.8v34.4c0,8.8,2.5,12.5,8.2,12.5c7.4,0,9.5-6.7,9.5-14v-32.8h13.8
			V158.7z"/>
		<path class="st0" d="M1343.5,120.3c0-3.6-0.1-6.9-0.4-9.5h12.5c0.1,3.5,0.4,7,0.4,10.5h0.2c1.7-4.5,6-11.4,14.6-11.4
			c0.9,0,1.6,0.2,2.3,0.3v12.9c-1.2-0.3-2.4-0.6-3.9-0.6c-5.7,0-11.9,3.4-11.9,14.1v31.4h-13.8V120.3z"/>
		<path class="st0" d="M1423.1,165.4c-2.9,1.2-8.9,3.7-17.1,3.7c-18.5,0-26.5-13.2-26.5-28.7c0-17.1,9-30.4,23.6-30.4
			c12.4,0,22.9,7.2,22.9,30.6v2.7h-33.2c0,9.8,3.9,15.7,14.6,15.7c8.5,0,12.5-2.6,15-4.5L1423.1,165.4z M1412.6,134.6
			c0-10.1-3.3-15.3-9.6-15.3c-7.2,0-10.2,7.7-10.2,15.3H1412.6z"/>
		<path class="st0" d="M493.4,215.2c16.1,0,30.9,12,30.9,40c0,27.9-14.8,39.9-30.9,39.9c-16.1,0-30.9-12-30.9-39.9
			C462.5,227.2,477.2,215.2,493.4,215.2 M493.4,284.2c9,0,16.2-7.7,16.2-29c0-21.4-7.2-29.1-16.2-29.1c-9,0-16.2,7.7-16.2,29.1
			C477.1,276.5,484.4,284.2,493.4,284.2"/>
		<path class="st0" d="M536.1,246.1c0-3.6-0.1-6.9-0.4-9.5h12.5c0.1,3.5,0.5,7,0.5,10.5h0.2c1.7-4.5,6-11.4,14.6-11.4
			c0.9,0,1.6,0.2,2.3,0.3V249c-1.2-0.3-2.5-0.6-3.9-0.6c-5.7,0-11.9,3.4-11.9,14.1v31.4h-13.8V246.1z"/>
		<path class="st0" d="M575.5,302.8c3.2,1.8,9.7,4.9,16.9,4.9c13,0,15.1-9,15.1-18v-5.5h-0.2c-2.2,4.5-6.1,9.7-15.1,9.7
			c-8,0-20-5.3-20-28.5c0-15.8,5.7-29.7,20.7-29.7c8.3,0,12.2,4.8,15.1,9.8h0.5c0-3,0.3-5.9,0.4-8.9h12.5c-0.2,3-0.5,6-0.5,9v42.3
			c0,17.9-5.4,30.7-26.5,30.7c-9.1,0-16.4-2.3-19.7-3.6L575.5,302.8z M595.4,283.8c8.7,0,12.1-6.2,12.1-19.2
			c0-12-4.6-18.5-11.1-18.4c-7.2,0.1-10,6.8-10,18.5C586.4,278.1,590.7,283.8,595.4,283.8"/>
		<path class="st0" d="M636.2,240c3.9-1.8,9.4-4.2,18.1-4.2c17.8,0,21.9,8.7,21.9,23v25c0,4.1,0.4,7.9,0.8,10.1h-12.5
			c-0.7-2.2-0.8-5-0.8-7.8h-0.2c-3.4,4.7-7.8,8.7-16,8.7c-8.9,0-17.1-6.1-17.1-16.8c0-15.6,12.7-19.5,30.2-19.5h2.8v-2.1
			c0-5.7-2.8-10.9-10.7-10.9c-6.9,0-13,3.3-15.7,5.6L636.2,240z M663.4,265.9h-1.2c-11.8,0-18.8,2.4-18.8,10.8
			c0,5.2,3.5,8.8,8.8,8.8c8.2,0,11.2-6.1,11.2-16.3V265.9z"/>
		<path class="st0" d="M689,246.1c0-3.6-0.1-6.9-0.4-9.5h12.9c0.1,2.9,0.4,5.9,0.4,8.8h0.2c2-3.4,5.9-9.7,15.3-9.7
			c13,0,16.9,9.7,16.9,21.3v36.9h-13.8v-34.4c0-8.8-2.2-12.5-7.9-12.5c-7.2,0-9.8,6.1-9.8,13.5v33.4H689V246.1z"/>
		<path class="st0" d="M747.9,212.3h14.2v13.6h-14.2V212.3z M748.1,236.6h13.8v57.3h-13.8V236.6z"/>
		<polygon class="st0" points="772.6,282 797.1,247.1 773.3,247.1 773.3,236.6 810.9,236.6 810.9,248.4 786.8,283.5 811.6,283.5 
			811.6,293.9 772.6,293.9 		"/>
		<path class="st0" d="M823.7,240c3.9-1.8,9.3-4.2,18.1-4.2c17.8,0,21.9,8.7,21.9,23v25c0,4.1,0.4,7.9,0.8,10.1h-12.5
			c-0.7-2.2-0.8-5-0.8-7.8h-0.2c-3.4,4.7-7.8,8.7-16,8.7c-8.9,0-17.1-6.1-17.1-16.8c0-15.6,12.7-19.5,30.2-19.5h2.8v-2.1
			c0-5.7-2.8-10.9-10.7-10.9c-6.9,0-13,3.3-15.7,5.6L823.7,240z M850.9,265.9h-1.2c-11.8,0-18.8,2.4-18.8,10.8
			c0,5.2,3.5,8.8,8.8,8.8c8.2,0,11.2-6.1,11.2-16.3V265.9z"/>
		<path class="st0" d="M881.7,224.8l13.8-4.2v16H907v10.1h-11.5v29.7c0,6.1,2.2,7.9,6.2,7.9c2.4,0,4.2-0.7,5.2-1.2v9.8
			c-2.1,1-5.1,1.9-9.2,1.9c-10.2,0-16-4.7-16-16.7v-31.4h-9.1v-10.1h9.1V224.8z"/>
		<path class="st0" d="M916.9,212.3h14.2v13.6h-14.2V212.3z M917.1,236.6h13.8v57.3h-13.8V236.6z"/>
		<path class="st0" d="M968.4,235.7c11.7,0,25.2,6.1,25.2,29.5c0,24-13.5,29.6-25.2,29.6c-11.7,0-25.3-5.6-25.3-29.6
			C943.1,241.9,956.7,235.7,968.4,235.7 M968.4,285c8.9,0,10.9-10.2,10.9-19.8c0-9.6-2-19.7-10.9-19.7c-8.9,0-11,10.1-11,19.7
			C957.3,274.8,959.5,285,968.4,285"/>
		<path class="st0" d="M1004.4,246.1c0-3.6-0.1-6.9-0.4-9.5h12.9c0.1,2.9,0.4,5.9,0.4,8.8h0.2c2-3.4,5.9-9.7,15.3-9.7
			c13,0,16.9,9.7,16.9,21.3v36.9h-13.8v-34.4c0-8.8-2.2-12.5-7.9-12.5c-7.2,0-9.8,6.1-9.8,13.5v33.4h-13.8V246.1z"/>
		<path class="st0" d="M1114.8,235.7c11.7,0,25.2,6.1,25.2,29.5c0,24-13.5,29.6-25.2,29.6c-11.7,0-25.3-5.6-25.3-29.6
			C1089.5,241.9,1103.1,235.7,1114.8,235.7 M1114.8,285c8.9,0,10.9-10.2,10.9-19.8c0-9.6-2-19.7-10.9-19.7c-8.9,0-11,10.1-11,19.7
			C1103.7,274.8,1105.8,285,1114.8,285"/>
		<path class="st0" d="M1155.2,246.8h-9.6v-10.1h9.6v-11.7c0-8.2,3.9-15.8,16.5-15.8c3.7,0,7.2,0.8,9.9,1.3l-0.6,10
			c-1.7-0.4-3.4-0.9-5.5-0.9c-4,0-6.6,2.8-6.6,7.1v9.9h10.5v10.1H1169v47.2h-13.8V246.8z"/>
		<path class="st0" d="M1221.9,224.8l13.8-4.2v16h11.5v10.1h-11.5v29.7c0,6.1,2.2,7.9,6.2,7.9c2.4,0,4.2-0.7,5.2-1.2v9.8
			c-2.1,1-5.1,1.9-9.2,1.9c-10.2,0-16-4.7-16-16.7v-31.4h-9.1v-10.1h9.1V224.8z"/>
		<path class="st0" d="M1255.9,210.5h13.8V244h0.3c2.4-3.6,5.7-8.2,14.2-8.2c13,0,16.9,9.7,16.9,21.3v36.9h-13.8v-34.4
			c0-8.8-2.2-12.5-7.9-12.5c-7.2,0-9.8,6.1-9.8,13.5v33.4h-13.8V210.5z"/>
		<path class="st0" d="M1355.7,291.2c-2.9,1.2-8.9,3.7-17.1,3.7c-18.5,0-26.5-13.2-26.5-28.7c0-17.1,9-30.4,23.6-30.4
			c12.4,0,22.9,7.2,22.9,30.6v2.7h-33.1c0,9.8,3.9,15.7,14.6,15.7c8.5,0,12.5-2.6,15-4.4L1355.7,291.2z M1345.2,260.3
			c0-10.1-3.3-15.2-9.6-15.2c-7.2,0-10.2,7.7-10.2,15.2H1345.2z"/>
		<path class="st0" d="M479.1,342v50.3c0,12.9,3.9,17.1,12.2,17.1c8.1,0,12.1-4.2,12.1-17.1V342h14.2v50.3
			c0,20.5-11.8,28.5-26.4,28.5c-14.7,0-26.5-8-26.5-28.5V342H479.1z"/>
		<path class="st0" d="M531.5,371.8c0-3.6-0.1-6.9-0.4-9.5H544c0.1,2.9,0.4,5.9,0.4,8.8h0.2c2-3.4,5.9-9.7,15.3-9.7
			c13,0,16.9,9.7,16.9,21.3v36.9H563v-34.4c0-8.8-2.2-12.5-7.9-12.5c-7.2,0-9.8,6.1-9.8,13.5v33.4h-13.8V371.8z"/>
		<path class="st0" d="M590.4,338h14.2v13.6h-14.2V338z M590.6,362.4h13.8v57.3h-13.8V362.4z"/>
		<path class="st0" d="M623.3,350.6l13.8-4.2v16h11.5v10.1h-11.5v29.7c0,6.1,2.2,7.9,6.2,7.9c2.4,0,4.2-0.7,5.2-1.2v9.8
			c-2.1,1-5.1,1.9-9.2,1.9c-10.2,0-16-4.7-16-16.7v-31.4h-9.1v-10.1h9.1V350.6z"/>
		<path class="st0" d="M699.4,416.9c-2.9,1.2-8.9,3.7-17.1,3.7c-18.5,0-26.5-13.2-26.5-28.7c0-17.1,9-30.4,23.6-30.4
			c12.4,0,22.9,7.2,22.9,30.6v2.7h-33.1c0,9.8,3.9,15.7,14.6,15.7c8.5,0,12.5-2.6,15-4.4L699.4,416.9z M688.9,386.1
			c0-10.1-3.3-15.2-9.6-15.2c-7.2,0-10.2,7.7-10.2,15.2H688.9z"/>
		<path class="st0" d="M760,336.2v73.7c0,4.1,0.1,7.7,0.4,9.8h-12.9c-0.2-1.7-0.4-5-0.4-8.9h-0.3c-2.2,4.9-6.3,9.8-15.3,9.8
			c-14.2,0-20.1-13.6-20.1-29.5c0-18.7,7.5-29.6,19.8-29.6c8.2,0,12.8,4.7,14.8,9.1h0.2v-34.4H760z M735.3,410.4
			c8.1,0,10.9-8.8,10.9-19.6c0-11.1-3.1-19.2-10.7-19.2c-7.7,0-10.3,7.5-10.3,18.9C725.2,403.8,727.3,410.4,735.3,410.4"/>
		<polygon class="st0" points="803.5,342 820.4,342 846.2,403 846.5,403 846.5,342 859.4,342 859.4,419.7 842.3,419.7 816.6,359.2 
			816.4,359.2 816.4,419.7 803.5,419.7 		"/>
		<path class="st0" d="M876.5,365.7c3.9-1.8,9.4-4.2,18.2-4.2c17.8,0,21.9,8.7,21.9,23v25c0,4.1,0.4,7.9,0.8,10.1h-12.5
			c-0.7-2.2-0.8-5-0.8-7.8h-0.2c-3.5,4.7-7.8,8.7-16,8.7c-8.9,0-17.1-6.1-17.1-16.8c0-15.6,12.7-19.5,30.2-19.5h2.8v-2.1
			c0-5.7-2.8-10.9-10.7-10.9c-6.9,0-13,3.3-15.7,5.6L876.5,365.7z M903.6,391.6h-1.2c-11.8,0-18.8,2.4-18.8,10.8
			c0,5.2,3.4,8.8,8.8,8.8c8.2,0,11.2-6.1,11.2-16.3V391.6z"/>
		<path class="st0" d="M934.4,350.6l13.8-4.2v16h11.5v10.1h-11.5v29.7c0,6.1,2.2,7.9,6.2,7.9c2.4,0,4.2-0.7,5.2-1.2v9.8
			c-2.1,1-5.1,1.9-9.2,1.9c-10.2,0-16-4.7-16-16.7v-31.4h-9.1v-10.1h9.1V350.6z"/>
		<path class="st0" d="M969.6,338h14.2v13.6h-14.2V338z M969.8,362.4h13.8v57.3h-13.8V362.4z"/>
		<path class="st0" d="M1021.1,361.5c11.7,0,25.1,6.1,25.1,29.5c0,24-13.5,29.6-25.1,29.6c-11.7,0-25.3-5.6-25.3-29.6
			C995.8,367.6,1009.4,361.5,1021.1,361.5 M1021.1,410.8c8.9,0,10.9-10.2,10.9-19.8c0-9.6-2-19.7-10.9-19.7c-8.9,0-11,10.1-11,19.7
			C1010.1,400.5,1012.2,410.8,1021.1,410.8"/>
		<path class="st0" d="M1057.1,371.8c0-3.6-0.1-6.9-0.4-9.5h12.9c0.1,2.9,0.4,5.9,0.4,8.8h0.2c2-3.4,5.9-9.7,15.3-9.7
			c13,0,16.9,9.7,16.9,21.3v36.9h-13.8v-34.4c0-8.8-2.2-12.5-7.9-12.5c-7.2,0-9.8,6.1-9.8,13.5v33.4h-13.8V371.8z"/>
		<path class="st0" d="M1113.3,406.3c2.2,0.9,7.9,3.8,14.4,3.8c5,0,8.9-1.2,8.9-5.7c0-2.2-1.1-4.3-6.1-7.2l-5.7-3.3
			c-5.8-3.4-12.1-7.1-12.1-16.1c0-7.9,7.7-16.2,19.8-16.2c7.3,0,13,1.9,14.4,2.3l-0.8,10.7c-3.4-1.3-7.1-2.6-12.1-2.6
			c-5.6,0-7.9,2.1-7.9,5.6c0,3.1,2.5,4.8,6.5,7.3l6.8,4.3c7.1,4.6,10.7,7.8,10.7,14.5c0,10.6-8.9,16.9-21.4,16.9
			c-7.1,0-13-1.7-15.9-2.8L1113.3,406.3z"/>
	</g>
</g>
</svg>
