<?xml version="1.0" encoding="utf-8"?>
<!-- Generator: Adobe Illustrator 27.1.1, SVG Export Plug-In . SVG Version: 6.00 Build 0)  -->
<svg version="1.1" id="Layer_1" xmlns="http://www.w3.org/2000/svg" xmlns:xlink="http://www.w3.org/1999/xlink" x="0px" y="0px"
	 viewBox="0 0 1430 500" style="enable-background:new 0 0 1430 500;" xml:space="preserve">
<style type="text/css">
	.st0{fill:#FFFFFF;}
</style>
<g>
	<path class="st0" d="M423.1,123.4c8.8,10.5,24.2,16.7,33.2,27.2c-6.5-31.1-30.5-56.5-58.9-62.6C411.2,98.4,414.2,112.9,423.1,123.4
		 M81.8,202.2c19.5-42.6,48.7-33.6,61.1-74.1c-7,12.4-38.9,17.7-53.7,49.6c7.6-19,3.8-47.9,16.5-63.6
		C67.5,142.3,83.8,187.9,81.8,202.2 M117.2,304.3c3.5,16.6-6.8,40.5,9.6,63.4c-17-19-52.9-23.9-67.6-52.8
		c18.3,70.7,66.1,56.1,87.6,71.5C129.1,360.9,143.6,344,117.2,304.3 M111.7,348.7c-10.6-39.5,8.2-53.1-6.1-91.1
		c-1.5,21.4-15.7,31.8-6.1,70.8c-17-33.1-43.2-45.4-50.8-68.1C49.2,322.4,99.1,331.6,111.7,348.7 M188.2,415
		c-14.7-20.3-4.7-31.8-45.9-68.7c8.7,13.5-0.3,30.4,27.5,56.7c-27.2-16-64.7-9.2-82.8-30.6C118.1,431.9,172.7,407.6,188.2,415
		 M387.7,403c27.8-26.3,18.8-43.3,27.5-56.7c-41.2,36.9-31.2,48.4-45.9,68.7c15.5-7.4,70.1,16.9,101.2-42.6
		C452.5,393.8,415,387,387.7,403 M430.9,367.7c16.4-22.9,6.1-46.8,9.6-63.4c-26.4,39.7-11.9,56.6-29.6,82.1
		c21.6-15.4,69.3-0.8,87.6-71.5C483.8,343.8,447.9,348.6,430.9,367.7 M365,417.8c-16.1-4.3-32.7-6.4-45.1-6.7
		c-15.4-0.4-29.2,2.5-41.1,7c-11.9-4.4-25.7-7.4-41.1-7c-12.4,0.3-29,2.4-45.1,6.7c-24.8,6.6-46.2,11.7-64.9,2.3
		c17.9,15.9,38.8,21.6,69,18.3c25.1-2.7,45.4-15.3,69.1-15.1c0.3,0,0.6,0,0.9,0c-25,12.6-39.1,30.4-39.1,30.4l11.4,1.5
		c0,0,12-24.2,39.7-30.5c27.7,6.3,39.7,30.5,39.7,30.5l11.4-1.5c0,0-14.1-17.8-39.1-30.4c0.3,0,0.6,0,0.9,0
		c23.7-0.2,44,12.4,69.1,15.1c30.2,3.3,51.1-2.4,69-18.3C411.2,429.5,389.8,424.4,365,417.8 M107.3,214.8
		c-10.2,19.6-26.1,24.1-24.4,64.6c-8.6-36-29.1-49.4-28.8-72.4c-14.3,60,23.8,67.2,33.6,92.3C86.2,263.3,109.2,256,107.3,214.8
		 M121.6,168.4c-3.6,5-6.1,7.1-15.6,14.9C93.1,194,82.7,208,78.4,228.5c1-22-12.6-53.6-3.6-76.7c-35,49.4,2,79,3.3,96.9
		C87.2,214.3,108,214,121.6,168.4 M479.2,228.5c-4.3-20.4-14.7-34.5-27.6-45.1c-9.5-7.8-12-9.9-15.6-14.9
		c13.6,45.6,34.4,45.9,43.5,80.3c1.3-17.9,38.3-47.5,3.3-96.9C491.8,174.9,478.3,206.5,479.2,228.5 M508.9,260.3
		c-7.6,22.7-33.8,35-50.8,68.1c9.6-39.1-4.6-49.5-6.1-70.8c-14.3,37.9,4.5,51.6-6,91.1C458.5,331.6,508.4,322.4,508.9,260.3
		 M450.3,214.8c-1.9,41.2,21.1,48.5,19.6,84.5c9.8-25.1,47.9-32.3,33.6-92.3c0.3,23-20.2,36.4-28.8,72.4
		C476.4,238.9,460.6,234.4,450.3,214.8 M134.6,123.4c8.8-10.5,11.8-24.9,25.6-35.4c-28.4,6.1-52.4,31.5-58.9,62.6
		C110.4,140.1,125.8,133.9,134.6,123.4 M414.8,128.1c12.4,40.6,41.6,31.6,61.1,74.1c-2.1-14.3,14.2-59.9-24-88.1
		c12.8,15.6,9,44.6,16.5,63.6C453.6,145.8,421.7,140.6,414.8,128.1 M315.7,151.2c-7.3-3-15.1-5.2-23.3-6.3c0,1.7-0.1,3.5-0.1,5.2
		c7.5,1.1,14.7,3.1,21.5,5.9C314.6,154.5,315.3,152.9,315.7,151.2 M309.7,100.9l1.6-1.4l-3-1.3l-7.8-0.1l-2,1.4l-4.6-0.4l-0.1,1.1
		c2.9,0.2,5.8,0.5,8,0.9l3.8-0.3L309.7,100.9z M294.7,269.3c0-1.3-1.8-2.6-4.4-3.9h-0.5c0,1.1-0.1,6.4-0.2,8.9
		C292.9,272.9,294.7,271.4,294.7,269.3 M204.3,170.1c0.2-1.1,0.4-1.9,0.7-2.9c-1,0.2-2.1,0.4-3.2,0.3L204.3,170.1z M167.9,133.7
		l18.5,18.5c-21.6,22.6-34.9,53.1-35.3,86.6h-26.2C125.3,198.1,141.7,161.1,167.9,133.7 M156.7,277.8l-1.5-0.3l-1.5-1.6l-7.3-0.7
		l2.3,3.1l-6.8-1.3l1.8-1.6l-1.7-1.6l-4.9,2.1l-1.8,3.3l0.7,7.4l5.6,13.5l2.7,4.2l1.6,0.6l-4.3-8.1l-0.9-4.1l1-1l-0.6-2.3l2.6,0.3
		l3.9,6l1,0.4l-0.1-4.4l1.6,0.9l0.3,2.4l4.2,1.1l1.7-1.2l0.6,0.4l-0.1,3.2l1.8,2.3l2.2,0.5l4.9,8.2l2.9,0.8l0.9-3.8
		c5.1,8.4,11.2,16.2,18,23.3L169,348.3c-26.5-27-43.2-63.7-44.1-104.3h26.2C151.4,255.7,153.4,267.1,156.7,277.8 M182.5,244
		c0.1,2.5,0.3,5.1,0.6,7.6l-3.2,0.7l-0.7,3.3l-6.7,8.5l0.2,11.7l-6.8,2.3l-3.7,0c-3.5-10.8-5.5-22.2-5.8-34H182.5z M188.4,317.6
		l5.9,3.4l1.2,0.8l-4.3,4.2c-2-2-3.9-4.2-5.8-6.4L188.4,317.6z M212.3,178.1l18.5,18.5c-3.9,4.2-7.2,9-9.8,14.1l-1.3-0.1l-2.6,0.8
		l-0.9-0.1l-2.8,2.6l3.5-0.6l3.1-0.8c-0.2,0.4-0.4,0.8-0.5,1.2l-2.8,1.7h-1.3l-4.1,3.1l-3.9-0.3l-5.7,10.6l1.1,2.1l-3.1,3.4
		l-0.5,4.5h-11.7C188,215.4,197.3,194,212.3,178.1 M231.2,254.4l1.3-0.7l3.4,2.6l-1.5,1.2l3.8,2.6l-0.2-2.8l2-3.4l2.1,2.3l2.2,3.2
		l-4,0.9l1.8,3.6l2.8-1.5l-0.4-1.2l2.1-1.4l1.2-5.7c1.5,3.4,3.5,6.5,6,9.2l-18.5,18.5c-8.8-9.3-14.7-21.3-16.2-34.7l3.8,4l3.6-0.1
		L231.2,254.4z M204.6,234.9l0.5-5.2l3.1-1.8l5.5,1l0.8,1c-0.5,2.9-0.8,6-0.8,9h-6.3L204.6,234.9z M196,252.8l-2.5,3.9h-4.2
		l-0.3-0.2c-0.7-4.1-1.2-8.2-1.3-12.4h7.9l-1.9,6.3L196,252.8z M213.3,304c-1.9-2-3.7-4-5.4-6.1l0.8-6.6l-2.8-6.4l-0.7-9.9l-3.1-6
		l0.7-3.7l-3.8-7.2l-3.3-1.6l1.3-3.8l-1.4-3l1.3-3.4h3.6l1.3-2.1h6.1l1,1.8l-1.2,6.2l-0.7,1.1l2.3,5l-1.5,0.8l-1-1.3l-0.4,0.5l1,3
		l1.8,3.5l0.8-0.1l0.5-3.1l-0.9-1.1l-0.1-2.1l-0.3-4.3l1.3-7.7l-1.2-2.1h4.4c0.9,16,7.6,30.6,18,41.5L213.3,304z M370.9,329.3
		c21.5-22.2,35.1-52.2,36-85.3H433c-0.9,40.3-17.4,76.9-43.6,103.8L370.9,329.3z M363.6,322.1l2-2.3l-1.9-10.1l-1.3-0.5l0.8-1.7
		l-4.4-1.4l-0.9,3.6l-0.4,4.6l-0.9,0.8l-8-8c15.8-16.6,25.9-38.7,26.8-63.2h26.2c-0.9,31.7-13.9,60.4-34.5,81.7L363.6,322.1z
		 M340.6,346.6l2.5-5.3l-1-2.3l3.6-3.2v-1.9l-3.1-1.9l2.6-5.1l3.8-5l-3.8-4.1h-2.9l-1.8-2.9c1.5-1.3,3-2.6,4.5-4l18.5,18.5
		C356.6,335.9,348.9,341.7,340.6,346.6 M337,295.5l-2.5-2.5l1.9-2.5l2.4-4.9l-0.9-1.4l1.6-3.7l-0.2-3.3l-1-3.4l-2.3-0.8l-0.8,1.9
		l-1.4-0.4c2-3.1,4-6.1,5.5-9.6l2.4-1l1.3-1.8l0.6,0.8l1.6-1.9l-1.3-1.6l1.2-0.3l2.1,0.9l4,0.1l2.4-1.3l6.4-1.7l-1.2-2.1l-0.4-2.6
		l3.4,1.5l1.3-0.7l-0.6-2.7l-4.2,1.6l-4.6-1l-3.5-7.2h20c-0.9,23-10.3,43.9-25.3,59.5l-2.7-2.7l1.2-3.7l-2.1-8.1L337,295.5z
		 M327.6,197l18.5-18.5c4.3,4.7,8.2,9.9,11.5,15.4l-2.3,0.6l0.1,4.1l6.9,4.4c1.7,3.8,3.1,7.7,4.3,11.7l-1.2,1.8l-2.5,1.6l-0.6,3.8
		l-1.7,1l-1.4,1.7l-1.5-0.5l-2.6-0.1l1.5-2l1.1-5.2l1.7-1.1l-5-4.8l-3.7,1.3l-0.9,3.5l-2.3,2.6l-2.4-2l-0.9-2.1l1.4-0.9l0.8,1.4
		l1.1-0.4l-0.5-2.4l-1.6-0.1l-0.1,1l-1.1,0.2l-5.7-6.7l-2-1.5l0.7-0.8l1.8-0.6l-1.6-0.6c0,0-2,0.5-2.3,0.5l1.2,1.5l-2.9-0.1
		C331.6,201.9,329.7,199.4,327.6,197 M330.5,298l-5.7-1.6l-1.7,0.6l-3.2-2.4l-3-1.1c1.5-1.1,2.9-2.2,4.3-3.4l4.7,3.3l3.5,1.9
		l1.8,1.8L330.5,298z M320.5,211.1l2.3-0.5l-0.1-0.6l-2.3-1.6l0.8-4.9l2.8-2.8c1.8,2,3.4,4.1,4.9,6.3l-1,3l-2.6-1.8l-2,0.5l1,1.8h1
		l-1.1,2.7l-0.8-1.1L320.5,211.1z M351.9,229.1l4.7-2.6l4.8-0.7l1.1-2.3l2.7-1.6l1-2.2l0.8-3.9c0.4,1.4,0.7,2.7,1,4.1l-2.5,7.6
		l-0.1,2.6l3.7-4.9c0.8,4.5,1.2,9.1,1.3,13.8h-22.9l-0.5-2l2.7-2.1l0.5-1.3l1.2-0.9l3.1-0.3l0.3-1.4L351.9,229.1z M357.1,167.7
		l6.3,0.3l1.5,1.8l-0.7,2.7l8.7,5.4l1.7-0.2l11.2,12.8l4.6-1.6c7.1,15.2,11.1,32.1,11.4,50h-26.2c-0.1-6.8-1-13.5-2.4-19.9l1.2-1.6
		l1.6-8.2l-1.2-8.8l-3.2-10.1l-7.3-10.7l1.8,0.9l0.9-0.9l-5.9-4l-0.4,1.3l5.9,8.4l3.3,6.9l2.4,6.8l0.8,4.6l1.2,7.7l-2.2,0.2
		c0,0-2.5-4.7-3.3-6.7l1.2-1.7l-2.2-3.2v-3.2l-1.6-2l-2,0.3c-0.7-1.3-1.5-2.6-2.2-3.9l1.4,0.7l0.4-0.4l-0.8-1.6l1.7-1l-0.8-1l-2.5,1
		l0.9-4l-1.5-0.9l-1.3,3.2c-2.9-4.3-6-8.3-9.5-12.1L357.1,167.7z M390.5,134.2c26,27.3,42.2,64.1,42.6,104.6h-26.2
		c-0.2-20.1-5.1-39-13.7-55.9l0.2-0.5l1.8,1l0.4-1.4l-4.7-8.2l-5.5-7.7l-6.5-5.4c-2.2-2.8-4.6-5.5-7-8.1L390.5,134.2z M313.4,289.7
		l0-0.1L313.4,289.7C313.4,289.7,313.4,289.7,313.4,289.7 M279,399.7c87.8,0,159.2-71.4,159.2-159.2c0-82.4-62.8-150.3-143.1-158.4
		c-0.1,0.3-0.1,0.6-0.2,0.9c-0.3,1.5-0.6,2.9-0.8,4.2c35.9,3.5,68.3,19.4,92.7,43.4l-17.6,17.6l0.7-3.1l-2.3-1l-3.2-0.2l0.7-2
		l-2.1-7.2l-4.4-4.8l-13.7-7.2l-1.2,1.3l-2.5,0.7c4.7,6.9,7.3,15,7.3,23.1c0,1,0,2.1-0.1,3.1l6.8,8.5L352,160l2.1,3.2l-6,6l-2.4-4.6
		c-1.2,3.2-2.7,6.2-4.5,9c0.4,0.4,0.9,0.8,1.3,1.3L324,193.3c-1.1-1.1-2.3-2.1-3.5-3.1c-1.8,0.8-3.6,1.6-5.4,2.3
		c0.5,0.4,1.1,0.8,1.6,1.2l-0.9,0.9l-2.2,1.2l-0.8,2.2l-1.3-1.3l-3.9,1.3l1.1,1.7l2.7-0.7l1.8,0.1l0.1-1l1.3-0.7l0.4-0.8l2.4-0.7
		l1.9-0.1c0.4,0.3,0.7,0.7,1.1,1l-7.3,7.3l-0.5-0.8l-7.7,1.3l-1.7,1.7l-1.7,0.2l4.8-4.6l-1.7-0.9l-4.4,6l1.3-0.1l-0.1,2.2l1.6,0.6
		l0.3,2.3l-2.7-0.5l-2.8,0.5l-6.7-3.5c0,0-0.4,18.1-0.6,27.2c15.9,5.3,32.7,13,32.7,33.3c0,8.9-3.8,16.1-11.4,21.4l0.1,0
		c-0.1,0.1-0.2,0.1-0.4,0.2l0,0c-0.2,0.1-0.3,0.2-0.5,0.3c-6.4,4.3-14.7,6.5-21.9,8.8c0,0-0.2,14.2-0.2,14.2
		c11.4,5.7,25.2,13.9,24,37.5c-0.2,5.8-2.4,7.4-4.3,7.9c-6.7,1.7-13.6,2.7-20.6,3.3c0,1.8-0.1,3.6-0.1,5.2
		c30.7-2.1,58.4-15.1,79.4-35.1l18.5,18.5c-27.7,26.6-65.3,43-106.7,43c-41.2,0-78.6-16.2-106.3-42.6l18.5-18.5
		c20.8,19.6,48.1,32.4,78.3,34.6c0-1.6-0.1-3.3-0.1-5.2c-28.7-2.2-54.7-14.4-74.5-33.1l4.9-4.9l6.8,0.8l3.6-3.9l9.4,0.3l1.4-3.3
		l-0.3-1.4c13.7,10.4,30.2,17.2,48.2,19.1c0-2-0.1-3.8-0.1-5.2c-19.9-2.2-37.8-10.8-51.8-23.7l18.5-18.5c4.5,4,9.5,7.4,15,10.1
		c0.4-1.8,1-3.4,1.9-4.9c-4.8-2.4-9.2-5.4-13.2-8.9l18.5-18.6c2.9,2.4,6.3,4.2,9.9,5.5c0-1.8-0.1-3.8-0.1-5.6
		c-2.2-1-4.3-2.2-6.1-3.6l5.2-5.2c-1.8-0.5-3.7-1.1-5.5-1.8l-3.5,3.5c-1.8-2-3.3-4.2-4.4-6.6c-3.2-1.4-6.3-3-9.2-4.9
		c-11.4-7.5-17.2-18.1-17.2-31.4c0-10.2,2.9-17.9,7.5-23.9l-18.5-18.5c13.3-12.7,30.4-21.5,49.4-24.3c0-1.8-0.1-3.5-0.1-5.2
		c-20.4,2.9-38.7,12.3-52.9,25.9l-3.1-3.1c-0.7,1.2-1.5,2.8-2.5,4.8l2,2c-15.9,16.9-25.8,39.5-26.2,64.4h-26.2
		c0.4-32.1,13.2-61.3,33.8-82.9l8.3,8.3c0.4,0,0.8,0,1.2,0c1.5-0.1,3.1-0.6,4.7-1.4l-10.6-10.6c5.6-5.4,11.7-10.3,18.2-14.6
		c0.5-1.8,1-3.3,1.3-3.8c0.3-0.6,2-2.8,4-5.4c-9.9,5.5-19.1,12.3-27.2,20.1l-18.5-18.5c24.3-23.6,56.2-39.3,91.7-42.9
		c-0.1-0.6-0.2-1.1-0.2-1.1c-0.2-1.2-0.5-2.6-0.8-4c-80,8.3-142.6,76.2-142.6,158.4C119.7,328.3,191.2,399.7,279,399.7 M357.4,124.2
		l-1.6-2.6l-3.4-1.7l-2.7,2l3.4,1.8l3.8,2.8L357.4,124.2z M341.5,198l0.1,2l4.5-1.4l1.4-2.8l-3.1-4.1l1.7-2.5l4.2,3l0.8-0.6
		l-0.8-0.6l-1-1.8l1.7-1l-1.7-2.2l-4,2l-1.4,2.4l-0.8,2.2l1.8,2.9l-0.6,1.4L341.5,198z M152.3,315.4l0.3-1.2l-2.4-5.1l-2.8-1
		L152.3,315.4z M259.3,217.1c0,4.4,2.7,7.5,7.5,10.2c0,0,0-0.7,0-2l-3.1-3.1l1.6-2.9l1.3-0.4c-0.1-5.1-0.2-10.8-0.2-11.7l-0.2,0
		C261.7,209.7,259.3,212.8,259.3,217.1"/>
	<path class="st0" d="M288.5,330.5c8.2,4.1,15.8,9.9,19,20.8c1.4-18-8.7-25.8-18.7-31.1C288.7,320.2,288.5,330.5,288.5,330.5"/>
	<path class="st0" d="M343.1,147.6c0-16.4-11.9-34.5-41-41c-2.1-0.5-5.4-0.8-8.9-1c-0.1,2.5-0.2,8.1-0.2,8.1c0,1.8-0.2,8.3-0.2,9.7
		c2.7,0.2,4.7,0.6,5.6,0.8c16.9,4,23,13.7,23,23.3c0,15.5-13.3,21.4-29.6,25.8c-1.8,0.5-3.6,0.9-5.4,1.4c-4.9,1.2-10.1,2.4-15.1,3.8
		c-1.8,0.5-3.6,1-5.4,1.5c-18.1,5.5-33.7,14.2-33.7,36.6c0,22.2,17.7,30.4,35.1,35.8c-0.1-6.4-0.2-12.8-0.4-19.2
		c-7.7-3.6-13-8.3-13-16.3c0-7.8,4.9-12.4,12.4-15.8c1.7-0.7,3.5-1.4,5.4-2.1c4.3-1.5,9.2-2.7,14.3-3.9c1.8-0.4,3.6-0.9,5.4-1.3
		C315.7,188,343.1,180.3,343.1,147.6"/>
	<path class="st0" d="M255.4,303.9c0,9,6.6,13.8,13.2,17.5c0-1.5-0.3-15.4-0.3-15.6c0.2-2.8,2.8-4.4,5-5.4c3.2-1.5,6.4-2.6,10.5-4
		c2-0.7,3.6-1.3,5.5-1.9c13.2-4,28.6-9.1,28.6-25.2c0-16.1-13.1-22.7-27.5-27.7c-0.1,5.1-0.3,12.6-0.4,17.8
		c6.1,2.4,10.1,5.3,10.1,9.9c0,5.8-6.2,9.1-10.5,10.8c-1.8,0.7-4.6,1.6-5.4,1.9c-3.5,1.1-7.3,2.4-10.8,3.7c-1.9,0.7-3.7,1.5-5.4,2.3
		C261.8,291.1,255.4,295.7,255.4,303.9"/>
	<path class="st0" d="M264.4,108.2c-8.8,2.5-14,5.9-16,6.5c-5.7,1.9-13.8,2.2-22.1,11.3c-1.5,1.6-5.1,6.1-7.6,9.9
		c-2.5,3.6-2.6,9.4-4.5,12.5c-2.7,4.5-2,7.1-2,7.1l0.1,0.1c-0.1,0.6-0.6,3-3,5.7c-2.8,3.1-6.4,4.8-10.8,4.1c3.8,1.9,9-0.8,9-0.8
		s-1,2.9-2,7.5c4.3-9.6,8.1-13.1,9.4-14.1c1.8,0.4,5.6,0.2,12.6-3.8c7.9-4.6,19.9-12,23.3-16.7c3.6-5.1,8.7-8.4,14.1-10.6
		C264.6,119.8,264.5,113.5,264.4,108.2 M230.9,138.2l-4.1,0.9l4.9-8l5.7,0.2L230.9,138.2z"/>
	<path class="st0" d="M280.8,302.8c-0.8,0.3-2.7,1.1-4,1.6c-1.3,0.5-3,1.2-3,1.6c0,0.1,1.3,69.4,1.3,70.9c0,14.3,7.3,14.4,7.3,0
		c0-1,1.5-75.1,1.5-75.1S282,302.3,280.8,302.8"/>
	<path class="st0" d="M273.2,279.9c2.3-0.8,4.5-1.5,6.6-2.1c1.6-0.5,3-0.9,4.4-1.4c0.1-4.4,1.3-64.7,1.6-75.6
		c-5.4,1.3-10.1,2.6-14,4C271.9,213,273.1,273.3,273.2,279.9"/>
	<path class="st0" d="M279.3,49c-20.4,0-11.7,30.3-10.1,40.1c0.1,0.5,1.6,68.4,2,84c3.1-0.8,6.2-1.6,9.2-2.3c2.1-0.5,4.2-1,6.2-1.5
		c0.3-15,1.8-79.8,1.9-80.2C289.5,78.5,300.2,49,279.3,49"/>
</g>
<polygon class="st0" points="612.8,145.5 612.5,145.5 595.2,239.9 571.5,239.9 549.3,124.7 568.2,124.7 583.6,213.5 583.9,213.5 
	600.4,124.7 624.9,124.7 641.2,213.5 641.6,213.5 657.6,124.7 675.8,124.7 653.2,239.9 629.2,239.9 "/>
<g>
	<path class="st0" d="M709.3,153.6c16.5,0,35.5,9.1,35.5,43.7c0,35.6-19,43.9-35.5,43.9c-16.5,0-35.7-8.2-35.7-43.9
		C673.6,162.6,692.8,153.6,709.3,153.6 M709.3,226.7c12.6,0,15.4-15.2,15.4-29.4s-2.8-29.2-15.4-29.2c-12.6,0-15.6,15-15.6,29.2
		S696.7,226.7,709.3,226.7"/>
	<path class="st0" d="M756.9,168.9c0-5.3-0.1-10.2-0.6-14h17.6c0.2,5.1,0.6,10.4,0.6,15.5h0.3c2.4-6.6,8.5-16.8,20.6-16.8
		c1.3,0,2.2,0.3,3.3,0.5v19.1c-1.7-0.5-3.5-0.8-5.5-0.8c-8,0-16.8,5.1-16.8,21v46.5h-19.5V168.9z"/>
</g>
<rect x="811" y="116.1" class="st0" width="19.5" height="123.7"/>
<g>
	<path class="st0" d="M911.8,116.1v109.2c0,6.1,0.2,11.4,0.6,14.5h-18.2c-0.3-2.5-0.6-7.4-0.6-13.2h-0.5c-3.1,7.3-9,14.5-21.5,14.5
		c-20.1,0-28.4-20.1-28.4-43.7c0-27.7,10.5-43.9,28-43.9c11.6,0,18.1,6.9,20.9,13.5h0.3v-51H911.8z M876.9,226.2
		c11.5,0,15.4-13,15.4-29c0-16.5-4.4-28.5-15.1-28.5c-10.8,0-14.6,11.1-14.6,28.1C862.6,216.3,865.6,226.2,876.9,226.2"/>
</g>
<polygon class="st0" points="976,124.7 996.1,124.7 996.1,171.5 1028.6,171.5 1028.6,124.7 1048.7,124.7 1048.7,239.8 1028.6,239.8 
	1028.6,189 996.1,189 996.1,239.8 976,239.8 "/>
<g>
	<path class="st0" d="M1123.4,235.7c-4.1,1.8-12.6,5.4-24.2,5.4c-26.1,0-37.4-19.6-37.4-42.6c0-25.4,12.7-45,33.3-45
		c17.4,0,32.4,10.7,32.4,45.4v4h-46.8c0,14.5,5.5,23.3,20.6,23.3c11.9,0,17.6-3.8,21.2-6.6L1123.4,235.7z M1108.6,190
		c0-15-4.7-22.6-13.5-22.6c-10.2,0-14.4,11.4-14.4,22.6H1108.6z"/>
	<path class="st0" d="M1144.9,159.8c5.5-2.6,13.2-6.3,25.6-6.3c25.1,0,31,12.9,31,34.1v37.1c0,6.1,0.6,11.7,1.1,15H1185
		c-0.9-3.3-1.1-7.4-1.1-11.6h-0.3c-4.9,6.9-11,12.9-22.6,12.9c-12.6,0-24.2-9.1-24.2-24.9c0-23.1,17.9-28.9,42.6-28.9h3.9v-3.1
		c0-8.4-3.9-16.2-15.1-16.2c-9.8,0-18.4,5-22.2,8.2L1144.9,159.8z M1183.2,198.3h-1.7c-16.7,0-26.6,3.6-26.6,16
		c0,7.7,4.9,13,12.4,13c11.6,0,15.9-9.1,15.9-24.3V198.3z"/>
</g>
<rect x="1220.6" y="116.1" class="st0" width="19.5" height="123.7"/>
<g>
	<path class="st0" d="M1264.5,137.4l19.5-6.3v23.8h16.2v15H1284v44.1c0,9.1,3.1,11.7,8.8,11.7c3.5,0,6-1,7.4-1.8v14.5
		c-3,1.5-7.2,2.8-13,2.8c-14.5,0-22.6-6.9-22.6-24.7v-46.5h-12.9v-15h12.9V137.4z"/>
	<path class="st0" d="M1310.2,116.1h19.5v49.7h0.5c3.5-5.3,8-12.2,20.1-12.2c18.4,0,23.9,14.3,23.9,31.5v54.8h-19.5v-51
		c0-13-3.1-18.5-11.2-18.5c-10.2,0-13.8,9.1-13.8,20v49.5h-19.5V116.1z"/>
	<path class="st0" d="M592.2,270.5c22.8,0,43.7,17.8,43.7,59.2c0,41.4-20.9,59.2-43.7,59.2c-22.8,0-43.7-17.8-43.7-59.2
		C548.5,288.3,569.4,270.5,592.2,270.5 M592.2,372.8c12.7,0,22.9-11.4,22.9-43.1c0-31.7-10.2-43.1-22.9-43.1
		c-12.7,0-22.9,11.4-22.9,43.1C569.3,361.4,579.5,372.8,592.2,372.8"/>
	<path class="st0" d="M649,316.4c0-5.3-0.2-10.2-0.6-14H666c0.2,5.1,0.6,10.4,0.6,15.5h0.3c2.4-6.6,8.5-16.8,20.6-16.8
		c1.3,0,2.2,0.3,3.3,0.5v19.1c-1.7-0.5-3.4-0.8-5.5-0.8c-8,0-16.8,5.1-16.8,21v46.5H649V316.4z"/>
	<path class="st0" d="M702.9,400.5c4.6,2.6,13.7,7.3,23.9,7.3c18.4,0,21.4-13.4,21.4-26.7V373h-0.3c-3.2,6.6-8.7,14.4-21.4,14.4
		c-11.3,0-28.3-7.9-28.3-42.2c0-23.4,8-44,29.2-44c11.8,0,17.3,7.1,21.4,14.5h0.6c0-4.4,0.5-8.7,0.6-13.2h17.6
		c-0.3,4.4-0.6,8.9-0.6,13.4v62.7c0,26.6-7.7,45.5-37.4,45.5c-12.9,0-23.1-3.5-27.8-5.3L702.9,400.5z M733.2,372.3
		c12.2,0,17.1-9.2,17.1-28.5c0-17.8-6.4-27.4-15.7-27.2c-10.2,0.2-14.1,10.1-14.1,27.4C720.5,363.9,726.6,372.3,733.2,372.3"/>
	<path class="st0" d="M788.1,307.3c5.5-2.6,13.2-6.3,25.6-6.3c25.2,0,31,12.9,31,34.2v37.1c0,6.1,0.6,11.7,1.1,15h-17.6
		c-0.9-3.3-1.1-7.4-1.1-11.6h-0.3c-4.9,6.9-11,12.9-22.6,12.9c-12.6,0-24.2-9.1-24.2-24.9c0-23.1,17.9-28.9,42.6-28.9h3.9v-3.1
		c0-8.4-3.9-16.2-15.1-16.2c-9.8,0-18.4,4.9-22.2,8.2L788.1,307.3z M826.5,345.7h-1.7c-16.7,0-26.6,3.6-26.6,16
		c0,7.8,4.9,13,12.4,13c11.6,0,15.9-9.1,15.9-24.3V345.7z"/>
	<path class="st0" d="M864.3,316.4c0-5.3-0.2-10.2-0.6-14h18.2c0.2,4.3,0.6,8.7,0.6,13h0.5h-0.2c2.8-5.1,8.3-14.4,21.5-14.4
		c18.4,0,23.9,14.4,23.9,31.5v54.8h-19.5v-51c0-13-3.2-18.5-11.2-18.5c-10.2,0-13.8,9.1-13.8,20v49.5h-19.5V316.4z"/>
</g>
<path class="st0" d="M945.8,266.2H966v20.1h-20.1V266.2z M946.1,302.3h19.5v85h-19.5V302.3z"/>
<polygon class="st0" points="983.8,369.7 1018.3,317.9 984.9,317.9 984.9,302.3 1037.8,302.3 1037.8,319.8 1003.9,371.8 
	1038.9,371.8 1038.9,387.3 983.8,387.3 "/>
<g>
	<path class="st0" d="M1057.4,307.3c5.5-2.6,13.2-6.3,25.6-6.3c25.2,0,31,12.9,31,34.2v37.1c0,6.1,0.6,11.7,1.1,15h-17.6
		c-0.9-3.3-1.1-7.4-1.1-11.6h-0.3c-4.9,6.9-11,12.9-22.6,12.9c-12.6,0-24.2-9.1-24.2-24.9c0-23.1,17.9-28.9,42.6-28.9h3.9v-3.1
		c0-8.4-3.9-16.2-15.1-16.2c-9.7,0-18.4,4.9-22.1,8.2L1057.4,307.3z M1095.7,345.7h-1.7c-16.7,0-26.6,3.6-26.6,16
		c0,7.8,4.9,13,12.4,13c11.6,0,15.9-9.1,15.9-24.3V345.7z"/>
	<path class="st0" d="M1136.3,284.9l19.5-6.3v23.8h16.2v15h-16.2v44c0,9.1,3.1,11.7,8.8,11.7c3.5,0,6-1,7.4-1.8v14.5
		c-3,1.5-7.2,2.8-13,2.8c-14.4,0-22.6-6.9-22.6-24.7v-46.5h-12.9v-15h12.9V284.9z"/>
</g>
<path class="st0" d="M1185.4,266.2h20.1v20.1h-20.1V266.2z M1187.9,302.3h19.5v85h-19.5V302.3z"/>
<g>
	<path class="st0" d="M1258,301c16.5,0,35.5,9.1,35.5,43.7c0,35.6-19,43.9-35.5,43.9c-16.5,0-35.7-8.2-35.7-43.9
		C1222.3,310.1,1241.5,301,1258,301 M1258,374.1c12.6,0,15.4-15.2,15.4-29.4c0-14.2-2.8-29.2-15.4-29.2c-12.6,0-15.5,15-15.5,29.2
		C1242.4,358.9,1245.4,374.1,1258,374.1"/>
	<path class="st0" d="M1310.4,316.4c0-5.3-0.2-10.2-0.6-14h18.2c0.2,4.3,0.6,8.7,0.6,13h0.5h-0.2c2.8-5.1,8.3-14.4,21.5-14.4
		c18.4,0,23.9,14.4,23.9,31.5v54.8h-19.5v-51c0-13-3.2-18.5-11.2-18.5c-10.2,0-13.8,9.1-13.8,20v49.5h-19.5V316.4z"/>
</g>
</svg>
