<?xml version="1.0" encoding="utf-8"?>
<!-- Generator: Adobe Illustrator 27.0.0, SVG Export Plug-In . SVG Version: 6.00 Build 0)  -->
<svg version="1.1" id="Layer_1" xmlns="http://www.w3.org/2000/svg" xmlns:xlink="http://www.w3.org/1999/xlink" x="0px" y="0px"
	 viewBox="0 0 1430 500" style="enable-background:new 0 0 1430 500;" xml:space="preserve">
<style type="text/css">
	.st0{fill:#FFFFFF;}
</style>
<g>
	<g>
		<path class="st0" d="M314.3,99.8c0.6,0.5,0.6,1.3,1.1,1.9c0.2,0.3,1,0.5,0.7,1c0.1,0.4-0.2,0.6-0.3,0.9c-0.6,0.1-1.1-0.4-1.6-0.7
			c-0.3-0.3-0.5-0.6-0.9-0.7c-0.8-0.8-1.6-1.7-1.9-2.8c0-0.3,0.1-0.6,0.4-0.8c0.3-0.2,0.6-0.1,0.9-0.1
			C313.3,98.9,313.7,99.5,314.3,99.8"/>
		<path class="st0" d="M317.2,102.9c0,0.1-0.1,0-0.1,0c0,0,0-0.1,0-0.1C317.2,102.8,317.2,102.9,317.2,102.9"/>
		<path class="st0" d="M318.5,103.5c0.1,0.3,0.1,0.7,0,0.9c-0.3,0.3-0.7,0.3-1,0.3c-0.3-0.1-0.7-0.3-0.7-0.6
			c-0.1-0.4,0.4-0.4,0.5-0.8C317.7,103.1,318.3,103.1,318.5,103.5"/>
		<path class="st0" d="M318.6,107.1c0.1,0.2,0.3,0.5,0.6,0.5c0.2-0.1,0.5-0.2,0.7-0.1c0.2,0.3,0.5,0.2,0.6,0.5
			c0.2,0.5,0.3,1,0.2,1.5c-0.2,0.2-0.4,0.3-0.7,0.3c-0.5-0.5,0-1.4-0.7-1.9c-0.2,0-0.4,0.1-0.5,0.3c-0.1,0.4,0.8,0.7,0.4,1.2
			c0.1,0.2,0.1,0.4,0.1,0.6c-0.4,0.4-0.8-0.1-1.3-0.1c-0.4-0.3-0.7-0.6-0.8-1c-0.1-0.3,0.1-0.5,0.3-0.5c0.1-0.1,0.3,0,0.4-0.2
			c-0.2-0.4-0.6-0.4-0.9-0.7c-0.6-0.1-1.2-0.6-1.4-1.1c0-0.3-0.2-0.6,0-0.9c0.4-0.3,0.9-0.4,1.4-0.2L318.6,107.1z"/>
		<path class="st0" d="M321.1,111c0.2,0.3,0.3,0.6,0.5,0.9c0.1,0.7,0.9,1.1,0.6,1.9c-0.5,0.4-0.7,1.1-1.4,0.9
			c-0.5-0.1-0.6-0.7-1.1-0.9c-0.1-0.3-0.5-0.4-0.4-0.8c0.1-0.4,0.3-1,0.1-1.4c0-0.2,0.2-0.4,0.4-0.6
			C320.3,110.9,320.8,110.7,321.1,111"/>
		<path class="st0" d="M323.4,115.9c0.1,0.4-0.4,0.4-0.6,0.7c-0.5-0.1-0.9,0.4-1.2,0c-0.1-0.2-0.4-0.4-0.2-0.6
			c0.5-0.3,0.9-0.9,1.5-0.8L323.4,115.9z"/>
		<path class="st0" d="M324.2,117.8c0,0.5-0.6,0.4-0.9,0.8c-0.5-0.3-0.8,0.3-1.3-0.1c-0.2-0.3-0.2-0.6-0.1-1c0.5-0.3,1,0.2,1.5-0.2
			C323.7,117.2,324.1,117.3,324.2,117.8"/>
		<path class="st0" d="M324.7,119.9c0,0.6,0.3,1,0.3,1.5c0.5,0.5,0.5,1.3,0.9,1.9c0.3,1.3,0.3,2.6,0.7,3.9c0.1,1,0.7,1.9,0.9,2.9
			c-0.1,0.8,0.1,1.6,0.2,2.4l-0.1,0.9c-0.3,0.7-1,0.4-1.4,0.7c-0.6,0-0.5-0.7-0.9-1.1c-0.2-0.4-0.5-0.8-0.7-1.2c0-0.5-0.2-1.1,0-1.6
			c0-1.9-0.6-3.5-1.4-5.1c-0.1-0.7-0.8-1.1-1.2-1.6c-0.2-0.8-0.3-1.4-0.8-2c-0.2-0.5-0.5-1.2-0.2-1.8c0.3-0.4,0.8-0.2,1.1-0.3
			c0.2,0.2,0.5,0.2,0.6,0.5c-0.8,0.6-0.1,1.4-0.5,2.1c0.1,0.3,0,0.6,0.3,0.7c0.7,0,0.6-0.8,0.8-1.3c0-0.6,0.2-1.3-0.2-1.9
			c0-0.1,0.1-0.3,0.2-0.3C323.9,119.4,324.4,119.6,324.7,119.9"/>
		<path class="st0" d="M328.6,139.7c0,0.3,0,0.7-0.3,0.9c-0.1,0.1-0.3,0.1-0.5,0.1c-0.3-0.3-0.3-0.8-0.3-1.2
			c0.1-0.1,0.1-0.3,0.3-0.4C328.3,139,328.4,139.5,328.6,139.7"/>
		<path class="st0" d="M327.2,143.4c0.2,0.3,0.1,0.5,0,0.8c-0.1,0.2-0.3,0.3-0.5,0.3c-0.2,0-0.4-0.1-0.6-0.2c-0.1-0.4,0.2-0.7,0.3-1
			C326.7,143.1,327.1,143.2,327.2,143.4"/>
		<path class="st0" d="M318.7,154.9c0,0.3,0,0.7-0.3,0.9c-0.4,0.3-0.9,0.3-1.4,0.2c-0.2-0.1-0.2-0.4-0.3-0.6
			c0.2-0.5,0.8-0.9,1.4-0.9C318.5,154.4,318.6,154.7,318.7,154.9"/>
		<path class="st0" d="M310.4,157.3c0,0.2-0.2,0.2-0.3,0.3c-0.3,0-0.5-0.2-0.6-0.4c0-0.2-0.2-0.5,0-0.7c0.2,0,0.5-0.2,0.7-0.1
			L310.4,157.3z"/>
		<path class="st0" d="M311.4,156.9c0,0.3,0.1,0.7-0.2,0.9c-0.2,0-0.3-0.1-0.3-0.2c-0.1-0.3-0.4-0.6-0.1-0.8
			C311,156.5,311.3,156.7,311.4,156.9"/>
		<path class="st0" d="M314.8,157.2c-0.2,0.2,0,0.7-0.4,0.7c-0.5,0.3-1-1-1.3,0c-0.2,0.2-0.5,0.1-0.7,0c-0.2-0.2-0.1-0.5-0.2-0.7
			c-0.1-0.4,0.4-0.2,0.7-0.3c0.2,0,0.4,0.3,0.5,0.4c0.2-0.2,0.6-0.4,0.9-0.4C314.5,157,314.8,157,314.8,157.2"/>
		<path class="st0" d="M317.4,174.6c0.3,0.7,0.9,1.4,0.5,2.2c-0.9,0.7-2.2,0.6-3.4,0.8c-0.8,0-1.4-0.5-2-0.9c-0.4,0-0.5-0.5-0.8-0.8
			c-0.1-0.5,0.5-0.6,0.8-0.8c0.4,0,0.5-0.5,0.9-0.5c0.5-0.5,1.2-0.5,1.9-0.6C316.1,173.7,316.8,174.3,317.4,174.6"/>
		<path class="st0" d="M364.1,190.5c0.1,0.1,0.1,0.4,0,0.5c-0.4,0.5-1.1,0.2-1.6,0.7c-0.3,0.1-0.8,0.2-1.1,0
			c-0.2-0.2-0.4-0.5-0.3-0.8c0.2-0.2,0.3-0.5,0.6-0.5c0.8,0.2,1.2-0.9,2-0.3L364.1,190.5z"/>
		<path class="st0" d="M93.4,198.7c0.1,0.3,0,0.6,0,0.9c-0.3,0.7-1.1,0.1-1.6,0.3c-0.4-0.3-0.4-0.7-0.7-1c0-0.3,0.1-0.6,0.4-0.8
			c0.3-0.1,0.7,0,1.1,0L93.4,198.7z"/>
		<path class="st0" d="M85,199.9c0.1,0.3-0.1,0.5-0.2,0.8c-0.2,0.2-0.5,0.1-0.8,0c-0.5-0.3-0.8-1-1.4-1.2c-0.1-0.2-0.1-0.3,0-0.4
			c0.2-0.3,0.4-0.4,0.7-0.5C84.1,198.5,84.6,199.3,85,199.9"/>
		<path class="st0" d="M115.7,199.3c-0.1,0.1-0.3,0.1-0.4,0c0-0.1-0.2-0.3-0.1-0.4C115.3,199.1,115.9,198.8,115.7,199.3"/>
		<path class="st0" d="M83.1,201.3c0,0.1,0.2,0.3,0.1,0.4c-0.5,0.5-1.2-0.2-1.6,0.4c-0.1,0.1-0.1,0-0.1-0.2c0-0.5,0.2-1.1,0.7-1.3
			C82.6,200.6,82.8,201.1,83.1,201.3"/>
		<path class="st0" d="M375,204.9c0.3,0.4-0.1,0.7-0.2,0.9c-0.1,0.2-0.4,0.1-0.6,0.1c-0.2-0.1-0.5-0.2-0.5-0.4
			c0.1-0.3,0.1-0.8,0.5-0.9C374.5,204.6,375,204.5,375,204.9"/>
		<path class="st0" d="M82.9,206.1c0,0.2-0.2,0.5-0.5,0.6c-0.6,0-1.1-0.4-1.4-0.8c-0.1-0.3,0.2-0.4,0.5-0.5c0.5,0.1,0.8-0.5,1.2-0.3
			C82.9,205.4,82.8,205.7,82.9,206.1"/>
		<path class="st0" d="M373.6,207.3c0.1,0.2,0,0.5-0.1,0.8c-0.2,0.2-0.5,0.5-0.8,0.2c-0.2-0.2-0.2-0.5-0.2-0.8
			c0-0.2,0.2-0.4,0.4-0.5C373.2,207,373.5,207,373.6,207.3"/>
		<path class="st0" d="M368.6,211.4c0,0.6-0.2,1.1-0.6,1.6c-0.5,0.7-0.3,2.1-1.5,2.1c-0.5-0.1-1.1-0.1-1.2-0.6
			c0-0.5-0.3-1.2,0.1-1.7c0.5-0.7,1.4-1,1.9-1.7C367.9,210.8,368.5,210.8,368.6,211.4"/>
		<path class="st0" d="M82.3,212c-0.2,0.1-0.2-0.1-0.3-0.2v-0.4C82,211.6,82.5,211.7,82.3,212"/>
		<path class="st0" d="M84.7,213c0.3,0.4,0.8,0.7,0.7,1.3c-0.3,0.3-0.6,0.7-0.8,1.1c-0.2,0.1-0.2-0.2-0.3-0.3
			c-0.2-0.6-0.3-1.1,0-1.7c0.3-0.3,0-0.7,0-1.1C84.7,212.4,84.6,212.7,84.7,213"/>
		<path class="st0" d="M86.4,215.6c-0.1,0.3,0.3,0.4,0.2,0.6h-0.1c-0.2-0.3-0.7-0.6-0.5-1C86.2,215.2,86.4,215.3,86.4,215.6"/>
		<path class="st0" d="M328.9,224.6c0,0.3,0,0.6-0.1,0.9c-0.5,0.4-0.8,1.1-1.4,0.9c-0.2-0.2-0.5-0.4-0.6-0.6
			c0.1-0.6,0.1-1.3,0.5-1.8C327.9,223.7,328.5,224,328.9,224.6"/>
		<path class="st0" d="M90.9,227.8c0,0.3,0.1,0.5-0.1,0.7c-0.2,0.3-0.5,0.3-0.7,0.4c-0.4,0-0.7-0.3-1-0.6l-0.3-0.8
			c-0.3-0.4-0.2-0.9-0.6-1.2c0-0.3-0.1-0.5,0.1-0.7c0.2-0.2,0.3-0.4,0.6-0.5C90.2,225.4,90.4,226.9,90.9,227.8"/>
		<path class="st0" d="M327,228c0.1,0.2,0.1,0.6,0.1,0.9c-0.3,0.5-0.7,1.1-1.3,1c-0.4,0-0.8-0.3-0.9-0.6c0-0.3-0.2-0.7,0-0.9
			c0.3-0.4,0.8-0.5,1.3-0.7C326.5,227.6,326.9,227.7,327,228"/>
		<path class="st0" d="M103.5,228.1c0,0.1,0,0.4-0.2,0.3c-0.2-0.1-0.3-0.3-0.2-0.5C103.3,227.8,103.4,228,103.5,228.1"/>
		<path class="st0" d="M98.3,233.9c0.3,0.6,1,0.9,0.8,1.6c-0.3,0.5-0.9,0.8-1.4,0.7c-0.8-0.4-1.7-1.3-1.8-2.2c0-0.4,0-0.7,0.4-0.9
			C97.2,232.8,97.6,233.6,98.3,233.9"/>
		<path class="st0" d="M101.1,238c0.2,0.3,0.5,0.4,0.5,0.7c0.4,0.7,0.8,1.4,1.1,2.2c-0.1,0.2-0.1,0.5-0.4,0.6
			c-0.3,0.2-0.7,0.1-1,0.2c-0.9-0.3-1.5-1.3-1.7-2.2c-0.2-0.5-1.1-0.8-0.6-1.4c0.4-0.3,0.6-0.8,1.1-1
			C100.8,237,100.7,237.8,101.1,238"/>
		<path class="st0" d="M137,282.7c0.6,0.6,1.5,1.2,1.5,2c0.1,0.3,0,0.6-0.1,0.9c-0.2,0.2-0.3,0.3-0.5,0.5c-0.6,0-1-0.5-1.4-1
			c-0.9-0.9-1.7-1.6-2.5-2.5c-0.3-0.2-0.4-0.5-0.6-0.9c0-0.3,0-0.6,0.3-0.8c0.3-0.3,0.8-0.3,1.3-0.1
			C135.9,281.1,136.2,282.1,137,282.7"/>
		<path class="st0" d="M79.8,349.7c36.1,15.3,60.2-7.2,99.8-7.2c25.7,0,74.6,6.4,107.3,45l-8.3,2.7c-18.5-25.4-42.8-39.1-64-39.1
			c-17.4-0.3-43.6,17.7-74.9,17.7C122.9,368.7,91.5,365.2,79.8,349.7"/>
		<path class="st0" d="M376.5,349.8c-36.1,15.3-60.2-7.2-99.8-7.2c-25.7,0-74.7,6.4-107.3,45l8.3,2.7c18.5-25.4,42.8-39.1,64-39.1
			c17.4-0.3,43.6,17.7,74.9,17.7C333.5,368.8,364.8,365.4,376.5,349.8"/>
		<path class="st0" d="M152.8,337.7c-7.5,1.3-31.6,7.5-44.4,6.7c-12.8-0.8-44.9-7.5-63.9-42c19.3,14.8,52.2,20.4,64.8,23.6
			c12.6,3.2,23,7.8,30.8,9.1c-18.5-7.3-28.1-16.4-32.6-26.2c-6.4-12.9-9.4-23-14.5-42.8c8.8,8.5,24.3,26.4,30.3,32.9
			C134.6,311.5,137.9,332,152.8,337.7"/>
		<path class="st0" d="M99.9,315.5c-13-4.8-33.8-7.6-44.8-14.2c-15.1-9-35.1-30.5-39.4-64.5c11.4,21.4,35.3,36.4,45.4,44.6
			c10.1,8.1,24.1,23.3,30.6,27.7c-13.8-14.2-20.9-29.2-22.3-37.9c-0.5-14.4-3.8-27.5-2.9-48.2c4.5,11.5,19.5,36.6,22.4,44.9
			C96.9,290.5,91.8,300.4,99.9,315.5"/>
		<path class="st0" d="M63.3,271.4C52.5,262,25,240.4,18,228.2c-8.8-15.2-15.3-32.9-15.3-53.4c6.1,23.7,27.3,42.1,34.9,52.6
			c7.6,10.5,13.3,27.5,18.4,33.6c-9.5-17.4-9.7-31.8-9.8-41.7c-0.2-13.7,2.3-31,7.6-48.8c4.7,13,6.2,20.4,7,29.2
			C63.5,231,52.8,257.4,63.3,271.4"/>
		<path class="st0" d="M36.4,216.6c-8.6-16.9-25.2-35.2-29.9-51.1c-5-16.9-8.1-36.9-2.5-56.6c1.2,24.2,14.8,36,19.8,57.4
			c2.6,11.2,4.8,23.4,7.2,31.4c-1.3-18.3,3.1-30.3,7.6-40.4c3.5-7.6,7.1-13.5,16.9-29.2c1.3,16.3-4.4,37.1-5.9,41.2
			C46.2,178.7,32.7,199.7,36.4,216.6"/>
		<path class="st0" d="M28,168.8c-3.1-16.6-10.3-38-11.3-52.9C15.9,103,19,72.5,36.6,54.7c-7.3,17.1-4.3,34.8-2.9,47.7
			c2.1,19.3-5.6,31-4.1,38.7c2.2-7.8,4.5-18.4,10.8-26c9.6-10.6,14.8-13.8,32.8-31.6c-6.8,16.1-17.9,36.5-20.3,40.3
			C46.4,134.6,27.9,152.7,28,168.8"/>
		<path class="st0" d="M39,111c2-18.4-2.9-26.3-0.1-40.9C41.3,57.4,50,34.9,68,23.4c-5.3,8-9.8,19-11.7,31.8
			c-2.9,19.2-7.2,22.4-7.6,30.2c4.1-7,12-16.1,20-21.9c12.1-7.8,16.8-10.4,27.8-21.4c-4.8,14.7-20.1,31.6-23.2,34.9
			C59.5,91.3,49.9,93.1,39,111"/>
		<path class="st0" d="M108.7,12.8c-8.8,3.5-28.9,15.5-34.8,22.5c-5.7,6.8-13.1,20.3-15.8,31c6.3-6.3,15.3-11,22.5-17.7
			C87.8,42,98,25.1,108.7,12.8"/>
		<path class="st0" d="M303,337.8c7.5,1.4,31.6,7.5,44.4,6.7c12.9-0.8,45-7.5,64-42c-19.2,14.7-52.2,20.3-64.8,23.6
			c-12.6,3.2-23,7.7-30.8,9.1c18.5-7.3,28.1-16.4,32.6-26.3c6.4-12.8,9.4-23,14.5-42.8c-8.8,8.5-24.3,26.4-30.3,32.9
			C321.1,311.6,317.9,332.2,303,337.8"/>
		<path class="st0" d="M355.9,315.6c13-4.9,33.7-7.6,44.8-14.2c15.1-9,35.1-30.6,39.4-64.5c-11.4,21.4-35.3,36.4-45.4,44.5
			c-10.1,8.2-24.1,23.3-30.7,27.8c13.8-14.3,20.9-29.2,22.3-38c0.5-14.3,3.8-27.5,2.9-48.1c-4.5,11.4-19.5,36.6-22.4,44.9
			C358.9,290.7,364,300.5,355.9,315.6"/>
		<path class="st0" d="M392.5,271.6c10.7-9.5,38.3-31,45.3-43.2c8.8-15.3,15.3-32.9,15.2-53.4c-6.1,23.7-27.3,42.1-34.9,52.6
			c-7.6,10.5-13.3,27.5-18.4,33.6c9.5-17.4,9.8-31.8,9.8-41.7c0.2-13.7-2.3-31-7.6-48.8c-4.8,13-6.3,20.4-7,29.2
			C392.2,231.2,403,257.6,392.5,271.6"/>
		<path class="st0" d="M419.4,216.7c8.6-16.9,25.2-35.2,29.9-51.2c5-16.8,8.1-36.9,2.5-56.6c-1.1,24.1-14.8,36-19.8,57.4
			c-2.6,11.2-4.7,23.4-7.1,31.3c1.3-18.2-3.1-30.3-7.6-40.4c-3.5-7.7-7-13.5-16.9-29.2c-1.3,16.3,4.4,37.1,5.9,41.2
			C409.6,178.8,423,199.9,419.4,216.7"/>
		<path class="st0" d="M427.7,168.9c3.1-16.6,10.3-38,11.3-53c0.9-12.8-2.2-43.3-19.8-61.2c7.3,17.1,4.2,34.9,2.9,47.8
			c-2.1,19.3,5.6,31,4.1,38.7c-2.2-7.8-4.5-18.5-10.8-26c-9.6-10.6-14.9-13.8-32.8-31.6c6.9,16.1,17.9,36.5,20.3,40.3
			C409.3,134.7,427.9,152.9,427.7,168.9"/>
		<path class="st0" d="M416.7,111.2c-2-18.5,2.9-26.3,0.1-41c-2.4-12.6-11-35.1-29.1-46.6c5.3,8,9.8,19,11.7,31.8
			c2.9,19.2,7.2,22.3,7.6,30.2c-4.1-7-12-16.2-20-21.9c-12-7.8-16.9-10.4-27.8-21.4c4.8,14.7,20.1,31.7,23.2,34.9
			C396.2,91.4,405.8,93.2,416.7,111.2"/>
		<path class="st0" d="M347.1,12.9c8.8,3.5,28.9,15.5,34.8,22.5c5.7,6.8,13.1,20.3,15.8,31c-6.3-6.3-15.2-11-22.5-17.7
			C368,42.1,357.8,25.3,347.1,12.9"/>
		<path class="st0" d="M80.9,203.9c0,0.1,0,0.1,0.1,0.2c0.5,0.2,1.1,0.3,1.5,0c0.1-0.1,0.2-0.2,0.3-0.3H80.9z"/>
		<path class="st0" d="M243.8,9.9c-0.2,0.1-0.3,0.3-0.3,0.4c0.1,0.3,0.3,0.6,0.5,0.5c0.2-0.1,0.3-0.3,0.3-0.4
			C244.2,10.3,244.1,10,243.8,9.9"/>
		<path class="st0" d="M256.2,13.1c-0.7-0.3-1.8-0.5-2.4,0.2c-0.2,0.3,0,0.6,0.2,0.9c0.6,0.5,1.7,0.9,2.5,0.4
			c0.3-0.1,0.5-0.4,0.4-0.8C257,13.5,256.6,13.2,256.2,13.1"/>
		<path class="st0" d="M262.4,18.4c0.8,0.2,2,0.8,2.6-0.2c0.3-0.3,0.1-0.6,0-0.8c-0.4-0.6-1-0.7-1.7-0.8c-0.6,0.2-1.4,0.4-1.6,1
			C261.7,18.1,262.2,18.1,262.4,18.4"/>
		<path class="st0" d="M260.5,20c-0.2-0.3-0.6-0.6-0.9-0.8c-0.3-0.1-0.8-0.1-1.1,0.2c-0.1,0.4,0.1,0.6,0.3,0.9
			c0.7,0,1.1,0.7,1.7,0.6C260.6,20.5,260.5,20.3,260.5,20"/>
		<path class="st0" d="M300.9,45c0.7,0.5,1.4,1.3,2.4,1.1c0.9,0.1,1.2,1.1,1.8,1.6c0.8,0.6,1.6,1.8,2.9,1.2c0.9-0.3,0.2-1.2,0.7-1.8
			c0.3-0.7-0.3-1.3-0.5-1.9c-0.2-0.5-0.8-0.8-0.8-1.3c-0.2-0.8-1.2-1-1.8-1.5c-0.7-0.7-1.7-0.4-2.6-0.7c-0.2,0.2-0.3,0.6-0.5,0.7
			c-0.6,0.2-0.9-0.6-1.5-0.4c-0.4,0.4-0.9,0.6-1,1.1c-0.1,0.7,0.3,1.3,0.7,1.8H300.9z"/>
		<path class="st0" d="M253.3,47.3c0.1-0.4-0.2-0.8-0.3-1.2c-0.1-0.2-0.4-0.2-0.6-0.4c-0.3-0.1-0.7,0-1,0.2
			c-0.2,0.4,0.1,0.8,0.3,1.1C252.1,47.7,252.8,47.4,253.3,47.3"/>
		<path class="st0" d="M260.3,50.3c0.3-0.7-0.1-1.4-0.6-1.9c-1-0.3-1.2-1.6-2.3-1.7l-1.2-0.4c-0.5-0.2-1.1-0.9-1.8-0.4
			c0,0.2-0.2,0.5,0,0.7c0.6,0.3,0.5,0.9,0.9,1.3c0.1,0.2,0.1,0.4,0.3,0.6c0.6,0.3,1.1,0.7,1.5,1.1c0.4,0.2,0.8,0.7,1.2,0.9
			C259,50.6,259.8,50.8,260.3,50.3"/>
		<path class="st0" d="M249.9,47.8c-0.4-0.3-0.7-0.9-1.3-0.8c-0.2,0.1-0.3,0.2-0.5,0.4c-0.2,0.7,0.8,0.9,1.2,1.4
			c0.8,0.2,0.8,1.6,1.8,1.3c0.2-0.2,0.5-0.2,0.4-0.6C251,48.9,250.7,47.9,249.9,47.8"/>
		<path class="st0" d="M252.2,51.9c0.2-0.1,0.3-0.4,0.3-0.6c-0.2-0.3-0.7-0.4-0.9-0.1c-0.1,0.2,0,0.4,0.1,0.5
			C251.9,51.8,252.1,51.9,252.2,51.9"/>
		<path class="st0" d="M211.3,51.9c-0.4,0.1-0.8-0.5-1.1-0.1c0.1,0.5,0.2,1.1,0.2,1.5c0.4,0.3,0.9,0.6,1.3,0.3
			c0.2-0.5,0.8-0.9,0.4-1.5C211.9,51.9,211.6,51.9,211.3,51.9"/>
		<path class="st0" d="M208.7,51.9c-0.2,0.1-0.3,0.4-0.3,0.6c0,0.4,0.3,0.7,0.7,0.7c0.4-0.1,0.5-0.7,0.5-1
			C209.4,51.8,209,51.8,208.7,51.9"/>
		<path class="st0" d="M252.7,52.2c-0.4-0.1-0.5,0.4-0.6,0.6c0.1,0.6-0.3,1,0.1,1.5c0.3,0.5,0.8,0.6,1.3,0.8c0.4-0.2,0.9-0.3,1-0.7
			c0.2-0.6-0.4-0.9-0.5-1.4C253.7,52.5,253.2,52.1,252.7,52.2"/>
		<path class="st0" d="M214.5,53.3c-0.3-0.1-0.7-0.5-1.1-0.4c-0.6,0.3-0.7,1-0.6,1.5c0.5,0.4,1.1,0.4,1.6,0.2c0.3-0.2,0.3-0.6,0.3-1
			L214.5,53.3z"/>
		<path class="st0" d="M259.3,58.2c-0.2-0.1-0.4,0-0.6,0c0,0.3-0.2,0.2-0.4,0.3c0,0.1,0,0.2,0.1,0.2c0.3,0,0.5,0.5,0.8,0.3
			C259.2,58.7,259.4,58.5,259.3,58.2"/>
		<path class="st0" d="M261.3,62c0.3,0,0.3-0.3,0.4-0.6c0-0.2-0.2-0.3-0.4-0.5c-0.2-0.3,0.3-0.4,0-0.7c-0.5,0.2-0.8-0.4-1.2-0.4
			c-0.2,0.1-0.4,0.2-0.5,0.4c-0.1,0.6,0,1,0.4,1.5C260.4,62,260.8,62.1,261.3,62"/>
		<path class="st0" d="M264.5,63.4c0.1,0,0.3,0,0.4-0.2c0.2-0.3,0.1-0.6,0-0.9c-0.5-0.3-0.8-0.7-1.4-0.7c-0.2,0.1-0.3,0.3-0.2,0.5
			L264.5,63.4z"/>
		<path class="st0" d="M261.6,62.5c-0.3,0.1-0.6,0.3-0.7,0.5c-0.2,0.3,0.1,0.5,0,0.9c0.2,0.8,1.1,1.2,1.9,1.4c0.4-0.2,0.8-0.4,1-0.8
			c0.2-0.3-0.2-0.5-0.2-0.7c-0.3-0.2-0.6-0.5-1-0.4c-0.4-0.1-0.2-0.5-0.5-0.8C261.9,62.2,261.9,63,261.6,62.5"/>
		<path class="st0" d="M171.4,63.1c-0.2-0.1-0.4-0.3-0.7-0.3c-0.5,0.1-1,0.4-1.2,0.9c-0.1,0.2-0.1,0.5,0.2,0.6
			c0.5,0.3,1.2,0.4,1.6,0C171.2,63.9,171.9,63.5,171.4,63.1"/>
		<path class="st0" d="M263.8,66.1c0.3,0.6,1,1.1,1.7,1.1c0.6-0.3,0.6-1,0.8-1.5c-0.2-0.4-0.6-0.8-0.9-1c-0.4-0.3-0.7,0.2-1,0.4
			C264,65.3,263.7,65.7,263.8,66.1"/>
		<path class="st0" d="M268.4,68.1c0.5-0.1,0.6-0.5,0.7-1c0.1-0.5-0.5-0.1-0.6-0.5c-0.1-0.1-0.1-0.3,0.1-0.4
			c-0.3-0.3-0.7-0.5-1.1-0.6c-0.1,0.1-0.3,0.1-0.3,0.2c-0.2,0.6,0,1.2,0.2,1.7C267.6,67.9,267.9,68.2,268.4,68.1"/>
		<path class="st0" d="M269.5,69.4c-0.1,0.4,0.3,0.6,0.3,1c0.2,0.4,0.7,0.5,1,0.6c0.4,0,0.7,0,1-0.3c0.4-0.2,0.3-0.7,0.3-1
			c-0.3-0.5-0.6-0.8-0.7-1.3c-0.3-0.7-1-0.6-1.5-0.9c-0.3,0.2-0.4,0.5-0.4,0.8C269.4,68.7,269.2,69.1,269.5,69.4"/>
		<path class="st0" d="M200.6,93c-0.3,0.2-0.7-0.1-1,0.2c-0.2,0-0.2,0.2-0.4,0.2c-0.3-0.1-0.5-0.3-0.6-0.6c-0.5-0.5-1.1-0.6-1.7-0.5
			c-0.5,0.4-1.3,0.9-1.4,1.6c0,0.3,0.3,0.6,0.6,0.8c0.3,0,0.5,0.2,0.9,0.2c0.5-0.1,1.1,0.2,1.5-0.2c0.2-0.5,0.6-0.3,0.9-0.7
			c0.3,0,0.3,0.3,0.4,0.4c0.5,0.2,1,0.1,1.4-0.2c0.1-0.2,0.3-0.4,0.2-0.7C201.1,93.4,201,93,200.6,93"/>
		<path class="st0" d="M304.1,92.9c-0.1,0.4,0.2,0.5,0.3,0.8c0.5,0.1,1.3,0.2,1.6-0.3c0.1-0.2,0.1-0.5-0.1-0.7
			C305.4,92.4,304.6,92.4,304.1,92.9"/>
		<path class="st0" d="M300.5,107.7c0.3,0,0.6-0.2,0.8-0.4c0.1-0.2,0.1-0.5,0-0.7c-0.3-0.2-0.6-0.3-1-0.3c-0.2,0.2-0.6,0.4-0.6,0.8
			C299.9,107.5,300.3,107.6,300.5,107.7"/>
		<path class="st0" d="M302.6,109.1c0.3,0.2,0.6-0.1,0.9-0.1c0.2-0.2,0.2-0.4,0.1-0.7c-0.1-0.3-0.4-0.4-0.7-0.5
			c-0.3,0-0.6,0.3-0.7,0.6C302.2,108.6,302.4,108.9,302.6,109.1"/>
		<path class="st0" d="M299.1,112.8c0.8,0.2,0.9,1.1,1.3,1.6c0,0.3,0.1,0.7,0.4,0.9c0.8,0.3,1.7,0.3,2.3-0.3c0.5-1-0.6-1.5-1-2.3
			c-0.2-0.6,0.4-0.9,0.4-1.5c0.1-0.9-0.4-1.6-1-2.2c-0.8-0.1-1.5,0.1-2.2,0c-0.6,0-1,0.7-1.6,0.9c-0.1,0.4-0.4,0.5-0.7,0.9
			c-0.3,0.4,0,0.8,0.1,1.1C297.9,112,298.5,112.5,299.1,112.8"/>
		<path class="st0" d="M294.9,114.1c-0.2,0.2,0,0.5,0,0.8c0.2,0.2,0.2,0.5,0.5,0.5c1.2,0.8,1.1-1,1.8-1.4l0.3,0.2
			c0.1,0.5-0.1,1.1,0.1,1.6c0.6,0.1,0.9-0.8,1.6-0.5c0.5-0.2,0.3-0.7,0.3-1.1c-0.3-0.3-0.5-0.5-0.8-0.8c-0.3-0.1-0.8-0.2-1.1,0
			c-0.1-0.1-0.1-0.3-0.2-0.4c-0.1,0-0.3,0.1-0.3-0.2c-0.2,0-0.3,0.1-0.4,0.3C296,113,295.4,113.5,294.9,114.1"/>
		<path class="st0" d="M304.6,116.1c0.4,0.2,0.8,0.1,1.2-0.1c0.2-0.3-0.1-0.5-0.2-0.7c-0.3-0.2-0.6-0.4-1-0.2
			c-0.2,0-0.3,0.1-0.3,0.3C304.3,115.6,304.4,115.9,304.6,116.1"/>
		<path class="st0" d="M299.9,115.3l-1.4,1.4c-0.2,0.3-0.6,0.3-0.8,0.7c-0.1,0.4,0.2,0.7,0.3,1c0.5,0.1,0.8-0.3,1.3-0.2
			c0.6-0.2,0.8-0.9,1.3-1.4c0-0.5,0.4-0.9,0-1.3C300.4,115.5,300.2,115.3,299.9,115.3"/>
		<path class="st0" d="M306.6,116.3c0.3,0,0.8,0,0.7-0.4c-0.1-0.3-0.4-0.4-0.6-0.4c-0.2,0.1-0.6,0.1-0.7,0.4
			C306.2,116,306.4,116.2,306.6,116.3"/>
		<path class="st0" d="M300.1,119.3c-0.5,0-1-0.2-1.5,0c-0.4-0.1-0.6-0.5-0.7-0.8c-0.3,0-0.5-0.2-0.8-0.3c-0.2-0.7-0.8-1.3-0.5-2
			c0-0.2-0.1-0.2-0.3-0.2c-0.2,0-0.3,0.2-0.5,0.3c0,0.5-0.4,1-0.4,1.5c-0.1,0.8,0.5,1.5-0.1,2.1c-1.1,0.3-2.6,0.4-3.2,1.7
			c0.1,0.7-0.2,1.5,0.4,2c0.4,0.1,0.7,0.4,1.1,0.3c0.4-0.2,0.8-0.4,1-0.8c0.3-0.1,0.5,0.2,0.7,0.3c0.7,0.3,1.4,0.1,2.1-0.2
			c0.6-0.1,1.2,0.3,1.6,0c0.1-0.1,0.1-0.2,0-0.3c-0.1-0.1-0.3,0-0.4,0c-0.4-0.3-0.8-0.5-1.1-0.9c0-0.3,0-0.6,0.3-0.8
			c0.6,0.2,1.1,0,1.7-0.1l0.6-0.6C300.2,120,300.7,119.6,300.1,119.3"/>
		<path class="st0" d="M253.6,121.9c0.4,0,1,0.1,1.4-0.1c0.3-0.2,0.7-0.5,0.6-1c-0.2-0.4,0.1-0.8,0-1.2c-0.3-0.2-0.5,0-0.8,0.2
			c-0.3,1.1-1.5-0.1-2,0.8c-0.1,0.2-0.1,0.4,0,0.6C253,121.3,253.1,121.8,253.6,121.9"/>
		<path class="st0" d="M256.2,122.2c0.4,0.5,0.4,1.3,0.4,1.8c0.3,0.5,1,0.5,1.5,0.4c0.5-0.1,0.7-0.7,1.3-0.6
			c0.4,0.1,0.7-0.2,1.1-0.1c0.5-0.5,1.2-0.9,1.6-1.5c0-0.1,0.1-0.3-0.1-0.4c-0.4-0.1-0.6-0.5-0.9-0.9c-0.6-0.4-1,0.3-1.6,0.3
			c-0.5-0.1-0.2-0.7-0.4-1.1c-0.2-0.5-1-0.3-1.3-0.3c-0.3-0.1-0.7-0.3-1-0.3c-0.2,0.1-0.6,0.1-0.5,0.5
			C255.7,120.8,256.2,121.5,256.2,122.2"/>
		<path class="st0" d="M247.9,122.3c0.2-0.1,0.3-0.3,0.3-0.5c0.2-0.5,0.5,0,0.7,0c0.7,0.4,1.2-0.2,1.7-0.3c0.3,0.3,0.7,0.4,1.1,0.3
			c0.3-0.2,0.6-0.5,0.5-0.9c0-0.2-0.2-0.3-0.3-0.4c-0.7-0.4-1.5,0-2.1,0.3c-0.7-0.1-1.3,0.4-2.1,0.2c-0.2,0.2-0.5,0.1-0.8,0.3
			c-0.2,0.4,0.3,0.6,0.4,0.9H247.9z"/>
		<path class="st0" d="M302.3,120.8c-0.3-0.1-0.7-0.3-0.9,0c-0.1,0.2-0.1,0.4,0,0.6c0.5,0.4,1.4,0.2,2,0.4c0.5,0,1,0.3,1.5,0
			c0.1-0.3,0.4-0.7,0-0.9c-0.1-0.3-0.5-0.1-0.7-0.1c-0.2,0.3-0.4,0.3-0.7,0.3C303,121.1,302.5,121.2,302.3,120.8"/>
		<path class="st0" d="M245.9,122.8c0.2,0.1,0.5,0.1,0.7,0c0.2-0.2,0.2-0.6,0.1-0.8l-0.3-0.3c-0.3-0.4-0.5,0.1-0.6,0.3
			C245.8,122.2,245.5,122.5,245.9,122.8"/>
		<path class="st0" d="M232.4,121.6c-0.1,0.2-0.3,0.4-0.2,0.7c0.2,0.1,0.4,0.5,0.7,0.5c0.3-0.2,0.5-0.5,0.5-0.9
			C233.2,121.5,232.8,121.4,232.4,121.6"/>
		<path class="st0" d="M221.7,121.7c-0.3,0.4-0.7,0.3-1.2,0.2c-0.1,0.2-0.4,0.1-0.5,0.2c-0.1,0.1-0.3,0.3-0.2,0.5
			c0.2,0.5,0.8,0.5,1.3,0.5c0.4,0,0.4-0.5,0.7-0.7c0-0.2-0.1-0.4,0-0.5C221.7,121.8,221.7,121.7,221.7,121.7"/>
		<path class="st0" d="M290.8,122.1c0.1-0.1,0.1-0.1,0.1-0.2c0-0.1-0.1-0.2-0.2-0.1C290.7,122,290.7,122.1,290.8,122.1"/>
		<path class="st0" d="M287.1,123.5c0.1-0.2-0.1-0.4-0.1-0.6c-0.3-0.3-0.6-0.5-1-0.3c-0.3,0.1-0.4,0.5-0.4,0.8
			c0.2,0.1,0.4,0.5,0.6,0.5C286.5,123.8,287,123.9,287.1,123.5"/>
		<path class="st0" d="M219.9,123.5c-0.1-0.5-0.6-0.4-1-0.4c-0.3,0-0.5,0.3-0.6,0.5c-0.1,0.3-0.1,0.6,0.1,0.8
			c0.3,0.2,0.7,0.3,1.1,0.3c0.4-0.1,0.7-0.4,0.8-0.7C220.2,123.7,220.1,123.5,219.9,123.5"/>
		<path class="st0" d="M235.7,123.2c-0.2,0.2-0.3,0.5-0.2,0.8c0.1,0.2,0.2,0.4,0.5,0.4c0.2,0.1,0.4,0,0.6-0.2c0-0.2,0.1-0.5,0.1-0.7
			C236.5,123,236,123.3,235.7,123.2"/>
		<path class="st0" d="M288.7,124.1c-0.5,0.4-1.1,0.7-1.7,0.7c-0.3,0.1-0.7,0.3-0.7,0.7c0.1,0.2,0.1,0.5,0.4,0.7
			c1,0.2,1.8,0.5,2.9,0.4c0.5,0.1,0.8-0.5,1.1-0.8c0.2-0.1,0.4-0.2,0.4-0.4c0.1-0.3,0.1-0.7-0.2-1.1
			C290.3,123.9,289.5,124.1,288.7,124.1"/>
		<path class="st0" d="M250.7,130.3c0,0.3-0.3,0.6-0.1,0.9c0.2,0.3,0.5,0.6,0.9,0.4c0.2-0.3,0.5-0.5,0.5-0.9c0.3-1,1.4-1.7,2-2.4
			c0.6-0.4,1.2-1.1,2-1c0.3-0.1,0.4-0.5,0.6-0.8c0-0.4,0.6-0.7,0.5-1.1c-0.1-0.2-0.3-0.4-0.5-0.4c-0.5,0.1-0.8-0.3-1.1-0.6
			c-0.7,0-0.8,0.8-1.2,1.1c-0.4,1.1-1.9,0.4-2,1.7c-0.1,0.9-0.8,1.7-1.3,2.6C251,129.9,250.9,130.2,250.7,130.3"/>
		<path class="st0" d="M217.6,124.4c-0.2,0.3-0.6,0.1-0.8,0.4c-0.2,0.5,0.4,0.6,0.5,1c0.2,0.1,0.3,0.3,0.6,0.2
			c0.3-0.1,0.4-0.4,0.5-0.8C218.4,124.7,218,124.6,217.6,124.4"/>
		<path class="st0" d="M237.8,124.9c-0.1-0.2-0.4-0.3-0.6-0.3c-0.2,0-0.3,0.1-0.4,0.3c-0.2,0.2,0,0.4,0.2,0.5c0.3,0.2,0.5,0.2,0.7,0
			C237.9,125.2,238,125,237.8,124.9"/>
		<path class="st0" d="M212.3,128.8c-0.8,0.3-0.9,1.1-0.9,1.9c0.1,0.2,0,0.5,0.3,0.6c0.2,0.1,0.5,0.1,0.6-0.1
			c0.2-0.2,0.4-0.3,0.4-0.7c0.3-0.4,0.1-1,0.2-1.5C212.7,128.8,212.5,128.9,212.3,128.8"/>
		<path class="st0" d="M239.2,148.7c0.1-0.1,0.1-0.3,0-0.5c-0.4-0.1-0.6-1.1-1.1-0.5c-0.1,0.1-0.1,0.4,0,0.5
			C238.4,148.3,238.8,148.9,239.2,148.7"/>
		<path class="st0" d="M236.6,149.3c0.2-0.1,0.2-0.4,0.2-0.6c0-0.1,0.3-0.3,0.2-0.5l-0.5-0.5c-0.3,0-0.6,0.1-0.8,0.4
			c-0.1,0.3,0.1,0.5,0.1,0.7C236,149.2,236.3,149.2,236.6,149.3"/>
		<path class="st0" d="M237.9,150.5c0.4,0.1,0.8,0.1,1.1-0.2c0-0.3,0.4-0.5,0.2-0.8c-0.5,0.2-0.9-0.5-1.4-0.1
			c-0.1,0.3-0.3,0.5-0.2,0.8C237.6,150.3,237.7,150.4,237.9,150.5"/>
		<path class="st0" d="M213.2,153.3c0.4,0.1,0.7-0.3,1-0.6c0.3-0.4,0.2-1,0-1.4c-0.5-0.6-1.3-1-2.2-1c-0.4,0.2-0.4,0.7-0.8,0.8
			c-0.1,0.2,0,0.2,0.1,0.4C212.2,151.7,212.1,153.1,213.2,153.3"/>
		<path class="st0" d="M216.4,156.7c0.3-0.3,1.2,0.2,1-0.7c-0.2-0.3-0.6-0.4-0.9-0.6c-0.3-0.5,0.3-1,0.1-1.6
			c-0.3-0.4-0.8-0.9-1.4-0.6c-0.4,0-0.6,0.4-0.8,0.7c-0.2,0.4,0.3,0.7,0.4,0.9c0.1,0.2-0.2,0.3,0,0.5c0.4,0,0.2,0.3,0.3,0.5
			c0,0.2-0.2,0.4-0.4,0.4c-0.3-0.2-0.4-0.4-0.4-0.8c-0.5-0.3,0-0.9-0.5-1.2c-0.2-0.1-0.4-0.1-0.6,0c-0.6,0.3-1.1,0.9-1.1,1.6
			c0.3,0.4,0.5,0.9,1,1C214.3,157,215.3,156.6,216.4,156.7"/>
		<path class="st0" d="M211,157.9c0.3-0.1,0-0.5,0-0.7c0.1-0.3,0.4-0.7,0.2-1c-0.2-0.2-0.3-0.3-0.6-0.2c-0.5,0.3-0.5,0.9-0.8,1.3
			c-0.2,0.3,0.1,0.5,0.3,0.7C210.4,157.9,210.8,158.1,211,157.9"/>
		<path class="st0" d="M212.8,157.6c-0.4,0.2-0.9,0.2-1.2,0.6c0.1,0.5,0.5,0.6,0.9,0.7c0.6-0.1,1,0.7,1.7,0.3
			c0.2-0.4,0.3-0.9,0.1-1.3C213.9,157.7,213.3,157.8,212.8,157.6"/>
		<path class="st0" d="M219.5,160.7c-0.2-0.7-1-0.2-1.4-0.5c-0.3-0.3,0.1-0.6,0.1-0.8c-0.3-0.4-0.9-0.7-0.8-1.3l-0.2-0.3
			c-0.6,0-1.3-0.1-1.7,0.5c0,0.4-0.1,0.9,0.1,1.3c0.6,0.4,1.4,0.5,2.2,0.5c0.1,0.1,0.2,0.2,0.2,0.3c0.2,0.6-0.6,0.8-0.7,1.3
			c-0.2,0.3-0.6,0.4-0.9,0.4c-0.5,0.4-1,0.6-1.2,1.2c0.1,0.4-0.4,1.1,0.1,1.4c0.7-0.2,1.5-0.4,2.3-0.2c0.4-0.3,0.9-0.4,1.3-0.3
			c0.6-0.3,1.3-0.1,1.9-0.2c0.2-0.1,0.4-0.3,0.5-0.5c0.5-0.9-0.3-1.5-0.6-2.2C220.4,160.9,219.9,161,219.5,160.7"/>
		<path class="st0" d="M236.8,160.1c0.1,0.2,0.2,0.4,0.4,0.5c0.2,0.1,0.4,0,0.6-0.2c0.2-0.2,0-0.5-0.1-0.9c0-0.3-0.3-0.1-0.5-0.2
			C237,159.4,236.8,159.8,236.8,160.1"/>
		<path class="st0" d="M238.6,159.5c-0.2,0.1-0.4,0.4-0.4,0.6c0.1,0.3,0.4,0.3,0.7,0.3c0.2,0,0.2-0.3,0.2-0.4
			c0.3-0.2,0.5,0.3,0.9,0.3c0.2-0.1,0.4-0.3,0.4-0.6c-0.1-0.7-1-0.3-1.1,0.1C238.9,159.7,238.9,159.5,238.6,159.5"/>
		<path class="st0" d="M212.6,160.8c-0.2-0.1-0.4-0.6-0.6-0.7c-0.2,0.3-0.4,0.6-0.4,0.9c-0.3,0.4-0.4,1.2-1,1.1
			c-0.1,0.3,0.1,0.6,0.1,0.9c0.6,0.6,1.4,1.1,1.9,1.7h0.3c0-0.3,0.1-0.7,0-1.1C212.4,162.8,212.7,161.8,212.6,160.8"/>
		<path class="st0" d="M239.7,165.7c-0.2,0.1-0.4,0.1-0.5,0.3c-0.1,0.7-0.3,1.3-0.2,2c-0.3,0.3-0.1,0.8-0.1,1.2
			c0.4,0.2,0.4,0.9,1,0.7c0.4-0.4,1-0.5,1.1-1.1c-0.2-0.5-0.3-1-0.6-1.4C240.1,166.9,240.3,165.9,239.7,165.7"/>
		<path class="st0" d="M240.4,170.4c-0.1,0.4-0.1,1,0.3,1.3c0.8,0.5,1.5,1.1,2.4,1.1c0.3-0.2,0.7-0.2,0.9-0.5
			c0.1-0.4,0.4-0.9,0.1-1.2c-0.3-0.5-0.9-0.7-1.4-0.9c-0.4-0.3-0.8-0.7-1.3-0.6C240.8,169.8,240.7,170.2,240.4,170.4"/>
		<path class="st0" d="M232.3,174.9c0.6-0.2,0.6-1,0.7-1.6c0.1-0.4-0.5-0.7-0.7-1c-0.3-0.4-0.4-0.9-0.1-1.4c0.4,0,0.8,0.1,1.2-0.1
			c0.2-0.3-0.2-0.5-0.3-0.8c-0.3-0.2-0.7-0.4-1.1-0.3c-0.4,0.3-0.6,0.7-0.5,1.2c-0.1,0.3-0.4,0.1-0.6,0.3c-0.4,0.1-0.5,0.4-0.6,0.8
			c0.1,1,0.4,1.9,1.1,2.6C231.6,174.9,232,175,232.3,174.9"/>
		<path class="st0" d="M158.1,189.3c0.1-0.3,0.4-0.5,0.4-0.8c-0.1-1,0.4-1.9,0.4-2.8c-0.1-0.9-0.7-1.6-0.9-2.5
			c-0.4-0.5-0.9-0.1-1.4-0.1c-0.7-0.6-0.3-1.6-1-2.2c-0.2-0.2-0.6-0.1-0.8-0.1c-0.4,0.1-0.8,0.4-0.9,0.8c-0.2,0.6,0.3,1.1,0.3,1.7
			c0.2,0.3,0,0.7,0.2,0.9c0,0.7,0.4,1.2,0.5,1.8c0.2,0.2,0.2,0.5,0.3,0.6c0.4,0.9,1.3,1.5,1.7,2.4
			C157.3,189.2,157.6,189.4,158.1,189.3"/>
		<path class="st0" d="M222.7,184.8c-0.9-0.4-1.9,0.3-2.7-0.3c-0.4-0.6-1.1-0.9-1.8-0.9c-0.2,0.2-0.4,0.3-0.7,0.4
			c-0.4,0.4-0.1,1,0.1,1.5l0.7,0.6c0.1,0.5-0.4,0.6-0.6,0.9c0,0.6,0.5,0.9,0.8,1.2c0.7,0.6,2,0.4,2.7,0c0.4-0.1,1-0.1,1.4-0.3
			c0.7-0.4,1-1.1,1-1.9C223.4,185.5,223,185.1,222.7,184.8"/>
		<path class="st0" d="M158,192.2c0.3,0,0.5,0.3,0.9,0.1c0.4-0.1,0.6-0.5,0.6-0.9c-0.2-0.2,0-0.5-0.2-0.7c-0.4-0.2-0.6-0.6-1-0.8
			c-0.4-0.1-0.7,0.1-1,0.3c-0.2,0.4,0,0.7,0,1C157.4,191.8,157.8,191.8,158,192.2"/>
		<path class="st0" d="M158.3,193.9c-0.1,0.3,0.1,0.6,0.4,0.7c0.3,0.1,0.6,0.3,1,0.2c0.2,0,0.4-0.3,0.4-0.5l-0.5-0.5
			C159.2,193.7,158.6,193.4,158.3,193.9"/>
		<path class="st0" d="M159.9,195.4c0.1,0.2,0.2,0.3,0.3,0.3c0.2,0.1,0.4,0.1,0.6-0.1c0.1-0.1,0-0.2,0-0.3c-0.1-0.2-0.3-0.4-0.5-0.4
			C160.2,195,159.9,195.1,159.9,195.4"/>
		<path class="st0" d="M160.3,196.3c-0.3,0.2-0.1,0.6-0.1,0.9c-0.3,0.3-0.8,0.2-0.9,0.6c-0.1,0.2-0.1,0.4,0.1,0.6
			c0.2,0.1,0.4,0.1,0.7,0.1c0.2-0.3,0.6-0.1,0.6-0.5c0-0.5,0.6-0.9,0.6-1.4C161,196.2,160.6,195.8,160.3,196.3"/>
		<path class="st0" d="M158.3,200.1c0.2-0.4,1-0.5,0.6-1c-0.1-0.3-0.5-0.5-0.8-0.3c0,0.4-0.9,0.6-0.4,1.1
			C157.9,200.1,158.1,200.2,158.3,200.1"/>
		<path class="st0" d="M296.4,210.7c0.4,0.3,0.9,0.1,1.3-0.2c0.4-0.7,0.9-1.6,0.7-2.5c-0.3-0.8-1.1-0.4-1.7-0.3
			c-0.4,0.2-0.7,0.7-0.8,1.1C295.9,209.5,295.7,210.4,296.4,210.7"/>
		<path class="st0" d="M260.5,211.4c0.5-0.1,1-0.2,1.3-0.6c0.1-0.6,0.3-1.1,0.4-1.6c-0.1-0.3-0.5-0.2-0.7-0.3
			c-0.8,0.6-1.9,0.9-2.3,1.9C259.4,211.1,259.9,211.3,260.5,211.4"/>
		<path class="st0" d="M236.2,211.9c0.2,0.1,0.6,0.1,0.7-0.2c0-0.4,0.2-0.8-0.2-1.2c-0.2-0.1-0.5-0.1-0.7-0.1
			c-0.2,0-0.3,0.3-0.3,0.5C235.8,211.3,235.7,211.8,236.2,211.9"/>
		<path class="st0" d="M235.9,214.3c0,0.3,0,0.6,0.3,0.7c0.3,0.1,0.6,0.3,1,0.1c0.7-0.4,0.8-1.2,0.8-1.9c-0.2-0.4-0.5-0.4-0.9-0.5
			C236.2,213,236,213.6,235.9,214.3"/>
		<path class="st0" d="M253.2,215.4c0.8-0.5,2.3-0.4,2.1-1.7c-0.3-0.7-1.2-0.4-1.7-0.1c-0.6,0-1,0.6-1.7,0.5c-0.4,0-0.9,0.4-1.1,0.6
			c-0.2,0.3,0.1,0.5,0.2,0.7C251.7,215.7,252.5,215.6,253.2,215.4"/>
		<path class="st0" d="M240.3,216.4c0.6,0.4,1.5,0.3,2.3,0.3c0.5-0.4,0.2-1,0.3-1.4c-0.2-0.3,0-0.8-0.4-1.1c-0.3-0.1-0.7,0.1-1,0.2
			c-0.4,0.3-0.8,0.6-1.3,1.1C240.2,215.8,239.9,216.2,240.3,216.4"/>
		<path class="st0" d="M304.2,241.7c0.2-0.1,0.5-0.1,0.5-0.3c-0.1-0.6-0.8-0.6-1.1-1c-0.2-0.1-0.4-0.2-0.5,0c-0.1,0.4,0,0.6,0.1,0.9
			C303.5,241.6,303.9,241.6,304.2,241.7"/>
		<path class="st0" d="M204.1,262.7c0.4,0.2,0.7-0.1,1-0.3c0.2-0.3,0.2-0.8,0-1.2c-0.2-0.4-0.7-0.6-1.1-0.6
			c-0.1,0.1-0.2,0.2-0.2,0.3c-0.5,0.2-0.3,0.6-0.5,1C203.4,262.5,203.8,262.7,204.1,262.7"/>
		<path class="st0" d="M217.6,274.4c0.3,0,0.5-0.1,0.7-0.2c0.2-0.4,0.4-1,0.1-1.4c-0.2-0.4-0.7-0.4-1.2-0.3
			c-0.5,0.3-0.5,0.8-0.5,1.3C216.8,274.2,217.3,274.2,217.6,274.4"/>
		<path class="st0" d="M373.4,222.2c-4,9.3-8.9,18.2-14.6,26.7c-5.1,7.5-10.9,14.6-17.2,21.2l-19.2-19.2
			c10.9-11.5,19.6-24.6,25.8-39.1c6.7-15.6,10.1-32.1,10.3-49h27.3C385.6,183.4,381.4,203.3,373.4,222.2 M316.1,291.5
			c-8.4,5.7-17.4,10.6-26.7,14.5c-18.7,7.9-38.4,12.1-58.6,12.4v-27.1c12-0.2,23.9-2.1,35.3-5.6l0.2,0.2c0.5-0.1,0.3,0.5,0.8,0.4
			c0.4,0.1,0.7-0.3,1,0c0.6,0.9,1.7,0.9,2.5,1.2c0.8,0.3,1.4-0.3,2.1,0c0.5-0.2,0.9-0.5,1.2-0.8c0.4,0,0.9-0.3,1.3-0.5
			c0.1-0.1,0.4,0,0.4-0.2c0.2-0.8,0.9-0.9,1.5-1.1c0.7-0.3,1.4-0.6,2-0.9c0.8,0.2,1.4-0.4,1.9-0.9c0.1-0.7,0.9-0.8,1.3-1.2
			c0.3-0.2,0.7-0.4,1.1-0.5c0.4-0.4,1.1-0.3,1.5-0.7c0.2-0.2,0.2-0.4,0.2-0.5c0.7-0.1,0.8-0.8,1.3-1.1c0.8-0.3,1.5-1,2.2-1.4
			c1.3-0.9,2.7-1.5,3.9-2.2c1.3-0.4,2-1.8,3-2.6l0.1-0.5c8.5-5.2,16.4-11.3,23.7-18.4l19.2,19.2C331.5,280,324,286.1,316.1,291.5
			 M245.5,258.1l0.9,0.8c0.6,0.2,1,0.8,1.5,0.9c0,0,0.3,0.3,0.6,0.4c0.2,0.2,0.3,0.3,0.3,0.3l0.2,1.1c0.7,0.6,1.7,1.3,1.7,2.4
			c0.2,0.4,0.2,1,0.7,1.2c0.2,0.2,0.4,0.6,0.3,1c-0.1,0.7-0.5,1.2-0.6,1.8c0,0.3-0.2,0.5-0.4,0.8c0,0.6-0.3,1.1-0.3,1.7
			c0.3,0.9,0.9,1.8,1.1,2.6c0.3,0.6,1.1,0.6,1.3,1.3c0,1.1,1.3,1.7,2.1,2.1c0.4,0.3,1.1,0.3,1.6,0.5c0.8,0.2,1.4,1.2,1.9,1.9
			c0.6,0.3,1.3,0.7,1.5,1.4c0.5,0.3,0.7,0.9,1.2,1.2v0.2l0.5,0.4c-10.1,2.8-20.4,4.3-31,4.6v-27C235.7,259.5,240.6,259,245.5,258.1
			 M239,252.2c0.4,0,0.9,0.1,1.3-0.1c0.2-0.1,0.1-0.4,0.3-0.5c0.6,0.2,0.1,0.9,0.3,1.3c-0.1,0.4-0.3,0.7-0.2,1.1
			c-3.3,0.4-6.7,0.7-10,0.8V251l0.6-0.2c1.2-0.4,2.5,0,3.7,0c0.7,0.3,1.4,0.3,1.9,0.7c0.6-0.1,1.2-0.2,1.7-0.5
			c0.3,0.2,0.5-0.1,0.7,0C239.4,251.5,238.2,251.8,239,252.2 M227.5,219.1c0,0,0,0.1-0.1,0.1c-0.2,0.3-0.5,0.2-0.8,0.3
			c-0.4,0.2-0.8,0.6-1.3,0.6c-0.4,0.5-0.9-0.1-1.3,0c-1.1,0.1-2-0.4-3-0.4c-0.6,0.6-1.4,0.9-2.1,1.6c-0.1,0.4-0.5,0.6-0.9,0.8
			c-3.9-0.7-7.8-1.7-11.6-3.1c-6.6-2.5-12.7-6-18.2-10.5c-1-0.8-2-1.7-2.9-2.6l18.8-18.8c1.6,1.5,3.4,2.8,5.3,4
			c4.5,2.8,9.5,4.5,14.7,5.1c0,0.4-0.1,0.8,0.3,1c0.2,0.1,0.4,0.2,0.7,0.2c0.3-0.2-0.1-0.9,0.4-0.9l-0.1-0.2c0.4,0,0.9,0.1,1.3,0.1
			l-0.9,0.2c0.1,0.4,0.1,0.9,0.3,1.3c0,0.2,0.4,0.4,0.2,0.7c0,0,0,0.1,0,0.1c-0.3,0-0.6,0.4-0.9,0.2c-0.1-0.2-0.3-0.2-0.4-0.3
			c0,0-0.1,0-0.2,0c0,0-0.1,0-0.1,0c-0.4,0.1-0.1,0.9-0.5,1c0-0.4-0.3-0.7-0.1-1c0,0,0,0,0,0c0-0.6-0.6-0.8-1-1.1
			c-0.6-0.1-1.1,0.4-1.6,0.7c-0.1,0.1-0.2,0.3-0.2,0.5c0,0.1,0,0.2,0,0.2c0.1,0.3,0.4,0.4,0.3,0.6c-0.4,0.2-0.9,0.8-1,1.3
			c-0.2,0.8,0.8,1.1,1.3,1.4c0.4,0.1,1,0.1,1.2-0.4c0.3-0.6,0.8-1.1,0.9-1.8c0.4,0.1,0.5,0.6,0.9,0.7c0.2,0.3,0.5,0.6,0.3,1
			c-0.2,0.3-0.6,0.2-0.9,0.4c-0.3,0.3-0.7,0.6-0.5,1.1c0,0.3,0.4,0.5,0.7,0.7c0.6-0.1,1.2-0.6,1.8-0.3c0.3-0.2,0.4-0.6,0.6-0.8
			c0.6-0.1,0.9-1.2,1.6-0.7c0.5-0.1,1.1,0,1.3-0.6c0.1-0.1,0.1-0.3,0.3-0.3c0.5,0.3,0.1,0.9,0.1,1.2c-0.3,0.2-0.6,0.2-0.9,0.3
			c-0.5,0.3-1.1,0.4-1.6,0.7c-0.3,0.2-0.1,0.8-0.6,0.8c-0.8,0.1-2-0.6-2.6,0.3c-0.2,0.3-0.2,0.6-0.2,0.9c0,0.2,0,0.5,0.1,0.7
			c0.3,0.3,0.6,0.4,0.9,0.7c0.3,0.1,0.3-0.2,0.5-0.1c0.4,0.5,0.7,1.2,0.4,2c-0.2,0.4-0.5,0.8-1,0.8c-0.9,0-1.8-0.2-2.6-0.2
			c-0.5,0.1-1.2-0.1-1.5,0.3c-0.4,0.2-0.6,0.7-0.9,1.1c0,0.6-0.2,1-0.4,1.5v0.1c0,0.3-0.2,0.7-0.1,1.1c-0.4,0.5,0.1,1.1,0.1,1.6
			c-0.2,0.5,0,1.1-0.3,1.6c0,0.5,0.4,0.8,0.6,1.1c0.5,0.2,1.3,0.1,1.5,0.8c0,0.2,0.1,0.4,0.2,0.6c0,0,0,0,0,0.1
			c0.4,0.2,0.9,0.2,1.3-0.1c0.1,0,0.2-0.1,0.2-0.2c0.7,0,1.1-0.6,1.8-0.6c0.3-0.1,0.3-0.4,0.3-0.7c0.6-0.4,1.3-0.7,2-0.4
			c0.4-0.2,1,0.3,1.2-0.3c0-0.3,0-0.7,0.1-0.9c0.3-0.4,0.9-0.3,0.9-0.9c0.3-0.4,0.3-1,0.8-1.3c0.5-0.3,1.1-0.4,1.4-0.9
			c0-0.3-0.3-0.4-0.4-0.7c0-0.1,0-0.1,0.1-0.3c0.1-0.2,0.3-0.4,0.4-0.4c0.6-0.2,1.1,0.3,1.6-0.1c0.8-0.7,1.5-1.6,2.6-1.7
			c0.2-0.2,0.5-0.2,0.7-0.1c0.8,0.4,0.8,1.6,1.7,1.9c0.4,0,0.8,0.1,1.2,0.1c0.5,0.2,1.1,0.4,1.7,0.6c0.4,0.1,0.7,0.4,1,0.7
			c0.6,0.2,0.4,1,1,1.1c0.1,0.3,0.5,0.5,0.8,0.7c0.5-0.4,0.4-1.1,0.3-1.7c-0.1-0.2-0.3-0.4-0.2-0.7c0,0,0-0.1,0-0.1
			c0.2-0.3,0.9-0.1,0.8-0.6c-0.3-0.6-1.2-0.6-1.3-1.2c-0.3-0.2-0.6,0.1-0.9,0.1c-0.2-0.5-0.8-0.3-1.1-0.7c-0.3,0.1-0.5-0.3-0.7-0.4
			c-0.4-0.2-0.8-0.4-1.1-0.7c0-0.3,0.1-0.6,0.4-0.6c0.9,0,1.6,0.3,2.5,0.4c0.7,0.5,1.6,0.5,2.3,1.2c0.2,0.1,0.4,0.2,0.4,0.5
			c0.1,0.3-0.3,0.7,0,1c0.4,0.3,0.4,0.9,0.7,1.3c0.1,0.1,0.2,0.2,0.3,0.3c0.3-0.1,0.7,0.1,0.9-0.1c0.1,0,0.1,0,0.1,0.1
			c0,0.2-0.2,0.3-0.3,0.4c0.3,0.5,0.8,1.4,1.5,1.2c0.4-0.1,0.8-0.5,1.2-0.7c0.6,0.2,0.9-0.3,1.4-0.1c0.3-0.3,0.2-0.7,0.2-1.1
			c0-0.2,0-0.4,0-0.6c-0.3-0.6-0.9-0.9-1.4-1.1c-0.1-0.1-0.1-0.2-0.1-0.4c0.3-0.1,0.4-0.4,0.5-0.7c1.2-0.2,1.9,0.9,2.6,1.8
			c0.5,0.2,1.1,0.3,1.5,0.6c0.8,0.3,1.2-0.3,1.7-0.7c0.4-0.1,1.1-0.1,1.2-0.8c-0.1-0.4,0.5-0.5,0.3-0.9c0.4-0.8,1.4-0.7,2.1-1
			c0.4-0.2,0.8-0.7,1.4-0.7c0.7,0,0.9,0.8,1.1,1.3c0.1,0.7,0.1,1.5-0.2,2.2c0.1,0.3,0.2,0.7,0,1v0c-0.1,0.2-0.4,0.4-0.4,0.7
			c-0.6,0.9-1.5,0.9-2.2,1.5c-0.7,0.9-1.6,1.1-2.7,1.1c-0.8,0.5-1.7,0.6-2.6,0.8c-0.3,0.3-0.8,0.2-1.1,0.3c-0.8-0.2-1.3,0.3-2,0.3
			c-0.6,0.3-1.3,0.4-1.7,1c-0.5,0.3-0.4,0.8-0.8,1.1c-1,0.4-2.1,0.8-3.2,1.1c-0.6-0.1-1-0.6-1.8-0.6c-0.9,0.1-2,0.4-2.9,0
			c-0.2-0.1-0.1-0.3-0.1-0.4c0-0.1,0-0.1-0.1-0.2c-0.2-0.6-0.7-1.1-0.7-1.8c-0.2-0.6-0.6-0.9-1.2-1l-1.5,0c-0.8,0.3-1.5,0.8-2.5,0.7
			c-0.7,0.1-1.5,0-2.2-0.2c-0.4,0.2-1-0.1-1.4,0.2c-0.5,0.1-0.9,0.1-1.4,0.3C229,217.4,228.2,218.3,227.5,219.1 M225.9,254.8
			c-11.9-0.3-23.6-2.8-34.6-7.6c-10.5-4.5-20.1-10.9-28.3-18.9l19.1-19c1,1,2.1,2,3.2,2.9c5.9,4.9,12.4,8.7,19.6,11.4
			c2.2,0.8,4.5,1.5,6.8,2.1l-1.1,0.6c0.3,0.5-0.5,0.7-0.7,1c-0.7,0.3-1,0.9-1.7,1.2c-0.2,0.7-1.1,0.6-1.3,1.3
			c-0.3,0.6-0.6,1.3-0.6,2c0.2,0.5-0.4,0.7-0.4,1.1c-0.3,0.6-0.4,1.4-0.5,2c-0.7,0.7-2.4,0.3-2.4,1.8c0.3,1.3,1.1,2.4,1.7,3.6
			c0.3,0.6,0.8,1.2,1.1,1.9c0.7,0.9,1.4,1.6,2.1,2.3c0.1,0.6,0.5,1.1,0.7,1.6c0.6,0.5,0.9,1,1.4,1.4c0.4,0.6,1,1,1.5,1.3
			c0.4,0,0.7,0.4,1.1,0.5c0.6,0.3,0.9,1,1.5,1.3c1.3,0.3,2.8,0,4.2,0.3c0.6-0.2,1.1,0.1,1.5,0.3c0.9-0.1,1.7,0,2.4,0.2
			c1.3,0.2,2.6,0.4,3.8,0.5c0,0,0.1,0,0.1,0.1V254.8z M225.9,286.6c-16-0.3-31.6-3.6-46.5-9.9c-14.5-6.2-27.5-14.8-38.9-25.9
			l3.4-3.4l0.8,0.6c0.8,0.8,1.8,1.3,2.6,2.2c0.9,0.5,2,0.1,2.9,0.6c1.3,0.2,2.3-0.7,3.6-0.6c0.6-0.4,1.4-0.6,2-0.9
			c1.3-0.1,2.4-0.9,3.6-1.4c0.4-0.4,0.9-0.4,1.4-0.4c1,0.2,2,0.4,2.8-0.1c0.6-0.2,1.1,0.1,1.7,0.1c0.4,0.2,0.9,0,1.3,0.1
			c0.9-0.2,1.7-0.3,2.4-1c0.5-0.2,0.9-0.7,1.4-0.9c0.3-0.5,0.8-1.1,0.6-1.8c0.2-0.5-0.7-1-0.1-1.4l-1.9-2.6
			c6.3,4.7,13,8.6,20.3,11.7c11.6,5,23.9,7.7,36.5,8V286.6z M225.9,318.5c-20.3-0.3-40-4.5-58.7-12.4c-9.3-4-18.4-8.9-26.8-14.5
			c-7.9-5.4-15.4-11.5-22.3-18.2l19.1-19.1c11.8,11.5,25.4,20.5,40.4,26.9c15.4,6.5,31.6,10,48.3,10.2V318.5z M97.5,248.9
			c-5.7-8.4-10.7-17.4-14.6-26.7c-8.1-18.9-12.3-38.8-12.5-59.3h27.1c0.2,12.8,2.2,25.3,6.1,37.4l-1.2,0c-0.5,0.6-1.2,0-1.7-0.2
			c-0.1,0-0.1,0-0.1-0.1c-0.4-0.3-0.6-0.7-1-1c-0.2-0.6-0.6-1.4-1.3-1.5c-0.7-0.1-1.3,0.1-1.8,0.5c-0.6,0.4-1.4,0.2-2,0.5
			c-0.2,0.1-0.3,0.4-0.1,0.7c0.2,0.2,0.3,0.5,0.3,0.7c0,0,0,0.1,0,0.1c-0.1,0.2-0.1,0.5-0.4,0.6c-0.4-0.1-0.5,0.4-0.8,0.4
			c-0.8-0.2-1.5,0.2-2,0.7c-0.3,0.1-0.6,0.1-0.8-0.1c-0.5-0.4-0.6-1-1-1.4c0.2-0.1,0.5,0.1,0.7-0.2c0-0.7-0.3-1.2-0.4-1.9
			c-0.4-0.6-1.1-1-1.9-0.9c-0.7,0.3,0.1,1.2-0.6,1.6c-0.6,0.1-0.6-0.9-1.2-0.6c-0.3,0.2-0.5,0.3-0.7,0.6c0.1,0.4,0.2,0.6,0.6,0.9
			c0.4,0,0.7,0.5,1,0.3c0-0.2,0.3-0.4,0.4-0.5c0.5,0.4,1.4-0.1,1.7,0.7v0c-0.4,0-0.6,0.3-1,0.1c-0.6,0.2-1.3-0.1-1.8,0.2
			c-0.6,0.2-0.8,0.9-1.3,1.4c-0.5,0.4-0.9,1-1.6,1.2c-0.3,0-0.4-0.2-0.7-0.1c-0.4-0.1-0.8-0.4-1.2-0.5c-0.2,0.5-0.7,0.9-0.6,1.4h1.9
			c0.1-0.1,0.3-0.2,0.2-0.4c0.1,0,0.1-0.1,0.2,0c0,0.1,0.1,0.2,0.1,0.4c0,0.2,0,0.3-0.1,0.4c0,0.7,0.2,1.3,0.1,2
			c0.3,0.3,0.1,0.8,0.3,1.2c0.3,1,0.3,2.2,0.6,3.1c0.3,0.2,0.2,0.5,0.2,0.7c-0.2,0.2,0,0.7-0.3,0.8c-0.5-0.4-0.2-1-0.2-1.6
			c-0.2-0.2-0.4-0.7-0.8-0.8c-0.3,0.2-0.7,0.4-1,0.3c0.1-0.4-0.1-0.8,0.1-1.1c0-0.2-0.1-0.4,0.1-0.6c0.1-0.1,0.4-0.2,0.2-0.4
			c-0.4-0.3-0.4-1-1-1c-0.2,0-0.3-0.2-0.5-0.1c-0.7,0.5-0.4,1.3-0.3,1.9c0.4,0.4,0.3,1.2,0.9,1.5c0,0.1,0,0.2-0.1,0.3
			c-0.3,0-0.4,0-0.6,0.2l-0.1,0.5c0.4,0.7,0.4,1.6,1.3,2.1c0.2,0.6,0.2,1.4,0.9,1.8c0,0.1,0.1,0.2,0.2,0.3c0.3,0.6,0.4,1.3,0.3,1.9
			c0.1,0.3,0.5,0.3,0.4,0.6c-0.2-0.1-0.4-0.2-0.6-0.2c-0.3,0.2-0.2,0.7-0.3,1.1c0.1,0.2,0.3,0.4,0.5,0.5c0.2,0.2,0.5,0.3,0.8,0.3
			c0.3,0.1,0.5-0.1,0.6-0.3c0,0,0,0,0,0c0.1-0.5-0.5-0.7-0.6-1c0.2-0.1,0.4,0,0.7,0c0.3,0.3,0.5,0.7,0.6,1c0.2,0.4,0.3,0.8,0.6,1.2
			c-0.1,0.2,0.1,0.5-0.2,0.6c-0.2-0.2-0.4-0.5-0.6-0.7c-0.3-0.2-0.6-0.4-0.9-0.3c-0.3,0.4,0,0.8,0.2,1.1c0.3,0.6,0.8,0.5,1.3,0.6
			l0.2-0.1c0.2,0.3,0.4,0.6,0.3,1c0.2,0.8,0.7,1.4,1.3,1.8c0.5,0.3,0.8-0.4,1.1-0.5c0.1-1,0.4-2.2-0.3-3.1c-0.3-0.4,0-1-0.2-1.5
			c0,0,0,0,0,0c-0.2-0.8-0.5-1.6-1.2-2.3c-0.1-0.3-0.5-0.5-0.4-0.9c0.4,0.2,1,0.4,1.3,0c0.3-0.2,0.8-0.3,0.8-0.8v-0.1
			c0.2-0.1,0.2-0.3,0.4-0.2c0.1,0.1,0.1,0.2,0.2,0.2c0.1,0.4-0.1,1,0.4,1.2c1.1,0.5,1.9,1.7,2.6,2.6c0,0.1,0,0.1,0,0.1
			c0.5,0.6,1.3,0.7,1.9,1c0.6,0.2,1.3,0.2,1.8-0.1c0.2-0.2,0.4-0.6,0.4-0.9c0-0.2,0-0.4-0.1-0.7c0.1-0.2,0-0.7,0.3-0.8
			c0.7,0.2,0.7,1,1.1,1.5c0.2,0.8,0.7,1.6,1.5,1.8c0.6,0.4,0.3,1.2,0.8,1.6c0.8,0.7,1.8-0.1,2.6,0.4c0.1-0.2,0.1-0.4,0.1-0.5
			c-0.6-0.5-0.2-1.4-0.8-1.9c0.1-0.2,0-0.6,0.3-0.6c0.4,0.1,0.3,0.7,0.6,0.9c0.1,0.9,0.4,1.8,0.3,2.7c0.3,0.4,0.6,0.8,0.6,1.2
			c0.8,1.1,2.1,0.4,3.1,0.4c0.3,0.2,0.5,0.7,0.5,1.1c-0.3,0.2-0.2,0.6,0,0.9c0,0.1,0,0.1,0,0.1c0.6,0.9,1.1,1.9,1.8,2.9
			c0.6,0.3,0.6,0.9,1.3,1.2c1,0.6,1.4,1.8,2.5,2.2c0.8,0.1,1.6,0.1,2.4,0.1c0.6-0.1,0.9-0.7,1.2-1.2c-0.1-0.2,0.1-0.3,0.3-0.4
			c0.2,0,0.3,0.2,0.4,0.4c0.2,0.9,0,1.9,0.5,2.7c0.1,1.2,1.4,1.8,2,2.8c0.9,0.8,1.9,1.4,2.9,2c0.9,0.1,1.5,0.6,2.4,0.9
			c2.7,3.4,5.6,6.8,8.7,10l-19.1,19.1C108.5,263.6,102.7,256.4,97.5,248.9 M82.9,100.3c3.9-9.3,8.9-18.2,14.6-26.6
			c5.3-7.7,11.3-15,17.9-21.7l19.1,19.1c-11.4,11.6-20.3,24.9-26.7,39.6c-6.5,15.2-10,31.3-10.3,47.9H70.4
			C70.8,138.4,74.9,118.8,82.9,100.3 M140.3,31.5c8.4-5.6,17.5-10.5,26.8-14.4c18.7-7.9,38.4-12,58.7-12.3v27
			c-16.7,0.3-32.9,3.7-48.3,10.1c-14.8,6.2-28.2,14.9-39.8,26l-19.1-19.1C125.4,42.5,132.6,36.6,140.3,31.5 M190.8,183.1
			c0.5,0.2,1,0.3,1.5,0.5c0.6,0.2,1.1-0.2,1.7-0.1c0.2,0,0.6,0,0.7,0.3c0,0,0,0.2-0.1,0.2c-0.7-0.2-0.5,0.7-1,0.9
			c-0.3,0-0.6,0.2-0.8,0c-0.3-0.6-1.1-0.7-1.6-1C191.1,183.4,190.7,183.3,190.8,183.1 M167.5,174.4c0.2-0.2,0.4-0.5,0.3-0.8
			c0.1-0.1,0.3-0.1,0.4-0.1l0.9,1c0.7,0.2,1,1,1.8,1.2c0.7,0.5,1.5,0,2.3,0.1c0.2-0.1,0.4,0,0.5,0c0.5-0.1,0.9,0.1,1.4,0
			c0.6,0.3,1.3,0.2,1.9,0.4c0.7,0.5,0.8,1.5,1.1,2.3c0.3,0.7,1.1,0.8,1.8,0.8c0.1,0,0.1-0.1,0.2-0.2c0-0.4-0.2-0.8-0.1-1.2
			c0.2,0,0.2,0.3,0.4,0.3c0.7,0,0.8,0.8,1.4,0.9c0.3,0.3,0.6,0.8,1.1,0.6c0.3,0.3,0.9,0.2,1,0.7v0.1c-0.1,0.1-0.2,0-0.3-0.1
			c-0.1-0.1-0.2-0.2-0.2-0.2c-0.4,0.2-0.6-0.1-1,0.1c0,0,0,0.1,0,0.1c-0.2,0.1-0.3,0.4-0.3,0.5c-0.1,0.8,0.7,1.1,1.1,1.6
			c0.4,0.7,1.2,1.4,1.9,1.9c0.4,0.3,0.6-0.5,1.1-0.2c0.5,0.4,0.1,1.2,0.7,1.5c0.5,0.1,1,0,1.5-0.2c0.5-0.7-0.5-1.3-0.6-2
			c0.1-0.1,0.2,0,0.3,0c0.1,0.1,0.1,0.2,0.3,0.1c0.2-0.5,0-1.1-0.5-1.5c-0.1-0.1-0.3-0.1-0.4-0.3c-0.1-0.3-0.2-0.7,0.1-0.9
			c0.4,0,0.6,0.3,1,0.3c0.1,0.2,0.2,0.4,0.2,0.6c0.4,0.3,0.5,0.7,0.6,1.1c0,0.3-0.5,0.5-0.3,0.9c0.2,0.3,0.5,0.3,0.5,0.7
			c-0.2,0.3-0.1,0.7-0.4,1c-0.2,0.5,0.6,0.6,0.4,1.1c-0.2,0.3,0,0.6,0.1,0.8c0.2,0.3,0.5,0.5,0.8,0.7c0.2,0.2,0.3,0.5,0.1,0.8
			c0.1,0.3-0.4,0.4-0.1,0.8c0.4,0.3,0.9,0.4,1.4,0.3c0.9,0,0.9-0.9,1.2-1.5c0.1-0.1,0.2-0.2,0.3-0.4c0.4-0.5,0.4-1.3,0.2-2
			c0.3-0.8,1.6-0.8,1.8-1.7c0.3-0.4,0.9-0.4,0.9-1c0.5-0.9,0.3-2,1-2.8c0-0.1,0-0.2,0.1-0.2c0.1-0.3,0.3-0.6,0.6-0.6l0.2-0.4
			c0.9,1.5,2,3,3.1,4.3l-18.8,18.8C174.9,194.7,169.8,184.9,167.5,174.4 M161.2,175c-0.3-0.4-0.7-0.5-1.1-0.5
			c-0.6,0.1-1.1,0.4-1.6,0.7l-0.1-0.1c0-0.7,0-1.3,0.3-1.9c0.2-0.3,0-0.7,0.1-1c0.3-0.1,0.2,0.4,0.5,0.3c0.6,0.5,1.1,0.9,1.8,1.1
			c0.2,0,0.4-0.2,0.7-0.1c0.2,0.3-0.2,0.4-0.3,0.6C161.3,174.5,161.6,175,161.2,175 M140.3,244.7l-3,3c-1.1-1.1-2.2-2.3-3.2-3.5
			l0.4,0.1v-0.1l1.1-0.3c0.6-0.7,1.5-0.9,2.4-0.8c0.6,0.4,1.2,0.8,1.9,1.2L140.3,244.7z M189.9,71.4c-11,4.6-20.9,11.1-29.6,19.2
			l-19.2-19.2c11.2-10.6,24-19,38.2-25c14.8-6.2,30.4-9.4,46.5-9.8v27.1C213.4,64,201.4,66.6,189.9,71.4 M184.5,111.5
			c-0.6,0.5-1.1,1-1.7,1.5l-19-19c8.2-7.7,17.6-13.8,28-18.1c10.8-4.5,22.3-7,34.1-7.2v27C210.7,96,196.1,101.6,184.5,111.5
			 M163.2,158.4l0,0.2h-9.2l-0.2-0.4c0-0.4,0.1-0.8,0-1.2c0-0.3-0.1-0.6-0.3-0.9c-0.2-0.4,0.2-0.8,0.2-1.3c0.3-0.7,1-0.8,1.5-1.1
			c0.8-0.5,1.6-0.8,2.5-0.9c0.7,0.1,1.4,0,2.1,0.1c0.8,0.1,1.7,0.2,2,1c0.3,0.4,0.9,0.7,0.8,1.3c0.4,0.6,0.5,1.2,0.7,1.9
			c0,0.1,0.1,0.3,0.1,0.3C163.4,157.8,163.1,158.1,163.2,158.4 M161,137.5c0.4,0.6,0.9,0.9,1.6,0.8l3.3-1.1
			c-0.1,0.2-0.1,0.3-0.2,0.5l-1.3,0.6c-0.7,0.4-1.5,0.1-2.1,0.6c-0.4,0.3-1,0.4-1.4,0.8c-0.5,0.1-0.9,0.4-1.4,0.6
			c-0.7,0.4-1.3,0.9-2.2,0.6c-0.6-0.3-1.3-0.2-2-0.1c-0.3,0.2-0.5,0.4-0.7,0.7c-0.6,0.7-0.9,1.6-1.4,2.4c0.1,0.6-0.4,0.8-0.6,1.2
			c-0.6,0.4-1,0.9-1.4,1.5c0,0.7-0.5,1.1-0.5,1.9c-0.5,0.6-1.1,1.1-1.3,1.9c-0.2,0.5,0,1.2-0.3,1.6c0,0.3-0.1,0.4-0.1,0.6
			c0,0.6,0.1,1.1,0.4,1.5c0.3,1.4-1,2.1-1.8,3c0,0,0,0.1-0.1,0.1c-0.2,0.4-0.5,0.6-0.7,1l-0.2,0.5h-12.4c0.3-11.6,2.8-22.8,7.4-33.4
			c4.5-10.4,10.8-19.8,18.8-28.1l19,19c-4.8,5-8.8,10.7-11.7,16.9l-1,0.1c-0.1,0.1-0.3,0.3-0.5,0.4c-0.5,0.4-1.1,0.7-1.4,1.3
			c-0.5,0.4-1.3,0.1-1.8,0.5c-0.6,0.1-1.1,0.8-1.7,1C161.1,136.7,160.8,137.1,161,137.5 M175.9,175.1c-0.3,0.2-0.6,0.2-0.9,0.2
			c-0.1,0-0.1-0.2,0-0.3c0.3-0.3,0.7-0.8,1.3-0.6l0.1,0.1C176.4,174.8,175.9,174.8,175.9,175.1 M188.1,179.1c-0.5-0.1-0.6-0.6-1-1
			v-0.3c0.5,0,0.9,0.2,1.1,0.5C188.1,178.7,188.4,179,188.1,179.1 M189.7,180.8c0.4,0.4,0.8,0.8,1,1.4c-0.1,0.1,0,0.3-0.2,0.3
			c-0.7-0.3-1-1.2-1.7-1.4c0-0.4-0.7-0.8-0.3-1.2C189.1,179.8,189.2,180.6,189.7,180.8 M197.3,136.1c-0.4-0.5-1.2-0.3-1.6-0.7
			c-0.4-0.5-1.2,0.5-1.2-0.4c-0.2-0.2-0.5-0.1-0.8,0c-0.9-0.1-1.4,0.6-2.4,0.5c-0.3,0.1-0.4,0.4-0.7,0.3c-0.1-0.2,0.1-0.3,0-0.4
			c-0.5-0.8-1.4-0.8-2-1.5c-0.1-0.1-0.1-0.2-0.1-0.2c-0.5-0.9-1.4-1.6-2.4-1.6c-0.8-0.6-1.6-1.2-2.5-1.2c-1.4-0.3-3-0.8-4.4-0.3
			c-0.4,0-0.8,0.2-1.2,0.1c-1,0.2-1.8,0.9-2.5,1.7c-0.6,0.3-1.4,0.6-2,0.4c2.6-4.7,5.8-9,9.5-13l16.4,16.3c0,0.4-0.4,0.5-0.6,0.7
			h-0.5c-0.3,0.2-0.5,0.6-0.9,0.6C197,136.8,197.8,136.5,197.3,136.1 M222.6,122.1c0.4,0.1,0.7-0.2,1.2-0.3c0.3-0.1,0.4-0.6,0.8-0.6
			c0.2,0.7,1,0.1,1.2,0.7l0.1-0.1v5c-3.1,0.2-6.2,0.8-9.1,1.8c-0.1-1,1.3-2,0.1-2.8c-0.6-0.1-1,0.3-1.4,0.8c-0.3,0.7-0.7,1.3-1.1,2
			c-0.5,0.5-0.9,1.2-0.8,2c-0.2,0.4-0.8,0.6-0.5,1.1c-0.5,0.6-0.9,1.6-1.8,1.8c-0.1,0-0.2,0.1-0.2,0.2c-0.2,0.2-0.4,0.2-0.7,0.1
			c0-0.1-0.1-0.1-0.1-0.1c-0.2-0.1-0.3-0.1-0.5,0c0,0,0,0,0,0c-1,0.3,0,2-1.3,1.7c-0.1-0.3-0.6-0.5-0.8-0.3c-0.6,0.3-1,0.9-1.7,0.6
			h-0.4l-19.3-19.2c0.5-0.5,1-0.8,1.4-1.3c10.7-9.1,24.3-14.3,38.2-14.8v20.3l-0.4-0.2c-0.4-0.3-0.8,0.3-1.3,0.2
			c-0.4,0.2-0.8-0.2-1.2,0.1c-0.4,0.3-0.5,0.6-0.8,1C222.1,122,222.4,122.1,222.6,122.1 M129.6,158.7h-27.2
			c0.3-15.9,3.7-31.3,9.9-45.9c6.1-14.2,14.7-27,25.6-38.2l19.2,19.2c-8.4,8.6-15.1,18.6-19.8,29.6
			C132.5,134.6,129.9,146.5,129.6,158.7 M119.5,189.3c0.5,1.1-0.2,1.9-0.5,2.9c-0.1,0.3-0.1,0.5-0.1,0.9c-0.1,0.9,0.7,1.5,0.7,2.4
			c0,0.2-0.1,0.4-0.1,0.6c-0.2,0.6-0.4,1.1-0.4,1.7c-0.3,0.3,0.1,0.7-0.2,1c-0.7,0.3-1.2,1.1-2,0.9l-1.5,0.1
			c-0.1,0.2-0.3,0.2-0.6,0.2c-0.1,0-0.1,0-0.2,0c-0.9,0.6-2.2,0.4-3.3,0.5c-0.7,0.2-1.3,0-2-0.1h-0.5c-4.1-12.1-6.2-24.6-6.4-37.5
			h27.2c0.1,4.4,0.4,8.6,1.1,12.9l-1.3-0.4c-0.9-0.2-2,0-2.6,0.8c-0.9,1.1-0.9,2.6-2,3.7c-0.3,0.2-0.6,0.5-1,0.7
			c-0.4,0.2-0.7,0.6-0.8,1.1c-0.3,0.6-0.9,1-1,1.8c-0.4,0.5-0.3,1.2-0.6,1.8c-0.6,0.3-0.7,0.9-1.1,1.4c-0.2,0.4-0.2,0.9-0.6,1.2
			c-0.1,0.2-0.2,0.4-0.2,0.5C119.4,188.6,119.5,188.9,119.5,189.3 M142.1,167.9c0,1.4-0.8,2.4-0.9,3.7c-0.2,0.6-0.9,1-0.6,1.7
			c0.2,0.4-0.1,0.6-0.1,1c0.2,0.5,0.2,0.9,0.4,1.3c0.4,0.5,1.2,0.5,1.5,1.2c0.2,0.7-0.5,1.3-1,1.8c-0.8,0.3-1.9,0.8-2.8,0.2
			c-0.6-0.5-1.1-1-1.8-1.1c-0.4-0.1-0.7-0.3-1.1-0.5c-0.8-4.7-1.3-9.4-1.3-14.3h10.5l-0.2,0.5c-0.2,0.7-0.3,1.5-0.6,2.2
			C143.5,166.5,142,166.6,142.1,167.9 M154.5,223.1c0.2-0.5,0.6-0.8,1.1-1c0.4-0.4,0.9-0.3,1.2-0.5c0.5-0.1,0.8-0.5,1-1
			c-0.1-0.3,0.1-0.7,0.1-1.1c0.1-0.3,0.1-0.7,0-1c-0.4-0.8-0.1-1.9-0.4-2.7c0,0,0,0,0-0.1c-0.1-0.4-0.1-0.9-0.1-1.4
			c-0.2-1-1.2-1.4-1.6-2.3l-0.1-0.3c-0.5-0.7-1.2-1.4-1.4-2.4c-0.7-0.7-0.3-1.9-0.6-2.8c0.3-0.9,0.1-1.7,0-2.6
			c-0.1-0.3-0.1-0.6-0.1-0.9c-0.1-0.1-0.3-0.3-0.1-0.4c0.5-0.8,1.8-0.3,2-1.4c0.3-0.1,0.1-0.5,0.4-0.7c0.3-0.2,0.7,0,0.9-0.3
			c0-0.1,0-0.2-0.1-0.3c-0.1-0.2-0.2-0.3-0.4-0.4c-0.6-0.3-0.8,0.4-1.3,0.3c-0.5-0.1-0.3-1.1-0.9-0.8c-0.1,0.1-0.2,0.1-0.2,0.3
			c0.1,0.2,0,0.4-0.1,0.6c0,0,0,0,0,0c-0.1,0.3-0.3,0.3-0.5,0.5c-0.1-0.2-0.1-0.3-0.1-0.5c0-0.3,0.1-0.5,0.2-0.8
			c0.5-0.3,0.3-0.8,0.7-1.1c0-0.4,0-0.8-0.3-1.1c-0.2,0-0.5,0-0.5-0.3c-0.4,0-0.5-0.3-0.6-0.6c-0.1-0.3-0.2-0.5-0.5-0.6
			c-0.1-0.4-0.4-0.8-0.4-1.2c0.2-0.2,0.4-0.1,0.6,0c0.1,0.1,0.3,0.1,0.5,0.1c0.2-0.2,0.3-0.4,0.2-0.7c-0.3-0.4-0.7-0.6-1.2-0.7
			c-0.1-0.3-0.4-0.6-0.5-0.9c-0.1-0.2-0.1-0.4,0-0.6c0.1-0.3,0.5-0.1,0.5-0.5c0.2-0.7-0.5-1.4-0.3-2.1c-0.3-0.2-0.4-0.7-0.9-0.6
			c-0.3,0-0.3,0.3-0.4,0.3c-1-0.3-1.6,1.2-2.4,0.3c0.1-0.3,0.1-0.5,0.2-0.7c0.1-0.2,0.3-0.4,0.6-0.5c0.5-0.2,1.4,0.3,1.7-0.5
			c0.4-0.6-0.3-1.1-0.3-1.6c-0.8-0.9-1.4-1.7-2.2-2.5c-0.2-0.4-0.4-0.7-0.6-1c-0.3-0.2-0.4-0.7-0.8-0.7c-0.3-0.2-0.6-0.6-0.9-0.9
			c-0.1-0.1-0.2-0.3-0.2-0.4c-0.3-0.1-0.3-0.5-0.4-0.9c0-0.8,0.4-1.4,0.5-2c0.3-1.1-0.8-1.7-1.1-2.6c-0.4-0.7-0.1-1.5-0.1-2.4
			c0-0.5,0.7-0.9,1.1-1.2c1.1-0.5,2.3,0,3.4-0.3c0.6-0.2,1.2-0.7,1.5-1.3c0-0.2,0-0.6,0.1-0.8c-0.3-1.3,0.2-2.5,0.6-3.6
			c0.1-0.1,0.1-0.3,0.2-0.4c0.6,0.2,1.3,0.5,2,0.3c0.7-0.1,1.3,0.4,2,0.1l0.7-0.7c0.2-0.4,0.2-0.9,0.6-1.1l-0.1-0.4h6.3l-0.1,0.6
			c0.2,0.5,0.3,0.9,0.8,1.3c0.1,0,0.2,0.1,0.3,0.1c0.3,0.1,0.7,0.1,1,0.3c-0.1,0.5-0.4,0.9-0.8,1.2c0,0.4-0.1,0.8,0.1,1.2
			c-0.1,0.6-0.2,1.3-0.9,1.7c-0.5,0-0.9,0.4-1.4,0.3c-0.4,0.2-0.7,0.8-1.2,0.9c-0.5,0-0.9,0-1.4-0.2c-0.8-1.2-1.5-3-3.2-3
			c-0.3,0.1-0.5,0.3-0.7,0.5c-0.1,1,0.9,1.6,0.7,2.6c0.2,0.4,0,0.9,0.3,1.2c0.1,0.3,0,0.7,0,1c-0.1,0.5-0.2,0.9-0.2,1.4
			c-0.1,0.6-0.1,1.2-0.2,1.8c0,0.2-0.2,0.3-0.4,0.4c-0.5-0.1-0.9-0.9-1.4-0.9c-0.4,0.2-1.1-0.1-1.2,0.5c-0.6,0.8,0.1,1.4,0.3,2
			c0.1,0.6,0.5,1.2,1.1,1.3c0.4,0.1,1-0.2,1.4,0.2c0.1,0.4,0.3,0.7,0.5,1c0,0.1,0.1,0.1,0.1,0.2c0.4,0.1,0.9,0.3,1.3,0.1
			c0.1-0.1,0.2-0.2,0.3-0.2c0.1,0,0.1-0.1,0.3-0.1c0,0,0.1,0.1,0.1,0.1c0.1,0.1,0,0.3,0,0.4c-0.2,0.3,0.1,0.6,0.1,0.8
			c0.3,0.3,0.7,0.7,1.2,0.6c0.1-0.1,0.2-0.4,0.1-0.6c-0.1-0.4-0.7-0.4-0.6-0.9c0.3-0.1,0.5-0.3,0.8-0.3c0,0,0.1,0,0.1-0.1
			c0.6-0.5,1.3-0.7,1.6-1.5c0.1-0.4-0.4-0.5-0.6-0.7l-0.6-0.1c-0.7,0.3-0.4,1-0.9,1.3c-0.3,0.2-0.7,0.1-1,0.4
			c-0.2-1.2,0.1-2.4,0.3-3.7c0.1-0.1,0.1-0.4,0.3-0.4c0.4,0.2,0.7,0.6,1.1,0.7c0.3-0.2,0.5-0.6,0.9-0.7c0.3-0.4,0.7-0.4,1.1-0.7
			c0.1,0.2,0.2,0.5,0.2,0.7c-0.5,0.4-0.5,1.4-1.4,1.3c-0.2,0.1-0.1,0.4-0.1,0.5c0.3,0.2,0.6,0.2,1,0.2c0.6,0.1,1.2-1.3,1.4-0.2
			l0.7-0.5c2.7,10.7,8.1,20.7,15.6,28.8l-18.8,18.8c0-0.1-0.1-0.1-0.1-0.1c-0.2,0.2-0.5,0.2-0.7,0.1c-0.3-0.2-0.6-0.6-1-0.5
			c-0.4-0.2-0.8-0.2-1.1,0.1c-1-0.1-2,0.1-3,0.2C153.8,224.2,154.6,223.7,154.5,223.1 M231.8,199.5c0.1,0.1,0.5,0.3,0.3,0.6
			c-0.4,0.2-0.6-0.2-1-0.2c-0.3-0.1-0.8,0.4-0.9-0.1c-0.1-0.3-0.1-0.7-0.3-0.9c-0.1-0.1-0.2-0.2-0.3-0.2c-0.2-0.2-0.4-0.3-0.5-0.5
			c0.2-0.3,0.1-0.7,0.1-1.1c-0.2-0.1-0.4-0.2-0.5-0.4c1.3,0,2.6-0.2,3.9-0.3c0.2,0.6,0.3,1.2,0.1,1.8c-0.2,0.2-0.5,0.3-0.8,0.5
			c0,0.1-0.1,0.1-0.1,0.2C231.8,199,231.8,199.3,231.8,199.5 M241,194.7c-0.1,0.3,0.2,0.6,0,0.8c-0.3,0.3-0.8,0.5-1,0.9
			c-0.6,0.3-0.6,1.2-1.3,1.4c-0.6,0.2-1-0.5-1.7-0.3c-0.4-0.2-0.9-0.1-1.1-0.5c-0.2-0.2,0.2-0.4,0.1-0.7c-0.6-0.6-1.1-1.2-1.2-2.1
			c-0.3-0.2-0.6-0.3-0.9-0.3l-0.1-0.6c0.1-0.3,0.3-0.6,0.5-0.9c0.2-0.1,0.5,0,0.8,0.1c0.2,0.5,0.3,0.9,0.7,1.3
			c0.2,0.5,0.2,0.9,0.6,1.2c0.2,0.4,0.2,1.1,0.8,1.1c0.4,0.2,0.9,0.3,1.3,0.3c0.7-0.1,0.5-0.8,0.7-1.2c0.1-0.5,0.1-0.9,0.1-1.5
			c0.3-0.4,0.4-0.9,0.4-1.4c0-0.2-0.1-0.4-0.2-0.5c-0.2-0.3-0.4-0.5-0.6-0.7c0-0.4,0-0.9-0.3-1.1c0.2-1-0.2-2,0.2-3
			c0-0.4-0.1-0.9,0.4-1.1c0.5-0.1,1,0.4,1.1,0.9c0.1,0.5-0.3,1-0.1,1.5c-0.4,0.5,0.1,1.1-0.1,1.7c0.1,0.4,0,1.1,0.6,1.3
			c0.5,0.3,1.3,0.1,1.7,0.6c0,0,0,0.1,0.1,0.1c0,0.4-0.5,0.3-0.7,0.6c-0.4,0.1-1,0.1-1.3,0.6C240.1,193.8,240.7,194.2,241,194.7
			 M227.7,133.5c0,0.2,0.2,0.4,0.3,0.5c0.5-0.2,1.1,0.1,1.5-0.2c0.2,0,0.3,0.2,0.5,0.3c0,0.3-0.5,0.3-0.5,0.7l-2.2-0.4
			c-0.5-0.8-1.4-0.3-2.2-0.2c-0.3,0-0.5,0.4-0.8,0.4c-0.2,0.3-0.7,0.2-0.7,0.7c0,0.7,0.2,1.2,0.4,1.7c0,0.1,0,0.2,0.1,0.2v0.1
			c0.4,0.7,1.1,0.8,1.6,1.4c0.3,0.6,1.1,0.5,1.5,1c0.2,0.6,0.3,1.4,1,1.5c0.6,0.3,1.4,0.2,1.8-0.3c1-0.1,1.7,0.8,2.7,0.8
			c0.4,0.1,0.9,0,1.2-0.2c1-0.1,0.9,1.1,1.3,1.6c0.6,0.6,1.1,0.9,1.7,1.3c0.7,0.8,1.5,1.5,1.7,2.5l0.9,0.8c0.7,0.1,1.4-0.3,2,0.1
			c0.3,0.1,0.6-0.7,0.9-0.2c0,0.8-0.8,1.3-0.7,2.1c0.1,0.3,0.1,0.6,0.1,0.9c0,0.2,0,0.4-0.1,0.5c0.1,0.3,0.3,0.5,0.2,0.8
			c0.2,0.5,0.8,0.7,1.1,0.9c0.2,0.4-0.1,0.9,0,1.3c-0.2,1.1-2.1,0.5-1.8,1.8c-0.1,0.2,0,0.4,0,0.6c-0.3,0.6-0.6,1.1-1.2,1.5
			c0,0.6,0.6,0.8,0.6,1.3c0.3,0.2,0.5,0.3,0.9,0.2c0.2-0.1,0.3-0.3,0.5-0.2c0.3,0.3,0.8,0.6,0.8,1c0.5,0.9,0.9,1.9,1.3,2.9
			c0.3,0.3,0.6,1,1.1,0.9c0.4,0,0.6-0.3,0.9-0.5c0-0.3,0.1-0.6,0.4-0.8c0.1-0.1,0.3,0,0.3,0.2c0.1,0.2-0.1,0.3-0.2,0.4
			c-0.2,0.3-0.1,0.6-0.2,0.9c0,0.1-0.1,0.2-0.3,0.3c-0.4,0.2-0.9,0.5-1.1,0.9c-0.1,0.6,0.7,0.4,1,0.6c0.8-0.3,1.7-0.3,2.4-0.7
			c0.9-0.2,1.7-0.4,2.4-1.1c0.1,0,0.1,0,0.2,0c0.1-0.1,0.3-0.1,0.4,0c0,0,0.1,0,0.1,0c0.2,0.1,0.2,0.4,0.1,0.5
			c-0.2,0.4-1.1,0.4-0.8,1.2c0.1,0.2,0.2,0.4,0.4,0.5c0.3,0,0.6,0.1,0.8,0.3c0,0.3-0.4,0-0.6,0.1c-1.2,0.1-2.4-0.4-3.6-0.3
			c-0.5,0.1-1.1,0.3-1.6,0c-0.3,0.2-0.8,0.1-1.1,0.2c-0.2,0.2-0.4,0.2-0.5,0.4c-0.1,1.3,1,2.3,2,2.8c0.2,0.2,0.6,0.5,0.6,0.8
			c-0.4,0.4-0.5,0.9-0.8,1.4c0,0.5,0.3,1.1,0,1.5c-0.1,0.5,0,0.9-0.2,1.4c-0.6,0.4-1.2,1.1-1,1.9c0,0.5-0.3,0.8-0.6,1.1
			c-0.1,0.1-0.1,0.2-0.2,0.4c-0.5,0.2-1-0.1-1.6-0.1c-1.3,0.5-2.9,0.4-4-0.3c0,0-0.1,0-0.1,0c-0.2-0.1-0.4,0-0.6,0
			c-0.2,0-0.5,0.1-0.7,0.1c-0.6,0.5-1.4,0.9-1.7,1.7c-0.3,0.4-0.5,1-0.9,1.5c-0.5,0.4-0.6,1-0.9,1.5c-0.4,0.5-0.2,1.1-0.4,1.7
			c-0.2,0.8,0.1,1.7-0.6,2.4c-0.2,0.3-0.3,0.7-0.5,1.1c-0.2,0.7-1,1-1.4,1.6c-0.1,0.6,0,1.3-0.4,1.7c0,0,0.2,0.1,0.5,0.4
			c-0.9,0.1-1.9,0.2-2.8,0.2c-5.6,0-11.2-1.6-16-4.7c-1.5-0.9-3-2.1-4.4-3.3l1.4,0.3c0.6-0.5,1.2-0.9,2-1.1c0.5-0.3,0.9-0.7,1.5-0.7
			c1.2,0.4,2.7,0.5,3.7-0.4c0.9-0.4,1.7,0.3,2.7,0c0.9-0.3,1.9-0.2,2.3-1.2c0.1-0.2,0.3-0.2,0.5-0.2c0.3-0.3,0.8-0.5,0.6-1.1
			c-0.1-0.1-0.2-0.4-0.4-0.4c-0.1,0-0.3,0.1-0.4-0.1c0-0.2,0-0.3,0.2-0.3c0.6,0.2,0.9-0.3,1.4-0.4c0.1-0.2,0.2-0.5,0.2-0.7
			c0.2-0.4,0.6-0.8,0.4-1.3c-0.1-0.3-0.7-0.4-0.6-0.8c0.4-0.3,1-0.4,1.1-1c0.3-0.1,0.5-0.4,0.7-0.7c-0.3-0.9,0.8-1.4,0.9-2.3
			c0.4-0.5,0.8-1.3,0.5-1.9c-0.3-0.6-1.5,0.2-1.2-0.9c0.3-0.5,1-0.4,1.1-1c0.1-0.4-0.3-0.7-0.4-1.1c-1.3-0.7-2.6-1.6-4.2-1.5
			c-0.3-0.1-0.5-0.2-0.8-0.2c-0.6,0.5-1.4,0.3-2,0.1c-0.3,0.1-0.7,0.3-1,0.1c-0.5,0.4-1.3,0.1-1.9,0.4c-0.8-0.3-1.8-0.2-2.5,0.2
			c-0.2,0.3-0.7,0.5-0.6,1c-0.2,0.5,0,1.1,0.2,1.6c-0.1,0.6,0,1.2-0.4,1.7c-0.1,0.9-0.3,1.7-0.1,2.6c-0.1,0.3-0.2,0.7-0.5,0.8
			c-0.2,0.1-0.4-0.2-0.4-0.3c-0.3-0.6,0.6-0.8,0.4-1.4c-0.3-0.1-0.4,0.2-0.6,0.3c-0.8,0.1-1.5,0.5-2.2,0.8c-0.5,0.2-0.7,0.7-0.7,1.2
			c0.1,0.6-0.6,0.9-0.7,1.4l-1,0.8c-0.5,0.7-0.8,1.5-1.4,2c0,0.3-0.6,0.2-0.4,0.7c-0.3,0.2-0.4,0.5-0.6,0.7l0.1,0.6l-0.1,0.1
			c-1.3-1.6-2.5-3.4-3.5-5.3l-0.1,0.1l0.4-0.6l0.9-0.7c0.3-0.2,0.8,0.1,0.9-0.3c0.2-0.4,0.5-0.7,0.9-0.9c0,0,0.1,0,0.1,0
			c0.2-0.2,0.4-0.3,0.6-0.2c0.1,0.1,0.1,0.1,0.1,0.2c0,0.2,0,0.3,0,0.4c-0.2,0.2-0.2,0.4-0.2,0.6c0,0.2,0.3,0.4,0.5,0.5
			c0.6-0.2,1.1,0.4,1.7,0c0.4-0.2,0.8-0.8,0.7-1.3c0-0.1,0.1-0.1,0.1-0.2c0.2-0.5,0.1-1.2,0.5-1.7c0-0.8,0.5-1.2,0.8-1.8
			c0.6-0.7,1.1-1.3,1.4-2.2c0.4-0.5,0.6-1,1.1-1.3c0.1-0.1,0.1-0.3,0.1-0.5c-0.2-0.2-0.4-0.3-0.6-0.3c-0.1,0-0.2,0-0.3,0
			c-0.4-0.2-0.8-0.4-1-0.7c0.2-1.2,0.3-2.4,0.1-3.5c0-0.5,0.7-0.8,0.3-1.2c-0.4-0.4-0.8-0.7-1.3-1.1c-0.4-0.2-0.4,0.5-0.8,0.4h-0.3
			l-0.5,0.9c0.1,0.5-0.1,1.1,0.4,1.3c0.4-0.1,0.8,0.2,1.2-0.1c0.3-0.1,0.6,0.1,0.7,0.3c0,0.2,0,0.5-0.3,0.5
			c-0.7,0.2-1.4,0.5-2.1,0.7c-0.4,0.2-0.1,0.8-0.5,1.1c0,0.4-0.2,0.9-0.1,1.3c0.1,0.2,0.2,0.3,0.3,0.4c0.3,0.7-0.6,1-0.8,1.6
			c-0.3,0.3-0.7,0.6-1.1,0.8c-0.1,0.3-0.3,0.4-0.6,0.5c-0.3,0.1-0.4-0.2-0.5-0.3c0-0.2,0.1-0.4,0.2-0.5c0.2,0,0.5,0.1,0.6-0.1
			c0-0.2-0.1-0.3-0.3-0.3c-0.6,0-0.5-0.8-1.1-0.9c-0.6-0.2-1.3-0.2-1.9,0c-0.2,0.4-0.3,0.8-0.8,0.9c-0.3-0.1-0.9,0.5-1.1-0.1
			c-0.5-0.3-1.1,0.1-1.6,0.1c-0.3,0.2-0.9,0-1.2,0.3c-0.7-0.1-1.5-0.1-2.2,0.3c-0.5,0.1-1,0-1.4,0.1c0.1-0.2,0.4-0.4,0.3-0.6
			c-0.3-0.2-0.6-0.4-0.9-0.3c-0.3,0.1-0.8,0.1-0.9,0.5c0.1,0.3-0.3,0.5-0.3,0.9l-0.3,0.1c-0.8-0.2-1.5,0-2.2-0.4
			c-0.1-0.3,0.3-0.5,0.5-0.7c0.8-0.9,2.1-0.5,2.8-1.5c0-0.2,0-0.4-0.1-0.6c-0.1-0.2-0.2-0.4,0-0.6l0.1-1.2c0.6-1,1.1-1.9,1.7-2.9
			c0.4-0.1,0.7-0.4,0.7-0.9l0.1-0.1c0.7-0.2,1.6-0.2,2.4-0.1c0.5,0.5,0.8,1.1,1.5,1.2c0.3,0.1,0.7,0.3,1,0l0.5-0.7
			c0-0.4-0.7-0.8-0.3-1.2c0.9,0.1,1,1,1.6,1.5c0.4,0.4,0,0.8,0,1.2c-0.3,0.3-0.8-0.1-1,0.4c-0.4,0.2,0,0.7-0.3,0.9
			c-0.5,0.4-0.8,0.9-0.7,1.5c0,0.3-0.3,0.4-0.1,0.7c0.7,0.1,1.4,0.3,2,0c0.6-0.4,0.3-1,0.5-1.5c0-0.7-0.9-1.3-0.3-1.9
			c0.7,0.1,0.6,1,0.9,1.4c0.1,0.7,0.1,1.6,0.6,2.1c0.2,0.1,0.5,0.2,0.8,0.2c0.2,0,0.5,0.1,0.7,0.2c0.5-0.3,1.1,0.3,1.6-0.2
			c0,0,0,0,0,0c-0.3-0.6,0.3-1.3-0.1-2l0-0.6l0.6-0.6c-0.1-1,0.7-1.8,0.1-2.7c0-0.6,0-1.2,0.1-1.9c0.1-0.3,0.2-0.6,0.4-0.9
			c0.3,0,0.4,0.3,0.7,0.4c1,0.1,1.9-0.6,2.9-0.6c0.1-0.5,0.7-0.2,0.7-0.6c0.6-0.1,1-0.7,1.1-1.3c0.2-0.7-0.7-0.5-1.1-0.8
			c-0.8-0.4-1.9-0.7-2.7-0.2c-0.1,0.4-0.6,0.6-0.8,1c-0.1,0.2-0.4,0.2-0.4,0c-0.2-0.4-0.1-0.9,0.1-1.3c0.6-0.5,1-1.1,1.4-1.5
			c0.3-0.7,0.9-1.1,1.3-1.6c0.5-0.1,1,0.1,1.4-0.2c0.8-0.3,0.4-1.4,0.9-2c0.2-0.6,0.4-1.4,1.1-1.7c0.6-0.2,1.4-0.2,2-0.3
			c1.4-0.2,2.5-1.3,3.9-1.5c0.4-0.1,0.7-0.3,1-0.4c0.6-0.7,1.2-1.4,1.8-2c0.3-0.3,0.6-0.6,1-0.9c0.2-0.3,0.5-0.7,0.2-1.1
			c-0.3-0.4-0.8-0.8-0.5-1.4c0.1-0.3,0.2-0.7,0-0.9c-0.5-0.3,0.1-0.8-0.2-1.1c0.1-0.6-0.5-1.4,0.3-1.7l1.7-0.5
			c0.1,0,0.1-0.1,0.1-0.2c0-0.2-0.1-0.3-0.1-0.5c-0.6-0.3-1.3-0.3-1.9-0.1c-0.3,0.1-0.4,0.3-0.5,0.6c0,0.1-0.1,0.1-0.2,0.2
			c0,0.2-0.1,0.4-0.3,0.5c-0.2,0-0.4-0.3-0.5-0.4c0-0.1,0-0.2,0-0.2c0.1-0.5,0.1-1,0.3-1.4c1.9-0.4,3.9-0.7,5.8-0.7
			C227.2,132.3,228.1,132.8,227.7,133.5 M255.6,199c0.3-0.3,0.6-0.5,0.9-0.8c0.3,0,0.6,0.2,0.7,0.4c0.3,0.5-0.3,0.9-0.5,1.2
			c-0.3,0.1-0.7,0.1-1-0.1C255.6,199.5,255.6,199.2,255.6,199 M253,206.9c0.1,0.2,0.3,0.4,0.1,0.7c-0.5,0.3-0.9,0.9-1.6,0.8
			c-0.1,0.1-0.3,0.3-0.4,0.1c-0.4-0.7,0.7-1,0.9-1.4c-0.1-0.6,0.3-1.2-0.2-1.7c0.3-0.4,0.7-0.7,0.7-1.3c0.3-0.2,0.5-0.3,0.6-0.6
			c0.1-0.8-0.7-1.2-0.6-1.9c0.5-0.3,0.4-1,1-1.2c0.2,0.1,0.3,0.2,0.4,0.3c0,0.2-0.3,0.4-0.1,0.6c0.3,0.4,0.8,0.6,1.3,0.5
			c0.6-0.4,1.4-0.8,1.7-1.5c0.2-0.2,0.7-0.1,1-0.1c0.4-0.3,0.9-0.1,1.2-0.5c0.8-0.1,1.6,0.1,2.4,0.2c0.2,0.1,0.5,0.2,0.6,0.5
			c-0.1,0.5,0.2,1.1-0.5,1.3c-0.9,0.7-2.1,0.7-3.1,1.1c-0.8-0.1-1.2,0.6-1.8,0.8c-0.3,0.3-0.7,0.5-1.1,0.6c-0.7,0.6-1.4,0.9-2.1,1.5
			C253.4,206.2,252.8,206.4,253,206.9 M230.7,100.4c7.2,0.3,14.3,1.9,21,4.7c6.6,2.8,12.6,6.6,17.9,11.5l-0.8,0.8l-0.6-0.4
			c-0.2-0.3-0.5-0.7-0.9-0.4c-0.2,0.2-0.4,0.2-0.7,0.2c-0.1-0.2-0.2-0.4-0.2-0.6c0.3-0.2,0.6-0.5,0.5-0.8c-0.2-0.3-0.6-0.1-0.8,0
			c-0.7,0.1-1.2,0.5-1.7,0.9c-0.9,0.4-1.4,1.3-2.2,1.9c-0.2,0.3-0.5,0.3-0.8,0.4c-0.5,0.3-0.9,0.8-1.2,1.3c0,0.4,0.4,0.5,0.6,0.7
			c0.4-0.1,0.6,0.3,1,0.3c0.3,0.2,0.4,0.7,0.8,0.6c0.7-0.2,1.2-0.9,2-0.9c0.1,0,0.4-0.1,0.5,0.2c0,0.1,0,0.3,0,0.4l-5,5
			c-0.5,0-1.1-0.3-1.4,0.2c-0.4,0.3-0.9,0.5-1.4,0.7c-0.8,0.4-1.5,1.2-2.3,1.6c-0.5,0.5-0.9,1-1.4,1.5c-0.2,0.1-0.4,0.3-0.6,0.4
			c-0.3,0.3-0.8,0.6-0.6,1.1c-0.3,0.2-0.1,0.4,0,0.7c0.1,0.3,0.5,0.6,0.2,0.8c-0.5,0.3-1.1,0.3-1.5,0.6c-0.5,0-0.8,0.3-1.2,0.4
			c-0.6,0.1-1.5,0.4-2.1-0.1c-0.1-0.8-0.8-1.6-1.5-1.7c-0.7-0.1-0.9-0.9-1.6-1.3c-0.8-0.2-1.5-0.8-2.4-0.8c-0.7,0.8-1.8,0.8-2.5,1.5
			c-0.8,0.6-1.7,0-2.4,0c-0.1-0.2,0-0.4,0-0.6c0.3-0.4,0.9-0.2,0.9-0.7c0.2-0.1,0.4-0.2,0.5-0.4c0.1-0.2,0.3-0.3,0.5-0.3
			c0.8-0.8,1.8-0.9,2.8-1.2c0.6-0.5,1.4-0.6,2-1.2c0.8-0.5,0.5-1.6,0.9-2.3c-0.1-0.6,0.3-1.2,0.2-1.7c-0.1-0.2-0.2-0.3-0.3-0.5
			c-0.1-0.4-0.5-0.4-0.8-0.6c-0.9-0.2-1.4,0.6-1.9,1c0,0-0.1,0.1-0.1,0.1c-0.6,0.7-1.8,0.4-2.2,1.4c-1,0.5-1.6,1.5-2.2,2.3
			c0.1,0.3-0.4,0.5-0.1,0.8c-0.1,0.1-0.2,0.2-0.2,0.3c-2.2-0.6-4.4-1-6.8-1.2V100.4z M230.7,68.6c9.5,0.3,18.9,1.9,27.9,5
			c9.5,3.3,18.4,8,26.4,14.1c2.6,2,5,4,7.3,6.2L273,113.2c-5.7-5.3-12.2-9.5-19.4-12.5c-7.3-3.1-15-4.8-22.9-5.1V68.6z M276.3,75.3
			c0.6-0.6,1.2,0,1.8,0c0.6,0.1,1.3,0.3,1.9,0.2c0.8,0.2,0.7,1.5,1.8,1.5c0.1,0,0.1-0.1,0.2-0.2c0.1-0.2-0.1-0.5,0.1-0.7
			c0.5,0,0.2,0.6,0.6,0.7c0.4,0.4,0,1.3,0.7,1.4c0.7,0.5,0.7,1.3,1.3,1.8c0.1,0.5,0.4,0.9,0.5,1.3l0.1,0.2c-0.1,0-0.1,0.2-0.2,0.4
			c-3.2-2.2-6.4-4.3-9.9-6.1c0.2,0,0.4-0.1,0.5-0.1C275.6,75.2,276.1,75.5,276.3,75.3 M230.7,49.8L230.7,49.8l0.8-0.7
			c0.8-0.2,1.8-0.2,2.2-1.1c0-0.5,0-0.9-0.5-1c-0.2-0.1-0.4-0.2-0.5-0.3c-0.7-0.2-1.5,0-1.8-0.7l-0.2,0.2v-9.6
			c10,0.2,19.9,1.6,29.6,4.2c8,2.1,15.8,5,23.3,8.7l-1.1,0.4c0.6,0.8-0.6,1.1-0.5,1.8c-0.1,0.2-0.5,0-0.7,0.1
			c-0.5,0.1-0.6,0.6-0.6,1c-0.2,0.5,0.3,0.9,0.5,1.2c0.1,0.2,0.4,0,0.5,0c0.2-0.2,0.2-0.6,0.3-0.8c0.2,0.2,0.3,0.4,0.3,0.7
			c0.5,0.4,1.1,0.6,1.6,1c0.4,0.8,1.2,1.2,1.9,1.5c0.8,0.7,0.6,1.8,1.4,2.3c0.2,0.9,0.5,1.7,0.6,2.6c-0.1,0.9,0.3,1.6,0.5,2.5
			c0.3,0.8,1.2,0.8,1.8,1.2c0.2,0.3,0.7,0.4,0.7,0.8c0.4,0.2,0.1,0.6,0.2,0.9c0.1,0.7,0,1.5-0.2,2.2c-0.5,0.3-0.3,0.9-0.3,1.4
			c0.3,0.5,0.3,1.2,0.7,1.7c0.6,0.2,1,0.7,1,1.4c-0.1,0.3,0.1,0.5,0.2,0.7c0.2,0.9-0.3,2,0.5,2.7c0.1,0.5,0.5,0.6,0.9,0.7
			c1-0.3,2.1-0.3,2.9-1l0.6-0.6c1-0.3,2-1.2,3.2-0.6c0.4,0.4,1.1,0.6,1.2,1.2c1.2,0.9,2.4,2.1,2.7,3.6c0.2,0.4,0.4,0.7,0.3,1.2
			l0,0.3l-6.7,6.7l-0.2-0.3c-0.5,0-0.6-0.5-0.9-0.9c-0.1-0.6-0.5-1.2-0.1-1.7c0.5-0.2,1.2,0,1.6-0.4c0.2-0.2,0.4-0.6,0.1-0.9
			c-0.2-0.4-0.5-0.9-1-1c-0.4,0.2-0.6,0.3-0.7,0.7c0.1,0.3-0.1,0.7-0.2,0.9h-0.1c-0.2-0.6-0.6-1.3-0.9-2c-0.2-0.2-0.4-0.4-0.5-0.8
			c0-0.1,0-0.2,0-0.4c0.2-0.2,0.3-0.5,0.1-0.7c-0.6-0.6-0.4-1.8-1.2-2.3c-0.7-0.7-1.7-1-2.4-1.9c-0.3,0-0.4-0.1-0.6-0.2
			c-0.6,0.1-1.1,0.1-1.5,0.6c-0.8-0.1-1-1-1.6-1.4c-0.4-0.5-0.6-1.2-1.1-1.6c-0.1-0.8-0.8-1.3-1.3-1.9c-0.7-0.4-1.1-1.1-1.6-1.7
			c-0.4-0.8-1.4-0.9-1.6-1.7c-0.2-0.3-0.6-0.4-0.9-0.4c-0.5,0-0.9,0.3-1.3,0.7c-0.1,0.9,0.7,1.5,1.3,2.2c0.4,0.8,1.1,1.6,1.6,2.4
			c-0.2,0.8,0.8,0.9,0.7,1.7c-0.1,0.2-0.3,0.2-0.4,0.2c-0.2-0.3-0.4-0.4-0.7-0.4c-0.2,0.1-0.5,0.3-0.7,0.2c-0.7-0.4-0.4-1.3-0.7-1.8
			c-0.5-0.4-0.9-0.6-1.3-1c-0.2-0.1-0.3-0.1-0.4-0.3l0.3-0.6c0-0.7-0.7-1-1-1.5c-0.5-0.4-0.9,0.3-1.4,0.5c-0.4,0.1-0.5,0.6-0.7,0.9
			c0.2,0.4,0.7,0.5,1.1,0.7c0.3,0,0.6,0,0.7,0.3c0,0.3-0.3,0.2-0.5,0.3c-0.5,0-0.9-0.3-1.3-0.5c-0.7,0.1-1.4-0.2-1.9,0.4
			c-0.3,0.4,0.1,1.3-0.6,1.3c-0.4-0.4-0.1-1-0.7-1.3c0-0.3-0.3-0.6-0.6-0.8c-0.7,0.2-1,1-1.1,1.6c0,0,0,0.3,0.2,0.6
			c-3.8-1.9-7.8-3.6-11.9-4.9c-9.5-3.3-19.4-5.1-29.4-5.3V49.8z M230.7,27.9c1,0.2,2.1,0.1,3-0.1c0.9,0.1,2,0.2,2.5,1.2
			c0.5,0.5,1,1,1.7,0.8c0.5-0.2,1-0.5,1.5-0.3c0.7,0.7,0.8,1.9,2,2l1.5,0.2c0.7-0.2,1.3,0.2,2,0.2c0.4-0.2,0.3-0.6,0.2-0.9
			c-0.4-0.7-1.2-0.9-1.8-1.4c-0.9-0.2-0.9-1.1-1.4-1.7c0-0.2,0-0.3,0.1-0.5c0.2-0.2,0.2-0.5,0.4-0.7c0.1-0.7-1-0.6-1-1.4
			c-0.6-0.1-0.6-0.8-0.7-1.1c0,0,0-0.1,0.1-0.2c0.1,0.2,0.2,0.4,0.5,0.5c0.1,0.4,0.6,0.2,0.8,0.4c1.3-0.2,2,1.2,3.2,1
			c1-0.2,1.9-0.6,2.8-1.1c1.2-0.3,2.6-0.4,3.7-1c0.4,0,1-0.1,1.3,0.2c0.9,0,2,0.2,2.8-0.3c0.5,0,0.8-0.3,1.2-0.4
			c0.2-0.2-0.1-0.6,0.2-0.6c0.2,0,0.3,0.2,0.4,0.3l1.6-0.2c0.4,0.1,0.9,0,1.3-0.3c-0.1-0.7-1-0.8-1.1-1.5c-0.3-0.5-1.1-0.2-1.2-0.9
			c-0.6,0-1.1-0.3-1.7-0.3c-0.3-0.3-0.7-0.4-1-0.6c-0.9,0-1.5-0.5-2.3-0.5c-0.7,0.2-1.5,0.1-2.2,0.4c-0.5,0.3-1.1,0.4-1.5,0.9
			c-1.2,0.6-2.5,0.9-3.9,1.1c-0.8,0.2-1.7,0.6-2,1.4c-0.5,0.5-1-0.4-1.6-0.1c-0.3,0.1-0.7,0.3-0.8,0.6c-0.1,0.3-0.3,0.7-0.5,0.8
			c-0.2-0.1-0.1-0.5-0.2-0.7c-0.4-0.6-1.1-0.4-1.6-0.6c-1.4-0.2-2.4,1-3.9,1c-0.5,0.2-1.1,0.4-1.3,0.9c-0.4,0.4-1,0-1.3,0.4
			l-0.4,0.1c-0.4,0.2-1,0.7-1.5,0.9V4.8c20.3,0.3,40,4.5,58.7,12.3c9.3,3.9,18.3,8.8,26.7,14.4c7.6,5.1,14.8,10.9,21.4,17.2
			L321,65.2l0-0.4c-0.1,0.1-0.2,0.1-0.3,0.1c0-0.3-0.1-0.6-0.3-0.9c-0.6-0.4-0.9-1.2-1.5-1.4c-0.7-0.3-1.7,0-2.1-1
			c-0.2-0.4-0.6-0.5-0.6-1c-0.1-0.7-0.1-1.6-0.5-2.2c0-0.4-0.3-0.8-0.3-1.3c-1.1-0.9-2.4-1.9-2.9-3.2c-0.6-0.7-1.4-1.3-1.7-2.1
			c-1-0.6-2-1.3-3.1-1.6c-0.7,0-1.3-0.3-1.8-0.8c-0.7-0.7-1.3-1.4-1.7-2.3c-0.6-0.6-1.4-1-2.3-0.6c-0.8,0.5-1.6-0.1-2.4-0.4
			c-1.5-0.6-3.2-1.8-4.9-0.9c-1.1,0.7-2.7,0.3-3.8,1.3c-0.4,0.4-1.1-0.2-1.3,0.5v0c-8.8-4.7-18.1-8.3-27.7-10.9
			c-10-2.6-20.4-4.1-30.9-4.3V27.9z M301.2,103.6c-0.2,0.4-0.6,0.7-0.2,1.1c0.2,0.3,0.5,0.9,1,0.8c0.2,0,0.2-0.3,0.4-0.3h0
			c1,1.3,2,2.7,3,4c1.6,2.3,3,4.6,4.4,7c-0.7,0.5-2.1-0.3-2.3,1c-0.2,0.7,0,1.4-0.2,2c-0.5,0.2-1,0.7-1,1.3c0.2,0.2,0.1,0.6,0.4,0.9
			c0.5,0.1,0.8,0.6,1.3,0.6c0.6,0.4,1.2,0.7,2,0.5c0.5,0.1,1,0.6,1.5,0.8c0.3,0.6,0.9,1.1,1.6,1.5c0.5,0.2,0.9,0.5,1.4,0.9
			c1.4,3.2,2.5,6.5,3.5,9.8c-0.3,0.4-0.6,0.9-0.5,1.4v0c0.1,0.7,0.4,1.4,0.5,2.2c-0.7,0.4-1.5,1.1-1.6,1.9c-0.1,0.5-0.5,1-0.9,1.3
			c-0.2,0.7-0.7,1.2-0.7,1.8c-0.6,0.8-1.5,1.5-2.1,2.3c-0.7,0-1.3-0.1-2,0c-0.4-0.3-1.1,0.4-1.2-0.3c-0.1-0.6,0.5-1.1,0.3-1.8
			c-0.3-0.7,0.5-1.3,0.7-2c0.5-0.5,1-0.9,1-1.7c-0.3-0.3-0.5-0.7-0.3-1.1c0.3-0.3,0.8-0.4,0.8-0.9c0.1-0.5-0.3-0.9-0.7-1.1
			c-0.4-0.1-0.6-0.2-0.9-0.5c-0.5-0.5-0.7-1.2-1.4-1.5c-0.3,0.1-0.3-0.3-0.6-0.3c-0.9-0.5-1.9-0.6-3-0.6c-0.2,0.2-0.5,0.2-0.8,0.3
			c-1,0.5-1.7,1.4-2.4,2.1c-0.2,0.3-0.4,0.5-0.6,0.7c-0.6,0.7-0.7,2.2-1.9,2.1c-1-0.1-1-1.2-1.8-1.6c-0.3-0.4-1-0.3-1-0.9
			c-0.1,0-0.1-0.1-0.2-0.2c-0.1-0.1-0.1-0.3-0.1-0.4c0.1-0.4,0.5-0.6,0.8-0.9c0.2,0,0.3,0.2,0.3,0.3c0.1,0.3,0,0.6,0,0.9
			c0,0,0,0,0,0.1c0.2,0.4,0.2,0.9,0.8,1c0.8-0.1,1.6,0.2,2.2-0.6c0.1-0.2,0.1-0.3,0.1-0.5c0-0.2-0.1-0.5-0.1-0.7
			c-1-0.5-1.8-1.9-3-1.3c-0.7-0.2-0.5-1.2-1.3-1.3c-0.3,0.2-0.6,0.3-0.7-0.1c-0.1-0.3-0.4-0.4-0.5-0.6c-0.5-0.6,0.1-1.5-0.6-2
			c-0.2-0.3-0.4-0.6-0.6-0.8c-0.8-0.9-1.9-1.5-2.9-1.9c-1-0.1-1.9-0.5-2.9-0.6c-0.4-0.1-0.7-0.5-1.2-0.4c-0.3-0.3-0.8,0-1.1-0.2
			l-1.3,0.5c-1.4-2.2-2.8-4.3-4.4-6.4l1.9,0.3c0-0.5,0.9-0.4,0.6-1c-0.6-0.9-1.9-0.2-2.4-1.2l-0.5,1.4c-1.1-1.4-2.3-2.8-3.6-4.1
			l19.3-19.3C297.5,99.2,299.4,101.3,301.2,103.6 M316.8,65.9c0.6-0.4,1.3-0.4,1.9-0.5c0.1,0.2,0.4,0.2,0.4,0.4
			c0,0.2-0.2,0.2-0.3,0.4c-0.8,0.7-1.8,0.9-2.9,0.9C315.8,66.6,316.5,66.1,316.8,65.9 M308.4,92.5c0.5,0.5,1.1,0.9,1.9,1
			c0.2-0.1,0.4-0.2,0.6-0.5c0-0.3-0.2-0.5-0.5-0.6c-0.2-0.1-0.3-0.1-0.4-0.2c0.1-0.3,0.4,0,0.6-0.1c1.1-0.2,2,0.2,3,0.2
			c0.5,0.4,0.5,1,0.6,1.5c-0.1,1.3,1.2,2,1.8,3.1c0.7,1,2,1.1,3,1.6c0.7,0.5,1.8,0.5,2.2,1.5c0.6,0.5,1.5,0.7,1.9,1.5
			c0.3,0.1,0.5,0.6,1,0.4c0.6,0.3,1.2-0.4,1.8,0c0.8,0.3,1.3,1,2,1.5c0.5,0.3,0.6,0.9,1.1,1.2c0,0.4,0.4,0.2,0.6,0.5
			c1,0.7,1.5,1.8,2.3,2.7c0.2,0.4,0.5,0.9,0.9,1.2c0.3,0.7,1.2,1.2,1.6,1.9c0.4,0.2,0.7,0.6,1,0.9c0.1,0.6-0.1,1.4,0.6,1.8
			c0.9,0.4,1.8-0.1,2.7-0.1c0.6-0.2,1-0.8,1.7-1c0.6,0,1.1-0.2,1.7-0.7l1-1c3.2,7.2,5.7,14.6,7.5,22.2c1.9,8.2,3,16.7,3.2,25.3
			h-27.2c-0.1-4.7-0.6-9.3-1.4-13.9l0.1-0.2c0.4-0.8,0.9-1.7,1.2-2.5c0.5-0.5,0.9-1.2,0.7-2c0.5-0.6,0-1.5,0.1-2.2
			c0.3-0.5,0.2-1.1,0.4-1.6c-0.3-0.4-0.3-0.9-0.7-1.3c-1.3,0.2-2.3,1.3-3.1,2.3c-0.4,0.2-0.5,0.7-0.8,1c0,0-0.3,0.9-0.3,0.9
			c-0.1,0.3,0,0.7-0.3,0.9c-0.1,0.5-0.3,1-0.5,1.5c-0.2,0.5-0.3,1.1-0.5,1.7c0.3,0.8-0.7,1-0.7,1.6c-0.2,0.2-0.3,0.4-0.3,0.6h0
			c0,0,0,0,0,0c-0.1,0.5-0.1,1-0.4,1.4c-0.3,0.5-0.5,1-0.8,1.5c-0.1,0.9-0.2,1.8,0.1,2.6c0,0.5-0.4,0.8-0.1,1.4
			c-0.1,0.3,0.3,0.5,0.5,0.7c0.6,0.3,1.1-0.4,1.7-0.2l0-0.1c0.2,1.9,0.3,3.8,0.4,5.8h-19.1l0-0.2c-0.1-0.1-0.2-0.3,0-0.5
			c0.5-0.4,1.1-0.5,1.7-0.6c0.4-0.5,1-0.9,1.7-1c0.8-0.6,2.4-0.6,2.2-2c-0.6-0.7-0.8-1.6-0.9-2.6c0.2-0.6,0.7-0.7,1.2-0.9
			c0.2-0.1,0.4-0.2,0.5-0.3c0.6-0.1,1.1-0.3,1.7-0.2c0.4,0,0.7-0.3,1.1-0.5c1.3,0.2,2.3-0.3,3.6-0.2c0.3-0.3,1.1-0.3,1-0.9
			c0.2-0.3,0.1-0.6,0.3-0.9c0.5-0.6,0.9-1.3,1.4-1.9c1.2-0.4,2.1-1.6,2.5-2.7c0.3-0.8,0.9-1.4,1-2.2c0.3-0.5,0.4-1,0.3-1.5
			c0.1-0.2,0.2-0.4,0.4-0.6l0.2-0.6c0-0.1-0.1-0.2-0.1-0.3c0-0.3,0.3-0.6,0.4-1c-0.1-0.6-0.1-1.4,0.4-1.8c0.6,0.2,1-0.5,1.5-0.6
			c0.2-0.3,0.5-0.7,0.2-1c-0.5-0.3-1.2-0.6-1.9-0.6c-0.2,0.1-0.4,0.5-0.6,0.1c-0.1-0.3-0.2-0.5-0.2-0.7c0.3-0.1,0.7,0.2,0.9,0
			c0.5-0.3,0.3-0.9,0.3-1.3c-0.3-0.3,0-0.7-0.3-1c-0.3-0.2-0.7-0.4-1.1-0.3c-0.2,0.1-0.4,0.3-0.6,0.3c-0.7-0.8,0.4-1.4,0.3-2.2
			c0.3-0.3-0.1-0.6,0.1-1c-0.1-0.5-0.4-0.9-0.6-1.4c0.2-0.6,0-1.2-0.3-1.7c-0.1-0.1-0.1-0.2-0.2-0.3c-0.3-0.5-0.2-1.3-0.5-1.8
			c-0.2-0.3-0.1-0.7-0.4-1c0.1-1.2-1.2-1.9-1.7-2.9c-0.3-0.2-0.5-0.4-0.9-0.2c-0.4-0.2-1.3,0.2-1.3-0.6l-1.1-2
			c-0.1-0.5,0.4-0.8,0.5-1.2c0.3-0.6,0.9-0.9,1.5-1.2c0.1-0.3,0.3-0.9,0-1.2c-0.3-0.5-0.8-0.5-1.2-0.5c-0.5,0.1-1,0.3-1.5,0.7
			c-0.2,0-0.6,0.2-0.6-0.1c0.2-0.4,0.6-0.8,0.9-1.1c0-0.6,0.4-1.1,0.2-1.7c-0.3-0.4-0.6-1-1.3-0.8c-0.6-0.2-0.9,0.4-1.4,0.6
			c-0.6,0-1.3-0.1-1.6-0.7c-0.2-0.4-0.6-0.7-0.5-1.2c-0.6-0.4-0.9-1-1.3-1.6c0.1-0.7,0.5-1.5,0.3-2.3c-0.3-1-1.7-0.3-1.9-1.4
			c-0.5-1-1.5-1.9-2-2.9c-0.5-0.4-1.1-1.1-1.9-0.8c-0.1,0.1-0.3,0.2-0.5,0c-0.3-0.3-1-0.6-0.7-1.2c0.2-0.3,0.2-0.7,0.3-1
			c-0.3-0.4-0.1-1.2-0.4-1.7c-0.2-0.2-0.7-0.4-0.8-0.8l-0.3-0.5l4.5-4.5l0.1,0.7c1,0.2,1.3,1.3,1.7,2.1c0.6,0.8,1.8,0.4,2.2,1.2
			c0.2,0.2,0.4,0.4,0.4,0.6c-0.3,0.2-0.7,0.3-1.1,0.1C308.4,92.2,308.4,92.4,308.4,92.5 M272.4,121.5c0.1-0.3-0.3-0.9,0.3-1
			l-0.3-0.2l0.4-0.4c0.3,0.3,0.6,0.6,0.9,0.9l-0.7,1.1c-0.3,0.4,0.4,0.6,0.3,0.9c0.5,0.8,1.4,0.5,2.2,0.6l0.1-0.4
			c0.4,0.5,0.8,1,1.2,1.5l-0.3,0.1c-0.1,0.3-0.4,0.6-0.3,0.9c0.3,0.5,0.8,0.9,1.3,0.9c0.2-0.1,0.4-0.2,0.6-0.2
			c0.7,1,1.4,2.1,2.1,3.1c-0.2,0-0.4-0.1-0.6-0.1c-0.3,0.3-0.7,0.6-1,0.9c-0.2,0.3-0.4,0.5-0.3,0.9c0,0.2,0,0.3-0.2,0.4
			c-0.6-0.2-1.1-0.6-1.9-0.6c-0.3,0.2-0.7,0.2-0.9,0.6c0.1,0.6,0.4,1.1,0.3,1.7c0.3,0.9,0.8,1.7,1.4,2.5c0,0.1-0.1,0.3-0.3,0.3
			c-0.7,0.1-1.2-0.4-1.8-0.7c-0.3-0.7-1.1-0.8-1.7-1.1c0.1-0.3,0.5,0,0.7-0.1c0.5,0,0.4-0.5,0.9-0.7c0.1,0,0.2-0.2,0.1-0.3
			c-0.2-0.4-0.6-0.7-0.9-0.8c-0.2-0.7-0.9-1-0.8-1.7c0.1-0.1,0.3-0.2,0.5-0.3c0.3-0.2,0.6-0.4,0.8-0.7c0.1-0.7,0-1.5,0.8-1.7
			c0.3-0.4,0.7-0.8,0.7-1.2c-0.4-0.7-0.8-1.6-1.6-1.9l-0.2-0.2c-0.9-0.2-2-0.2-2.6,0.5c-0.5,0.2-0.7,0.7-1,1.1
			c-0.7,0.4-0.9,1.8-2,1.4c-0.7,0-1.4,0.3-2.1,0.2c-0.2-0.4-0.2-0.9-0.2-1.3l3.1-3.1c0.2,0,0.4,0,0.5-0.1c0.6-0.3,1.1,0.1,1.7,0
			c0.3,0,0.7,0,0.8-0.3C272.4,122.3,272.7,121.9,272.4,121.5 M265.4,192.2c0.4,0.3,0.9,0.3,1.4,0.2c0.4-0.2,1.2-0.5,1.6-0.1
			c0.4,0.1,0.8-0.2,1.3,0c0.7-0.3,1.2,0.4,1.8,0.5c0.6,0.4,1.3,0.7,1.7,1.4c0.1,0.4-0.4,0.6-0.4,1c-0.6,0.4-0.5,1.2-1.2,1.3
			c-0.8,0.1-1-0.6-1.4-1.1c0-0.6-0.5-0.8-0.9-1c-1.1-0.1-2.3,0.3-3.3-0.2c-0.4,0-0.8-0.1-1.1-0.4c-0.2-0.1-0.2-0.3-0.2-0.5l-0.6-0.6
			c-0.2-0.6-0.4-1.4,0.2-1.9c0.5-0.2,0.6-0.9,1.2-0.8l0.2,0.3c0.2,0.2,0.4,0.4,0.4,0.7C266,191.5,265.2,191.6,265.4,192.2
			 M290.9,216.2c-0.6,0.6-0.8,1.5-1.4,2c-0.1,0.3-0.4,0.6-0.4,0.9c-0.1,0.2,0,0.4,0.1,0.5c0,0.5-0.3,0.9-0.4,1.4
			c-0.2,0.5-0.7,0.4-1,0.6c-0.9-0.5-1.9,0.1-2.7,0.1c-0.8,0.2-1.6,0.6-2.6,0.6c-0.8,0.5-1.8,0-2.5-0.2c-0.4-0.3-0.9-0.5-1.4-0.6
			c-0.8,0.1-1.3-0.6-2.1-0.4c-0.7-0.3-1.6-0.2-2.3-0.5c-0.8-0.5-1.8-0.5-2.6-1c-0.3-0.2-0.7-0.3-1.1-0.5c-0.3-0.1-0.6-0.2-0.9-0.1
			c-0.7-0.2-1.4-0.4-1.9-0.9c-0.6-0.3-1.4-0.2-1.9-0.8c-1.1-0.1-2.1,0.1-3.1-0.3c-0.2-0.1-0.2-0.4-0.2-0.5c0.3-0.1,0.4-0.5,0.7-0.5
			c0.6,0,1.2-0.2,1.7-0.1c0.2,0.3,0.6,0.5,1.1,0.4c0.1-0.1,0.1-0.3,0.1-0.4c-0.4-0.4-1.1-0.7-1-1.3c0.2-0.2,0.4-0.3,0.7-0.6
			c0.3,0,0,0.3,0.2,0.5c0.2,0.7,0.7,1.2,1.3,1.7c1.1,0.2,2.2,0.6,3.3,0.7c1,0.5,2.2,0.6,3.2,1.2c1,0.8,2.4,0.1,3.5,0.5
			c0.5,0.1,1.1,0.1,1.6,0.5c0.3,0,0.6,0.1,0.9,0.2c0.6,0.2,1.2,0.6,1.8,0.7c0.7,0.5,1.7,0.6,2.5,0.9c1.1-0.2,2.3-0.2,3.3-0.7
			c0.2,0.1,0.4,0,0.6-0.1c0.1-0.3,0.3-0.5,0.3-0.8c0.1-0.3,0-0.6-0.2-0.9c0-0.6,0.6-1,1-1.5c0.5-0.4,0.7-0.9,1-1.3
			c-0.1-0.8,0.1-1.4,0.4-2c0.1-0.4,0.5-0.6,0.6-1c0-0.1,0-0.1,0-0.2c0.2-0.7,0.4-1.5,0.3-2.2c0.2-0.7,0.2-1.5,0.3-2.1
			c0.3-0.3,0.2-0.8,0.6-1.1c0.1-0.6,0.8-0.9,0.8-1.4c0-0.1,0-0.1,0-0.2c0.1-0.8-0.7-1.5-0.1-2.1c0.1-0.7-0.1-1.2,0-1.9
			c0.2-0.3-0.1-0.6-0.1-0.8c-0.6-0.4-1-1-1.2-1.7v0c-0.1-0.3-0.1-0.8-0.6-0.9c-0.4-0.7-1.2-0.6-1.9-0.5c-0.8,0.5-1.6,0.5-2.4,0.8
			c-0.5,0.1-1.1,0.1-1.4,0.6c-0.1,0.4,0.1,0.8-0.3,1c-0.2,0.3-0.4,0.5-0.5,0.9c0.1,1-0.6,1.9-1.4,2.5c-0.7,0-1.5-0.5-2.2,0
			c-0.5,0.2-0.4,0.8-0.9,0.9c-1.2-0.1-2.4,0.4-3.2-0.6c-0.2-0.1-0.4-0.2-0.5-0.4c0.1-0.3,0.7-0.2,0.8-0.6c0.3-0.7,1-0.3,1.6-0.4
			c0.8-0.1,1.4-0.2,2.2-0.1c0.7-0.2,1.4-0.5,1.9-1c0.7-0.5,0.5-1.4,0.9-2c0.1-0.1,0.2-0.2,0.3-0.3c0.2-0.4,0.4-0.8,0.9-0.9
			c0.8-0.1,1.5-0.2,2.2-0.3c1-0.6,1.6-1.6,2.3-2.4c0.1-0.4,0.3-0.7,0.4-1.1c0.2-0.7,0.9-1.1,1.2-1.8c0.1-0.1,0.1-0.3,0.2-0.5
			c0.2-0.4-0.4-1,0.3-1.2c0.6-0.8,1.7-1.4,1.7-2.5c0.1-0.7,0.6-1.3,0.5-2c0-0.5,0.3-0.8,0.2-1.3c0.1-0.1,0.3-0.2,0.5-0.2
			c0.2,0.3,0.2,0.8,0.1,1.1c0.2,0.5-0.1,0.9,0.2,1.4c-0.1,0.3,0.1,0.5,0.2,0.7c0.3,0.3,0.9,0,1.2,0.3c0.4,0,0.6,0,1-0.2
			c0.4,0.1,0.6-0.3,0.9-0.4c0.2-0.3,0.6-0.6,0.5-1c0-0.2,0.1-0.3,0.2-0.5c0.1-0.3,0-0.8,0.5-0.9c0.5-0.2,0.9,0.2,1.4,0.3
			c0.8,0.6,2,0.6,2.9,0.5c1-0.5,2-0.7,2.8-1.4c1.4-0.3,2.8-0.5,4.1-1.1c1.2-0.2,2.3-0.6,3.6-0.6l0.5-0.5c0.1-0.9-0.6-1.5-0.9-2.3
			l-0.4-0.9c-0.1-0.2-0.3-0.3-0.5-0.5c-0.8-0.7-1.6-1.2-2-2c-0.5-0.3-1.1-0.5-1.4-1.1c-0.5-0.7-1.5-0.2-2.2-0.7
			c-0.5-0.5-0.8-1-0.8-1.6c-0.2-0.4,0.1-0.9-0.3-1.4c-0.2-1.2-1.8-1.6-1.8-3c-0.2-0.6-0.1-1.4-0.7-1.8c0-0.4-0.4-0.6-0.4-0.9
			c-0.4-0.5-1.1-0.8-1.4-1.4c0-0.1-0.1-0.2-0.1-0.3c-0.1-0.3-0.4-0.4-0.3-0.7l0.1-0.6h19.9c-0.2,12-2.7,23.8-7.4,34.9
			c-4.2,9.9-10,18.9-17.3,26.8c0.1-0.5,0.2-0.8,0.2-0.8c-0.2-0.6,0-1.3-0.1-1.8c0.1-0.5-0.2-1-0.1-1.5c-0.2-0.2,0-0.5-0.2-0.7
			c0-0.2-0.1-0.3-0.1-0.5c-0.2-0.7-0.3-1.4-0.7-2.2c0.1-0.8-0.4-1.3-0.5-2c-0.2-0.6-0.5-1.1-1-1.6c-0.4-0.3-1-0.3-1.5-0.1
			c-0.8,0.6-0.9,1.5-1.6,2.1C291.4,215.8,290.9,215.9,290.9,216.2 M296.8,263.6c0-0.7,0.8-1.1,1.2-1.7c0.3-0.5,0.4-1.1,0.5-1.7
			c0.1-0.6,0-1.2-0.3-1.6l-0.6-0.7c-0.2-0.6-0.5-1.4-1.2-1.7c0-1,1-1.6,1.5-2.3c0.7-0.7,1-1.5,1.5-2.3c0.3-0.3,0.5-0.8,1-1
			c0.5-0.5,0.7-1.2,1.2-1.6c0.1-0.3,0.3-0.4,0.5-0.6c0.2-0.6,0.4-1.4-0.2-1.9c-0.4-0.8-1.3-1.3-1.5-2.2c-0.5-0.4-1-0.8-1.3-1.4
			c-0.4-0.4-0.6-1-1.3-1.1c-0.4-0.3-1.2,0-1.5-0.6c-1-0.3-1.4-1.1-2.1-1.8c-0.9-0.9-0.6-2.4-0.4-3.6c-0.1-0.6,0.6-1,0.9-1.4
			c0,0,0.1-0.4,0.2-0.9c0.6-0.6,1.2-1.1,1.8-1.7l6.6,6.6l-0.3,0.1c0.3,0.7-0.8,0.3-0.9,1.1c-0.1,0.3,0.1,0.6,0.4,0.7
			c0.6,0.1,0.8-0.5,1.1-0.9l0.3-0.5l3.3,3.3l-0.1,0.2c0.2,0.2,0.1,0.6,0.2,0.9c0,0.2,0.3,0.5,0.2,0.7c0.6,0.6,0.7,1.4,1.3,1.8
			c0.2,0.3,0.2,0.9,0.3,1.4c0.3,0.4,0.6,0.8,0.7,1.3c0.5,0.3,0.8,0.7,1.4,0.8c0.6,0.1,1.3,0.2,1.8,0.3c0.3,0,0.8-0.3,1.1,0l0.3-0.2
			l1.6,1.6c-5.8,5.7-12.2,10.8-18.9,15.2l0.1-0.7C297,264.8,297,264.1,296.8,263.6 M318.4,243.7c-0.1-1-0.1-2.1-0.6-3
			c0-1-0.4-1.9-0.7-2.8c0.1-1.2,0.3-2.5-0.8-3.2c-0.3-0.2-0.6-0.6-0.6-1c0.1-0.3,0.1-0.9-0.1-1.2c-0.3-0.5-0.8-0.3-1.2-0.7
			c-1-0.3-2.1-0.8-3.2-0.8c-0.3,0.2-0.7,0.3-0.8,0.6c0,0.6,0,1.4-0.6,1.8c0.3,1.3-0.3,2.3-0.3,3.6c-0.1,0.2-0.3,0.3-0.5,0.2
			l-0.1,0.1l-9.2-9.1c8-8.5,14.3-18.2,18.9-28.8c5-11.7,7.6-24.1,7.8-36.8h27.2c-0.2,16.3-3.5,32.1-9.9,47.1
			c-6,13.9-14.3,26.6-24.8,37.6l-1.2-1.2l0.3-0.2C318.2,245.3,318.5,244.6,318.4,243.7 M358.8,73.7c5.7,8.4,10.6,17.3,14.6,26.6
			c7.9,18.5,12.1,38.1,12.4,58.2h-27.4c-0.2-8.9-1.3-17.8-3.3-26.4c-2-8.5-4.8-16.8-8.5-24.7c0.3-0.3,0.7-0.3,0.8-0.6
			c0.5-0.4,0.6-1,0.6-1.7c0.1-1.1-0.3-2-0.9-2.8c-0.1-0.3-0.2-0.4-0.4-0.6c-0.1-0.8-0.8-1.3-1-2.2c-0.2-0.7-1-0.9-1.4-1.6
			c-0.4-0.5-0.8-0.9-1.3-1.4c-0.7-0.8-1.4-1.5-1.4-2.6c-0.4-0.9-1.2-1.5-1.6-2.4c-0.7-0.4-0.7-1.2-1.4-1.5c-0.8-0.7-0.5-1.9-1.6-2.5
			c-0.8-0.3-1.8-0.8-2.2-1.7c-0.4-0.3-0.5-0.8-0.9-1.1c-0.8-0.5-1.6-1.1-2.1-1.8c-0.4-1.1-1.1-2.2-2-3.2c-0.6-0.8-1.6-1-2.2-1.7
			c-0.9-0.9-1.9-1.5-2.9-2.3c-0.9-1.2-1.6-2.6-2.9-3.7l-0.2-1.4l18.9-18.9C347.4,58.6,353.5,66,358.8,73.7 M377.8,98.4
			c-4.1-9.5-9.2-18.8-15.1-27.4c-5.9-8.5-12.5-16.6-19.9-23.8c-7.4-7.3-15.5-13.9-24.1-19.6c-8.7-5.8-18-10.8-27.6-14.9
			C271.2,4.2,250,0,228.2,0c-21.8,0-43,4.2-63,12.7c-9.6,4.1-18.9,9-27.6,14.9c-8.6,5.7-16.8,12.4-24.1,19.6
			c-7.4,7.3-14.1,15.3-20,23.8c-5.9,8.6-11,17.8-15.1,27.4c-8.6,19.9-12.9,41-12.9,62.8c0,21.8,4.3,42.9,12.9,63
			c4.1,9.6,9.2,18.8,15.1,27.5c5.9,8.6,12.6,16.7,20,24c7.4,7.4,15.5,14,24.1,19.9c8.7,5.9,18,10.9,27.6,15
			c20,8.5,41.2,12.8,63,12.8c21.8,0,42.9-4.3,63-12.8c9.6-4.1,18.9-9.1,27.6-15c8.6-5.8,16.7-12.5,24.1-19.9
			c7.4-7.3,14-15.4,19.9-24c5.9-8.7,11-17.9,15.1-27.5c8.5-20,12.8-41.2,12.8-62.9C390.6,139.4,386.3,118.3,377.8,98.4"/>
		<path class="st0" d="M503.8,145.5h24.8V298c0,34.2,21.3,51.9,48,51.9c26.8,0,48-17.7,48-51.9V145.5h24.8V298
			c0,47.4-29.7,76.4-72.9,76.4s-72.9-29-72.9-76.4V145.5z"/>
		<polygon class="st0" points="842,371.2 817.2,371.2 721.1,193.5 721.1,371.2 696.2,371.2 696.2,145.5 721.1,145.5 817.2,323.2 
			817.2,145.5 842,145.5 		"/>
		<path class="st0" d="M913.5,170v176.7h48c26.8,0,48-17.7,48-51.9v-72.9c0-34.2-21.3-51.6-48-51.9H913.5z M961.6,145.5
			c43.2,0,72.9,29,72.9,76.4v72.9c0,47.4-29.7,76.4-72.9,76.4h-72.9V145.5H961.6z"/>
		<path class="st0" d="M1348.6,170h-51.9v75.1h51.9c25.5,0,40-16.1,40-37.7S1374,170,1348.6,170 M1296.6,269v102.2h-24.8V145.5h76.8
			c48,0,65.1,31.9,65.1,61.9c0,27.4-14.2,55.8-52.9,61l60.3,102.9h-28.7l-60-102.2H1296.6z"/>
		<path class="st0" d="M1156.1,170h-51.9v75.1h51.9c25.5,0,40-16.1,40-37.7S1181.6,170,1156.1,170 M1104.2,269v102.2h-24.8V145.5
			h76.7c48.1,0,65.1,31.9,65.1,61.9c0,27.4-14.2,55.8-52.9,61l60.3,102.9H1200L1140,269H1104.2z"/>
	</g>
	<g>
		<path class="st0" d="M47,437.5v41.9c0,5.8-1.9,10.6-5.5,14.3s-8.5,5.8-14.8,6.2l-2.2,0.1c-6.7,0-12.1-1.8-16.1-5.5
			c-4-3.6-6-8.7-6.1-15v-42h8v41.8c0,4.5,1.2,7.9,3.7,10.4c2.5,2.5,6,3.7,10.5,3.7c4.6,0,8.1-1.2,10.6-3.7c2.4-2.5,3.7-5.9,3.7-10.4
			v-41.8H47z"/>
		<path class="st0" d="M107.2,499.2h-8.2l-31-47.5v47.5h-8.2v-61.7H68l31.1,47.7v-47.7h8.1V499.2z"/>
		<path class="st0" d="M190.6,470.3c0,6-1,11.3-3,15.8c-2,4.5-4.9,7.9-8.6,10.3c-3.7,2.4-8.1,3.6-13,3.6c-4.9,0-9.2-1.2-12.9-3.6
			c-3.8-2.4-6.7-5.8-8.7-10.2c-2.1-4.4-3.1-9.5-3.2-15.4v-4.4c0-5.9,1-11.2,3.1-15.7c2.1-4.5,5-8,8.7-10.4c3.8-2.4,8.1-3.6,12.9-3.6
			c4.9,0,9.3,1.2,13.1,3.6c3.8,2.4,6.7,5.8,8.7,10.4c2,4.5,3,9.8,3,15.8V470.3z M182.5,466.3c0-7.3-1.5-12.9-4.4-16.8
			c-2.9-3.9-7-5.9-12.3-5.9c-5.1,0-9.2,2-12.1,5.9c-2.9,3.9-4.5,9.3-4.5,16.3v4.5c0,7.1,1.5,12.7,4.5,16.7s7.1,6.1,12.3,6.1
			c5.3,0,9.3-1.9,12.2-5.7c2.9-3.8,4.4-9.3,4.4-16.5V466.3z"/>
		<path class="st0" d="M205.4,499.2v-39.8h-7.2v-6.1h7.2v-4.7c0-4.9,1.3-8.7,3.9-11.4c2.6-2.7,6.3-4,11.1-4c1.8,0,3.6,0.2,5.4,0.7
			l-0.4,6.3c-1.3-0.3-2.7-0.4-4.2-0.4c-2.5,0-4.5,0.7-5.9,2.2c-1.4,1.5-2.1,3.6-2.1,6.4v4.8h9.8v6.1h-9.8v39.8H205.4z"/>
		<path class="st0" d="M235.5,499.2v-39.8h-7.2v-6.1h7.2v-4.7c0-4.9,1.3-8.7,3.9-11.4c2.6-2.7,6.3-4,11.1-4c1.8,0,3.6,0.2,5.4,0.7
			l-0.4,6.3c-1.3-0.3-2.7-0.4-4.2-0.4c-2.5,0-4.5,0.7-5.9,2.2c-1.4,1.5-2.1,3.6-2.1,6.4v4.8h9.8v6.1h-9.8v39.8H235.5z"/>
		<path class="st0" d="M261.8,441.2c0-1.3,0.4-2.3,1.2-3.2c0.8-0.9,1.9-1.3,3.5-1.3s2.7,0.4,3.5,1.3c0.8,0.9,1.2,1.9,1.2,3.2
			s-0.4,2.3-1.2,3.2s-1.9,1.3-3.5,1.3s-2.7-0.4-3.5-1.3C262.2,443.5,261.8,442.5,261.8,441.2z M270.3,499.2h-7.8v-45.8h7.8V499.2z"
			/>
		<path class="st0" d="M301.2,493.6c2.8,0,5.2-0.8,7.3-2.5c2.1-1.7,3.2-3.8,3.5-6.4h7.4c-0.1,2.6-1,5.1-2.7,7.5
			c-1.7,2.4-3.9,4.3-6.7,5.7c-2.8,1.4-5.7,2.1-8.8,2.1c-6.2,0-11.2-2.1-14.9-6.2c-3.7-4.2-5.5-9.9-5.5-17.1v-1.3
			c0-4.5,0.8-8.4,2.5-11.9c1.6-3.5,4-6.2,7-8.1c3.1-1.9,6.7-2.9,10.9-2.9c5.1,0,9.4,1.5,12.8,4.6c3.4,3.1,5.2,7.1,5.4,12H312
			c-0.2-3-1.4-5.4-3.4-7.3c-2-1.9-4.5-2.9-7.5-2.9c-4,0-7.1,1.4-9.2,4.3c-2.2,2.9-3.3,7-3.3,12.4v1.5c0,5.3,1.1,9.3,3.3,12.2
			C294,492.2,297.2,493.6,301.2,493.6z"/>
		<path class="st0" d="M347.2,500c-6.2,0-11.3-2-15.2-6.1c-3.9-4.1-5.8-9.5-5.8-16.4v-1.4c0-4.5,0.9-8.6,2.6-12.2
			c1.7-3.6,4.2-6.4,7.3-8.4c3.1-2,6.5-3,10.1-3c6,0,10.6,2,13.9,5.9c3.3,3.9,5,9.5,5,16.9v3.3h-31c0.1,4.5,1.4,8.2,4,11
			c2.5,2.8,5.7,4.2,9.6,4.2c2.8,0,5.1-0.6,7-1.7s3.6-2.6,5-4.5l4.8,3.7C360.6,497.1,354.9,500,347.2,500z M346.2,458.9
			c-3.2,0-5.8,1.1-8,3.4c-2.1,2.3-3.5,5.5-4,9.7h23v-0.6c-0.2-4-1.3-7.1-3.2-9.3C352.1,460,349.5,458.9,346.2,458.9z"/>
		<path class="st0" d="M399.5,499.2v-39.8h-7.2v-6.1h7.2v-4.7c0-4.9,1.3-8.7,3.9-11.4c2.6-2.7,6.3-4,11.1-4c1.8,0,3.6,0.2,5.4,0.7
			l-0.4,6.3c-1.3-0.3-2.7-0.4-4.2-0.4c-2.5,0-4.5,0.7-5.9,2.2c-1.4,1.5-2.1,3.6-2.1,6.4v4.8h9.8v6.1h-9.8v39.8H399.5z"/>
		<path class="st0" d="M423.7,475.8c0-4.5,0.9-8.5,2.6-12.1c1.8-3.6,4.2-6.4,7.4-8.3c3.2-1.9,6.7-2.9,10.8-2.9
			c6.2,0,11.3,2.2,15.1,6.5c3.9,4.3,5.8,10.1,5.8,17.2v0.5c0,4.5-0.9,8.5-2.6,12c-1.7,3.5-4.2,6.3-7.3,8.3c-3.2,2-6.8,3-10.9,3
			c-6.2,0-11.2-2.2-15.1-6.5c-3.9-4.3-5.8-10-5.8-17.2V475.8z M431.5,476.8c0,5.1,1.2,9.2,3.5,12.2c2.4,3.1,5.5,4.6,9.5,4.6
			c4,0,7.1-1.6,9.5-4.7c2.3-3.1,3.5-7.5,3.5-13.1c0-5-1.2-9.1-3.6-12.2c-2.4-3.1-5.6-4.7-9.5-4.7c-3.9,0-7,1.5-9.4,4.6
			C432.7,466.6,431.5,471,431.5,476.8z"/>
		<path class="st0" d="M497.3,460.4c-1.2-0.2-2.5-0.3-3.9-0.3c-5.1,0-8.6,2.2-10.5,6.6v32.5h-7.8v-45.8h7.6l0.1,5.3
			c2.6-4.1,6.2-6.1,10.9-6.1c1.5,0,2.7,0.2,3.5,0.6V460.4z"/>
		<path class="st0" d="M527.2,499.2v-61.7h17.4c5.4,0,10.1,1.2,14.2,3.6c4.1,2.4,7.3,5.7,9.5,10.1c2.2,4.4,3.4,9.4,3.4,15.1v3.9
			c0,5.8-1.1,10.9-3.4,15.3c-2.2,4.4-5.4,7.7-9.6,10.1c-4.2,2.3-9,3.5-14.5,3.6H527.2z M535.4,444.1v48.4h8.6c6.3,0,11.1-2,14.6-5.9
			c3.5-3.9,5.2-9.5,5.2-16.7v-3.6c0-7-1.6-12.5-4.9-16.3c-3.3-3.9-8-5.9-14-5.9H535.4z"/>
		<path class="st0" d="M582.9,441.2c0-1.3,0.4-2.3,1.2-3.2c0.8-0.9,1.9-1.3,3.5-1.3s2.7,0.4,3.5,1.3c0.8,0.9,1.2,1.9,1.2,3.2
			s-0.4,2.3-1.2,3.2s-1.9,1.3-3.5,1.3s-2.7-0.4-3.5-1.3C583.3,443.5,582.9,442.5,582.9,441.2z M591.4,499.2h-7.8v-45.8h7.8V499.2z"
			/>
		<path class="st0" d="M630.6,487c0-2.1-0.8-3.8-2.4-4.9c-1.6-1.2-4.4-2.2-8.3-3c-4-0.8-7.1-1.9-9.4-3c-2.3-1.2-4.1-2.6-5.2-4.2
			c-1.1-1.6-1.7-3.6-1.7-5.8c0-3.8,1.6-6.9,4.8-9.5c3.2-2.6,7.2-3.9,12.2-3.9c5.2,0,9.4,1.3,12.6,4c3.2,2.7,4.8,6.1,4.8,10.3h-7.9
			c0-2.1-0.9-4-2.7-5.5c-1.8-1.5-4.1-2.3-6.9-2.3c-2.9,0-5.1,0.6-6.7,1.9c-1.6,1.2-2.4,2.9-2.4,4.9c0,1.9,0.8,3.3,2.2,4.3
			c1.5,1,4.2,1.9,8.1,2.8c3.9,0.9,7.1,1.9,9.5,3.1c2.4,1.2,4.2,2.7,5.4,4.4s1.8,3.8,1.8,6.2c0,4.1-1.6,7.4-4.9,9.8
			c-3.3,2.5-7.5,3.7-12.7,3.7c-3.7,0-6.9-0.6-9.7-1.9c-2.8-1.3-5-3.1-6.6-5.4c-1.6-2.3-2.4-4.8-2.4-7.6h7.8c0.1,2.6,1.2,4.7,3.2,6.2
			c2,1.5,4.5,2.3,7.8,2.3c3,0,5.3-0.6,7.1-1.8C629.7,490.6,630.6,489,630.6,487z"/>
		<path class="st0" d="M676.9,499.2c-0.4-0.9-0.8-2.5-1.1-4.8c-3.7,3.8-8,5.7-13,5.7c-4.5,0-8.2-1.3-11.1-3.8
			c-2.9-2.6-4.3-5.8-4.3-9.7c0-4.8,1.8-8.5,5.4-11.1c3.6-2.6,8.7-4,15.3-4h7.6v-3.6c0-2.7-0.8-4.9-2.5-6.5c-1.6-1.6-4.1-2.4-7.2-2.4
			c-2.8,0-5.1,0.7-7,2.1c-1.9,1.4-2.8,3.1-2.8,5.1h-7.9c0-2.3,0.8-4.5,2.4-6.6c1.6-2.1,3.8-3.8,6.6-5.1c2.8-1.2,5.8-1.9,9.2-1.9
			c5.3,0,9.4,1.3,12.4,4c3,2.6,4.5,6.3,4.7,10.9v21.1c0,4.2,0.5,7.6,1.6,10v0.7H676.9z M663.9,493.2c2.4,0,4.8-0.6,7-1.9
			s3.8-2.9,4.8-5v-9.4h-6.1c-9.6,0-14.4,2.8-14.4,8.4c0,2.5,0.8,4.4,2.5,5.8C659.3,492.5,661.4,493.2,663.9,493.2z"/>
		<path class="st0" d="M722.5,487c0-2.1-0.8-3.8-2.4-4.9c-1.6-1.2-4.4-2.2-8.3-3c-4-0.8-7.1-1.9-9.4-3s-4.1-2.6-5.2-4.2
			c-1.1-1.6-1.7-3.6-1.7-5.8c0-3.8,1.6-6.9,4.8-9.5c3.2-2.6,7.2-3.9,12.2-3.9c5.2,0,9.4,1.3,12.6,4c3.2,2.7,4.8,6.1,4.8,10.3H722
			c0-2.1-0.9-4-2.7-5.5c-1.8-1.5-4.1-2.3-6.9-2.3c-2.9,0-5.1,0.6-6.7,1.9c-1.6,1.2-2.4,2.9-2.4,4.9c0,1.9,0.8,3.3,2.2,4.3
			c1.5,1,4.2,1.9,8.1,2.8c3.9,0.9,7.1,1.9,9.5,3.1c2.4,1.2,4.2,2.7,5.4,4.4s1.8,3.8,1.8,6.2c0,4.1-1.6,7.4-4.9,9.8
			c-3.3,2.5-7.5,3.7-12.7,3.7c-3.7,0-6.9-0.6-9.7-1.9c-2.8-1.3-5-3.1-6.6-5.4c-1.6-2.3-2.4-4.8-2.4-7.6h7.8c0.1,2.6,1.2,4.7,3.2,6.2
			c2,1.5,4.5,2.3,7.8,2.3c3,0,5.3-0.6,7.1-1.8C721.6,490.6,722.5,489,722.5,487z"/>
		<path class="st0" d="M751.2,442.2v11.1h8.6v6.1h-8.6v28.5c0,1.8,0.4,3.2,1.1,4.1c0.8,0.9,2.1,1.4,3.9,1.4c0.9,0,2.1-0.2,3.7-0.5
			v6.3c-2.1,0.6-4.1,0.8-6,0.8c-3.5,0-6.1-1.1-7.9-3.2c-1.8-2.1-2.7-5.1-2.7-9v-28.4H735v-6.1h8.3v-11.1H751.2z"/>
		<path class="st0" d="M787.9,500c-6.2,0-11.3-2-15.2-6.1c-3.9-4.1-5.8-9.5-5.8-16.4v-1.4c0-4.5,0.9-8.6,2.6-12.2s4.2-6.4,7.3-8.4
			s6.5-3,10.1-3c6,0,10.6,2,13.9,5.9c3.3,3.9,5,9.5,5,16.9v3.3h-31c0.1,4.5,1.4,8.2,4,11c2.5,2.8,5.7,4.2,9.6,4.2
			c2.8,0,5.1-0.6,7-1.7c1.9-1.1,3.6-2.6,5-4.5l4.8,3.7C801.3,497.1,795.6,500,787.9,500z M786.9,458.9c-3.2,0-5.8,1.1-8,3.4
			c-2.1,2.3-3.5,5.5-4,9.7h23v-0.6c-0.2-4-1.3-7.1-3.2-9.3C792.8,460,790.2,458.9,786.9,458.9z"/>
		<path class="st0" d="M837,460.4c-1.2-0.2-2.5-0.3-3.9-0.3c-5.1,0-8.6,2.2-10.5,6.6v32.5h-7.8v-45.8h7.6l0.1,5.3
			c2.6-4.1,6.2-6.1,10.9-6.1c1.5,0,2.7,0.2,3.5,0.6V460.4z"/>
		<path class="st0" d="M889.5,474.2H875v24.9h-8.2v-61.7h20.4c6.9,0,12.3,1.6,16,4.7c3.7,3.2,5.6,7.8,5.6,13.8c0,3.8-1,7.2-3.1,10
			s-5,5-8.7,6.4l14.5,26.2v0.5h-8.7L889.5,474.2z M875,467.6h12.5c4,0,7.2-1,9.6-3.1c2.4-2.1,3.6-4.9,3.6-8.4c0-3.8-1.1-6.7-3.4-8.8
			c-2.3-2-5.5-3.1-9.8-3.1H875V467.6z"/>
		<path class="st0" d="M919.1,441.2c0-1.3,0.4-2.3,1.2-3.2c0.8-0.9,1.9-1.3,3.5-1.3s2.7,0.4,3.5,1.3c0.8,0.9,1.2,1.9,1.2,3.2
			s-0.4,2.3-1.2,3.2s-1.9,1.3-3.5,1.3s-2.7-0.4-3.5-1.3C919.4,443.5,919.1,442.5,919.1,441.2z M927.5,499.2h-7.8v-45.8h7.8V499.2z"
			/>
		<path class="st0" d="M966.7,487c0-2.1-0.8-3.8-2.4-4.9c-1.6-1.2-4.4-2.2-8.3-3c-4-0.8-7.1-1.9-9.4-3c-2.3-1.2-4.1-2.6-5.2-4.2
			c-1.1-1.6-1.7-3.6-1.7-5.8c0-3.8,1.6-6.9,4.8-9.5c3.2-2.6,7.2-3.9,12.2-3.9c5.2,0,9.4,1.3,12.6,4c3.2,2.7,4.8,6.1,4.8,10.3h-7.9
			c0-2.1-0.9-4-2.7-5.5c-1.8-1.5-4.1-2.3-6.9-2.3c-2.9,0-5.1,0.6-6.7,1.9c-1.6,1.2-2.4,2.9-2.4,4.9c0,1.9,0.8,3.3,2.2,4.3
			c1.5,1,4.2,1.9,8.1,2.8c3.9,0.9,7.1,1.9,9.5,3.1c2.4,1.2,4.2,2.7,5.4,4.4s1.8,3.8,1.8,6.2c0,4.1-1.6,7.4-4.9,9.8
			c-3.3,2.5-7.5,3.7-12.7,3.7c-3.7,0-6.9-0.6-9.7-1.9c-2.8-1.3-5-3.1-6.6-5.4c-1.6-2.3-2.4-4.8-2.4-7.6h7.8c0.1,2.6,1.2,4.7,3.2,6.2
			c2,1.5,4.5,2.3,7.8,2.3c3,0,5.3-0.6,7.1-1.8C965.9,490.6,966.7,489,966.7,487z"/>
		<path class="st0" d="M997.6,477.9l-4.9,5.1v16.1h-7.8v-65h7.8v39.3l4.2-5l14.3-15.1h9.5l-17.8,19.1l19.9,26.7h-9.2L997.6,477.9z"
			/>
		<path class="st0" d="M1074.1,474.2h-14.5v24.9h-8.2v-61.7h20.4c6.9,0,12.3,1.6,16,4.7c3.7,3.2,5.6,7.8,5.6,13.8
			c0,3.8-1,7.2-3.1,10c-2.1,2.9-5,5-8.7,6.4l14.5,26.2v0.5h-8.7L1074.1,474.2z M1059.6,467.6h12.5c4,0,7.2-1,9.6-3.1
			c2.4-2.1,3.6-4.9,3.6-8.4c0-3.8-1.1-6.7-3.4-8.8c-2.3-2-5.5-3.1-9.8-3.1h-12.5V467.6z"/>
		<path class="st0" d="M1122.6,500c-6.2,0-11.3-2-15.2-6.1c-3.9-4.1-5.8-9.5-5.8-16.4v-1.4c0-4.5,0.9-8.6,2.6-12.2s4.2-6.4,7.3-8.4
			c3.1-2,6.5-3,10.1-3c6,0,10.6,2,13.9,5.9c3.3,3.9,5,9.5,5,16.9v3.3h-31c0.1,4.5,1.4,8.2,4,11c2.5,2.8,5.7,4.2,9.6,4.2
			c2.8,0,5.1-0.6,7-1.7s3.6-2.6,5-4.5l4.8,3.7C1136.1,497.1,1130.3,500,1122.6,500z M1121.6,458.9c-3.2,0-5.8,1.1-8,3.4
			c-2.1,2.3-3.5,5.5-4,9.7h23v-0.6c-0.2-4-1.3-7.1-3.2-9.3C1127.5,460,1124.9,458.9,1121.6,458.9z"/>
		<path class="st0" d="M1147.7,475.9c0-7,1.7-12.7,5-17c3.3-4.3,7.7-6.4,13.1-6.4c5.4,0,9.6,1.8,12.7,5.5v-23.9h7.8v65h-7.2
			l-0.4-4.9c-3.1,3.8-7.5,5.8-13.1,5.8c-5.3,0-9.6-2.2-13-6.5c-3.4-4.3-5-10-5-17V475.9z M1155.5,476.8c0,5.2,1.1,9.3,3.2,12.2
			c2.1,2.9,5.1,4.4,8.9,4.4c5,0,8.6-2.2,10.9-6.7v-21c-2.3-4.3-5.9-6.5-10.8-6.5c-3.8,0-6.8,1.5-9,4.4
			C1156.6,466.5,1155.5,470.9,1155.5,476.8z"/>
		<path class="st0" d="M1226.8,494.6c-3,3.6-7.5,5.4-13.4,5.4c-4.9,0-8.6-1.4-11.2-4.3c-2.6-2.8-3.8-7-3.9-12.6v-29.8h7.8v29.6
			c0,6.9,2.8,10.4,8.5,10.4c6,0,10-2.2,11.9-6.7v-33.3h7.8v45.8h-7.4L1226.8,494.6z"/>
		<path class="st0" d="M1264.7,493.6c2.8,0,5.2-0.8,7.3-2.5c2.1-1.7,3.2-3.8,3.5-6.4h7.4c-0.1,2.6-1,5.1-2.7,7.5
			c-1.7,2.4-3.9,4.3-6.7,5.7c-2.8,1.4-5.7,2.1-8.8,2.1c-6.2,0-11.2-2.1-14.9-6.2c-3.7-4.2-5.5-9.9-5.5-17.1v-1.3
			c0-4.5,0.8-8.4,2.5-11.9c1.6-3.5,4-6.2,7-8.1c3.1-1.9,6.7-2.9,10.9-2.9c5.1,0,9.4,1.5,12.8,4.6c3.4,3.1,5.2,7.1,5.4,12h-7.4
			c-0.2-3-1.4-5.4-3.4-7.3c-2-1.9-4.5-2.9-7.5-2.9c-4,0-7.1,1.4-9.2,4.3c-2.2,2.9-3.3,7-3.3,12.4v1.5c0,5.3,1.1,9.3,3.3,12.2
			C1257.5,492.2,1260.6,493.6,1264.7,493.6z"/>
		<path class="st0" d="M1302.3,442.2v11.1h8.6v6.1h-8.6v28.5c0,1.8,0.4,3.2,1.1,4.1c0.8,0.9,2.1,1.4,3.9,1.4c0.9,0,2.1-0.2,3.7-0.5
			v6.3c-2.1,0.6-4.1,0.8-6,0.8c-3.5,0-6.1-1.1-7.9-3.2c-1.8-2.1-2.7-5.1-2.7-9v-28.4h-8.3v-6.1h8.3v-11.1H1302.3z"/>
		<path class="st0" d="M1320,441.2c0-1.3,0.4-2.3,1.2-3.2c0.8-0.9,1.9-1.3,3.5-1.3s2.7,0.4,3.5,1.3c0.8,0.9,1.2,1.9,1.2,3.2
			s-0.4,2.3-1.2,3.2c-0.8,0.8-1.9,1.3-3.5,1.3s-2.7-0.4-3.5-1.3S1320,442.5,1320,441.2z M1328.5,499.2h-7.8v-45.8h7.8V499.2z"/>
		<path class="st0" d="M1339,475.8c0-4.5,0.9-8.5,2.6-12.1c1.8-3.6,4.2-6.4,7.4-8.3s6.7-2.9,10.8-2.9c6.2,0,11.3,2.2,15.1,6.5
			c3.9,4.3,5.8,10.1,5.8,17.2v0.5c0,4.5-0.9,8.5-2.6,12c-1.7,3.5-4.2,6.3-7.3,8.3c-3.2,2-6.8,3-10.9,3c-6.2,0-11.2-2.2-15.1-6.5
			c-3.9-4.3-5.8-10-5.8-17.2V475.8z M1346.9,476.8c0,5.1,1.2,9.2,3.5,12.2c2.4,3.1,5.5,4.6,9.5,4.6c4,0,7.1-1.6,9.5-4.7
			c2.3-3.1,3.5-7.5,3.5-13.1c0-5-1.2-9.1-3.6-12.2c-2.4-3.1-5.6-4.7-9.5-4.7c-3.9,0-7,1.5-9.4,4.6
			C1348,466.6,1346.9,471,1346.9,476.8z"/>
		<path class="st0" d="M1397.9,453.3l0.3,5.8c3.5-4.4,8.1-6.6,13.7-6.6c9.7,0,14.6,5.5,14.6,16.4v30.3h-7.8v-30.3
			c0-3.3-0.8-5.7-2.3-7.3c-1.5-1.6-3.8-2.4-6.9-2.4c-2.5,0-4.8,0.7-6.7,2c-1.9,1.4-3.4,3.1-4.5,5.3v32.7h-7.8v-45.8H1397.9z"/>
	</g>
</g>
</svg>
