<?xml version="1.0" encoding="utf-8"?>
<!-- Generator: Adobe Illustrator 27.1.1, SVG Export Plug-In . SVG Version: 6.00 Build 0)  -->
<svg version="1.1" id="Layer_1" xmlns="http://www.w3.org/2000/svg" xmlns:xlink="http://www.w3.org/1999/xlink" x="0px" y="0px"
	 viewBox="0 0 1430 500" style="enable-background:new 0 0 1430 500;" xml:space="preserve">
<style type="text/css">
	.st0{fill:#FFFFFF;}
</style>
<g>
	<path class="st0" d="M1227.4,342.9c74.3,0,134.6-60.3,134.6-134.7c0-74.1-60.3-134.5-134.6-134.5c-74.2,0-134.5,60.4-134.5,134.5
		C1092.8,282.6,1153.2,342.9,1227.4,342.9 M1332.3,133.3c-6.8,4.6-14,8.8-21.5,12.4c-4.4-8.8-9.9-17.3-16-25.1
		c5.4-3.4,10.7-7.2,15.7-11.1C1318.6,116.5,1326,124.5,1332.3,133.3 M1305.9,106c-4.7,3.9-9.6,7.3-14.9,10.5
		c-6.6-7.5-14.1-14.5-22.2-20.5c2.5-2.3,4.8-4.7,6.9-7.3C1286.4,93,1296.6,98.8,1305.9,106 M1286.2,119.2
		c-7.2,3.9-14.9,7.1-22.7,9.5c-3.2-7.5-7-14.9-11.2-21.9c4.3-1.9,8.4-4.4,12.3-7.3C1272.5,105.3,1279.7,111.8,1286.2,119.2
		 M1270.3,86.6c-1.9,2.2-3.9,4.2-6,6.1c-7.2-4.8-14.7-9-22.6-12.5C1251.5,81.2,1261.1,83.3,1270.3,86.6 M1259.7,96.3
		c-3.2,2.3-6.7,4.2-10.3,5.8c-3.9-6.2-8.3-12.2-13.1-18.1C1244.5,87.3,1252.4,91.4,1259.7,96.3 M1230.1,84.8
		c4.9,6,9.6,12.4,13.9,19.1c-4.5,1.4-9.2,2.3-13.9,2.5V84.8z M1230.1,111.8c5.8-0.2,11.5-1.2,16.9-3c4.2,6.7,7.8,14,11.1,21.3
		c-9.1,2.4-18.6,3.7-28,3.9V111.8z M1224.5,85.1v21.2c-4.7-0.2-9.3-1-13.7-2.5C1215,97.4,1219.6,91.2,1224.5,85.1 M1205.5,102
		c-3.7-1.6-6.9-3.5-10.3-5.8c7.2-4.8,15-8.9,23.2-12.3C1213.8,89.7,1209.4,95.8,1205.5,102 M1213.3,80.1c-8,3.5-15.5,7.7-22.7,12.6
		c-2.1-1.9-4-4-5.9-6.1C1193.9,83.3,1203.4,81.2,1213.3,80.1 M1179.1,88.6c2.1,2.6,4.4,5,7,7.3c-5.5,3.8-17.2,14.4-17.2,14.4l3,0.5
		l3.2,0.8c0,0,10.4-8.7,15.3-12.3c3.8,2.9,7.9,5.4,12.2,7.3c-2.2,3.9-8.2,15-8.2,15l2.7,1.6l1.9,1.5c0,0,6.4-12.1,8.8-16.1
		c5.4,1.8,11.1,2.7,16.8,3V134c-3.2-0.1-11.3-0.4-14.7-0.7l-2-0.2l1.2,1.7l2.1,3.7l0.3,0.5l0.5,0.1c2.4,0.1,9.7,0.4,12.5,0.5v40.3
		h5.6v-9.2c8.2-0.5,15.1-1,23.3-1.7l0.3-0.1l7.3-6.4l-4,0.3c-8.6,1.1-16.4,1.7-23.3,2.1l-3.6,0.2v-25.6c10.2-0.2,20.3-1.6,30.2-4.3
		c2.7,6.7,7.7,22.9,7.7,22.9l5.3-1.7c0,0-5-16-7.8-22.7c8.4-2.6,16.6-6,24.2-10.2c6.3,7.6,11.5,15.9,16,24.7
		c-4,1.9-11.2,4.4-11.2,4.4c5.8,0.6,10.1,2,10.1,2l3.3-1.4l1.6,3.5l7.2,3.2l-0.8-2l-2.9-7.1c7.6-3.8,15.1-8.2,22.3-13
		c13.8,21.1,21.1,45.3,21.1,70.4c0,42-20.2,79.2-51,102.8c-18-9.8-18.3-23.5-17.3-28.4c0.9-5.1,4.5-2.8,6.8-2.8
		c11.7,0,24-3.6,39.3-19.1c17.2-17.6,22.7-56.6-3.9-82c-28.5-27.3-58.8-22.5-78.3,2c-3.9,5.2-13.7,8.8-22.2,8.5
		c-12.6-0.5-4.8,9.3-4.8,11.4c0,2.1-1.8,3.5-2.9,3.2c-4.2-1.2-2.6,5-2.6,6.9c0,2-1.7,3-2.7,3c-5.2,0-3.9,4.8-3.7,6.1
		c0.2,1.3-0.3,3.4-2.1,4.4c-1.6,1-3.5,5.1-3.5,8.3c0,5.7,5.2,9.7,13.9,16.2c8.8,6.5,9.9,12.7,10,17.2c0.2,4.4,0.7,11.6,2.5,16.3
		c2.5,5.7,2.1,16.3-9.9,16.7c-14.7,0.6-40.9,12.4-43.2,13.1c-8.3,2.9-19.3,4-27.9,1.9c-4.7-3.3-9.1-6.9-13.3-10.8
		c-1.7-5.8,1.3-12.3,4.2-16.6c5,5,12.4,4.7,16.4,4.8c4.1,0.2,24.5-3.1,27.3-4c2.7-1,4-0.6,5.7,0c7.7,2.8,18.3,3.6,22.6-11.2
		c4.2-14.8-6-10.6-7.2-10l-2.5-0.8c1.9-3.8-0.9-3.4-2.5-3.5c-4.1-0.4-9.5,4-11.2,5.6c-1.8,1.5-3.5,1.4-4.1,1.1
		c-5.5-2.8-21.8,1.2-27-7.7c0.5-2.4-4.1-38.4-6.4-44.5c-0.5-1.3-1-3.5,0.7-6c4-6.1,15.4,0.5,21.6,0.3c7.5-0.2,8.8-3.2,10.7-5.7
		c2-2.4,3.4-1.1,4.5-1.7l0.5-3.6l2.3-1.6l0.5-4.5c1.8-2.7,6.8-0.5,3.8-7.7c-1.6-4,0.7-8.2,2.8-11.2c3.6-4.6,17.5-24.1-6.9-44.4
		c-23.4-19.4-47.1-17.8-62.3-1.3c-15.3,16.6-7.6,40.7-6,47.2c1.5,6.2-3,12-8.3,14.5c-4.1,2-13.6,8.3-20.8,14.5
		C1099.4,153.6,1130.9,108.1,1179.1,88.6"/>
	<path class="st0" d="M1055.7,158.6l0.8,4l2.6-2.3c11.1-10.1,19.3-27.2,22.7-47l1-5.5l-2.2,1.9l-2.1,1.8c-7.9,7-25.9,25.5-23.1,45.8
		L1055.7,158.6z"/>
	<path class="st0" d="M1049.9,214.9l1.3,1.7l1.8-8.6c1.8-15.1-0.6-46.8-6.3-61l-1.9-4.8l-0.9,2.4l-0.8,2.4c-1.3,3.4-3.5,10.6-4.8,20
		c-1.6,13.3-1.3,32.3,10.2,46.3L1049.9,214.9z"/>
	<path class="st0" d="M1057.3,266.7l3.3,2.1l-0.2-3.8c-0.5-12.7-15.3-50.9-26.5-64.5l-3-3.8l-0.2,2.5l-0.3,2.4
		C1029.6,215.2,1030.3,248.9,1057.3,266.7"/>
	<path class="st0" d="M1090.2,322.3l-1.5-3.8c-5.2-14.5-32.5-48-49.9-59.1l-4-2.5l0.6,2.3l0.4,2.3c4.1,19.3,22.3,50.5,50.6,59.5
		L1090.2,322.3z"/>
	<path class="st0" d="M1059.7,187.6l0.2,4.3l3.1-2.4c11.4-9.5,25.6-33.5,29.8-47.1l1.6-5l-2.2,1.4l-2.3,1.4
		C1068.8,152.8,1059,168.4,1059.7,187.6"/>
	<path class="st0" d="M1081.2,179.1l-1.5,1.5l-1.6,1.5c-5.3,5.2-22.8,23.7-21.3,46.7c0.3,3.5,1,7.3,2.4,11.2l1.3,3.7l2.3-3.2
		c8.2-11.7,19.3-42.6,18.7-57L1081.2,179.1z"/>
	<path class="st0" d="M1076.9,289.6l1.5-2.9c3.9-7.1,6.9-30.3,6.4-48.7c-0.2-6.4-0.8-11.8-1.9-15.5l-1.3-4l-1.1,1.8l-1.2,1.8
		c-8.9,13-13.3,26.4-13,38.8c0.3,9.1,3.1,17.9,8.6,25.9L1076.9,289.6z"/>
	<path class="st0" d="M1090.8,263l-0.5,1.8c-2.8,8.5-3.9,16.8-3.8,24.6c0.5,17.8,8.4,31.7,23.4,41.4l2.6,1.6l0.5-3.3l0.3-2.8
		c-0.5-14.4-11.2-50.8-19.6-62l-2.3-3.1L1090.8,263z"/>
	<path class="st0" d="M1128.7,358.4l2.9-0.5l-1.7-2.5c-6.7-9.9-50.4-34.7-65.8-37.1l-4.1-0.7l1.1,1.8l1.1,1.9
		C1073.6,340.2,1092.8,364.7,1128.7,358.4"/>
	<path class="st0" d="M1118.7,306.7l-3.5-1.8l0.3,1.9l0.3,2c3.5,21.5,12.3,49.6,48.6,46.6l2.3-0.2l-0.5-2.3
		C1163.6,343.1,1130.3,314.8,1118.7,306.7"/>
	<path class="st0" d="M1396.3,160.3l2.5,2.3l0.9-4l0.3-1.4c2.7-20.3-15.3-38.7-23.2-45.8l-2-1.8l-2.2-1.9l1,5.5
		C1376.8,133,1385.1,150.1,1396.3,160.3"/>
	<path class="st0" d="M1404,216.6l1.4-1.7l1.3-1.7c11.7-14,12-33,10.3-46.3c-1.2-9.4-3.5-16.5-4.8-20l-0.8-2.4l-1-2.4l-1.8,4.8
		c-5.5,14.2-8.2,45.9-6.2,61L1404,216.6z"/>
	<path class="st0" d="M1394.7,268.8l3.2-2.1c27.2-17.8,27.8-51.5,26.8-65l-0.1-2.4l-0.3-2.5l-3,3.8c-11.3,13.6-26.1,51.7-26.6,64.4
		L1394.7,268.8z"/>
	<path class="st0" d="M1366.5,318.6l-1.4,3.8l3.8-1.2c28.2-9,46.6-40.3,50.5-59.5l0.6-2.3l0.5-2.3l-4,2.5
		C1399,270.5,1371.9,304.1,1366.5,318.6"/>
	<path class="st0" d="M1392.3,189.4l3,2.5l0.3-4.3c1.2-19.2-8.3-34.9-29.1-48.1l-2.2-1.4l-2.3-1.4l1.4,5
		C1367.4,155.4,1381.2,179.7,1392.3,189.4"/>
	<path class="st0" d="M1394.8,243.6l1.3-3.7c1.4-3.9,2.1-7.7,2.4-11.2c1.5-23-15.9-41.4-21.3-46.7l-1.5-1.5l-1.5-1.5l-0.2,4.4
		c-0.6,14.4,10.4,45.2,18.6,57L1394.8,243.6z"/>
	<path class="st0" d="M1373.5,218.6l-1.2,4c-1.1,3.7-1.6,9.1-1.8,15.5c-0.5,18.4,2.6,41.5,6.3,48.7l1.6,2.9l1.8-2.7
		c5.5-8.1,8.4-16.9,8.7-25.9c0.3-12.4-4.2-25.8-13.1-38.8l-1-1.8L1373.5,218.6z"/>
	<path class="st0" d="M1363.9,261.1l-2.4,3.1c-8.4,11.2-19.2,47.6-19.6,62l0.3,2.9l0.5,3.3l2.6-1.6c15.1-9.7,23-23.6,23.5-41.4
		c0.3-7.8-0.9-16.1-3.7-24.6l-0.5-1.8L1363.9,261.1z"/>
	<path class="st0" d="M1325.3,355.4l-1.6,2.6l2.9,0.5c36,6.3,55.2-18.2,66.4-37.2l1.1-1.9l1.1-1.8l-4.2,0.7
		C1375.7,320.7,1332,345.4,1325.3,355.4"/>
	<path class="st0" d="M1227.7,370.6c-24.3-10.1-63.3-16.6-113.4-3.1l-5.6,1.6l5.4,2.2c23,9.4,51.6,12.1,68.2,6.6
		c6.2-2.2,10-5.6,14.7-10.1c7.8,0.8,15.5,3.2,22.8,6.6c-6.6,3.7-27.6,16.2-41.7,34.7l-1,1.3l1.1,1.2c1.2,1.2,4,3.4,5.9,4l1.2,0.4
		l0.8-0.9c10.2-12.6,24.8-27.1,41.8-36.6c16.9,9.5,31.7,24,41.7,36.6l0.9,0.9l1.3-0.4c1.7-0.6,4.6-2.8,5.7-4l1.2-1.2l-1.1-1.3
		c-14.1-18.6-35.1-31.1-41.8-34.7c7.4-3.3,15.1-5.8,22.9-6.6c4.6,4.6,8.3,8,14.7,10.1c16.6,5.5,45.2,2.8,68.1-6.6l5.4-2.2l-5.6-1.6
		C1290.9,354,1251.8,360.5,1227.7,370.6"/>
	<path class="st0" d="M1289.1,352.9l-0.5,2.3l2.3,0.2c36.3,3.1,45-25.1,48.4-46.6l0.5-2l0.3-1.9l-3.5,1.8
		C1325,314.8,1291.7,343.1,1289.1,352.9"/>
</g>
<rect x="421.3" y="87.1" class="st0" width="45.5" height="41.5"/>
<rect x="425" y="175.4" class="st0" width="38.3" height="202.1"/>
<g>
	<path class="st0" d="M136.6,279.5c0,4.8-0.4,28.5-7.7,47.4c-8,20.8-29.3,28.9-45,28.9c-36.6,0-44.7-25.7-44.7-60.7V175.6H1v135.2
		c0,40.5,24.3,72.7,66.4,72.7c28.1,0,54-10.4,69.2-35.8h0.7v29.8h37.4v-202h-38.2V279.5z"/>
	<path class="st0" d="M313,169.7c-20,0-48.3,10.4-61.1,35.8H251v-29.9h-37.3v202h38.1V267.9c0-39.5,10.5-48.4,16.2-54
		c16-16,36.9-14.8,36.9-14.8c32.2,0,46.2,18.1,46.2,51.5v127.1h38.2V238C389.4,173.3,327.1,169.7,313,169.7"/>
	<path class="st0" d="M582.1,355.1c-36.4,0-50.4-31.6-50.4-78.7c0-47.2,14-78.8,50.4-78.8c27.1,0,39.1,17.5,41.2,42.8h37.8
		c-1.9-43.5-33.9-70.3-76.2-70.3c-63.6,0-93.1,49-93.1,107.9c0,59.1,25.5,104.6,89.8,104.6c44.4,0,77.8-27.5,81.1-72.6h-37.8
		C622.8,338.8,607.2,355.1,582.1,355.1"/>
	<path class="st0" d="M773,170.1c-63.5,0-93.2,49.1-93.2,107.9c0,59.1,25.7,104.6,89.9,104.6c48,0,83.2-22.7,89.1-68.3h-39.9
		c-4.3,29.2-19.2,40.7-48.7,40.7c-38.7,0-53-36.4-50.3-71.5h141.3v-18.8C861.1,209.2,832.8,171.4,773,170.1 M719.8,257.3
		c0-32.9,18.7-59.6,50.3-59.6c36.8,0,52,26,51.2,59.6H719.8z"/>
	<path class="st0" d="M904.2,133.1v43.3h-34.5v26.2h34.5v174.3h38V202.5h46.4v-26.2h-46.4v-36.9c-1.2-22,11.2-27.7,32.7-27.7
		c6.4,0,12.8,0.9,19.2,1.2V81.4c-9.2-1.6-18-3.9-27.1-3.9C938.6,77.5,905.5,89,904.2,133.1"/>
</g>
</svg>
