<?xml version="1.0" encoding="utf-8"?>
<!-- Generator: Adobe Illustrator 26.1.0, SVG Export Plug-In . SVG Version: 6.00 Build 0)  -->
<svg version="1.1" id="Layer_1" xmlns="http://www.w3.org/2000/svg" xmlns:xlink="http://www.w3.org/1999/xlink" x="0px" y="0px"
	 viewBox="0 0 725 725" style="enable-background:new 0 0 725 725;" xml:space="preserve">
<style type="text/css">
	.st0{fill:#009DDC;}
	.st1{fill:none;stroke:#009DDC;stroke-width:30;stroke-miterlimit:10;}
	.st2{fill:#FF885F;}
</style>
<path class="st0" d="M509.5,366.2c0-80.3-65.1-145.5-145.5-145.5s-145.5,65.1-145.5,145.5S283.7,511.7,364,511.7
	S509.5,446.6,509.5,366.2z M266.4,294.8c10.1-13.7,22.9-25.1,37.8-33.4c-8.8,15.3-15.2,31.7-19.1,48.9h-28.4
	C259.5,304.9,262.7,299.7,266.4,294.8z M242.9,366.2c0-10.4,1.4-20.7,4-30.8l33.8,0c-1.2,10.2-1.8,20.5-1.8,30.8
	c0,9.5,0.5,18.9,1.5,28.4h-34.2C244,385.3,242.9,375.8,242.9,366.2z M266.4,437.7c-4.2-5.6-7.8-11.6-10.8-17.9h29.1
	c3.8,18.1,10.4,35.4,19.7,51.4C289.4,462.9,276.5,451.5,266.4,437.7z M351.4,484.2c-16.8-7.9-32.5-31-41-64.4h41V484.2z
	 M351.4,394.6h-45.6c-1.1-9.4-1.6-18.9-1.6-28.4H304c0-10.3,0.7-20.6,2-30.8h45.4V394.6z M351.4,310.3h-40.3
	c8.6-32.1,23.9-54.3,40.3-62V310.3z M485.2,366.2c0,9.6-1.1,19.1-3.4,28.4h-34.2c1-9.4,1.5-18.9,1.5-28.4c0-10.3-0.6-20.5-1.8-30.8
	h33.8C483.8,345.5,485.2,355.8,485.2,366.2z M461.7,294.8h-0.1c3.6,4.9,6.9,10.1,9.7,15.5h-28.4c-3.9-17.2-10.3-33.7-19.2-49
	C438.7,269.6,451.6,281,461.7,294.8z M376.6,248.3c16.4,7.7,31.8,29.9,40.3,62h-40.3V248.3z M376.6,484.2v-64.4h41
	C409.2,453.2,393.4,476.3,376.6,484.2z M422.1,394.6h-45.5v-59.1h45.2c1.3,10.2,2,20.5,2,30.8h-0.1
	C423.8,375.7,423.2,385.2,422.1,394.6z M423.8,471.2c9.2-16,15.9-33.4,19.7-51.4h29.1c-3,6.3-6.7,12.3-10.8,17.9
	C451.6,451.5,438.7,462.9,423.8,471.2z"/>
<circle class="st1" cx="103.1" cy="366.2" r="55.9"/>
<circle class="st1" cx="180.1" cy="182.1" r="55.9"/>
<circle class="st1" cx="364.7" cy="106.4" r="55.9"/>
<circle class="st1" cx="548.8" cy="183.4" r="55.9"/>
<circle class="st1" cx="624.6" cy="368" r="55.9"/>
<circle class="st1" cx="547.5" cy="552.1" r="55.9"/>
<circle class="st1" cx="362.9" cy="627.8" r="55.9"/>
<circle class="st1" cx="178.8" cy="550.8" r="55.9"/>
<circle class="st2" cx="267.4" cy="136.5" r="16.4"/>
<circle class="st2" cx="458.7" cy="135.9" r="16.4"/>
<circle class="st2" cx="594.4" cy="270.7" r="16.4"/>
<circle class="st2" cx="595.1" cy="462" r="16.4"/>
<circle class="st2" cx="460.3" cy="597.7" r="16.4"/>
<circle class="st2" cx="269" cy="598.4" r="16.4"/>
<circle class="st2" cx="133.2" cy="463.6" r="16.4"/>
<circle class="st2" cx="132.6" cy="272.3" r="16.4"/>
</svg>
