<?xml version="1.0" encoding="utf-8"?>
<!-- Generator: Adobe Illustrator 27.0.0, SVG Export Plug-In . SVG Version: 6.00 Build 0)  -->
<svg version="1.1" id="Layer_1" xmlns="http://www.w3.org/2000/svg" xmlns:xlink="http://www.w3.org/1999/xlink" x="0px" y="0px"
	 viewBox="0 0 1120 1080.7" style="enable-background:new 0 0 1120 1080.7;" xml:space="preserve">
<path d="M1096.7,647.5c-26.6-47.6-95.2-84.4-213.1-112.9c11.9-44-26.9-77.6-59.6-100.1c59.3-33.1,121.3-65.2,167-116.6c0,0,0,0,0,0
	c60.4-65.8,31.1-102.7-32.4-140C787.7,67.6,270.4-64.2,101.7,37.5C-5.9,102.3,399.3,245,397.5,254.3c-2.7,0.8-209,62-337.9,170.9
	l0,0c-33.5,30-75,73.7-51.9,121.7c0,0,0,0,0,0c8.3,21.7,50.4,51.6,60,60.2c-24.6,18.4-50.5,46.9-39.2,80.1c0,0,0,0,0,0c0,0,0,0,0,0
	C62.7,771,228.9,802.4,310.9,815.1C261,832.4,91.2,977.7,140.3,1045.5c0,0,0,0,0,0c24.3,39.3,166.1,32.3,148.1,33.5
	C999.3,974.7,1135.1,751.4,1096.7,647.5z M1008.3,274.3c0.1,0.1,0.1,0.1,0.2,0.2c0,0,0,0,0,0c-0.1,0-0.2,0-0.3,0
	C1008.2,274.4,1008.2,274.4,1008.3,274.3z"/>
</svg>
