<?xml version="1.0" encoding="utf-8"?>
<!-- Generator: Adobe Illustrator 23.0.1, SVG Export Plug-In . SVG Version: 6.00 Build 0)  -->
<svg version="1.1" id="Layer_1" xmlns="http://www.w3.org/2000/svg" xmlns:xlink="http://www.w3.org/1999/xlink" x="0px" y="0px"
	 viewBox="0 0 437.9 75.9" style="enable-background:new 0 0 437.9 75.9;" xml:space="preserve">
<style type="text/css">
	.st0{fill:#00A0DF;}
	.st1{fill:#76C0EA;}
	.st2{fill:#C6C6C6;}
	.st3{fill:#C51127;}
	.st4{fill:#7F182B;}
	.st5{fill:#00B69E;}
	.st6{fill:#9B3C90;}
	.st7{fill:#5E215D;}
	.st8{fill:#E8692E;}
	.st9{fill:#AB442A;}
	.st10{fill:#0A7C6E;}
	.st11{fill:#009DDC;}
</style>
<path class="st0" d="M95.3,42.7c-6.2,0-10-3.5-10-10.2V19.4h5.1v13c0,3.8,1.9,5.7,5,5.7s5-1.9,5-5.5V19.4h5.1v13
	C105.4,39.3,101.4,42.7,95.3,42.7z"/>
<path class="st0" d="M124.8,42.4l-11.2-14.7v14.6h-5v-23h4.7l10.8,14.2V19.4h5v23H124.8z"/>
<path class="st0" d="M27.1,69.8h-4.4l-5.2-15l-5.2,15H7.9L0,46.7h5.4l4.8,15.6l5.3-15.6h4.3L25,62.3l4.7-15.6H35L27.1,69.8z"/>
<path class="st0" d="M46.5,70.1c-6.5,0.2-12-4.9-12.2-11.4c0-0.2,0-0.3,0-0.5v-0.1c0-6.6,5.3-11.9,12-11.9c0.1,0,0.3,0,0.4,0
	C53.2,46,58.8,51.1,59,57.6c0,0.2,0,0.3,0,0.5v0.1c0,6.6-5.3,11.9-12,11.9C46.7,70.1,46.6,70.1,46.5,70.1z M53.5,58.2
	c0.1-3.9-2.9-7.1-6.8-7.2c-0.1,0-0.2,0-0.2,0c-3.8,0-6.9,3.1-6.9,6.9c0,0.1,0,0.2,0,0.3v0.1c-0.1,3.9,2.9,7.1,6.8,7.2
	c0.1,0,0.2,0,0.2,0c3.8,0,6.9-3,6.9-6.8C53.5,58.4,53.5,58.3,53.5,58.2L53.5,58.2z"/>
<path class="st0" d="M79,69.7v-15l-6.5,9.8h-0.1L66,54.7v15h-5v-23h5.5l6,9.7l6.1-9.7H84v23H79z"/>
<path class="st0" d="M88.1,69.7v-23h17.4v4.5H93.1v4.7H104v4.5H93.1v4.8h12.6v4.5H88.1z"/>
<path class="st0" d="M124.7,69.7l-11.1-14.6v14.6h-5v-23h4.7l10.8,14.2V46.7h5v23H124.7z"/>
<path class="st0" d="M76.5,24.4c1.8,3.3,1.5,7.3-0.8,10.3c-3.2,4.3-9.2,5.2-13.6,2s-5.2-9.2-2-13.5c0.8-1,1.8-1.9,2.9-2.6
	c2.8-1.6,6.3-1.7,9.2-0.3C74.2,21.3,75.6,22.7,76.5,24.4z M68.3,19.8c0,0.4,0,0.9,0,1.3c0-0.1,0.1-0.1,0.1-0.1s0.1,0.2,0.1,0.3l0,0
	c0.6,0,1.3,0.1,1.9,0.3c0.6,0.1,1.2,0.8,1.8,0.4c0.2,0.2,0.5,0,0.6,0.3c0.2,0,0.4,0.3,0.5,0.4c0,0.2,0.2,0.3,0.3,0.5l0,0
	c0.2-0.4,0.5-0.7,0.9-0.9c-1.3-1.2-2.9-2-4.6-2.3C69.2,19.9,68.7,19.9,68.3,19.8z M61.7,22.3l1.1,1c1.3-1.3,3.1-2,4.9-2.1
	c-0.1-0.5-0.1-0.9,0-1.4C65.5,19.9,63.4,20.8,61.7,22.3z M75,20.1l0.7,0.7c0.7,1.1,1.6,2.1,2.6,2.9c-0.2-0.4-0.3-0.9-0.5-1.4
	C77.5,21.1,76.1,20.5,75,20.1z M60.9,20.3c-0.9,0.3-1.7,0.8-2.4,1.4c-0.4,0.7-0.7,1.4-0.9,2.2l0.7-0.7
	C59.5,22.4,59.8,21.1,60.9,20.3L60.9,20.3z M69.3,20.6l-0.6,0.3c-0.1,0-0.3-0.1-0.3,0.1c0.1,0.1,0.3,0.2,0.4,0.2
	c0.4-0.2,0.9,0.1,1.2-0.3C70,20.6,69.6,20.6,69.3,20.6L69.3,20.6z M77.6,21.4c1,0.6,0.9,1.8,1.2,2.7c0.1,0.4,0.3,0.8,0.4,1.1
	c-0.5-1.5-2.2-1.6-2.8-3l0.2,0.8c0.5,1.6,2.4,2,3.1,3.4c-0.2-1.1,0.2-2.1-0.1-3.2C79.2,22.4,78.5,21.7,77.6,21.4L77.6,21.4z
	 M56.6,22.8c-0.8,1.1-0.1,2.6-0.3,3.8c0.3-0.5,0.7-1,1.2-1.4c1.1-0.6,1.8-1.7,2-2.9c-0.5,1.4-2.3,1.6-2.8,3l0,0
	c0.7-1.2,0.3-2.9,1.5-3.9C57.7,21.7,57.1,22.2,56.6,22.8z M68.2,21.8c0,0.5,0,1,0,1.4c1.1,0,2.2,0.3,3.1,1c-0.1-0.1-0.1-0.2-0.1-0.3
	l0,0c0-0.2-0.2-0.2-0.1-0.4c0.2,0,0.4,0.3,0.5,0.5c0.6,0,0.3,0.7,0.7,0.9c0.1,0.1,0,0.3,0.1,0.3s0.3,0.2,0.3,0.4
	c0,0.2,0.3-0.1,0.5,0.1c0.2,0.2-0.1,0.2-0.1,0.3s0.2-0.1,0.2,0c0,0.1,0,0.2-0.1,0.2s0.2,0.1,0.2,0.2c0.1,0.2,0.1,0.5,0,0.8
	c0.2,0.2,0,0.5-0.1,0.7c-0.1,0.2-0.2,0.5-0.5,0.4c-0.1,0.1,0,0.3,0,0.4h0.5c-0.3-0.4,0.1-0.8,0.2-1.2c0.1,0,0.1-0.2,0.2,0
	c0.1,0.2,0,0.4-0.1,0.5c0.1,0.2,0.1,0.5,0.1,0.7h1.6c-0.1-0.9-0.3-1.8-0.7-2.6c-0.1,0-0.2,0.1-0.3,0c-0.1-0.2-0.3-0.4-0.5-0.6
	c-0.2,0-0.3-0.1-0.4-0.2c-0.3,0-0.2-0.4-0.5-0.4c-0.2-0.1-0.3-0.2-0.3-0.4c0-0.2-0.1-0.5-0.2-0.7c-0.1-0.1-0.2,0-0.3,0.1
	c-0.1,0.1-0.2-0.1-0.2-0.2c-0.2-0.1,0-0.3-0.1-0.5c-0.3-0.2-0.2-0.6-0.5-0.8c-0.6-0.3-1.2-0.5-1.9-0.6
	C68.9,21.9,68.6,21.8,68.2,21.8z M72.4,21.8c-0.1,0,0,0.1,0,0.2c0.2,0,0.2,0.4,0.5,0.3L72.8,22C72.7,21.7,72.5,21.8,72.4,21.8z
	 M63.1,23.8c0.4,0.3,0.7,0.6,1,1c1-0.9,2.3-1.5,3.6-1.5c0-0.5,0-0.9,0-1.4C66,21.9,64.4,22.6,63.1,23.8L63.1,23.8z M74.6,22.6l-1,1
	h-0.2c0.1,0,0.1,0.1,0.2,0.2c0.4,0.3,0.6,0.7,0.9,1c0.1,0.3,0.4,0.5,0.4,0.9c0.4,0.9,0.7,2,0.7,3c0.5,0,1-0.1,1.4-0.1l0,0
	C77.1,26.4,76.2,24.3,74.6,22.6z M61.5,22.8L61.5,22.8c-1.5,1.6-2.4,3.7-2.5,6h1.5c0-0.5,0-0.9,0.1-1.4c0.3-1.4,1-2.6,1.9-3.6
	L61.5,22.8z M79.8,23.1c0.7,1,0.3,2.3,0.2,3.5c0.1,0.5,0.1,1.1,0.1,1.6C80,28,80,27.7,79.9,27.5c-0.3-1.2-1.7-1.8-2.3-2.8
	c0.1,0.3,0.2,0.7,0.3,1c0.5,1.4,2,2.4,2.2,4c0.1-1.5,1.2-2.7,0.8-4.4C80.8,24.5,80.4,23.8,79.8,23.1z M56.1,23.3
	c-0.5,0.7-0.9,1.4-1,2.2c-0.3,1.7,0.7,2.9,0.9,4.4c0.2-1.9,2.2-3.1,2.3-5c-0.6,1.1-2,1.7-2.3,3c0,0.2-0.1,0.4-0.1,0.6l0,0l0.1-0.8
	C56.2,26.1,55.4,24.6,56.1,23.3z M67.7,23.7L67.7,23.7c-1.2,0.1-2.3,0.6-3.2,1.4c0.4,0.3,0.7,0.6,1,0.9c0.6-0.6,1.4-0.9,2.3-0.9
	C67.7,24.6,67.7,24.1,67.7,23.7z M68.3,23.7c0,0.4,0,0.9,0,1.3c0.9,0.1,1.7,0.4,2.3,0.9c0.3-0.4,0.6-0.7,1-0.9
	C70.6,24.2,69.5,23.8,68.3,23.7L68.3,23.7z M62.7,24L62.7,24c-1.1,1.4-1.8,3-1.9,4.7c0.5,0,1,0,1.4,0l0,0c0.1-1.4,0.6-2.7,1.5-3.7
	C63.4,24.7,63,24.4,62.7,24L62.7,24z M72,25.4c-0.4,0.5-1,1-1.4,1.5c0,0.1,0.1,0.1,0.1,0.1s0-0.5,0.3-0.4s0.6,0.1,0.9,0.1
	c0.2,0,0.2,0.3,0.4,0.3c0.2,0.1,0,0.2-0.1,0.2l0.1,0.1c0.1-0.1,0.2-0.2,0.4-0.1c0.2,0,0.2,0.3,0.4,0.3s0,0.2-0.1,0.2
	s-0.2,0.2-0.1,0.4c0.1,0,0.2,0,0.2-0.1c0.3-0.3,0.1-0.6,0-0.9c-0.1-0.3-0.4-0.3-0.7-0.5c0-0.1,0.1-0.2,0.1-0.2
	C72.6,26,72.1,25.7,72,25.4z M64.1,25.4c-0.3,0.3-0.5,0.8-0.8,1.2c-0.3,0.7-0.5,1.4-0.6,2.1h0.6c0-0.1-0.1-0.3,0-0.4
	c0.1-0.3,0.2-0.8,0.6-0.8c0.2-0.1,0-0.2,0.2-0.3c0.3,0,0.4-0.3,0.7-0.5c0.3-0.1,0.3-0.4,0.5-0.4C64.8,26.1,64.4,25.8,64.1,25.4
	L64.1,25.4z M68.3,25.5v1l0.4,0.2c0.1-0.2,0.3-0.2,0.4-0.4c0.1-0.2,0.2,0.1,0.2,0.1c0.1,0.4-0.4,0.6-0.7,0.8h0.1
	c0.3-0.3,0.4,0.4,0.7,0.1c0.1-0.4,0.6-0.3,0.7-0.7c-0.1,0.1-0.1,0-0.2,0s0.2-0.2,0.3-0.3C69.6,25.9,69,25.7,68.3,25.5L68.3,25.5z
	 M67.7,25.5c-0.8,0.1-1.5,0.4-2,1c0.2,0,0.4,0.1,0.5,0.2c0,0.1-0.1,0.1-0.1,0.1s0.1,0,0.3-0.1c0.1-0.1,0.2,0.2,0.4,0.1
	c0.1,0.1,0.2,0,0.3,0c0.1,0,0.2-0.2,0.1-0.3c-0.1-0.1,0.1-0.3,0.2-0.3c-0.1,0.4,0.3,0,0.4,0.2C67.8,26.3,67.7,25.9,67.7,25.5
	L67.7,25.5z M81.4,26.5c0.3,1.5-0.6,2.6-1,3.8c-0.2,0.5-0.1,1.1-0.4,1.5c0-0.2,0.1-0.5,0.1-0.7c0.2-1.6-1.2-2.6-1.5-4
	c0,0.3,0,0.7,0.1,1c0.1,1.7,1.2,3.1,0.9,4.9c0.3-0.4,0.6-0.9,1-1.3C81.7,30.3,82,28.4,81.4,26.5L81.4,26.5z M54.8,26.7
	c-0.4,1.2-0.5,2.4-0.1,3.6c0.3,1.2,1.4,2,2,3c-0.1-0.5-0.1-0.9,0-1.4c0.5-1.5,0.8-3,0.9-4.6c-0.2,1.2-1.3,2-1.4,3.3
	c0,0.5,0,1,0.1,1.5c-0.1-0.2-0.2-0.5-0.2-0.8C55.8,29.8,54.5,28.6,54.8,26.7L54.8,26.7z M67.7,27.3L67.7,27.3c0,0.1,0.1,0.3,0,0.4
	s-0.6,0.2-0.6,0.5c-0.4,0.1-0.3,0.6-0.4,1c-0.3,0.1-0.2-0.3-0.3-0.4l-0.1,0.1c-0.4-0.3-0.3,0.4-0.6,0.4c0.3,0.1,0.5-0.1,0.8-0.1
	l0.1,0.1l0,0c0.1-0.1,0.1-0.1,0.1-0.2s0.1-0.1,0.2-0.1l0,0c0,0.1,0,0.2,0.1,0.2l-0.2,0.2c-0.1,0.1,0,0.3-0.2,0.3c0,0-0.1,0-0.1-0.1
	l0,0l0.1,0.2c0.1,0,0.1-0.2,0.3-0.3c0.2-0.1,0.2-0.2,0.1-0.3c0.2-0.2,0.4-0.1,0.6-0.1c0,0,0.2,0.1,0.2,0.2c0,0.1-0.1,0.3-0.2,0.5
	c-0.1,0.2-0.1,0.2-0.1,0.3c-0.2,0.2-0.4,0.1-0.6,0.1c0.3,0.2,0.6,0.3,1,0.3s0.2-0.4,0.4-0.6c0.2,0,0.3,0,0.5,0
	c0.1-0.1,0.1-0.3,0.1-0.4c-0.2-0.1-0.1-0.2-0.1-0.4c0-0.1-0.1-0.3-0.3-0.3c0-0.1,0.1-0.1,0.1-0.2c0.3-0.1-0.1-0.3,0-0.4
	c-0.3-0.1-0.4-0.5-0.8-0.4c-0.1-0.1-0.3-0.2-0.3-0.4C67.5,27.2,67.8,27.3,67.7,27.3c0.1,0,0.1,0,0.1-0.1c-0.1,0-0.3,0-0.4,0.1H67.7z
	 M63.9,28.5c-0.3,0.1,0,0.4,0,0.6s-0.2,0-0.3,0.1c0,0.3-0.2,0.3-0.4,0.4c-0.2,0,0.2,0.3,0.1,0.5c0.3,0.2,0.4,0.5,0.4,0.9
	c0.2,0.2,0.1,0.6,0.2,0.9c0.1,0.2,0.2,0.4,0.2,0.6c0,0.1-0.1,0.2-0.2,0.2c-0.1,0,0.1,0.1,0.1,0.1l1.1-1.1c-0.4-0.5-0.7-1.1-0.9-1.8
	L64,29.7c0,0.2,0,0.4-0.2,0.5s-0.3-0.1-0.3-0.3c0-0.2,0.1,0,0.2,0c0-0.1,0-0.2,0-0.2c0-0.1-0.1-0.2,0-0.3s0.2,0.1,0.2,0.2l0.2-0.1
	c-0.1-0.2,0.1-0.5,0-0.8C64,28.5,63.9,28.5,63.9,28.5L63.9,28.5z M72.7,28.6L72.7,28.6z M72.6,29.1l0.2,0.3c0,0.3,0.4,0.4,0.4,0.7
	c0.1-0.3,0.1-0.6,0.2-0.9C73.1,29.2,72.8,29.3,72.6,29.1L72.6,29.1z M75.8,29.1L75.8,29.1c-0.1,1.9-0.8,3.7-2.1,5
	c0.3,0.3,0.7,0.7,1,1c1.2-1.3,2-2.9,2.3-4.7c0.1-0.5,0.1-0.9,0.2-1.4C76.8,29.1,76.3,29.2,75.8,29.1L75.8,29.1z M74,29.1
	c0,0.2,0,0.4,0,0.5c-0.2,0.3,0.3,0.4,0.1,0.7c-0.1,0.1-0.2,0.1-0.3,0c-0.2,1-0.7,1.9-1.4,2.6h-0.1c0.2,0.1,0.3,0.3,0.5,0.4v-0.1
	c0,0,0-0.1,0.1-0.1c0.4,0.1,0.4,0.6,0.4,0.8c0.9-0.9,1.5-2.1,1.8-3.3c0-0.4,0.1-0.9,0.2-1.3c-0.5,0-0.9,0-1.4,0L74,29.1z M62.7,29.1
	c0.1,0.3,0.2,0.7,0.1,1c0-0.2,0.3-0.3,0.1-0.5c0.1-0.2,0-0.5,0.2-0.5c-0.1,0.1-0.3,0.2-0.5,0.2L62.7,29.1z M59,29.1
	c0.1,2.2,1,4.3,2.4,6c0.3-0.4,0.7-0.7,1.1-1c-0.2-0.1-0.3-0.3-0.5-0.5c-0.2-0.1-0.4-0.2-0.4-0.5c0,0,0,0,0,0.1
	c-0.2,0.1-0.3-0.2-0.4-0.2c-0.1,0,0-0.4-0.2-0.2c-0.1-0.2-0.4-0.2-0.4-0.4l-0.1,0.1c-0.2,0-0.3-0.2-0.4-0.3
	c-0.3,0.1-0.2-0.4-0.4-0.5c-0.1-0.3,0-0.6,0.2-0.8c0.1-0.1,0.2-0.1,0.3,0c0.2,0.1,0.1-0.1,0.2-0.2c0.3-0.2,0.4,0.1,0.5,0.2
	c-0.2-0.6-0.3-1.2-0.3-1.9c-0.5,0.1-1,0.2-1.5,0.2L59,29.1z M60.9,29.1L60.9,29.1c0.1,0.7,0.3,1.3,0.3,2c0.1-0.1,0-0.2,0.1-0.2
	c0-0.3,0.1-0.6,0.3-0.9c0.3,0,0.3-0.4,0.6-0.4c0.1,0.1,0.2,0.1,0.2,0.2c-0.1-0.2-0.2-0.5-0.1-0.7c-0.5,0.1-1,0.2-1.5,0.2L60.9,29.1z
	 M64.8,29.7l0.1,0.1c0.1,0.4,0.3,0.8,0.6,1.2l0.4-0.4c0-0.1,0-0.1,0-0.2c0,0,0-0.3-0.1-0.4c-0.1-0.1,0.1,0.1,0,0.2
	c-0.2,0-0.3-0.1-0.3-0.3c0-0.2-0.1-0.1-0.2-0.1c-0.1-0.1-0.3,0.1-0.4,0L64.8,29.7z M66.3,30c0,0.1-0.1,0.2-0.2,0.3
	c0.1,0,0.2-0.2,0.3-0.2L66.3,30z M78.7,30.2c-0.8,1.9-0.2,4.3-1.3,6.1l0.2-0.1c2-1.1,4.5-3,4.1-5.7c0,0.4-0.1,0.7-0.3,1
	c-0.8,1.5-2.2,2.5-2.9,3.7c0,0-0.1,0.1-0.1,0l0.1-0.2c1-1.4,0.1-3.1,0.2-4.6L78.7,30.2z M70.1,30.3c-0.2,0.3,0.2,0.3,0.2,0.5h0.1
	c0,0,0-0.2-0.1-0.3s-0.2,0-0.3,0L70.1,30.3z M57.5,30.3c0,0.6,0,1.1-0.2,1.7c-0.3,1-0.2,2.2,0.5,3.1c-0.2-0.1-0.3-0.3-0.5-0.5
	c-0.8-1.4-2.6-2.2-2.8-4c0,0.6,0,1.2,0.2,1.8c0.5,1.9,2.7,2.9,4.1,3.9c-1.1-1.5-0.5-3.9-1.3-5.7V30.3z M72.5,30.4
	c-0.3-0.2-0.2,0.2-0.4,0.2S72,30.5,72,30.4c0,0.2-0.2,0.4-0.3,0.5c-0.4-0.1-0.3,0.5-0.7,0.3c0,0.2,0.2,0,0.3,0
	c0.1,0,0.1-0.1,0.1-0.1c0.1-0.2,0.2-0.2,0.4-0.2l0,0c0.1,0.2,0.1,0.3,0.1,0.5c-0.1,0.1-0.1,0.2-0.1,0.3s-0.1,0.6-0.4,0.6
	c-0.4-0.2-0.8-0.2-1.3-0.3v0.1c0.3,0.1,0.6,0.1,0.8,0.3c0.3,0,0.6,0,0.8-0.1c0-0.2,0.1-0.3,0.2-0.5c0.2,0,0.1,0.2,0.2,0.3
	c0.5-0.5,0.9-1.2,1.1-1.9c-0.3,0.2-0.4,0.4-0.7,0.3V30.4z M66.7,30.4l-0.9,1c0.5,0.4,1.1,0.7,1.7,0.8c0-0.2,0-0.3,0.1-0.5
	c0.1-0.1,0.2,0,0.3-0.1c0.1-0.1-0.1-0.1-0.1-0.1c0-0.1,0-0.2,0-0.3s-0.1-0.2,0-0.3c-0.3,0.1-0.5,0-0.8-0.1s-0.3,0.1-0.4-0.2
	L66.7,30.4z M69.5,31.4c0.1-0.1,0.3-0.1,0.4-0.3c-0.2,0.1-0.5,0.3-0.4,0.5V31.4z M70,31.6c-0.1,0.1-0.2,0.1-0.2,0.2
	c0,0.1-0.3,0-0.4-0.1s0.1,0.1,0,0.2c-0.1,0.1-0.2-0.1-0.3-0.1c-0.1,0.4-0.2-0.1-0.4,0c-0.1-0.2-0.2,0-0.4,0c-0.2,0-0.1,0.4-0.3,0.3
	c0,0.1-0.2,0.1-0.2,0.2c0,0.1,0.2,0.1,0.3,0c0.2-0.2,0.4-0.1,0.6-0.1c0,0.3,0.4,0.1,0.5,0.3c0.1,0,0.1-0.1,0.2-0.3
	c0.3,0,0.5-0.2,0.7-0.4C70.1,31.9,70.2,31.8,70,31.6L70,31.6z M65.4,31.8c-0.3,0.4-0.6,0.7-1,1h0.1c0.8,0.7,1.7,1.1,2.7,1.3
	c-0.3,0-0.5-0.4-0.6-0.6s0.2-0.3,0.2-0.5c0.1-0.2,0.3-0.3,0.5-0.3L67,32.9c-0.6-0.2-1.2-0.5-1.6-0.9V31.8z M77.8,32.9l-0.8,1
	c-1,1.4-0.9,3.3-2.3,4.5c0.8-0.2,1.5-0.4,2.3-0.5c1.9-0.5,3.3-2,3.7-3.9c-0.4,0.7-0.9,1.3-1.6,1.7c-1.2,0.5-2.2,1.3-3.2,2.1h-0.1
	l0.1-0.1c1.6-1,1.2-3.1,1.8-4.7L77.8,32.9z M72,33.2L72,33.2c-0.7,0.5,0.3,0.5,0.3,0.9c-0.1,0.2-0.5,0.4-0.2,0.6
	c0.1,0.1,0,0.1-0.1,0.2l0.9-0.8c-0.1,0.1-0.2,0-0.3-0.1l0,0C72.7,33.7,72.2,33.6,72,33.2z M58.3,33.2l0.3,0.7
	c0.3,1.5,0.4,3.1,1.7,4.1l0,0c-0.4-0.2-0.8-0.5-1.2-0.8c-1.3-0.8-3-1.2-3.8-2.8c0.3,1.2,1,2.2,1.9,2.9c1.1,1,2.7,0.9,4.1,1.3
	c-0.5-0.4-0.8-0.9-1-1.4C60,35.8,59.3,34.4,58.3,33.2L58.3,33.2z M64.3,33.5L64.3,33.5L64.3,33.5z M64.4,33.7c0,0.1,0.2,0.2,0.1,0.4
	c-0.3,0.2-0.7,0-1,0.3s-0.5-0.2-0.7-0.1c1.3,1.2,2.9,1.9,4.6,2l0.1,0.1c0-0.5,0-0.9,0-1.4C66.5,34.9,65.4,34.5,64.4,33.7L64.4,33.7z
	 M73.3,34.5c-0.2,0.3-0.5,0.5-0.8,0.7c-0.9,0.3-1,1.4-1.9,1.7c-0.4,0.1-0.6-0.3-0.9-0.4c-0.5,0.1-1,0.2-1.5,0.1v1.5h0.1
	c2.2-0.1,4.4-1,6-2.5C73.9,35.3,73.6,34.9,73.3,34.5L73.3,34.5z M62.6,34.6l-1,1c1.7,1.5,3.8,2.4,6,2.5L67.5,38c0-0.5,0-0.9,0-1.4
	l0,0C65.8,36.6,64,35.9,62.6,34.6L62.6,34.6z M68.1,34.9l0.1,0.2v1.1c0.4-0.1,0.7-0.1,1.1-0.2c-0.2-0.2-0.4-0.2-0.5-0.4
	s0.1-0.4,0-0.5S68.4,35.2,68.1,34.9L68.1,34.9z M75.8,36c-0.9,0.7-1.8,1.9-2.8,2.6c-0.5,0.3-1.1,0.6-1.8,0.7
	c1.3,0.1,2.5,0.7,3.9,0.6c1.5-0.1,2.9-0.9,3.6-2.3c-1,1.2-2.7,1.2-4.3,1.3c-0.5,0.1-1,0.2-1.5,0.2c0,0,0-0.1,0.1,0
	C74.7,39,75.2,37.2,75.8,36L75.8,36z M60.2,36.1c0.7,0.8,0.7,1.9,1.7,2.5c0.4,0.3,0.8,0.4,1.3,0.6c-0.5,0-0.9-0.1-1.3-0.2
	c-1.6-0.2-3.3,0-4.5-1.3c0.5,0.9,1.4,1.6,2.4,2c1.8,0.7,3.4-0.3,5.2-0.5C63,39.3,61.9,37.1,60.2,36.1L60.2,36.1z M73.2,40.3
	c-1.5-0.7-3.3-1.5-5.1-0.8c-1-0.3-2-0.3-3,0c-1.6,0.7-3.8,1.8-5.4,0.6c0.3,0.3,0.6,0.6,1,0.8c1.2,0.6,2.6,0.7,3.8,0.1
	c1-0.4,1.8-1.7,3.1-1.3c-1.1,0.6-2.1,1.3-3,2.2l0.6,0.5c0.8-1.1,1.9-1.9,3.1-2.4c1.1,0.6,2.2,1.4,3,2.4l0.6-0.5
	c-0.9-0.9-1.9-1.6-3-2.1c0.3-0.1,0.6-0.1,0.9,0c1.2,0.5,2.1,1.5,3.4,1.7s2.7-0.3,3.5-1.4L76,40.5C75,40.7,74.1,40.7,73.2,40.3
	L73.2,40.3z"/>
<path class="st0" d="M160.8,26.5c2.9-0.1,5.7-0.5,8.5-1.2v-5.9h-8.5V26.5z"/>
<path class="st0" d="M178,26.1c-1.6,0.8-3.2,1.5-4.9,2v6.6c2.8-2.1,5.1-4.7,6.9-7.8V25C179.3,25.4,178.6,25.8,178,26.1z"/>
<path class="st0" d="M169.3,36.9v-7.8c-2.8,0.6-5.6,1-8.5,1.1v9.1C163.7,39,166.6,38.2,169.3,36.9z"/>
<path class="st0" d="M173,19.4v4.8c2.5-0.8,4.8-2.1,6.9-3.7v-1.1H173z"/>
<path class="st1" d="M156.4,19.4h-8.9v5.9c2.9,0.7,5.9,1.1,8.9,1.3V19.4z"/>
<path class="st1" d="M143.7,24.1v-4.7h-6.4v1.2c1.1,0.9,2.3,1.7,3.5,2.3C141.7,23.3,142.7,23.7,143.7,24.1z"/>
<path class="st1" d="M156.4,30.1c-3-0.1-6-0.5-8.9-1.1v7.7c2.8,1.4,5.8,2.3,8.9,2.6V30.1z"/>
<path class="st1" d="M143.7,34.4V28c-2.3-0.7-4.4-1.7-6.4-3v1.9C138.9,29.8,141,32.3,143.7,34.4z"/>
<path class="st1" d="M147.3,62.4v-4.1h9v-4.1h-9v-4.1h9v-7c-7.4-0.6-14.3-4-19.1-9.6v36.3h19.1v-7.2h-9V62.4z"/>
<path class="st0" d="M160.8,43v7h8.6v4.1h-8.6v4.1h8.6v4.2h-8.6v7.2h19.1V33.3C175.1,38.9,168.1,42.4,160.8,43z"/>
<rect x="196.9" y="18.7" class="st2" width="1.1" height="50.9"/>
<g>
	<path class="st3" d="M213.2,21c0.2,0,0.3-0.3,0.5,0c0.4,0.8-0.1,1.6,0.2,2.4c0.1,0,0.2,0,0.3,0c0,0.7,0,1.4-0.1,2.1
		c0.1,0.6,0.3,1.3,0.4,1.9s0.3,1.3,0.5,1.9c0.1-0.1,0.2-0.1,0.3,0c0.2,0.5,0.2,1.3,0.3,2c0,0.1,0.1,0.2,0.1,0.3
		c0.1,0.1,0.2,0.1,0.3,0.1c0,0.3,0.1,0.7,0.1,1c1.1,3.7,2.2,7.5,3.1,11.7c0.3,0.9,0.6,1.8,0.8,2.6c0.1,0.7,0,1.4,0,2.1
		c-0.1,0.7-0.1,1.5-0.2,2.1c0.6-0.1,0.9,0.7,1.3,1.4c0.4,0.7,0.7,1.4,1.3,1.1c-0.1,0.9-0.3,2.2,0.1,2.2c0.5,0.1,0.9,0.4,1.3,1
		c0.4,0.5,0.7,1.4,0.8,2.7c0,0.5-0.2,1.1-0.4,1.6s-0.3,1-0.3,1.2c0,0.1,0.1,0.1,0.2,0.1c0.1-0.1,0.2-0.2,0.3-0.3
		c0.2-0.3,0.5-0.6,0.6-0.3c1.1-3.7,1.3-7.2,1.4-10.6c0.1-3.4-0.1-6.8-0.3-10.2c-0.3-1.2-0.8-5.6-1.5-10.3c-0.4-2.3-0.8-4.7-1.1-6.7
		c-0.4-2-0.7-3.7-0.9-4.7l-0.1-0.3c-0.4-2.2-1.2-4.7-2.1-6.5c-0.5-0.8-1.1-1.5-1.6-2.2c-0.1,0.5-0.1,0.9-0.2,1.2
		c-0.1-0.4-0.3-0.9-0.4-1.2s-0.3-0.6-0.4-0.7c-0.5-0.8-0.9-0.9-1.1-0.7c-0.2,0.2-0.4,0.7-0.6,1.2c-0.1,0.6-0.9,0.1-0.9,1
		c-0.2-0.5-0.3-0.8-0.4-1.3c-0.3,0.1,0.7,1.6,0.1,1.4c-0.1-0.5-0.5-1.1-0.6-1.6c-0.3,0.3,0.5,1.8,0.1,1.9c-0.2-0.3,0-1.6-0.5-1.6
		c-0.1,0,0.1,0.5,0.2,0.8c-0.7-1.5-1.5-2.2-1.5-0.6c-0.2-0.5-0.3-1.3-0.5-1.7l0,0c0.1,0.3,0.2,0.7,0.3,1c-0.1-0.3-0.2-0.6-0.3-0.9
		c-0.1,0.1-0.1,0.1-0.1,0.2c0,0.2,0.1,0.5,0.1,0.7c-0.1-0.2-0.1-0.4-0.2-0.6c-0.1,0.2-0.2,0.4-0.3,0.7c0,0.4-0.1,0.8-0.1,1.1
		c-0.1,0.4-0.1,0.7-0.1,0.9c0.4,1.5,0.8,3.1,1.2,4.7C212.6,17.8,212.9,19.4,213.2,21z"/>
	<g>
		<polygon class="st4" points="215.9,11 215.9,14.5 214.2,12.8 213.5,13.4 215.9,15.8 215.9,18.3 212.6,14.8 212,15.4 215.9,19.6 
			215.9,22.7 213,19.6 213.2,20.9 216.8,25.1 216.8,11 		"/>
		<polygon class="st4" points="218.7,27 218.7,23.9 222.6,19.6 221.9,19.1 218.7,22.5 218.7,20 221.1,17.7 220.4,17 218.7,18.8 
			218.7,15.2 217.8,15.2 217.8,29.3 223.1,23.4 223.1,22.1 		"/>
	</g>
	<g>
		<path class="st5" d="M273.2,31.8c-0.7-0.3-1.3-0.7-1.8-1.2c-0.5-0.5-0.9-1.2-1.2-2c-0.3-0.8-0.5-1.8-0.5-2.8s0.1-2,0.4-2.8
			c0.3-0.8,0.7-1.5,1.2-2c0.5-0.5,1.1-0.9,1.8-1.2c0.7-0.3,1.4-0.4,2.2-0.4c0.8,0,1.5,0.1,2.2,0.4c0.7,0.3,1.3,0.7,1.8,1.2
			c0.5,0.5,0.9,1.2,1.2,2c0.3,0.8,0.4,1.8,0.4,2.8c0,1.1-0.1,2-0.5,2.8c-0.3,0.8-0.7,1.5-1.2,2c-0.5,0.5-1.1,0.9-1.8,1.2
			c-0.7,0.3-1.4,0.4-2.2,0.4S273.9,32.1,273.2,31.8z M277.1,29.6c0.5-0.3,0.8-0.8,1.1-1.5c0.2-0.6,0.4-1.4,0.4-2.3s-0.1-1.7-0.4-2.3
			c-0.2-0.6-0.6-1.1-1.1-1.4c-0.5-0.3-1-0.5-1.6-0.5c-0.3,0-0.6,0-0.9,0.1c-0.3,0.1-0.6,0.2-0.8,0.4c-0.3,0.2-0.5,0.4-0.7,0.7
			c-0.2,0.3-0.3,0.7-0.5,1.2c-0.1,0.5-0.2,1.1-0.2,1.9c0,0.9,0.1,1.7,0.4,2.3c0.2,0.6,0.6,1.1,1.1,1.5s1,0.5,1.7,0.5
			C276,30.1,276.6,29.9,277.1,29.6z"/>
		<path class="st5" d="M285.6,24.5v7.6h-2.5V19.5h2.6l3.8,7.9l3.9-7.9h2.4v12.7h-2.5l0.1-7.8l-3.1,6.3h-1.7L285.6,24.5z"/>
		<path class="st5" d="M298.4,32.1V19.5h8v2h-5.5v3.4h4.3v2h-4.3v3.3h5.5v2L298.4,32.1L298.4,32.1z"/>
		<path class="st5" d="M315.8,32.1l-4.7-8v8h-2.5V19.5h2.6l4.7,8.4v-8.4h2.5v12.7H315.8z"/>
		<path class="st5" d="M320.9,19.6c0.3-0.3,0.6-0.4,1-0.4c0.3,0,0.6,0.1,0.8,0.3s0.4,0.4,0.5,0.7c0.1,0.3,0.1,0.5,0.1,0.8
			c0,0.7-0.1,1.3-0.3,1.8c-0.2,0.5-0.5,1-0.9,1.3c-0.3,0.3-0.7,0.5-0.9,0.6l-0.6-1c0.3-0.2,0.6-0.4,0.8-0.7s0.4-0.6,0.4-0.9
			c-0.4,0-0.7-0.1-1-0.4s-0.4-0.6-0.4-1C320.5,20.2,320.7,19.8,320.9,19.6z"/>
		<path class="st5" d="M332.7,22.9c-0.1-0.2-0.3-0.4-0.5-0.7c-0.3-0.3-0.6-0.5-1-0.6c-0.4-0.2-0.9-0.2-1.3-0.2
			c-0.5,0-0.9,0.1-1.2,0.3c-0.3,0.2-0.6,0.4-0.7,0.6c-0.1,0.2-0.2,0.5-0.2,0.7c0,0.4,0.1,0.7,0.5,1c0.3,0.3,1,0.5,2,0.8
			c1,0.3,1.7,0.5,2.1,0.6c0.4,0.2,0.7,0.3,0.9,0.5c0.3,0.2,0.5,0.4,0.7,0.7c0.2,0.3,0.3,0.5,0.5,0.9c0.1,0.3,0.2,0.7,0.2,1.2
			c0,0.5-0.1,0.9-0.3,1.3c-0.2,0.4-0.5,0.8-0.9,1.2c-0.4,0.3-0.9,0.6-1.5,0.8c-0.6,0.2-1.3,0.3-2.1,0.3c-0.7,0-1.4-0.1-2.1-0.3
			c-0.7-0.2-1.4-0.5-1.9-1s-0.9-0.9-1.2-1.4l1.5-1.4c0.2,0.3,0.4,0.5,0.8,0.9c0.4,0.3,0.8,0.6,1.3,0.8c0.5,0.2,1,0.3,1.6,0.3
			c0.7,0,1.2-0.1,1.6-0.4c0.4-0.3,0.6-0.6,0.6-1.1c0-0.4-0.2-0.8-0.5-1.1c-0.3-0.3-1-0.6-2-0.8s-1.7-0.5-2.2-0.6
			c-0.4-0.2-0.8-0.4-1.1-0.7c-0.3-0.3-0.6-0.6-0.8-1c-0.2-0.4-0.3-0.9-0.3-1.5c0-0.5,0.1-0.9,0.3-1.4c0.2-0.4,0.5-0.8,0.9-1.2
			c0.4-0.3,0.9-0.6,1.5-0.8c0.6-0.2,1.2-0.3,1.9-0.3c0.7,0,1.3,0.1,2,0.3c0.7,0.2,1.3,0.5,1.8,0.9c0.5,0.4,0.8,0.9,1,1.3L332.7,22.9
			z"/>
	</g>
	<path class="st6" d="M230.3,57.8c-0.2-0.1-0.4,0.1-0.5-0.2c0-1,0.9-1.6,0.9-2.5c-0.1-0.1-0.2-0.1-0.3-0.1c0.3-0.7,0.7-1.4,1.1-2.1
		c0.4-1.4,0.7-2.8,1-4.2c-0.1,0-0.2,0-0.2-0.2c0.1-0.6,0.5-1.4,0.8-2.2c0-0.1,0.1-0.3,0.1-0.4c0-0.1-0.1-0.2-0.2-0.2
		c0.1-0.4,0.3-0.7,0.4-1c0.8-4.2,1.7-8.5,3-13.1c0.2-1,0.3-2,0.6-3c0.3-0.7,0.7-1.4,1.1-2.1c0.4-0.7,0.8-1.4,1.2-2
		c-1.1-0.3,0.1-3.6-1.3-3.6c0.5-0.8,1.2-2,1-2.3c-0.4-0.3-0.7-0.8-0.8-1.5s-0.1-1.6,0.3-2.9c0.4-0.9,1.6-2,1.6-2.4
		c0-0.6-1.3,0.8-1.2,0.1c-0.5,0.8-1.1,1.6-1.5,2.4c-0.5,0.8-1,1.6-1.4,2.4l-0.7,1.2c-0.2,0.4-0.4,0.8-0.7,1.2l-1.3,2.4
		c-1.6,3.3-3.2,6.7-4.7,10.2c-0.2,0.6-0.6,2.1-1.3,4.1c-0.3,1-0.7,2.1-1.1,3.2c-0.2,0.6-0.4,1.2-0.6,1.8c-0.2,0.6-0.4,1.2-0.6,1.8
		c-0.8,2.5-1.6,5-2.2,7.3c-0.3,1.1-0.6,2.1-0.8,3c-0.2,0.9-0.5,1.6-0.6,2.1l-0.1,0.4c-0.3,1.2-0.6,2.5-0.8,3.8
		c-0.2,1.3-0.3,2.5-0.3,3.6c0.1,1,0.3,2,0.4,3c0.3-0.4,0.5-0.8,0.7-1.1c-0.2,0.9-0.4,1.9-0.2,2.3c0.2,2.1,0.9,1,1.8,0.4
		c0.4-0.5,0.8,0.3,1.3-0.5c-0.1,0.6-0.2,0.9-0.3,1.5c0.1,0.1,0.2-0.4,0.2-0.9c0.1-0.4,0.1-0.8,0.3-0.6c-0.2,0.6-0.1,1.3-0.2,1.9
		c0.5-0.1,0.5-2.1,0.9-1.9c0,0.3-0.8,1.6-0.3,1.8c0.1,0,0.2-0.6,0.3-0.9c-0.1,1.9,0.2,3,1.1,1.4c-0.1,0.6-0.5,1.4-0.5,2l0,0
		c0.1-0.3,0.3-0.8,0.3-1.1c-0.1,0.3-0.1,0.7-0.2,1.1c0.1-0.1,0.2-0.1,0.3-0.2c0.1-0.3,0.2-0.5,0.3-0.8c0,0.2-0.1,0.5-0.1,0.7
		c0.2-0.1,0.4-0.3,0.6-0.5c0.5-0.8,1.1-1.5,1.1-2C228.5,64.9,229.3,61.3,230.3,57.8z"/>
	<g>
		<path class="st7" d="M229.5,60.9l0.2-0.9l-9.1-1.8l-0.1,0.9l1.3,0.3l0.4,1.3l-1.9-0.4l-0.1,0.9l2.3,0.4l1.4,4.6l2.6-4l2.6,0.5
			l0.2-0.9l-2.3-0.5l0.6-0.9L229.5,60.9z M222.7,59.6l3.9,0.7l-2.5,3.8L222.7,59.6z"/>
		<path class="st7" d="M230.3,56.1l0.5-0.8l-3.2-0.5l-1.5-4.5l-2.6,4l-1.9-0.3l-0.2,0.8L223,55l-0.6,0.9l-1.4-0.3l-0.1,1l9.2,1.7
			l0.2-0.9l-1.9-0.4l-0.5-1.4L230.3,56.1z M223.4,56.1l2.4-3.8l1.5,4.5l-2.4-0.4L223.4,56.1z"/>
	</g>
	<path class="st8" d="M236.1,26.7c0.3-1,0.5-1.9,0.8-2.8c0.1-0.5,0.3-0.9,0.5-1.4l0.5-1.4l0.5-1.4l0.3-0.7c0.1-0.2,0.2-0.5,0.3-0.7
		c0.2-0.5,0.9-1.1,1.6-1.8c0.2-0.2,0.5-0.3,0.7-0.4c-0.1,0.2-0.2,0.5-0.3,0.7c0.1-0.3,0.3-0.5,0.4-0.8c0.1,0,0.2-0.1,0.3-0.1
		c-0.1,0.3-0.3,0.7-0.4,1.1c0.1-0.3,0.4-0.8,0.5-1.1l0,0c-0.1,0.7-0.7,1.4-0.9,2c1.1-1.5,1.3-0.3,0.7,1.6c0.1-0.3,0.3-0.9,0.4-0.8
		c0.5,0.3-0.7,1.4-0.7,1.8c0.2,0.1,0.3-0.3,0.6-0.8c0.2-0.5,0.4-1,0.7-1c-0.2,0.6-0.3,1.3-0.6,1.8c0.2,0.3,0.3-0.1,0.4-0.5
		c0.1-0.4,0.3-0.9,0.4-0.8c-0.2,0.6-0.4,0.9-0.5,1.5c0.6-0.7,0.8,0.1,1.3-0.3c1-0.5,1.9-1.3,1.7,0.7c0.1,0.4-0.2,1.3-0.5,2.1
		c0.3-0.3,0.6-0.6,0.9-0.9c0,0.9,0.1,1.8,0.1,2.7c-0.1,1-0.2,2.1-0.4,3.2c0,0.1-0.1,0.3-0.1,0.4l-0.1,0.4c-0.1,0.3-0.1,0.6-0.2,0.9
		c-0.1,0.6-0.3,1.1-0.4,1.7l-0.1,0.4c-0.1,0.5-0.3,1.2-0.4,2s-0.3,1.7-0.5,2.8c-0.3,2-0.5,4.4-0.6,6.8c0,0.6,0,1.2,0,1.7
		c0,0.3,0,0.6,0,0.9c0,0.3,0,0.6,0,0.8c0,1.1,0.1,2.1,0.1,3.1c0.1,0.9,0.2,1.7,0.3,2.4c0,0.3,0.1,0.6,0.1,0.9
		c0.1,0.2,0.1,0.4,0.1,0.6c0.1,0.9,0.2,1.7,0.2,2.5c0,0.4,0.1,0.8,0.2,1.3c0.1,0.4,0.1,0.8,0.2,1.2c0.1,0.4,0.1,0.8,0.2,1.2
		c0.1,0.4,0.1,0.8,0.2,1.2c0.2,0.8,0.3,1.6,0.5,2.4l0.6,2.4c0.1,0.4,0.2,0.8,0.3,1.2l0.3,1.2c0.2,0.8,0.4,1.6,0.6,2.4
		c0.2,0.8,0.5,1.6,0.7,2.4c-0.5-0.4-0.3,1.3-0.7,0.9c-0.3-0.3-0.3-1.7-0.7-2.5c-0.3-0.5-0.6-0.9-0.9-1.3s-0.6-0.6-0.9-0.7
		c-0.6-0.3-1.1-0.5-1.6-0.4c-0.3,0-0.7-1.3-0.8-2.2c-0.5,0.5-1-0.1-1.6-0.7c-0.6-0.6-1.1-1.3-1.7-1.1c-0.1-0.7-0.2-1.5-0.3-2.3
		c-0.1-0.8-0.2-1.6-0.4-2.3c-0.3-0.9-0.7-1.9-1.1-2.9c-1.3-4.7-2.1-9.2-2.5-13.7c0.1-0.3,0.1-0.7,0.1-1.1c-0.1,0-0.2-0.1-0.2-0.2
		c0-0.1,0-0.3,0-0.4c0.1-0.9,0.3-1.8,0.3-2.4c0-0.1-0.1-0.1-0.3-0.1c0-1.5,0.1-3.1,0.3-4.6c0.2-0.8,0.6-1.6,0.8-2.4
		c-0.1,0-0.2-0.1-0.3-0.1c0-0.5,0.2-1,0.4-1.4c0.2-0.4,0.4-0.9,0.4-1.4c0-0.3-0.3-0.2-0.5-0.2C235.6,28.6,235.8,27.7,236.1,26.7z"/>
	<g>
		<g>
			<polygon class="st9" points="243.5,37.7 243.7,36.2 239,40.7 235.1,36.1 234.4,36.7 234.3,37.7 235,37.3 238.8,42.1 			"/>
			<polygon class="st9" points="241.7,34.3 241.1,33.6 239.4,35.2 237.8,33.7 237.2,34.3 239.4,36.5 			"/>
			<polygon class="st9" points="238.8,46.5 243.1,42.2 243.2,40.9 238.4,45.6 234.4,40.9 234.3,42.2 237.8,46.2 237.2,53.6 
				238.1,53.7 			"/>
		</g>
		<g>
			<polyline class="st9" points="241.6,19.6 237.1,23.3 236.6,24.6 242.5,20 242.5,19.7 			"/>
			<polygon class="st9" points="245.7,24.2 242.3,19.6 241.7,20 245.6,25.6 			"/>
			<polygon class="st9" points="244.9,30.1 245.1,28.9 244.6,29.2 241.1,24.2 235.7,28.2 235.4,29.6 240.9,25.5 244.4,30.5 			"/>
			<polygon class="st9" points="242.2,32.1 240.1,29.7 237.7,31.8 238.3,32.4 240,31 241.5,32.7 			"/>
		</g>
	</g>
	<path class="st5" d="M249.5,72c-0.2,0.6-0.9,1.6-1.6,2.7c-0.2,0.3-0.5,0.5-0.7,0.7c0.1-0.3,0.2-0.7,0.3-1c-0.1,0.4-0.3,0.7-0.4,1.1
		c-0.1,0.1-0.2,0.1-0.3,0.2c0.1-0.5,0.3-1,0.4-1.5c-0.1,0.4-0.4,1.1-0.5,1.6l0,0c0.1-0.9,0.7-2,0.9-2.8c-1.2,2.2-1.3,0.7-0.8-2
		c-0.1,0.4-0.3,1.3-0.4,1.2c-0.5-0.3,0.7-2,0.7-2.5c-0.4-0.2-0.8,2.5-1.3,2.7c0.2-0.9,0.3-1.8,0.6-2.6c-0.3-0.7-0.6,2.1-0.9,1.9
		c0.2-0.9,0.3-1.3,0.6-2.1c-0.6,1.1-0.9-0.1-1.4,0.6c-1,0.9-1.9,2.3-1.7-0.6c-0.1-0.5,0.3-1.8,0.6-3.1c-0.3,0.4-0.6,0.9-0.9,1.5
		c0-1.3,0-2.7,0.1-4c0.3-2.8,1.2-6.7,2.2-10c0.1-0.2,0.1-0.4,0.1-0.5c0.9-2.9,3.1-10.1,5.7-16.9c1.3-3.4,2.8-6.7,4-9.4
		c0.6-1.3,1.2-2.5,1.7-3.4c0.5-0.9,0.9-1.6,1-2.1c1.4-2.3,2.9-4.6,4.6-6.8l0.6-0.8l0.7-0.8c0.5-0.5,0.9-1.1,1.3-1.6l1.4-1.5
		c0.2-0.3,0.5-0.5,0.7-0.7l0.7-0.7l0.8-0.7c0.3-0.2,0.5-0.5,0.8-0.7c0.5-0.5,1.1-0.9,1.6-1.3l1.7-1.3c0.3-0.2,0.6-0.4,0.9-0.6
		l0.9-0.6l0.9-0.6c0.3-0.2,0.6-0.3,0.9-0.5l0.9-0.5c0.3-0.2,0.6-0.3,1-0.5c0.7-0.3,1.3-0.6,2-0.9c0.3-0.1,0.7-0.3,1-0.4l1-0.4
		c-0.3,0.3,0.2,0.3,0.7,0.3c0.3,0,0.5,0,0.7,0c0.1,0,0.2,0.1,0,0.2c-0.2,0.2-0.9,0.4-1.7,0.6c-0.4,0.1-0.9,0.2-1.3,0.4
		c-0.4,0.2-0.8,0.3-1.1,0.5c-0.4,0.3-0.8,0.5-1.1,0.8s-0.6,0.5-0.8,0.8c-0.5,0.5-0.8,0.9-1,1.3c-0.4,0.8-0.4,1.4-0.3,1.9
		c0,0.2-0.4,0.5-0.9,0.9c-0.5,0.4-1.2,0.9-1.8,1.3c0.4,0.1,0.4,0.3,0.3,0.7s-0.4,0.9-0.6,1.3s-0.5,1-0.7,1.4s-0.1,0.8,0.1,0.9
		c-0.3,0.3-0.7,0.7-1.1,1s-0.8,0.7-1.2,1.1c-0.8,0.8-1.5,1.6-2.1,2.4c-0.4,0.5-0.7,1.2-1,1.8c-0.3,0.6-0.6,1.3-0.9,1.9
		c-1.6,2.8-2.8,5.7-4,8.5s-2,5.7-2.8,8.5c-0.2,0.4-0.4,0.8-0.6,1.3c0.1,0.1,0.1,0.1,0.2,0.3c-0.1,0.2-0.1,0.3-0.1,0.5
		c-0.2,0.5-0.5,1.1-0.7,1.6c-0.2,0.5-0.4,1-0.5,1.4c0,0.2,0.1,0.2,0.2,0.2c-0.6,1.9-1.2,3.9-1.8,5.8c-0.5,1-1,2-1.4,3
		c0.1,0.1,0.2,0.1,0.3,0.2c-0.2,1.4-1.2,2.2-1.3,3.6c0,0.4-0.1,0.8,0.1,0.9C252.2,62.4,251,66.9,249.5,72z"/>
	<g>
		<polygon class="st10" points="252,54.7 250.4,51.9 247.8,53.4 249.3,56 		"/>
		<polygon class="st10" points="254.8,53.4 251.4,47.9 245.9,51.2 245.5,52.5 251.1,49.2 254.4,54.4 		"/>
		<polygon class="st10" points="253.5,57.4 253.5,56.5 248.1,58.9 245.2,53.4 244.8,54.8 247.7,60.1 		"/>
		<polygon class="st10" points="250,46.6 249.6,45.8 247.3,47.1 246.8,48.3 		"/>
		<polygon class="st10" points="256,49.8 253.5,46 252.7,46.5 255.5,50.6 		"/>
		<polygon class="st10" points="252.7,60.9 253.1,59.3 247.7,62.8 244.3,56.9 243.9,58 247.4,64.2 		"/>
		<polygon class="st10" points="246,64.7 243.5,60.1 243.1,61.5 244.8,64.4 242.8,65.6 242.8,66.7 		"/>
		<polygon class="st10" points="250.8,67.5 249.4,65.8 251.7,64.4 251.9,63.3 247.9,65.5 250.5,68.5 		"/>
		<polygon class="st10" points="249.8,70.9 246.6,66.2 243.3,68.1 243,69.4 246.3,67.4 249.5,72.2 		"/>
	</g>
	<g>
		<g>
			<path class="st11" d="M352.8,32.2c-0.3,0.1-0.8,0.1-1.3,0.1c-0.7,0-1.3-0.2-1.7-0.5c-0.5-0.3-0.9-0.9-1.3-1.7
				c-0.4-0.9-0.7-1.4-0.8-1.6c-0.1-0.2-0.3-0.4-0.4-0.5c-0.2-0.2-0.3-0.3-0.5-0.3c-0.2-0.1-0.4-0.1-0.7-0.1h-1.3v4.7h-2.5V19.6h4.5
				c1.6,0,2.8,0.3,3.6,0.9c0.8,0.6,1.2,1.6,1.2,3c0,0.4-0.1,0.9-0.2,1.3c-0.2,0.5-0.4,0.8-0.8,1.2s-0.8,0.6-1.2,0.7
				c0.2,0.1,0.3,0.3,0.5,0.5s0.4,0.6,0.6,1.1c0.3,0.5,0.4,0.9,0.5,1c0.1,0.1,0.2,0.3,0.3,0.4s0.3,0.2,0.4,0.3s0.4,0.1,0.6,0.1h0.5
				L352.8,32.2L352.8,32.2z M346.4,25.6c0.3,0,0.7-0.1,1.1-0.2c0.4-0.1,0.8-0.3,1.1-0.7c0.3-0.3,0.4-0.7,0.4-1.2
				c0-0.3-0.1-0.6-0.2-0.9c-0.1-0.3-0.4-0.6-0.8-0.8c-0.4-0.2-0.9-0.3-1.4-0.3h-1.9v4H346.4z"/>
			<path class="st11" d="M354.4,32.3V19.6h8v2h-5.5V25h4.3v2h-4.3v3.3h5.5v2H354.4z"/>
			<path class="st11" d="M371.6,23.1c-0.1-0.2-0.3-0.4-0.5-0.7c-0.3-0.3-0.6-0.5-1-0.6c-0.4-0.2-0.9-0.2-1.3-0.2
				c-0.5,0-0.9,0.1-1.2,0.3s-0.6,0.4-0.7,0.6c-0.1,0.2-0.2,0.5-0.2,0.7c0,0.4,0.1,0.7,0.5,1c0.3,0.3,1,0.5,2,0.8
				c1,0.3,1.7,0.5,2.1,0.6c0.4,0.2,0.7,0.3,0.9,0.5s0.5,0.4,0.7,0.7c0.2,0.3,0.3,0.5,0.5,0.9c0.1,0.3,0.2,0.7,0.2,1.2
				c0,0.5-0.1,0.9-0.3,1.3c-0.2,0.4-0.5,0.8-0.9,1.2c-0.4,0.3-0.9,0.6-1.5,0.8c-0.6,0.2-1.3,0.3-2.1,0.3c-0.7,0-1.4-0.1-2.1-0.3
				c-0.7-0.2-1.4-0.5-1.9-1s-0.9-0.9-1.2-1.4l1.5-1.4c0.2,0.3,0.4,0.5,0.8,0.9c0.4,0.3,0.8,0.6,1.3,0.8s1,0.3,1.6,0.3
				c0.7,0,1.2-0.1,1.6-0.4c0.4-0.3,0.6-0.6,0.6-1.1c0-0.4-0.2-0.8-0.5-1.1c-0.3-0.3-1-0.6-2-0.8c-1-0.2-1.7-0.5-2.2-0.6
				c-0.4-0.2-0.8-0.4-1.1-0.7c-0.3-0.3-0.6-0.6-0.8-1c-0.2-0.4-0.3-0.9-0.3-1.5c0-0.5,0.1-0.9,0.3-1.4c0.2-0.4,0.5-0.8,0.9-1.2
				c0.4-0.3,0.9-0.6,1.5-0.8s1.2-0.3,1.9-0.3c0.7,0,1.3,0.1,2,0.3c0.7,0.2,1.3,0.5,1.8,0.9c0.5,0.4,0.8,0.9,1,1.3L371.6,23.1z"/>
			<path class="st11" d="M375.5,32.3V19.6h2.5v12.7L375.5,32.3L375.5,32.3z"/>
			<path class="st11" d="M380.7,32.3V19.6h2.5v10.7h5.6v2L380.7,32.3L380.7,32.3z"/>
			<path class="st11" d="M390.3,32.3V19.6h2.5v12.7L390.3,32.3L390.3,32.3z"/>
			<path class="st11" d="M395.5,32.3V19.6h8v2H398V25h4.3v2H398v3.3h5.5v2H395.5z"/>
			<path class="st11" d="M412.8,32.3l-4.7-8v8h-2.5V19.6h2.6l4.7,8.3v-8.3h2.5v12.7L412.8,32.3L412.8,32.3z"/>
			<path class="st11" d="M428,30c-0.2,0.3-0.5,0.7-0.9,1.1c-0.4,0.4-1,0.7-1.6,1c-0.7,0.3-1.3,0.4-2,0.4c-0.9,0-1.7-0.1-2.4-0.4
				c-0.7-0.3-1.4-0.7-1.9-1.2c-0.5-0.5-0.9-1.2-1.2-2c-0.3-0.8-0.4-1.7-0.4-2.8c0-1.1,0.1-2,0.4-2.8c0.3-0.8,0.6-1.5,1.1-2
				c0.5-0.5,1.1-1,1.8-1.2c0.7-0.3,1.5-0.4,2.3-0.4c0.8,0,1.5,0.1,2,0.3c0.6,0.2,1.1,0.5,1.5,0.9c0.4,0.4,0.7,0.9,1,1.5
				c0.2,0.6,0.4,1.2,0.4,1.7l-2.3,0.4c0-0.3-0.1-0.7-0.3-1.1c-0.2-0.4-0.5-0.8-0.9-1.1c-0.4-0.3-0.9-0.4-1.4-0.4
				c-0.4,0-0.9,0.1-1.2,0.3s-0.7,0.4-1,0.8c-0.3,0.3-0.5,0.8-0.7,1.3c-0.1,0.5-0.2,1.2-0.2,1.9c0,0.9,0.1,1.6,0.4,2.3
				s0.7,1.1,1.2,1.5c0.5,0.3,1.1,0.5,1.8,0.5c0.6,0,1.2-0.2,1.8-0.5c0.5-0.4,1-0.8,1.3-1.2L428,30z"/>
			<path class="st11" d="M429.9,32.3V19.6h8v2h-5.5V25h4.3v2h-4.3v3.3h5.5v2H429.9z"/>
		</g>
		<g>
			<path class="st11" d="M273.9,50.7V40.4h-4.2v-2h10.6v2h-4v10.3H273.9z"/>
			<path class="st11" d="M284.2,50.5c-0.7-0.3-1.3-0.7-1.7-1.2c-0.5-0.5-0.9-1.2-1.2-2c-0.3-0.8-0.4-1.7-0.4-2.7
				c0-1,0.1-1.9,0.4-2.7s0.7-1.5,1.2-2c0.5-0.5,1.1-0.9,1.7-1.2c0.7-0.3,1.4-0.4,2.1-0.4c0.7,0,1.5,0.1,2.1,0.4
				c0.7,0.3,1.3,0.7,1.7,1.2c0.5,0.5,0.9,1.2,1.2,2c0.3,0.8,0.4,1.7,0.4,2.7c0,1-0.1,1.9-0.4,2.7c-0.3,0.8-0.7,1.5-1.2,2
				c-0.5,0.5-1.1,0.9-1.7,1.2c-0.7,0.3-1.4,0.4-2.1,0.4C285.6,50.8,284.8,50.7,284.2,50.5z M287.9,48.3c0.4-0.3,0.8-0.8,1-1.4
				c0.2-0.6,0.3-1.3,0.3-2.2s-0.1-1.7-0.3-2.3c-0.2-0.6-0.6-1.1-1-1.4c-0.4-0.3-1-0.5-1.6-0.5c-0.3,0-0.6,0-0.9,0.1
				c-0.3,0.1-0.5,0.2-0.8,0.4c-0.2,0.2-0.5,0.4-0.6,0.7c-0.2,0.3-0.3,0.7-0.5,1.1c-0.1,0.5-0.2,1.1-0.2,1.8c0,0.9,0.1,1.6,0.3,2.2
				c0.2,0.6,0.6,1.1,1,1.4c0.4,0.3,1,0.5,1.6,0.5C286.9,48.8,287.5,48.6,287.9,48.3z"/>
			<path class="st11" d="M297.6,50.7V38.5h3.6c0.8,0,1.6,0.1,2.3,0.4c0.7,0.2,1.4,0.6,1.9,1.1c0.6,0.5,1,1.2,1.3,2
				c0.3,0.8,0.5,1.8,0.5,2.9c0,0.8-0.1,1.5-0.3,2.3c-0.2,0.7-0.5,1.4-1,1.9c-0.5,0.5-1.1,1-1.8,1.3c-0.7,0.3-1.6,0.5-2.5,0.5H297.6z
				 M301.7,48.8c1,0,1.7-0.3,2.3-1.1c0.6-0.7,0.9-1.7,0.9-3c0-1.4-0.3-2.4-0.9-3.2c-0.6-0.7-1.6-1.1-2.8-1.1H300v8.3L301.7,48.8
				L301.7,48.8z"/>
			<path class="st11" d="M309.3,50.7V38.5h2.4v12.3H309.3z"/>
			<path class="st11" d="M321.2,41.9c-0.1-0.2-0.3-0.4-0.5-0.6c-0.3-0.2-0.6-0.4-1-0.6c-0.4-0.1-0.8-0.2-1.3-0.2s-0.9,0.1-1.2,0.2
				s-0.5,0.3-0.7,0.6s-0.2,0.4-0.2,0.6c0,0.4,0.1,0.7,0.5,1c0.3,0.3,0.9,0.5,1.9,0.8c1,0.3,1.7,0.5,2,0.6c0.4,0.1,0.7,0.3,0.9,0.5
				c0.3,0.2,0.5,0.4,0.7,0.6c0.2,0.2,0.3,0.5,0.4,0.9c0.1,0.3,0.2,0.7,0.2,1.1c0,0.5-0.1,0.9-0.3,1.3c-0.2,0.4-0.5,0.8-0.8,1.1
				s-0.9,0.6-1.5,0.8c-0.6,0.2-1.3,0.3-2,0.3c-0.7,0-1.3-0.1-2-0.3s-1.3-0.5-1.8-0.9c-0.5-0.5-0.9-0.9-1.1-1.3l1.5-1.4
				c0.2,0.3,0.4,0.5,0.8,0.9c0.3,0.3,0.8,0.6,1.3,0.8c0.5,0.2,1,0.3,1.5,0.3c0.7,0,1.1-0.1,1.5-0.4c0.4-0.3,0.5-0.6,0.5-1.1
				c0-0.4-0.1-0.8-0.5-1.1c-0.3-0.3-1-0.5-1.9-0.8c-1-0.2-1.7-0.4-2.1-0.6c-0.4-0.2-0.8-0.4-1.1-0.6c-0.3-0.3-0.6-0.6-0.7-1
				c-0.2-0.4-0.3-0.9-0.3-1.5c0-0.5,0.1-0.9,0.3-1.3c0.2-0.4,0.5-0.8,0.9-1.1c0.4-0.3,0.9-0.6,1.4-0.8c0.5-0.2,1.2-0.3,1.8-0.3
				c0.7,0,1.3,0.1,1.9,0.3c0.7,0.2,1.2,0.5,1.7,0.9c0.5,0.4,0.8,0.8,0.9,1.2L321.2,41.9z"/>
			<path class="st11" d="M331.6,47.7h-4.4l-1,3.1h-2.5l4.5-12.3h2.5l4.5,12.3h-2.5L331.6,47.7z M327.9,45.8h3.1l-1.6-4.4L327.9,45.8
				z"/>
			<path class="st11" d="M343.5,41.9c-0.1-0.2-0.3-0.4-0.5-0.6s-0.6-0.4-1-0.6c-0.4-0.1-0.8-0.2-1.3-0.2s-0.9,0.1-1.2,0.2
				c-0.3,0.1-0.5,0.3-0.7,0.6c-0.1,0.2-0.2,0.4-0.2,0.6c0,0.4,0.1,0.7,0.5,1c0.3,0.3,0.9,0.5,1.9,0.8c1,0.3,1.7,0.5,2,0.6
				c0.4,0.1,0.7,0.3,0.9,0.5c0.3,0.2,0.5,0.4,0.7,0.6c0.2,0.2,0.3,0.5,0.4,0.9c0.1,0.3,0.2,0.7,0.2,1.1c0,0.5-0.1,0.9-0.3,1.3
				c-0.2,0.4-0.5,0.8-0.8,1.1s-0.9,0.6-1.5,0.8c-0.6,0.2-1.3,0.3-2,0.3c-0.7,0-1.3-0.1-2-0.3s-1.3-0.5-1.8-0.9
				c-0.5-0.5-0.9-0.9-1.1-1.3l1.5-1.4c0.2,0.3,0.4,0.5,0.8,0.9c0.3,0.3,0.8,0.6,1.3,0.8c0.5,0.2,1,0.3,1.5,0.3
				c0.7,0,1.1-0.1,1.5-0.4c0.4-0.3,0.5-0.6,0.5-1.1c0-0.4-0.1-0.8-0.5-1.1c-0.3-0.3-1-0.5-1.9-0.8c-1-0.2-1.7-0.4-2.1-0.6
				c-0.4-0.2-0.8-0.4-1.1-0.6c-0.3-0.3-0.6-0.6-0.7-1c-0.2-0.4-0.3-0.9-0.3-1.5c0-0.5,0.1-0.9,0.3-1.3c0.2-0.4,0.5-0.8,0.9-1.1
				c0.4-0.3,0.9-0.6,1.4-0.8c0.5-0.2,1.2-0.3,1.8-0.3c0.7,0,1.3,0.1,1.9,0.3c0.7,0.2,1.2,0.5,1.7,0.9c0.5,0.4,0.8,0.8,0.9,1.2
				L343.5,41.9z"/>
			<path class="st11" d="M350.4,50.7V40.4h-4.2v-2h10.6v2h-4v10.3H350.4z"/>
			<path class="st11" d="M358.4,50.7V38.5h7.7v2h-5.3v3.2h4.2v1.9h-4.2v3.2h5.3v2L358.4,50.7L358.4,50.7z"/>
			<path class="st11" d="M378.4,50.7c-0.3,0.1-0.7,0.1-1.3,0.1c-0.7,0-1.2-0.1-1.7-0.5c-0.5-0.3-0.9-0.9-1.3-1.7
				c-0.4-0.8-0.6-1.3-0.7-1.5c-0.1-0.2-0.3-0.4-0.4-0.5c-0.2-0.2-0.3-0.3-0.5-0.3c-0.2-0.1-0.4-0.1-0.6-0.1h-1.3v4.6h-2.4V38.5h4.3
				c1.5,0,2.7,0.3,3.5,0.9c0.8,0.6,1.2,1.6,1.2,2.9c0,0.4-0.1,0.9-0.2,1.3c-0.1,0.4-0.4,0.8-0.8,1.1s-0.7,0.6-1.1,0.7
				c0.1,0.1,0.3,0.3,0.5,0.5c0.2,0.2,0.4,0.6,0.6,1.1c0.3,0.5,0.4,0.8,0.5,1c0.1,0.2,0.2,0.3,0.3,0.4c0.1,0.1,0.3,0.2,0.4,0.3
				c0.2,0.1,0.4,0.1,0.6,0.1h0.5L378.4,50.7L378.4,50.7z M372.1,44.3c0.3,0,0.7-0.1,1.1-0.2c0.4-0.1,0.7-0.3,1-0.6
				c0.3-0.3,0.4-0.7,0.4-1.1c0-0.3-0.1-0.6-0.2-0.9c-0.1-0.3-0.4-0.6-0.8-0.8c-0.4-0.2-0.8-0.3-1.4-0.3h-1.8v3.9L372.1,44.3
				L372.1,44.3z"/>
			<path class="st11" d="M386.8,41.9c-0.1-0.2-0.3-0.4-0.5-0.6s-0.6-0.4-1-0.6c-0.4-0.1-0.8-0.2-1.3-0.2c-0.5,0-0.9,0.1-1.2,0.2
				c-0.3,0.2-0.5,0.3-0.7,0.6c-0.1,0.2-0.2,0.4-0.2,0.6c0,0.4,0.1,0.7,0.5,1c0.3,0.3,0.9,0.5,1.9,0.8c1,0.3,1.7,0.5,2,0.6
				c0.4,0.1,0.7,0.3,0.9,0.5c0.3,0.2,0.5,0.4,0.7,0.6c0.2,0.2,0.3,0.5,0.4,0.9c0.1,0.3,0.2,0.7,0.2,1.1c0,0.5-0.1,0.9-0.3,1.3
				c-0.2,0.4-0.5,0.8-0.8,1.1c-0.4,0.3-0.9,0.6-1.5,0.8c-0.6,0.2-1.3,0.3-2,0.3c-0.7,0-1.3-0.1-2-0.3s-1.3-0.5-1.8-0.9
				c-0.5-0.5-0.9-0.9-1.1-1.3l1.5-1.4c0.2,0.3,0.4,0.5,0.8,0.9c0.3,0.3,0.8,0.6,1.3,0.8c0.5,0.2,1,0.3,1.5,0.3
				c0.7,0,1.1-0.1,1.5-0.4c0.4-0.3,0.5-0.6,0.5-1.1c0-0.4-0.1-0.8-0.5-1.1c-0.3-0.3-1-0.5-1.9-0.8c-1-0.2-1.7-0.4-2.1-0.6
				c-0.4-0.2-0.8-0.4-1.1-0.6c-0.3-0.3-0.6-0.6-0.7-1c-0.2-0.4-0.3-0.9-0.3-1.5c0-0.5,0.1-0.9,0.3-1.3c0.2-0.4,0.5-0.8,0.9-1.1
				c0.4-0.3,0.9-0.6,1.4-0.8c0.5-0.2,1.2-0.3,1.8-0.3c0.7,0,1.3,0.1,1.9,0.3c0.7,0.2,1.2,0.5,1.7,0.9c0.5,0.4,0.8,0.8,0.9,1.2
				L386.8,41.9z"/>
		</g>
		<g>
			<path class="st8" d="M279.7,69.4c-0.3,0.1-0.7,0.1-1.1,0.1c-0.4,0-0.8-0.1-1.2-0.3c-0.4-0.2-0.7-0.5-1-0.8s-0.6-0.9-0.9-1.6
				c-0.3-0.7-0.6-1.2-0.7-1.5c-0.2-0.3-0.4-0.5-0.6-0.6s-0.5-0.2-0.8-0.2h-1.5v4.9h-2.2V57.5h2.2v5.3h1.4c0.4,0,0.8-0.1,1.2-0.3
				c0.4-0.2,0.7-0.5,1-0.9c0.3-0.4,0.5-1,0.7-1.6c0.2-0.7,0.2-1.5,0.2-2.4h2.1c0,1.1-0.1,2-0.3,2.8c-0.2,0.8-0.5,1.5-0.9,2
				c-0.4,0.6-0.9,1-1.4,1.3c0.3,0.2,0.6,0.4,0.8,0.7c0.2,0.3,0.5,0.8,0.8,1.5c0.3,0.6,0.5,1.1,0.7,1.3c0.2,0.3,0.3,0.4,0.5,0.5
				c0.2,0.1,0.4,0.2,0.6,0.2h0.5L279.7,69.4L279.7,69.4z"/>
			<path class="st8" d="M288,69.5l-4.7-8v8h-2.2V57.5h2.2l4.7,8.3v-8.3h2.1v11.9L288,69.5L288,69.5z"/>
			<path class="st8" d="M295.6,69.2c-0.7-0.3-1.2-0.6-1.7-1.1c-0.5-0.5-0.9-1.1-1.1-1.9c-0.3-0.8-0.4-1.6-0.4-2.7s0.1-1.9,0.4-2.7
				c0.3-0.8,0.7-1.4,1.1-1.9c0.5-0.5,1.1-0.9,1.7-1.1c0.7-0.3,1.3-0.4,2-0.4s1.4,0.1,2,0.4c0.7,0.3,1.2,0.6,1.7,1.1
				c0.5,0.5,0.9,1.1,1.1,1.9s0.4,1.7,0.4,2.7c0,1-0.1,1.9-0.4,2.7c-0.3,0.8-0.7,1.4-1.1,1.9c-0.5,0.5-1.1,0.9-1.7,1.1
				c-0.7,0.3-1.3,0.4-2,0.4S296.3,69.4,295.6,69.2z M298.8,67.5c0.4-0.1,0.7-0.4,1-0.7c0.3-0.3,0.5-0.8,0.7-1.3
				c0.2-0.5,0.2-1.2,0.2-1.9c0-0.9-0.1-1.7-0.4-2.3c-0.3-0.6-0.6-1.1-1.1-1.4s-1-0.5-1.6-0.5s-1.2,0.2-1.6,0.5
				c-0.5,0.3-0.8,0.8-1.1,1.4c-0.3,0.6-0.4,1.4-0.4,2.3c0,0.5,0.1,1.1,0.2,1.6c0.1,0.5,0.3,1,0.5,1.4c0.3,0.4,0.6,0.7,1,0.9
				c0.4,0.2,0.9,0.3,1.4,0.3C298.1,67.7,298.5,67.6,298.8,67.5z"/>
			<path class="st8" d="M315.6,67l2.3-9.5h2.4l-3.4,11.9h-2.4l-2.4-8.4l-2.4,8.4h-2.4l-3.4-11.9h2.5l2.2,9.5l2.7-9.5h1.8L315.6,67z"
				/>
			<path class="st8" d="M322,69.5V57.5h2.2v10.2h5.4v1.7L322,69.5L322,69.5z"/>
			<path class="st8" d="M331,69.5V57.5h7.4v1.7h-5.3v3.4h4.2v1.7h-4.2v3.3h5.3v1.7L331,69.5L331,69.5z"/>
			<path class="st8" d="M340.5,69.5V57.5h3.4c0.6,0,1.2,0.1,1.8,0.2c0.7,0.1,1.3,0.5,1.8,0.9c0.6,0.4,1.1,0.9,1.4,1.6
				c0.3,0.6,0.5,1.2,0.7,1.8c0.1,0.6,0.1,1.2,0.1,1.7c0,0.5-0.1,1-0.1,1.6c-0.1,0.6-0.3,1.1-0.5,1.6c-0.3,0.5-0.6,0.9-1,1.3
				c-0.4,0.4-1,0.7-1.6,0.9c-0.7,0.2-1.3,0.3-2.1,0.3L340.5,69.5L340.5,69.5z M344.4,67.7c0.5,0,0.9-0.1,1.3-0.3s0.7-0.4,1-0.8
				s0.5-0.8,0.7-1.3c0.1-0.5,0.2-1.1,0.2-1.7c0-1.4-0.3-2.5-1-3.3c-0.7-0.8-1.6-1.1-2.8-1.1h-1.2v8.4H344.4z"/>
			<path class="st8" d="M361.1,65.2c0,0.6-0.1,1.1-0.3,1.6c-0.2,0.5-0.5,1-0.8,1.4c-0.4,0.4-0.9,0.7-1.4,1c-0.6,0.2-1.2,0.4-2,0.4
				c-0.8,0-1.5-0.1-2.1-0.4c-0.7-0.3-1.2-0.6-1.7-1.1c-0.5-0.5-0.8-1.1-1.1-1.9s-0.4-1.6-0.4-2.6c0-1,0.1-1.9,0.4-2.6
				c0.3-0.8,0.6-1.4,1.1-1.9c0.5-0.5,1-0.9,1.6-1.2c0.7-0.3,1.4-0.4,2.1-0.4c0.5,0,0.9,0.1,1.4,0.2c0.5,0.1,0.9,0.3,1.3,0.6
				c0.4,0.3,0.7,0.6,1,1c0.3,0.4,0.5,0.8,0.6,1.2c0.1,0.4,0.2,0.7,0.2,0.9l-2,0.3c0-0.3-0.1-0.7-0.3-1.1c-0.2-0.4-0.4-0.7-0.8-1
				s-0.8-0.4-1.4-0.4c-0.7,0-1.2,0.2-1.7,0.5c-0.5,0.3-0.8,0.8-1,1.5c-0.2,0.6-0.3,1.4-0.3,2.2c0,0.5,0.1,1.1,0.2,1.6
				c0.1,0.5,0.3,1,0.6,1.3c0.3,0.4,0.6,0.7,1,0.9c0.4,0.2,0.9,0.3,1.4,0.3c0.5,0,1-0.1,1.4-0.3c0.4-0.2,0.7-0.5,0.8-0.9
				c0.2-0.4,0.2-0.8,0.2-1.2V65h-2.8v-1.6h4.8L361.1,65.2L361.1,65.2z"/>
			<path class="st8" d="M363.2,69.5V57.5h7.4v1.7h-5.3v3.4h4.2v1.7h-4.2v3.3h5.3v1.7L363.2,69.5L363.2,69.5z"/>
			<path class="st8" d="M383.5,69.5v-4.9h-4.9v4.9h-2.2V57.5h2.2v5.3h4.9v-5.3h2.1v11.9H383.5z"/>
			<path class="st8" d="M395.1,57.5h2.1v7c0,0.9-0.1,1.7-0.3,2.3s-0.5,1.2-1,1.6c-0.4,0.4-0.9,0.7-1.4,0.9s-1.1,0.3-1.8,0.3
				s-1.3-0.1-1.8-0.3s-1-0.5-1.5-0.9c-0.4-0.4-0.7-0.9-1-1.6c-0.2-0.7-0.3-1.4-0.3-2.3v-7h2.1v7.2c0,1,0.2,1.7,0.6,2.2
				c0.4,0.5,1,0.8,1.8,0.8c1.6,0,2.4-1,2.4-3L395.1,57.5L395.1,57.5z"/>
			<path class="st8" d="M399.8,69.5V57.5h4.4c2.6,0,3.9,1.1,3.9,3.1c0,0.5-0.1,1-0.2,1.4c-0.2,0.4-0.4,0.7-0.7,0.9
				c-0.3,0.2-0.6,0.3-0.9,0.3v0c0.4,0,0.8,0.1,1.2,0.3s0.8,0.5,1.1,1c0.3,0.4,0.4,1,0.4,1.6c0,0.7-0.2,1.3-0.5,1.8
				c-0.3,0.5-0.8,0.9-1.4,1.1c-0.6,0.3-1.4,0.4-2.2,0.4H399.8L399.8,69.5z M404,62.6c1.2,0,1.8-0.5,1.8-1.6c0-0.5-0.2-0.9-0.5-1.2
				c-0.4-0.3-0.9-0.4-1.6-0.4h-1.7v3.3H404z M404.2,67.7c1.5,0,2.3-0.6,2.3-1.8c0-0.3-0.1-0.6-0.2-0.9s-0.4-0.5-0.8-0.7
				c-0.4-0.2-0.8-0.3-1.3-0.3h-2.3v3.6L404.2,67.7L404.2,67.7z"/>
		</g>
	</g>
</g>
</svg>
