<?xml version="1.0" encoding="utf-8"?>
<!-- Generator: Adobe Illustrator 26.1.0, SVG Export Plug-In . SVG Version: 6.00 Build 0)  -->
<svg version="1.1" id="Layer_3" xmlns="http://www.w3.org/2000/svg" xmlns:xlink="http://www.w3.org/1999/xlink" x="0px" y="0px"
	 viewBox="0 0 1000 500" style="enable-background:new 0 0 1000 500;" xml:space="preserve">
<style type="text/css">
	.st0{fill:#C51127;}
	.st1{fill:#7F182B;}
	.st2{fill:#00B69E;}
	.st3{fill:#9B3C90;}
	.st4{fill:#5E215D;}
	.st5{fill:#E8692E;}
	.st6{fill:#AB442A;}
	.st7{fill:#0A7C6E;}
	.st8{fill:#009DDC;}
</style>
<path class="st0" d="M49.3,134.9c1.2-0.2,2.1-1.5,3,0c2.3,4.9-0.8,9.9,1.4,14.8c0.7,0,1.3,0,2,0c0,4.2-0.3,8.6-0.3,13
	c0.8,3.9,1.7,7.8,2.7,11.7c0.9,3.9,1.8,7.8,2.8,11.7c0.7-0.3,1.3-0.5,1.7,0.2c1,3.2,1.1,7.8,1.5,12.6c0.2,0.7,0.4,1.4,0.6,2
	c0.5,0.5,1.2,0.5,1.6,0.6c0.2,2.1,0.3,4.1,0.3,5.9c6.8,22.7,13.5,46.1,18.8,72c2,5.4,3.9,10.9,4.8,16.3c0.4,3.9,0.2,8.4,0,12.9
	c-0.4,4.4-0.8,8.9-1.1,12.7c3.4-0.5,5.8,4,8.1,8.3c2.3,4.3,4.6,8.3,8.1,6.6c-0.5,5.3-1.6,13.2,0.3,13.8c2.8,0.9,5.7,2.6,8.2,6
	c2.5,3.4,4.3,8.5,4.7,16.4c-0.2,3.1-1.3,6.7-2.4,10c-1.2,3.2-2.2,6-1.9,7.2c0.3,0.8,0.7,0.9,1.3,0.6c0.6-0.3,1.3-1.2,2.1-2.1
	c1.5-1.7,3-3.5,3.4-1.5c6.6-22.8,8.2-44.1,8.7-65.3c0.4-21.1-0.7-41.8-1.9-62.8c-1.9-7.1-4.9-34.6-9.4-63.1
	c-2.2-14.2-4.7-28.8-7-41.3c-2.3-12.5-4.3-23-5.4-29.1l-0.6-2.2c-2.6-13.3-7.3-29.2-13.2-39.6c-3-4.6-6.6-9.2-10.1-13.7
	c-0.3,2.7-0.6,5.3-1.1,7.5c-0.8-2.6-1.5-5.2-2.4-7.3c-0.9-2.1-1.7-3.8-2.7-4.6c-3.3-5-5.3-5.5-6.7-4.2c-1.4,1.3-2.3,4.6-3.8,7.4
	c-0.9,3.6-5.2,0.7-5.6,5.9c-1.1-3.3-1.5-4.9-2.7-8.2c-1.9,0.3,4.5,9.6,0.7,8.4c-0.4-3.4-2.7-6.4-3.9-9.6c-2,2,3.1,11.4,0.5,11.8
	c-1.1-1.5,0.1-10.2-3.2-9.6c-0.7,0.1,0.5,3.3,1,4.9c-4.6-9.4-9.5-13.2-9.4-3.4c-1-3-1.5-7.6-3.2-10.5c0,0,0,0,0,0
	c0.5,1.6,1,4.5,1.6,5.9c-0.7-1.8-1.4-3.5-2-5.3c-0.3,0.5-0.6,0.9-0.9,1.4c0.2,1.4,0.4,2.9,1,4.2c-0.4-1.2-0.9-2.3-1.3-3.5
	c-0.6,1.3-1.1,2.7-1.6,4.1c-0.1,2.4-0.5,4.9-0.8,7c-0.3,2.2-0.4,3.9-0.1,5.1c2.6,9.3,4.9,18.9,7.2,28.6
	C45.1,115.3,47.2,125.1,49.3,134.9z"/>
<g>
	<polygon class="st1" points="65.5,73.6 65.5,95.3 54.8,84.6 50.8,88.5 65.5,103.2 65.5,118.5 45.6,97 41.5,100.8 65.5,126.7 
		65.5,145.6 47.4,126.1 48.8,134.5 71,159.8 71,73.6 	"/>
	<polygon class="st1" points="82.8,171.6 82.8,152.6 106.8,126.8 102.7,123 82.8,144.4 82.8,129.1 97.4,114.5 93.5,110.6 
		82.8,121.3 82.8,99.6 77.2,99.6 77.2,185.8 110,149.8 110,141.9 	"/>
</g>
<g>
	<path class="st2" d="M383.5,245.9c-4.1-1.6-7.6-3.9-10.7-7.1c-3.1-3.1-5.5-7.1-7.2-12c-1.8-4.9-2.6-10.4-2.6-16.6
		c0-6.2,0.9-11.8,2.6-16.6c1.7-4.9,4.1-8.9,7.2-12.1c3.1-3.2,6.6-5.6,10.7-7.2c4.1-1.6,8.4-2.4,13.1-2.4c4.6,0,8.9,0.8,13,2.4
		c4.1,1.6,7.6,4,10.7,7.2c3.1,3.2,5.5,7.2,7.2,12.1c1.7,4.9,2.6,10.4,2.6,16.6c0,6.2-0.9,11.8-2.6,16.6c-1.8,4.9-4.1,8.9-7.2,12
		c-3,3.1-6.6,5.5-10.7,7.1c-4.1,1.6-8.4,2.4-13,2.4C391.9,248.3,387.6,247.5,383.5,245.9z M406.3,232.5c2.7-2,4.7-4.8,6.2-8.5
		s2.1-8.3,2.1-13.8c0-5.6-0.7-10.2-2.1-13.9c-1.4-3.7-3.5-6.5-6.2-8.5s-5.9-2.9-9.8-2.9c-1.9,0-3.6,0.3-5.4,0.7
		c-1.7,0.5-3.3,1.3-4.8,2.4c-1.5,1.1-2.8,2.5-3.9,4.2c-1.1,1.7-2.1,4-2.9,7c-0.9,2.9-1.3,6.6-1.3,11c0,5.5,0.7,10.1,2.1,13.8
		c1.4,3.7,3.5,6.5,6.2,8.5c2.7,2,6,3,9.9,3C400.3,235.5,403.6,234.5,406.3,232.5z"/>
	<path class="st2" d="M457.1,202.5v45.1h-14.8v-75h15.1l22.3,46.8l23-46.8H517v75h-14.8l0.3-46.5l-18.1,37.1h-10.2L457.1,202.5z"/>
	<path class="st2" d="M532.9,247.6v-75h47.4v12h-32.6v19.9h25.6v11.8h-25.6v19.3h32.6v12H532.9z"/>
	<path class="st2" d="M635.2,247.6l-27.9-47.7v47.7h-14.8v-75h15.3l28,49.4v-49.4h14.8v75H635.2z"/>
	<path class="st2" d="M665.9,173.2c1.6-1.7,3.6-2.5,5.8-2.5c1.8,0,3.4,0.5,4.9,1.4c1.5,1,2.6,2.2,3.2,3.8c0.6,1.6,0.9,3.1,0.9,4.5
		c0,3.9-0.6,7.5-1.9,10.7c-1.3,3.2-2.9,5.7-5,7.6s-3.8,3.1-5.4,3.6l-3.7-5.9c1.8-1,3.4-2.3,4.9-4c1.5-1.7,2.2-3.3,2.2-5
		c-2.3,0-4.2-0.8-5.8-2.5c-1.6-1.6-2.4-3.6-2.4-5.8C663.5,176.9,664.3,174.9,665.9,173.2z"/>
	<path class="st2" d="M735.6,193.3c-0.6-1.1-1.6-2.4-3.1-3.9c-1.5-1.5-3.4-2.7-5.8-3.6c-2.4-0.9-5-1.4-7.8-1.4
		c-2.8,0-5.2,0.5-7.2,1.4c-2,1-3.4,2.1-4.1,3.5c-0.7,1.4-1.1,2.6-1.1,3.9c0,2.4,0.9,4.3,2.7,5.9c1.8,1.6,5.8,3.1,11.9,4.7
		c6.1,1.6,10.3,2.8,12.4,3.8c2.2,0.9,4,1.9,5.5,3.1c1.5,1.1,2.8,2.4,4,3.9c1.1,1.5,2,3.2,2.7,5.3c0.6,2.1,1,4.4,1,7
		c0,2.7-0.6,5.4-1.7,7.9c-1.1,2.6-2.8,4.9-5.1,6.9c-2.3,2-5.2,3.7-8.8,4.9c-3.6,1.2-7.8,1.8-12.5,1.8c-4,0-8.1-0.6-12.4-1.7
		c-4.3-1.1-8-3.1-11.4-5.8c-3.3-2.7-5.6-5.4-6.9-8l8.9-8.4c1,1.5,2.6,3.2,4.7,5.1c2.1,1.9,4.7,3.5,7.7,4.7c3,1.2,6.1,1.8,9.3,1.8
		c3.9,0,7-0.8,9.3-2.4s3.4-3.8,3.4-6.5c0-2.6-0.9-4.7-2.8-6.5c-1.9-1.8-5.9-3.3-11.9-4.8c-6-1.4-10.3-2.7-12.9-3.7
		c-2.6-1-4.8-2.3-6.7-3.9c-1.9-1.6-3.4-3.6-4.6-6.1c-1.1-2.5-1.7-5.5-1.7-8.9c0-2.9,0.6-5.6,1.8-8.1c1.2-2.6,3-4.9,5.3-6.9
		c2.3-2,5.2-3.6,8.6-4.7c3.4-1.1,7.2-1.7,11.4-1.7c3.9,0,7.9,0.5,11.9,1.6c4,1.1,7.5,2.9,10.4,5.4c2.9,2.5,4.9,5,5.8,7.4
		L735.6,193.3z"/>
</g>
<path class="st3" d="M153.7,360.7c-1.2-0.3-2.6,0.6-2.7-1.4c0.2-6,5.4-9.6,5.8-15.6c-0.6-0.3-1.2-0.6-1.8-0.9c2-4.2,4.1-8.6,6.4-13
	c2.2-8.7,4.1-17.4,6.3-26c-0.7,0-1.4-0.1-1.4-1c0.6-3.7,2.8-8.4,4.6-13.3c0.2-0.8,0.3-1.6,0.4-2.3c-0.2-0.7-0.8-1.1-1.2-1.3
	c0.8-2.2,1.7-4.2,2.6-6c4.9-25.9,10.5-52.3,18.5-80.7c1-6.3,2-12.7,3.8-18.4c1.5-4.2,4-8.6,6.4-12.9c2.5-4.3,5-8.7,7.1-12.4
	c-6.7-2,0.4-22.2-7.7-21.8c2.8-5.1,7.4-12.6,6-13.9c-2.2-2-4.2-4.8-5-9.1c-0.8-4.2-0.6-10,2.1-17.6c2.5-5.7,9.6-12.6,9.7-15
	c0.2-3.9-7.7,4.7-7.4,0.8c-3.2,4.8-6.4,9.6-9.5,14.5c-3.1,4.9-5.9,9.8-8.8,14.8l-4.3,7.4c-1.4,2.5-2.7,5-4,7.5l-7.9,15.2
	c-10.1,20.5-19.4,41.3-28.6,62.7c-1,3.9-3.9,13.1-8.2,25.1c-2,6-4.3,12.7-6.8,19.8c-1.3,3.5-2.4,7.2-3.6,10.9
	c-1.2,3.7-2.4,7.5-3.7,11.3c-4.9,15.3-9.6,31-13.4,44.5c-2,6.7-3.6,13-5.1,18.4c-1.5,5.4-2.8,9.8-3.8,13.1l-0.5,2.4
	c-1.8,7.2-3.8,15.3-5,23.2c-1.2,7.9-2,15.6-1.9,22c0.6,6,1.5,12.1,2.3,18.2c1.6-2.5,3.1-4.8,4.6-6.7c-1.2,5.8-2.4,11.6-1.5,14
	c1.1,12.9,5.5,6.3,10.8,2.3c2.5-3.1,4.9,2,7.8-2.9c-0.8,3.8-1,5.7-1.7,9.5c0.9,0.4,1.1-2.6,1.4-5.3c0.3-2.7,0.8-5,2.1-3.5
	c-1.4,3.5-0.7,7.8-1.4,11.6c2.8-0.9,2.9-13,5.5-12c0.2,2.1-5.1,10.1-2.1,11.3c0.6,0.2,1.3-3.5,1.6-5.4c-0.7,11.8,1.4,18.6,6.4,8.5
	c-0.6,3.6-2.8,8.6-2.9,12.5c0,0,0,0,0.1,0c0.4-1.9,1.5-5.2,1.9-6.9c-0.4,2.2-0.8,4.4-1.1,6.6c0.5-0.3,1-0.6,1.5-1
	c0.6-1.6,1.2-3.2,1.5-4.9c-0.3,1.4-0.5,2.9-0.8,4.3c1.2-0.9,2.4-2.1,3.5-3.3c2.8-4.9,6.6-9.3,7.1-12.1
	C142.9,404.7,148.2,382.6,153.7,360.7z"/>
<g>
	<path class="st4" d="M149.1,380l1.1-5.4l-56-11l-0.9,5.6l8.1,1.6l2.4,8.1l-11.9-2.2l-0.5,5.6l14.2,2.7l8.4,28.1l16.2-24.3l16.2,3.3
		l1.1-5.5l-14-2.8l3.8-5.8L149.1,380z M107.6,371.9l23.9,4.6l-15.5,23.3L107.6,371.9z"/>
	<path class="st4" d="M154,350.6l2.8-5.1l-19.6-3.4l-9-27.9l-15.7,24.7l-11.8-1.8l-1.4,5.1l10,1.7l-3.5,5.5l-8.4-1.7l-0.9,6
		l56.2,10.5l1-5.5l-11.8-2.3l-2.7-8.5L154,350.6z M111.7,350.6l14.9-23.4l9,27.7l-14.5-2.5L111.7,350.6z"/>
</g>
<path class="st5" d="M189.5,170c1.5-5.9,3.4-11.6,5.1-17.4c0.9-2.9,1.7-5.8,2.7-8.7l3.1-8.5l3.2-8.5l1.6-4.2
	c0.6-1.4,1.2-2.8,1.8-4.2c1.1-2.8,5.8-6.7,9.6-11.1c1.4-1,2.8-1.9,4.2-2.6c-0.6,1.4-1.1,2.8-1.7,4.3c0.7-1.7,1.5-3.2,2.5-4.6
	c0.6-0.2,1.1-0.5,1.7-0.6c-0.8,2.1-1.7,4.3-2.5,6.4c0.7-1.7,2.5-4.8,3.3-6.6c0,0,0,0,0.1,0c-1,3.9-4.1,8.5-5.5,12.1
	c7-9.1,7.7-1.8,4.6,9.7c0.7-1.8,2.1-5.4,2.7-5c2.8,1.8-4.1,8.6-4.1,10.8c1.2,0.7,2.1-2,3.5-4.8c1.3-2.8,2.6-5.9,4.1-6
	c-1.4,3.6-1.8,7.8-3.5,11.1c1.1,1.8,1.8-0.5,2.7-3c0.8-2.5,1.6-5.4,2.4-4.8c-1.3,3.6-2.2,5.3-3.4,8.9c3.6-4.4,5.1,0.9,8.1-1.5
	c6-2.9,11.5-7.9,10.2,4.1c0.5,2.4-1.3,7.6-3,12.8c1.7-1.6,3.4-3.5,5.2-5.5c0.2,5.7,0.5,11.4,0.5,16.8c-0.3,5.9-1.2,12.8-2.7,19.8
	c-0.2,0.9-0.4,1.8-0.6,2.6l-0.5,2.7c-0.3,1.8-0.7,3.6-1,5.3c-0.7,3.5-1.5,7-2.3,10.2l-0.4,2.2c-0.8,3-1.5,7.1-2.5,12
	c-0.9,4.9-2.1,10.7-2.8,17c-1.8,12.6-3,27.3-3.5,41.7c-0.1,3.6-0.1,7.2-0.2,10.7c0,1.8-0.1,3.5-0.1,5.2c0,1.7,0.1,3.4,0.1,5.1
	c0.3,6.8,0.4,13.1,0.8,18.8c0.5,5.7,1.1,10.7,1.6,14.6c0.3,2,0.5,3.8,0.7,5.2c0.3,1.5,0.6,2.7,0.9,3.5c0.5,5.2,1,10.3,1.5,15.4
	c0.2,2.6,0.6,5.1,1,7.6c0.4,2.5,0.8,5.1,1.1,7.6c0.4,2.5,0.8,5,1.2,7.6c0.4,2.5,1,5,1.4,7.5c1,5,2,9.9,2.9,14.9l3.5,14.8
	c0.6,2.5,1.1,4.9,1.7,7.4l2,7.3c1.3,4.9,2.4,9.9,3.8,14.8c1.4,4.9,2.8,9.8,4.1,14.8c-2.7-2.4-1.7,8.2-4.4,5.8
	c-1.7-1.5-2-10.5-4.5-15.6c-1.9-3.1-3.9-5.7-5.6-7.7c-1.8-2-3.6-3.5-5.4-4.6c-3.5-2.2-6.9-2.7-9.9-2.6c-2,0.1-4.1-8.1-5-13.6
	c-2.9,2.8-6.3-0.6-9.8-4.5c-3.5-3.8-7-8.1-10.3-6.8c-0.8-4.3-1.2-9.3-1.8-14.2c-0.6-5-1.5-9.9-2.3-14.3c-1.6-5.8-4.2-11.7-6.8-17.8
	c-7.6-28.9-12.8-56.5-15.5-84.2c0.3-2.1,0.6-4.3,0.7-6.8c-0.4-0.1-1.1-0.3-1.5-1c-0.1-0.8-0.2-1.7-0.2-2.5
	c0.6-5.6,1.8-10.9,1.6-14.9c-0.2-1-0.8-0.9-1.6-0.7c0-9.5,0.9-18.9,1.8-28.4c1.5-5,3.5-9.8,5.1-14.5c-0.6-0.3-1.2-0.5-1.8-0.8
	c0-3.2,1.2-5.9,2.4-8.5c1.2-2.7,2.3-5.3,2.5-8.5c-0.1-2.1-1.6-1-2.7-1.3C186.6,181.8,188,175.9,189.5,170z"/>
<g>
	<g>
		<polygon class="st6" points="235.2,237.4 236.1,228.1 207.1,256.3 183.5,227.6 179.1,231.4 178.6,237.9 182.7,235.4 206.5,264.4 
					"/>
		<polygon class="st6" points="223.9,216.7 220,212.7 209.9,222.5 200.3,212.9 196.3,216.9 209.9,230.3 		"/>
		<polygon class="st6" points="206,291.5 232.7,265.1 233,257.3 203.6,286.1 179.2,257.3 178.3,265.1 200,289.6 196.4,335.1 
			202,335.6 		"/>
	</g>
	<g>
		<polyline class="st6" points="223.4,126.1 195.8,148.9 193,157.2 228.6,129.1 228.9,126.8 		"/>
		<polygon class="st6" points="248.6,154.4 228,126.6 223.7,129.2 248.2,163.2 		"/>
		<polygon class="st6" points="243.5,191 244.9,183.6 241.8,185.6 220.3,154.9 187,179.2 185.1,188 219.1,162.9 240.4,193.3 		"/>
		<polygon class="st6" points="226.8,203 214.4,188.7 199.4,201.1 202.9,205.4 213.7,196.4 222.6,206.7 		"/>
	</g>
</g>
<path class="st2" d="M272,448.4c-1,3.9-5.7,10.1-9.6,16.8c-1.4,1.7-2.8,3.2-4.2,4.5c0.5-2,1.1-4.1,1.6-6.1c-0.6,2.4-1.5,4.6-2.5,6.8
	c-0.6,0.5-1.1,0.9-1.7,1.3c0.8-3,1.6-6.1,2.5-9.1c-0.7,2.5-2.5,7-3.2,9.6c0,0,0,0-0.1,0c0.9-5.5,4-12.4,5.4-17.5
	c-7.1,13.8-7.8,4.2-4.8-12.1c-0.7,2.6-2.1,7.8-2.7,7.4c-2.9-1.8,4.1-12.6,4.2-15.6c-2.3-1.4-4.8,15.2-7.8,16.4
	c1.4-5.2,1.6-11.1,3.6-16c-2.2-4.4-3.5,13-5.2,11.9c1.4-5.2,2.1-7.8,3.5-13c-3.8,6.7-5.3-0.3-8.4,3.9c-6.1,5.3-11.8,13.9-10.5-3.5
	c-0.4-3.3,1.7-11.1,3.8-19c-1.8,2.6-3.7,5.7-5.7,9c0.1-8.2,0.2-16.4,0.6-24.5c1.7-17.3,7.6-41.5,13.6-61.1c0.3-1.1,0.6-2.2,0.9-3.3
	c5.8-17.9,18.9-62.2,35.1-104.1c8.1-20.9,16.9-41.2,24.7-57.5c3.8-8.2,7.5-15.2,10.3-21c2.9-5.8,5.2-10.1,6.3-12.8
	c8.8-14.3,18-28.3,28.4-41.6l3.8-5l4.1-4.9c2.7-3.2,5.4-6.5,8.2-9.7l8.7-9.3c1.4-1.6,2.9-3.1,4.5-4.5l4.6-4.4l4.6-4.4
	c1.6-1.4,3.3-2.8,4.9-4.2c3.3-2.8,6.5-5.6,9.9-8.3l10.4-7.7c1.7-1.3,3.6-2.5,5.4-3.7l5.5-3.5l5.5-3.5c1.9-1.1,3.8-2.1,5.8-3.2
	l5.8-3.1c1.9-1,3.8-2.1,5.9-3c4-1.8,8-3.6,12.1-5.4c2-0.9,4.1-1.6,6.2-2.4l6.3-2.2c-2.1,1.8,1.1,1.7,4.3,1.5
	c1.6-0.1,3.2-0.1,4.1,0.1c0.9,0.2,1.1,0.7,0.2,1.5c-1.3,1.1-5.5,2.4-10.5,3.9c-2.4,0.8-5.2,1.5-7.6,2.6c-2.5,1-4.9,2.2-6.9,3.3
	c-2.5,1.7-4.8,3.2-6.7,4.8c-1.9,1.7-3.6,3.2-5,4.7c-2.9,3-4.9,5.6-6.3,8c-2.6,5-2.7,8.8-2,11.8c0.2,1-2.3,3.1-5.8,5.6
	c-3.4,2.6-7.6,5.6-11,8c2.3,0.5,2.6,2.1,1.9,4.4c-0.7,2.2-2.2,5.3-3.9,8.3c-1.6,3-3.3,6.1-4.2,8.7c-0.8,2.7-0.9,4.7,0.6,5.7
	c-2.2,2-4.5,4-7,6.2c-2.5,2.1-4.8,4.6-7.3,6.9c-5,4.6-9.4,9.9-13.1,14.7c-2.3,3.4-4.3,7.1-6.3,10.9c-2,3.7-3.7,7.7-5.4,11.6
	c-9.7,17.5-17.5,35-24.2,52.4c-6.8,17.4-12.3,34.9-17.5,52.3c-1.2,2.5-2.6,5.1-3.8,8.2c0.3,0.3,0.9,0.7,1,1.7
	c-0.3,1-0.6,2.1-0.9,3.1c-1.5,3.4-2.9,6.7-4.3,9.8c-1.3,3.1-2.4,6-3,8.5c-0.2,1.2,0.5,1.3,1.3,1.3c-3.6,11.8-7.2,23.8-10.8,35.8
	c-3,6.2-5.9,12.3-8.6,18.2c0.6,0.4,1.1,0.8,1.7,1.1c-1.3,8.3-7.1,13.6-8.3,21.9c-0.2,2.7-0.7,4.9,0.5,5.3
	C288.3,389.6,281.4,417.2,272,448.4z"/>
<g>
	<polygon class="st7" points="287.2,341.9 277.3,325 261.4,334.3 270.7,350.1 	"/>
	<polygon class="st7" points="304.3,333.9 283.6,300.6 250,320.4 247.2,328.3 281.7,308 301.9,340.3 	"/>
	<polygon class="st7" points="296.8,358.4 296.8,352.9 263.4,368.2 245.5,333.9 243.1,342.7 261,375.5 	"/>
	<polygon class="st7" points="275.3,292.1 272.7,287.2 258.4,295.4 255.6,302.8 	"/>
	<polygon class="st7" points="312.1,312.1 296.3,288.5 291.7,291.6 309,317.2 	"/>
	<polygon class="st7" points="291.3,379.8 294.1,370.5 260.7,392.1 239.8,355.6 237.5,362.6 258.8,400 	"/>
	<polygon class="st7" points="250.3,403.3 235.2,375.1 232.9,383.9 243,401.3 230.5,409 230.5,415.9 	"/>
	<polygon class="st7" points="280.1,420.6 271.2,410.2 285.7,401.5 286.6,394.6 262.4,408.7 278.3,427 	"/>
	<polygon class="st7" points="274.1,441.9 254.3,412.8 233.8,424.3 231.9,432.6 252.6,420.2 271.8,449.8 	"/>
</g>
<g>
	<g>
		<path class="st8" d="M427.5,347.7c-1.9,0.5-4.5,0.7-7.7,0.7c-3.9,0-7.4-0.9-10.3-2.8c-3-1.9-5.6-5.3-7.9-10.3
			c-2.3-5-3.8-8.1-4.6-9.4c-0.8-1.2-1.6-2.3-2.6-3.3c-1-0.9-2-1.6-3.1-2.1c-1.1-0.5-2.4-0.7-3.9-0.7h-7.9v28.1h-14.8v-75H391
			c9.4,0,16.5,1.9,21.2,5.6c4.7,3.7,7.1,9.7,7.1,17.9c0,2.6-0.5,5.2-1.4,7.8c-0.9,2.6-2.5,4.9-4.7,7c-2.2,2-4.5,3.5-6.9,4.3
			c0.9,0.8,1.9,1.8,2.9,3.2c1,1.3,2.2,3.5,3.7,6.5c1.5,3,2.6,5,3.2,5.9c0.6,1,1.3,1.8,1.9,2.5c0.7,0.7,1.5,1.4,2.6,1.9
			c1,0.6,2.3,0.9,3.7,0.9h3.1V347.7z M389.3,308.7c2.1,0,4.3-0.3,6.8-1c2.5-0.7,4.5-1.9,6.2-3.8c1.6-1.9,2.5-4.2,2.5-7
			c0-1.7-0.4-3.5-1.2-5.5s-2.4-3.5-4.7-4.7s-5.1-1.8-8.4-1.8h-11v23.8H389.3z"/>
		<path class="st8" d="M436.7,347.9v-75h47.4v12h-32.6v19.9h25.6v11.8h-25.6v19.3h32.6v12H436.7z"/>
		<path class="st8" d="M538.5,293.5c-0.6-1.1-1.6-2.4-3.1-3.9c-1.5-1.5-3.4-2.7-5.8-3.6c-2.4-0.9-5-1.4-7.8-1.4
			c-2.8,0-5.2,0.5-7.2,1.4c-2,1-3.4,2.1-4.1,3.5c-0.7,1.4-1.1,2.6-1.1,3.9c0,2.4,0.9,4.3,2.7,5.9c1.8,1.6,5.8,3.1,11.9,4.7
			c6.1,1.6,10.3,2.8,12.4,3.7c2.2,0.9,4,1.9,5.5,3.1c1.5,1.1,2.8,2.4,4,3.9c1.1,1.5,2,3.2,2.7,5.3c0.6,2.1,1,4.4,1,7
			c0,2.7-0.6,5.4-1.7,7.9c-1.1,2.6-2.8,4.9-5.1,6.9c-2.3,2-5.2,3.7-8.8,4.9c-3.6,1.2-7.8,1.8-12.5,1.8c-4,0-8.1-0.6-12.4-1.7
			c-4.3-1.1-8-3.1-11.4-5.8c-3.3-2.7-5.6-5.4-6.9-8l8.9-8.4c1,1.5,2.6,3.2,4.7,5.1c2.1,1.9,4.7,3.5,7.7,4.7c3,1.2,6.1,1.8,9.3,1.8
			c3.9,0,7-0.8,9.3-2.4c2.2-1.6,3.4-3.8,3.4-6.5c0-2.6-0.9-4.7-2.8-6.5c-1.9-1.7-5.9-3.3-11.9-4.8c-6-1.4-10.3-2.7-12.9-3.7
			c-2.6-1-4.8-2.3-6.8-3.9c-1.9-1.6-3.4-3.6-4.6-6.1c-1.1-2.5-1.7-5.5-1.7-8.9c0-2.9,0.6-5.6,1.8-8.1c1.2-2.6,3-4.9,5.3-6.9
			c2.3-2,5.2-3.6,8.6-4.7c3.4-1.1,7.2-1.7,11.4-1.7c3.9,0,7.9,0.5,11.9,1.6c4,1.1,7.5,2.9,10.4,5.4c2.9,2.5,4.9,5,5.8,7.4
			L538.5,293.5z"/>
		<path class="st8" d="M561.5,347.9v-75h14.8v75H561.5z"/>
		<path class="st8" d="M592.2,347.9v-75H607v63h33.1v12H592.2z"/>
		<path class="st8" d="M649.2,347.9v-75H664v75H649.2z"/>
		<path class="st8" d="M679.8,347.9v-75h47.4v12h-32.6v19.9h25.6v11.8h-25.6v19.3h32.6v12H679.8z"/>
		<path class="st8" d="M782.2,347.9l-27.9-47.7v47.7h-14.8v-75h15.3l28,49.4v-49.4h14.8v75H782.2z"/>
		<path class="st8" d="M872.3,334.5c-1.1,1.8-2.9,3.8-5.5,6.2c-2.6,2.3-5.8,4.2-9.6,5.7c-3.8,1.5-7.9,2.2-12.2,2.2
			c-5.1,0-9.9-0.8-14.2-2.4c-4.3-1.6-8-4-11.1-7.2c-3.1-3.2-5.5-7.2-7.2-12c-1.7-4.8-2.5-10.3-2.5-16.4c0-6.1,0.8-11.6,2.3-16.4
			c1.5-4.8,3.8-8.8,6.6-12.1c2.9-3.2,6.4-5.6,10.6-7.3s8.7-2.5,13.7-2.5c4.6,0,8.7,0.6,12.1,1.9c3.4,1.3,6.3,3.1,8.8,5.5
			c2.5,2.4,4.4,5.3,5.8,8.8c1.4,3.5,2.1,6.8,2.1,10l-13.7,2.2c-0.1-2-0.6-4.3-1.6-6.8c-1-2.5-2.7-4.6-5-6.2
			c-2.3-1.6-5.1-2.4-8.4-2.4c-2.6,0-5,0.5-7.2,1.6c-2.2,1-4.1,2.6-5.8,4.7c-1.6,2.1-2.9,4.7-3.8,7.9c-0.9,3.2-1.3,6.9-1.3,11.1
			c0,5.3,0.8,9.8,2.5,13.4c1.7,3.6,4.1,6.5,7.1,8.6c3.1,2.1,6.7,3.1,10.9,3.1c3.7,0,7.2-1.1,10.4-3.2c3.2-2.1,5.7-4.5,7.4-7
			L872.3,334.5z"/>
		<path class="st8" d="M883.4,347.9v-75h47.4v12h-32.6v19.9h25.6v11.8h-25.6v19.3h32.6v12H883.4z"/>
	</g>
	<g>
		<path class="st8" d="M384.6,431.5v-48.7h-19.9v-9.3H415v9.3h-19.1v48.7H384.6z"/>
		<path class="st8" d="M433.1,430.2c-3.1-1.2-5.9-3-8.3-5.5c-2.4-2.4-4.2-5.5-5.6-9.3c-1.4-3.8-2-8-2-12.8c0-4.8,0.7-9.1,2-12.8
			c1.3-3.8,3.2-6.9,5.5-9.4c2.4-2.5,5.1-4.3,8.3-5.5c3.1-1.2,6.5-1.8,10.1-1.8c3.5,0,6.9,0.6,10,1.9c3.1,1.2,5.9,3.1,8.3,5.5
			c2.4,2.5,4.2,5.6,5.5,9.3c1.3,3.8,2,8,2,12.8c0,4.8-0.7,9.1-2,12.8c-1.4,3.8-3.2,6.8-5.5,9.3c-2.3,2.4-5.1,4.2-8.2,5.5
			c-3.1,1.2-6.5,1.8-10,1.8C439.6,432,436.3,431.4,433.1,430.2z M450.7,419.8c2.1-1.5,3.7-3.7,4.8-6.6s1.7-6.4,1.7-10.6
			c0-4.3-0.6-7.9-1.7-10.7c-1.1-2.8-2.7-5-4.8-6.5c-2.1-1.5-4.6-2.3-7.6-2.3c-1.4,0-2.8,0.2-4.1,0.6c-1.3,0.4-2.6,1-3.7,1.8
			c-1.1,0.8-2.1,1.9-3,3.2c-0.9,1.3-1.6,3.1-2.3,5.4c-0.7,2.3-1,5.1-1,8.5c0,4.2,0.6,7.8,1.7,10.6c1.1,2.8,2.7,5,4.8,6.6
			s4.6,2.3,7.7,2.3C446.1,422.2,448.7,421.4,450.7,419.8z"/>
		<path class="st8" d="M496.8,431.5v-57.9h17c3.9,0,7.6,0.6,11,1.7c3.4,1.1,6.5,2.9,9.2,5.3c2.7,2.4,4.8,5.5,6.3,9.4
			c1.5,3.9,2.3,8.4,2.3,13.6c0,3.6-0.5,7.2-1.4,10.7c-0.9,3.5-2.5,6.5-4.7,9.1c-2.2,2.5-5,4.5-8.3,6c-3.4,1.5-7.3,2.2-11.9,2.2
			H496.8z M516.2,422.2c4.5,0,8.2-1.6,10.9-4.9c2.8-3.3,4.1-7.9,4.1-13.9c0-6.6-1.5-11.6-4.4-15.2c-2.9-3.6-7.3-5.3-13.2-5.3h-5.4
			v39.4H516.2z"/>
		<path class="st8" d="M552.2,431.5v-57.9h11.4v57.9H552.2z"/>
		<path class="st8" d="M608.6,389.5c-0.4-0.9-1.2-1.9-2.4-3s-2.7-2.1-4.5-2.8c-1.8-0.7-3.8-1.1-6-1.1s-4,0.4-5.5,1.1
			c-1.5,0.7-2.6,1.6-3.1,2.7c-0.6,1-0.8,2-0.8,3c0,1.8,0.7,3.3,2.1,4.6c1.4,1.2,4.5,2.4,9.2,3.6c4.7,1.2,7.9,2.2,9.6,2.9
			c1.7,0.7,3.1,1.5,4.3,2.4c1.2,0.9,2.2,1.8,3.1,3c0.9,1.1,1.6,2.5,2.1,4.1c0.5,1.6,0.7,3.4,0.7,5.4c0,2.1-0.4,4.1-1.3,6.1
			s-2.2,3.8-3.9,5.3c-1.8,1.6-4,2.8-6.8,3.8c-2.8,0.9-6,1.4-9.6,1.4c-3.1,0-6.3-0.4-9.6-1.3c-3.3-0.9-6.2-2.4-8.8-4.5
			c-2.6-2.1-4.3-4.2-5.3-6.2l6.9-6.5c0.8,1.2,2,2.5,3.6,4c1.7,1.5,3.6,2.7,6,3.6c2.3,0.9,4.7,1.4,7.2,1.4c3,0,5.4-0.6,7.2-1.9
			c1.7-1.2,2.6-2.9,2.6-5c0-2-0.7-3.7-2.2-5c-1.5-1.4-4.5-2.6-9.2-3.7c-4.7-1.1-8-2.1-10-2.9c-2-0.8-3.7-1.8-5.2-3
			c-1.5-1.2-2.7-2.8-3.5-4.7c-0.9-1.9-1.3-4.2-1.3-6.9c0-2.2,0.5-4.3,1.4-6.3c0.9-2,2.3-3.8,4.1-5.3c1.8-1.5,4-2.7,6.6-3.6
			c2.6-0.9,5.6-1.3,8.8-1.3c3,0,6.1,0.4,9.2,1.2c3.1,0.8,5.8,2.2,8,4.2c2.3,2,3.8,3.9,4.5,5.8L608.6,389.5z"/>
		<path class="st8" d="M657.5,417H637l-4.9,14.5h-11.9l21.3-57.9h11.7l21.3,57.9h-11.8L657.5,417z M640.1,408.3h14.6l-7.4-21
			L640.1,408.3z"/>
		<path class="st8" d="M714,389.5c-0.4-0.9-1.2-1.9-2.4-3s-2.7-2.1-4.5-2.8c-1.8-0.7-3.8-1.1-6-1.1c-2.2,0-4,0.4-5.5,1.1
			s-2.6,1.6-3.1,2.7c-0.6,1-0.8,2-0.8,3c0,1.8,0.7,3.3,2.1,4.6c1.4,1.2,4.5,2.4,9.2,3.6c4.7,1.2,7.9,2.2,9.6,2.9
			c1.7,0.7,3.1,1.5,4.3,2.4c1.2,0.9,2.2,1.8,3.1,3c0.9,1.1,1.6,2.5,2.1,4.1c0.5,1.6,0.7,3.4,0.7,5.4c0,2.1-0.4,4.1-1.3,6.1
			s-2.2,3.8-3.9,5.3c-1.8,1.6-4,2.8-6.8,3.8c-2.8,0.9-6,1.4-9.6,1.4c-3.1,0-6.3-0.4-9.6-1.3c-3.3-0.9-6.2-2.4-8.8-4.5
			c-2.6-2.1-4.3-4.2-5.3-6.2l6.9-6.5c0.8,1.2,2,2.5,3.6,4c1.7,1.5,3.6,2.7,6,3.6c2.3,0.9,4.7,1.4,7.2,1.4c3,0,5.4-0.6,7.2-1.9
			c1.7-1.2,2.6-2.9,2.6-5c0-2-0.7-3.7-2.2-5c-1.5-1.4-4.5-2.6-9.2-3.7c-4.7-1.1-8-2.1-10-2.9c-2-0.8-3.7-1.8-5.2-3
			c-1.5-1.2-2.7-2.8-3.5-4.7c-0.9-1.9-1.3-4.2-1.3-6.9c0-2.2,0.5-4.3,1.4-6.3c0.9-2,2.3-3.8,4.1-5.3c1.8-1.5,4-2.7,6.6-3.6
			c2.6-0.9,5.6-1.3,8.8-1.3c3,0,6.1,0.4,9.2,1.2c3.1,0.8,5.8,2.2,8,4.2c2.3,2,3.8,3.9,4.5,5.8L714,389.5z"/>
		<path class="st8" d="M746.6,431.5v-48.7h-19.9v-9.3H777v9.3h-19.1v48.7H746.6z"/>
		<path class="st8" d="M784.2,431.5v-57.9h36.6v9.3h-25.2v15.4h19.8v9.1h-19.8v14.9h25.2v9.3H784.2z"/>
		<path class="st8" d="M878.8,431.3c-1.5,0.4-3.5,0.6-6,0.6c-3,0-5.7-0.7-8-2.2c-2.3-1.5-4.3-4.1-6.1-8c-1.8-3.9-2.9-6.3-3.5-7.2
			c-0.6-1-1.2-1.8-2-2.5c-0.7-0.7-1.5-1.3-2.4-1.6c-0.9-0.4-1.9-0.5-3-0.5h-6.1v21.7h-11.4v-57.9h20.4c7.3,0,12.7,1.4,16.4,4.3
			c3.6,2.9,5.5,7.5,5.5,13.9c0,2-0.4,4-1.1,6s-1.9,3.8-3.6,5.4c-1.7,1.6-3.5,2.7-5.3,3.4c0.7,0.6,1.5,1.4,2.2,2.4
			c0.8,1,1.7,2.7,2.9,5c1.2,2.3,2,3.8,2.4,4.6c0.5,0.7,1,1.4,1.5,1.9c0.5,0.6,1.2,1,2,1.5c0.8,0.4,1.8,0.7,2.9,0.7h2.4V431.3z
			 M849.4,401.2c1.6,0,3.4-0.3,5.3-0.8c1.9-0.5,3.5-1.5,4.8-2.9c1.3-1.4,1.9-3.2,1.9-5.4c0-1.3-0.3-2.7-1-4.2
			c-0.6-1.5-1.8-2.7-3.6-3.6c-1.8-0.9-3.9-1.4-6.5-1.4h-8.5v18.4H849.4z"/>
		<path class="st8" d="M918.7,389.5c-0.4-0.9-1.2-1.9-2.4-3s-2.7-2.1-4.5-2.8c-1.8-0.7-3.8-1.1-6-1.1c-2.2,0-4,0.4-5.5,1.1
			c-1.5,0.7-2.6,1.6-3.1,2.7c-0.6,1-0.8,2-0.8,3c0,1.8,0.7,3.3,2.1,4.6c1.4,1.2,4.5,2.4,9.2,3.6c4.7,1.2,7.9,2.2,9.6,2.9
			c1.7,0.7,3.1,1.5,4.3,2.4c1.2,0.9,2.2,1.8,3.1,3c0.9,1.1,1.6,2.5,2.1,4.1c0.5,1.6,0.7,3.4,0.7,5.4c0,2.1-0.4,4.1-1.3,6.1
			c-0.9,2-2.2,3.8-3.9,5.3c-1.8,1.6-4,2.8-6.8,3.8c-2.8,0.9-6,1.4-9.6,1.4c-3.1,0-6.3-0.4-9.6-1.3c-3.3-0.9-6.2-2.4-8.8-4.5
			c-2.6-2.1-4.3-4.2-5.3-6.2l6.9-6.5c0.8,1.2,2,2.5,3.6,4c1.7,1.5,3.6,2.7,6,3.6c2.3,0.9,4.7,1.4,7.2,1.4c3,0,5.4-0.6,7.2-1.9
			c1.7-1.2,2.6-2.9,2.6-5c0-2-0.7-3.7-2.2-5c-1.5-1.4-4.5-2.6-9.2-3.7c-4.7-1.1-8-2.1-10-2.9c-2-0.8-3.7-1.8-5.2-3
			c-1.5-1.2-2.7-2.8-3.5-4.7c-0.9-1.9-1.3-4.2-1.3-6.9c0-2.2,0.5-4.3,1.4-6.3c0.9-2,2.3-3.8,4.1-5.3c1.8-1.5,4-2.7,6.6-3.6
			c2.6-0.9,5.6-1.3,8.8-1.3c3,0,6.1,0.4,9.2,1.2c3.1,0.8,5.8,2.2,8,4.2c2.3,2,3.8,3.9,4.5,5.8L918.7,389.5z"/>
	</g>
</g>
</svg>
