<svg version="1.1" xmlns="http://www.w3.org/2000/svg" xmlns:xlink="http://www.w3.org/1999/xlink" x="0px" y="0px"
	 viewBox="0 0 939 200" style="enable-background:new 0 0 939 200;" xml:space="preserve">
<path fill="#ffffff" d="M84.3,40h78.2v74.9C147,82.1,111,50.1,84.3,40z"/>
<path fill="#ffffff" d="M48,40.2c44.5,10.1,103.2,56.3,114.3,113.6H48V40.2z"/>
<path fill="#ffffff" d="M228.9,123.6h-17.7v30.4h-11.7V76.6h29.4c15.1,0,24.8,10,24.8,23.5S244.1,123.6,228.9,123.6z M228.3,87.2h-17.1
	V113h17c8.2,0,13.7-4.7,13.7-12.8S236.5,87.2,228.3,87.2z"/>
<path fill="#ffffff" d="M294.9,111.9c-2-2.5-5.1-3.8-8.3-3.7c-6,0-11,4.8-11,12.4v33.5h-11.1V98.9h10.9v6c3.6-4.3,9-6.8,14.7-6.6
	c4.9-0.3,9.7,1.6,13.2,5.1L294.9,111.9z"/>
<path fill="#ffffff" d="M314.8,129.7c0,9.5,5,15.4,14,15.4c5.1,0.3,10-1.8,13.4-5.7l7.1,6.7c-5.2,5.9-12.8,9.1-20.7,8.7
	c-13.8,0-24.8-7.3-24.8-28.3c0-17.8,9.2-28.2,23.4-28.2c14.8,0,23.4,10.9,23.4,26.5v4.9L314.8,129.7z M338.1,114.6
	c-1.8-4.4-6.2-7.1-10.9-7c-4.7-0.2-9.1,2.6-11,7c-1,2.4-1.5,4.9-1.4,7.5h24.8c0.1-2.6-0.4-5.2-1.4-7.6L338.1,114.6z"/>
<path fill="#ffffff" d="M383.3,154.1h-9.1L354,98.9h11.8l13.1,38.9l12.9-38.9h11.8L383.3,154.1z"/>
<path fill="#ffffff" d="M418.2,129.7c0,9.5,5,15.4,14,15.4c5.1,0.3,10-1.8,13.4-5.7l7.1,6.7c-5.2,5.9-12.9,9.1-20.8,8.7
	c-13.8,0-24.8-7.3-24.8-28.3c0-17.8,9.2-28.2,23.4-28.2c14.8,0,23.4,10.9,23.4,26.5v4.9L418.2,129.7z M441.4,114.6
	c-1.8-4.4-6.2-7.1-10.9-7c-4.8-0.2-9.1,2.6-11,7c-1,2.4-1.5,4.9-1.4,7.5H443c0.1-2.6-0.4-5.2-1.5-7.6V114.6z"/>
<path fill="#ffffff" d="M500.1,154.1v-33.6c0-8.6-4.9-12.3-11.1-12.3c-6.2,0-11.4,3.8-11.4,12.3v33.6h-11.1V98.9h10.8v5.6
	c3.8-4,9.2-6.2,14.7-6c5-0.2,9.9,1.6,13.6,5c4,4.2,6,9.8,5.5,15.6v35.1H500.1z"/>
<path fill="#ffffff" d="M542.5,154.1c-7.9,0.5-14.7-5.6-15.1-13.5c0-0.6,0-1.2,0-1.8v-30.2h-6.3v-8.6h6.3V83.2h11.1v16.7h10.7v8.5
	h-10.7v29.8c-0.5,3.1,1.6,5.9,4.7,6.4c0.4,0.1,0.9,0.1,1.4,0h4.6v9.5L542.5,154.1z"/>
<path fill="#ffffff" d="M560.8,88.1V76.3h11.8v11.8H560.8z M561.1,154.1V98.9h11.1v55.2L561.1,154.1z"/>
<path fill="#ffffff" d="M624.6,148.2c-4.4,4.4-10.3,6.8-16.5,6.7c-6.2,0.2-12.1-2.2-16.4-6.5c-5.2-5.4-6.5-12.4-6.5-21.8
	s1.3-16.2,6.5-21.6c4.3-4.4,10.3-6.7,16.4-6.5c6.2-0.2,12.2,2.2,16.5,6.5c5.2,5.4,6.5,12.4,6.5,21.6S629.8,142.8,624.6,148.2z
	 M616.3,111.3c-2.2-2.1-5.1-3.3-8.1-3.2c-3-0.1-5.9,1.1-8.1,3.2c-3.4,3.4-3.8,9.1-3.8,15.1s0.5,11.8,3.8,15.1c2.1,2.1,5,3.3,8.1,3.3
	c3,0.1,6-1.1,8.1-3.3c3.4-3.4,3.8-9.1,3.8-15.1C620.1,120.4,619.6,114.7,616.3,111.3z"/>
<path fill="#ffffff" d="M677.6,154.1v-33.6c0-8.6-4.9-12.3-11.1-12.3c-6.2,0-11.4,3.8-11.4,12.3v33.6H644V98.9h10.9v5.6
	c3.8-4,9.2-6.2,14.7-6c5-0.2,9.9,1.6,13.6,5c4,4.1,6.1,9.7,5.7,15.4v35.2H677.6z"/>
<path fill="#ffffff" d="M764.8,154.1h-6l-18.1-67.4l-18.3,67.4h-6L697,76.6h6.2l16.3,67.3l18.1-67.3h6l18.1,67.3l16.3-67.3h6.2
	L764.8,154.1z"/>
<path fill="#ffffff" d="M792.9,129.1c0,13.3,6,20.6,17.1,20.6c5.5,0.2,10.8-2.1,14.5-6.3l4.1,3.3c-4.7,5.4-11.7,8.4-18.9,8.2
	c-14.5,0-22.3-9.3-22.3-26.9c0-16.9,7.8-26.9,21.2-26.9s21,9.6,21,25.6v2.5L792.9,129.1z M822,114.7c-3.4-7.5-12.2-10.9-19.7-7.5
	c-3.3,1.5-6,4.2-7.5,7.5c-1.3,3.1-1.9,6.5-1.8,9.9h30.9C823.9,121.2,823.3,117.8,822,114.7z"/>
<path fill="#ffffff" d="M879.3,150.2c-3.6,3.2-8.2,4.9-13,4.7c-6.1,0.5-12.1-2.4-15.6-7.4v6.7h-5.5V76.6h5.5v31.8
	c3.5-5,9.4-7.9,15.6-7.4c4.8-0.2,9.4,1.4,13,4.6c5.3,5.3,6.7,14,6.7,22.3C886,136.2,884.4,144.8,879.3,150.2z M865.7,105.9
	c-12.8,0-14.8,11.1-14.8,22s2,22,14.8,22s14.8-11.1,14.8-22s-2.1-22-14.9-22L865.7,105.9z"/>
</svg>
