<?xml version="1.0" encoding="utf-8"?>
<!-- Generator: Adobe Illustrator 23.0.1, SVG Export Plug-In . SVG Version: 6.00 Build 0)  -->
<svg version="1.1" id="layer" xmlns="http://www.w3.org/2000/svg" xmlns:xlink="http://www.w3.org/1999/xlink" x="0px" y="0px"
	 viewBox="0 0 599.9 269.6" style="enable-background:new 0 0 599.9 269.6;" xml:space="preserve">
<style type="text/css">
	.st0{fill:#FFFFFF;}
</style>
<g>
	<path class="st0" d="M501.6,156.3c-4.6-5.3-16.9-15.1-19.8-16.1c-1-0.4-3.7-0.7-7.3-1.1c-1.4-0.2-2.8-0.3-3.9-0.5l-2.5-0.4
		l-0.6-2.5c-0.5-1.8-0.7-4.5-1-6.9c-0.5-4.8-0.8-6.2-1.7-6.3h-0.1c-0.5,0-1.3,0.5-2.1,1.4c-1.8,1.9-3.7,5.3-3.5,8.8
		c0.1,1.2,1.1,3.1,2,4.8l0.1,0.1c0.3,0.5,0.7,1.2,1,1.8l0.9,1.7c0,0-2.2,9.1-11.8,8.6c-5.7-0.3-15-5.5-26.2-14.3
		c-17.5-13.7-34.1-26.3-55.8-26.3c-20.1,0-38.6,15.7-57.1,36.2c-7.1,7.8-23.9,27.4-45.2,29.3s-27.4-9.7-37.9-18.2
		c-3.1-2.5-6.1-2.6-4.7-0.1c3.5,6.2,8.9,13.9,12.3,17.8c6.6,7.7,19.5,15.1,33,15.5c31.9,1,60.5-25.1,61.3-23.5
		c2.3,4.4,3.8,8.6,8.9,12.6s24.5,9.1,27.3,14.1c5.1,9.2,4.8,17.9,6.4,31.1c0.7,5.8,2.7,11.9,4.5,16.5c2,5.1,3.2,6.8,4.1,6.9
		c17.6,2.7,44.5,12.8,58.2,17.7c7.4,2.6,12.7,4.5,14.6,4.6c0.6,0,1-0.1,1.2-0.4c0.3-0.5,0.2-1.1,0.1-1.5c-1-3-7.7-8-10.7-9.4
		c-10.6-4.8-22.1-8.3-31.4-11.1c-8.2-2.5-20.5-6.5-23.1-9.5c-2.1-2.5-4.7-6.8-3.8-16.2c0.6-6.4,1.6-12,8.9-23.6
		c4.8-7.7,6.6-14.3,6.4-19.8c8.4,2.8,17.8,3.7,17.8,3.7c2,5.2,1,18.2-2.9,22.1l-0.5,0.5l-0.7,0.3c-0.3,0.1-0.9,0.3-1.4,0.5
		c-5.8,2-5.1,4.1-4.7,5.4c0.3,0.9,1.6,1.4,3.5,1.4c2.7,0,7.9-1.2,10.7-5.6c1.5-2.4,3.5-7.6,5.4-12.6c2-5.1,2.7-6.5,4.3-9.1l1.1-2
		c0,0,9.3,0.2,18.7-5c4.8-2.7,8.7-6.4,12.1-9.4c2.2-2,4.1-3.7,5.8-4.7c2.3-1.4,4.6-2,7.3-2c3,0,6.3,0.8,10,1.7l0.2,0.1
		c1.9,0.5,4,1,6.2,1.4c2.7,0.5,5.7-1.2,6.9-3.9C502.9,159.2,502.7,157.6,501.6,156.3"/>
</g>
<path class="st0" d="M45.3,29.3h0.2l7.8,27H36.9L45.3,29.3z M32.2,0L0,87.6h27.1L31,75.1h27.8l3.7,12.5h28L58.6,0.1H32.2V0z"/>
<g>
	<path class="st0" d="M156.9,87.6h-23.4v-8.1h-0.2c-4.5,6.4-11,9.7-20.7,9.7c-11.4,0-21.8-7-21.8-21.6V24h24.3v33.4
		c0,7.4,0.9,12.5,8,12.5c4.2,0,9.7-2.1,9.7-12.3V24h24.3v63.6H156.9z"/>
	<path class="st0" d="M201.5,42.5c-0.1-2.1-1.2-3.7-2.8-4.8c-1.5-1.2-3.4-1.8-5.4-1.8c-3.4,0-7.4,0.7-7.4,4.9c0,1.8,1.5,2.7,2.8,3.3
		c4,1.7,13.2,2.2,21.3,4.9c8.1,2.6,15.2,7.3,15.2,17.8c0,17.7-16.9,22.4-32.4,22.4c-15,0-31.4-6-31.8-22.4h23.2
		c0.1,2.2,1.1,4.1,2.9,5.6c1.2,1.1,3.6,1.8,6.5,1.8c3.2,0,8.2-1.2,8.2-4.9c0-3.7-2.1-4.8-13.4-6.7c-18.5-3.2-26-9.1-26-20
		c0-16.1,17.3-20.2,30-20.2c13.7,0,30.3,3.8,30.9,20.1H201.5z"/>
	<path class="st0" d="M260.6,23.9h13v15h-13v22.2c0,5.9,1.4,8.5,7.5,8.5c1.8,0,3.7-0.1,5.5-0.4v18.4c-4.9,0-10.4,0.7-15.6,0.7
		c-10.3,0-21.7-1.6-21.7-19V38.9h-10.8v-15h10.8V4.6h24.3L260.6,23.9L260.6,23.9z"/>
	<path class="st0" d="M278.3,23.9h23.3v10.2h0.2c3.9-7.6,9.1-11.8,17.9-11.8c2.4,0,4.8,0.4,7.1,1v21.5c-2.5-0.9-4.7-1.6-9.6-1.6
		c-9.6,0-14.7,5.6-14.7,19.2v25.2h-24.3V23.9H278.3z"/>
	<path class="st0" d="M392.9,73.4c0,4.8,0.2,10.2,2.9,14.2H371c-0.6-1.7-1-4.3-0.9-6h-0.2c-5.2,5.9-12.6,7.6-20.5,7.6
		c-12.3,0-22.4-5.9-22.4-19.2c0-20.1,23.5-19.4,35.9-21.7c3.3-0.6,6.6-1.6,6.6-5.6c0-4.3-4.1-5.9-8-5.9c-7.5,0-9,3.8-9.1,6.5h-22.5
		c0.4-9,4.8-14.2,11-17.2c6.1-2.9,14.2-3.7,21.7-3.7c30.4,0,30.2,12.6,30.2,24.9L392.9,73.4L392.9,73.4z M369.6,59
		c-2.9,1.5-6.3,2.3-9.6,3.1c-5.4,1.2-8.2,2.6-8.2,6.9c0,2.9,3.2,5.9,7.6,5.9c5.5,0,9.8-3.3,10.2-9.9V59z"/>
	<rect x="400.2" class="st0" width="24.3" height="87.5"/>
	<path class="st0" d="M456.3,17.1H432v-17h24.3V17.1z M432,23.9h24.3v63.7H432V23.9z"/>
	<path class="st0" d="M526.1,73.4c0,4.8,0.2,10.2,2.9,14.2h-24.8c-0.6-1.7-1-4.3-0.9-6h-0.2c-5.2,5.9-12.6,7.6-20.5,7.6
		c-12.3,0-22.4-5.9-22.4-19.2c0-20.1,23.5-19.4,35.9-21.7c3.3-0.6,6.6-1.6,6.6-5.6c0-4.3-4.1-5.9-8-5.9c-7.5,0-9,3.8-9.1,6.5h-22.4
		c0.4-9,4.8-14.2,11-17.2c6.1-2.9,14.2-3.7,21.7-3.7c30.4,0,30.2,12.6,30.2,24.9V73.4z M502.8,59c-2.9,1.5-6.3,2.3-9.6,3.1
		c-5.4,1.2-8.2,2.6-8.2,6.9c0,2.9,3.2,5.9,7.6,5.9c5.5,0,9.8-3.3,10.2-9.9V59z"/>
	<path class="st0" d="M533.8,23.9h23.4V32h0.2c4.5-6.4,11-9.7,20.7-9.7c11.4,0,21.8,7,21.8,21.6v43.7h-24.3V54.2
		c0-7.4-0.9-12.5-8-12.5c-4.2,0-9.7,2.1-9.7,12.3v33.6h-24.3V23.9H533.8z"/>
	<path class="st0" d="M32.2,113.1h26.4l31.9,87.5h-28l-3.7-12.5H31l-3.9,12.5H0L32.2,113.1z M53.4,169.4l-7.8-27h-0.2l-8.5,27H53.4z
		"/>
	<path class="st0" d="M117.8,130.2H93.5v-17h24.3V130.2z M93.5,137h24.3v63.6H93.5V137z"/>
	<path class="st0" d="M193.3,200.7h-23.4v-7h-0.2c-3.1,4-6.7,8.6-18.6,8.6c-18,0-26.7-17.8-26.7-33.7c0-15,5.8-33.1,27.1-33.1
		c7.2,0,13.7,3.2,17.4,8.6h0.2v-30.9h24.3v87.5H193.3z M159.2,153.1c-8.7,0-10.7,8.2-10.7,15.7c0,7.6,2,15.8,10.7,15.8
		s10.7-8.2,10.7-15.8C169.9,161.3,168,153.1,159.2,153.1"/>
</g>
</svg>
