<?xml version="1.0" encoding="utf-8"?>
<!-- Generator: Adobe Illustrator 23.0.1, SVG Export Plug-In . SVG Version: 6.00 Build 0)  -->
<svg version="1.1" xmlns="http://www.w3.org/2000/svg" xmlns:xlink="http://www.w3.org/1999/xlink" x="0px" y="0px"
	 viewBox="0 0 180 50.8" style="enable-background:new 0 0 180 50.8;" xml:space="preserve">
<style type="text/css">
	.st0{fill:#FFFFFF;}
</style>
<g id="Layer_2">
</g>
<g id="Layer_1">
	<path class="st0" d="M95.3,23.4c-6.2,0-10-3.5-10-10.2V0.1h5.1v13c0,3.8,1.9,5.7,5,5.7s5-1.9,5-5.5V0.1h5.1v13
		C105.4,20,101.4,23.4,95.3,23.4z"/>
	<path class="st0" d="M124.8,23.1L113.6,8.4V23h-5V0h4.7l10.8,14.2V0.1h5v23H124.8z"/>
	<path class="st0" d="M27.1,50.5h-4.4l-5.2-15l-5.2,15H7.9L0,27.4h5.4L10.2,43l5.3-15.6h4.3L25,43l4.7-15.6H35L27.1,50.5z"/>
	<path class="st0" d="M46.5,50.8c-6.5,0.2-12-4.9-12.2-11.4c0-0.2,0-0.3,0-0.5v-0.1c0-6.6,5.3-11.9,12-11.9c0.1,0,0.3,0,0.4,0
		c6.5-0.2,12.1,4.9,12.3,11.4c0,0.2,0,0.3,0,0.5v0.1c0,6.6-5.3,11.9-12,11.9C46.7,50.8,46.6,50.8,46.5,50.8z M53.5,38.9
		c0.1-3.9-2.9-7.1-6.8-7.2c-0.1,0-0.2,0-0.2,0c-3.8,0-6.9,3.1-6.9,6.9c0,0.1,0,0.2,0,0.3V39c-0.1,3.9,2.9,7.1,6.8,7.2
		c0.1,0,0.2,0,0.2,0c3.8,0,6.9-3,6.9-6.8C53.5,39.1,53.5,39,53.5,38.9L53.5,38.9z"/>
	<path class="st0" d="M79,50.4v-15l-6.5,9.8h-0.1L66,35.4v15h-5v-23h5.5l6,9.7l6.1-9.7H84v23H79z"/>
	<path class="st0" d="M88.1,50.4v-23h17.4v4.5H93.1v4.7H104v4.5H93.1v4.8h12.6v4.5H88.1z"/>
	<path class="st0" d="M124.7,50.4l-11.1-14.6v14.6h-5v-23h4.7l10.8,14.2V27.4h5v23H124.7z"/>
	<path class="st0" d="M76.5,5.1c1.8,3.3,1.5,7.3-0.8,10.3c-3.2,4.3-9.2,5.2-13.6,2s-5.2-9.2-2-13.5c0.8-1,1.8-1.9,2.9-2.6
		c2.8-1.6,6.3-1.7,9.2-0.3C74.2,2,75.6,3.4,76.5,5.1z M68.3,0.5c0,0.4,0,0.9,0,1.3c0-0.1,0.1-0.1,0.1-0.1s0.1,0.2,0.1,0.3l0,0
		c0.6,0,1.3,0.1,1.9,0.3c0.6,0.1,1.2,0.8,1.8,0.4c0.2,0.2,0.5,0,0.6,0.3c0.2,0,0.4,0.3,0.5,0.4c0,0.2,0.2,0.3,0.3,0.5l0,0
		c0.2-0.4,0.5-0.7,0.9-0.9c-1.3-1.2-2.9-2-4.6-2.3C69.2,0.6,68.7,0.6,68.3,0.5z M61.7,3l1.1,1c1.3-1.3,3.1-2,4.9-2.1
		c-0.1-0.5-0.1-0.9,0-1.4C65.5,0.6,63.4,1.5,61.7,3z M75,0.8l0.7,0.7c0.7,1.1,1.6,2.1,2.6,2.9C78.1,4,78,3.5,77.8,3
		C77.5,1.8,76.1,1.2,75,0.8z M60.9,1c-0.9,0.3-1.7,0.8-2.4,1.4c-0.4,0.7-0.7,1.4-0.9,2.2l0.7-0.7C59.5,3.1,59.8,1.8,60.9,1L60.9,1z
		 M69.3,1.3l-0.6,0.3c-0.1,0-0.3-0.1-0.3,0.1c0.1,0.1,0.3,0.2,0.4,0.2C69.2,1.7,69.7,2,70,1.6C70,1.3,69.6,1.3,69.3,1.3L69.3,1.3z
		 M77.6,2.1c1,0.6,0.9,1.8,1.2,2.7c0.1,0.4,0.3,0.8,0.4,1.1c-0.5-1.5-2.2-1.6-2.8-3l0.2,0.8c0.5,1.6,2.4,2,3.1,3.4
		C79.5,6,79.9,5,79.6,3.9C79.2,3.1,78.5,2.4,77.6,2.1L77.6,2.1z M56.6,3.5c-0.8,1.1-0.1,2.6-0.3,3.8c0.3-0.5,0.7-1,1.2-1.4
		c1.1-0.6,1.8-1.7,2-2.9c-0.5,1.4-2.3,1.6-2.8,3l0,0c0.7-1.2,0.3-2.9,1.5-3.9C57.7,2.4,57.1,2.9,56.6,3.5z M68.2,2.5
		c0,0.5,0,1,0,1.4c1.1,0,2.2,0.3,3.1,1c-0.1-0.1-0.1-0.2-0.1-0.3l0,0c0-0.2-0.2-0.2-0.1-0.4c0.2,0,0.4,0.3,0.5,0.5
		c0.6,0,0.3,0.7,0.7,0.9c0.1,0.1,0,0.3,0.1,0.3s0.3,0.2,0.3,0.4c0,0.2,0.3-0.1,0.5,0.1s-0.1,0.2-0.1,0.3s0.2-0.1,0.2,0
		s0,0.2-0.1,0.2s0.2,0.1,0.2,0.2c0.1,0.2,0.1,0.5,0,0.8c0.2,0.2,0,0.5-0.1,0.7S73.1,9.1,72.8,9c-0.1,0.1,0,0.3,0,0.4h0.5
		C73,9,73.4,8.6,73.5,8.2c0.1,0,0.1-0.2,0.2,0s0,0.4-0.1,0.5c0.1,0.2,0.1,0.5,0.1,0.7h1.6c-0.1-0.9-0.3-1.8-0.7-2.6
		c-0.1,0-0.2,0.1-0.3,0c-0.1-0.2-0.3-0.4-0.5-0.6c-0.2,0-0.3-0.1-0.4-0.2c-0.3,0-0.2-0.4-0.5-0.4c-0.2-0.1-0.3-0.2-0.3-0.4
		c0-0.2-0.1-0.5-0.2-0.7c-0.1-0.1-0.2,0-0.3,0.1c-0.1,0.1-0.2-0.1-0.2-0.2c-0.2-0.1,0-0.3-0.1-0.5c-0.3-0.2-0.2-0.6-0.5-0.8
		c-0.6-0.3-1.2-0.5-1.9-0.6C68.9,2.6,68.6,2.5,68.2,2.5z M72.4,2.5c-0.1,0,0,0.1,0,0.2c0.2,0,0.2,0.4,0.5,0.3l-0.1-0.3
		C72.7,2.4,72.5,2.5,72.4,2.5z M63.1,4.5c0.4,0.3,0.7,0.6,1,1c1-0.9,2.3-1.5,3.6-1.5c0-0.5,0-0.9,0-1.4C66,2.6,64.4,3.3,63.1,4.5
		L63.1,4.5z M74.6,3.3l-1,1h-0.2c0.1,0,0.1,0.1,0.2,0.2c0.4,0.3,0.6,0.7,0.9,1c0.1,0.3,0.4,0.5,0.4,0.9c0.4,0.9,0.7,2,0.7,3
		c0.5,0,1-0.1,1.4-0.1l0,0C77.1,7.1,76.2,5,74.6,3.3z M61.5,3.5L61.5,3.5c-1.5,1.6-2.4,3.7-2.5,6h1.5c0-0.5,0-0.9,0.1-1.4
		c0.3-1.4,1-2.6,1.9-3.6L61.5,3.5z M79.8,3.8c0.7,1,0.3,2.3,0.2,3.5c0.1,0.5,0.1,1.1,0.1,1.6C80,8.7,80,8.4,79.9,8.2
		c-0.3-1.2-1.7-1.8-2.3-2.8c0.1,0.3,0.2,0.7,0.3,1c0.5,1.4,2,2.4,2.2,4c0.1-1.5,1.2-2.7,0.8-4.4C80.8,5.2,80.4,4.5,79.8,3.8z
		 M56.1,4c-0.5,0.7-0.9,1.4-1,2.2c-0.3,1.7,0.7,2.9,0.9,4.4c0.2-1.9,2.2-3.1,2.3-5c-0.6,1.1-2,1.7-2.3,3c0,0.2-0.1,0.4-0.1,0.6l0,0
		L56,8.4C56.2,6.8,55.4,5.3,56.1,4z M67.7,4.4L67.7,4.4c-1.2,0.1-2.3,0.6-3.2,1.4c0.4,0.3,0.7,0.6,1,0.9c0.6-0.6,1.4-0.9,2.3-0.9
		C67.7,5.3,67.7,4.8,67.7,4.4z M68.3,4.4c0,0.4,0,0.9,0,1.3c0.9,0.1,1.7,0.4,2.3,0.9c0.3-0.4,0.6-0.7,1-0.9
		C70.6,4.9,69.5,4.5,68.3,4.4L68.3,4.4z M62.7,4.7L62.7,4.7c-1.1,1.4-1.8,3-1.9,4.7c0.5,0,1,0,1.4,0l0,0c0.1-1.4,0.6-2.7,1.5-3.7
		C63.4,5.4,63,5.1,62.7,4.7L62.7,4.7z M72,6.1c-0.4,0.5-1,1-1.4,1.5c0,0.1,0.1,0.1,0.1,0.1s0-0.5,0.3-0.4s0.6,0.1,0.9,0.1
		c0.2,0,0.2,0.3,0.4,0.3c0.2,0.1,0,0.2-0.1,0.2L72.3,8c0.1-0.1,0.2-0.2,0.4-0.1c0.2,0,0.2,0.3,0.4,0.3s0,0.2-0.1,0.2
		s-0.2,0.2-0.1,0.4c0.1,0,0.2,0,0.2-0.1c0.3-0.3,0.1-0.6,0-0.9s-0.4-0.3-0.7-0.5c0-0.1,0.1-0.2,0.1-0.2C72.6,6.7,72.1,6.4,72,6.1z
		 M64.1,6.1c-0.3,0.3-0.5,0.8-0.8,1.2C63,8,62.8,8.7,62.7,9.4h0.6c0-0.1-0.1-0.3,0-0.4c0.1-0.3,0.2-0.8,0.6-0.8
		c0.2-0.1,0-0.2,0.2-0.3c0.3,0,0.4-0.3,0.7-0.5C65.1,7.3,65.1,7,65.3,7C64.8,6.8,64.4,6.5,64.1,6.1L64.1,6.1z M68.3,6.2v1l0.4,0.2
		C68.8,7.2,69,7.2,69.1,7c0.1-0.2,0.2,0.1,0.2,0.1c0.1,0.4-0.4,0.6-0.7,0.8h0.1C69,7.6,69.1,8.3,69.4,8c0.1-0.4,0.6-0.3,0.7-0.7
		c-0.1,0.1-0.1,0-0.2,0s0.2-0.2,0.3-0.3C69.6,6.6,69,6.4,68.3,6.2L68.3,6.2z M67.7,6.2c-0.8,0.1-1.5,0.4-2,1c0.2,0,0.4,0.1,0.5,0.2
		c0,0.1-0.1,0.1-0.1,0.1s0.1,0,0.3-0.1c0.1-0.1,0.2,0.2,0.4,0.1c0.1,0.1,0.2,0,0.3,0c0.1,0,0.2-0.2,0.1-0.3
		c-0.1-0.1,0.1-0.3,0.2-0.3c-0.1,0.4,0.3,0,0.4,0.2C67.8,7,67.7,6.6,67.7,6.2L67.7,6.2z M81.4,7.2c0.3,1.5-0.6,2.6-1,3.8
		c-0.2,0.5-0.1,1.1-0.4,1.5c0-0.2,0.1-0.5,0.1-0.7c0.2-1.6-1.2-2.6-1.5-4c0,0.3,0,0.7,0.1,1c0.1,1.7,1.2,3.1,0.9,4.9
		c0.3-0.4,0.6-0.9,1-1.3C81.7,11,82,9.1,81.4,7.2L81.4,7.2z M54.8,7.4c-0.4,1.2-0.5,2.4-0.1,3.6c0.3,1.2,1.4,2,2,3
		c-0.1-0.5-0.1-0.9,0-1.4c0.5-1.5,0.8-3,0.9-4.6c-0.2,1.2-1.3,2-1.4,3.3c0,0.5,0,1,0.1,1.5c-0.1-0.2-0.2-0.5-0.2-0.8
		C55.8,10.5,54.5,9.3,54.8,7.4L54.8,7.4z M67.7,8L67.7,8c0,0.1,0.1,0.3,0,0.4s-0.6,0.2-0.6,0.5c-0.4,0.1-0.3,0.6-0.4,1
		c-0.3,0.1-0.2-0.3-0.3-0.4l-0.1,0.1C65.9,9.3,66,10,65.7,10c0.3,0.1,0.5-0.1,0.8-0.1l0.1,0.1l0,0c0.1-0.1,0.1-0.1,0.1-0.2
		s0.1-0.1,0.2-0.1l0,0c0,0.1,0,0.2,0.1,0.2l-0.2,0.2c-0.1,0.1,0,0.3-0.2,0.3c0,0-0.1,0-0.1-0.1l0,0l0.1,0.2c0.1,0,0.1-0.2,0.3-0.3
		c0.2-0.1,0.2-0.2,0.1-0.3c0.2-0.2,0.4-0.1,0.6-0.1c0,0,0.2,0.1,0.2,0.2s-0.1,0.3-0.2,0.5s-0.1,0.2-0.1,0.3
		c-0.2,0.2-0.4,0.1-0.6,0.1c0.3,0.2,0.6,0.3,1,0.3s0.2-0.4,0.4-0.6c0.2,0,0.3,0,0.5,0c0.1-0.1,0.1-0.3,0.1-0.4
		c-0.2-0.1-0.1-0.2-0.1-0.4c0-0.1-0.1-0.3-0.3-0.3c0-0.1,0.1-0.1,0.1-0.2c0.3-0.1-0.1-0.3,0-0.4c-0.3-0.1-0.4-0.5-0.8-0.4
		c-0.1-0.1-0.3-0.2-0.3-0.4C67.5,7.9,67.8,8,67.7,8c0.1,0,0.1,0,0.1-0.1c-0.1,0-0.3,0-0.4,0.1H67.7z M63.9,9.2c-0.3,0.1,0,0.4,0,0.6
		s-0.2,0-0.3,0.1c0,0.3-0.2,0.3-0.4,0.4c-0.2,0,0.2,0.3,0.1,0.5c0.3,0.2,0.4,0.5,0.4,0.9c0.2,0.2,0.1,0.6,0.2,0.9
		c0.1,0.2,0.2,0.4,0.2,0.6c0,0.1-0.1,0.2-0.2,0.2c-0.1,0,0.1,0.1,0.1,0.1l1.1-1.1c-0.4-0.5-0.7-1.1-0.9-1.8L64,10.4
		c0,0.2,0,0.4-0.2,0.5s-0.3-0.1-0.3-0.3c0-0.2,0.1,0,0.2,0c0-0.1,0-0.2,0-0.2c0-0.1-0.1-0.2,0-0.3s0.2,0.1,0.2,0.2l0.2-0.1
		c-0.1-0.2,0.1-0.5,0-0.8C64,9.2,63.9,9.2,63.9,9.2L63.9,9.2z M72.7,9.3L72.7,9.3z M72.6,9.8l0.2,0.3c0,0.3,0.4,0.4,0.4,0.7
		c0.1-0.3,0.1-0.6,0.2-0.9C73.1,9.9,72.8,10,72.6,9.8L72.6,9.8z M75.8,9.8L75.8,9.8c-0.1,1.9-0.8,3.7-2.1,5c0.3,0.3,0.7,0.7,1,1
		c1.2-1.3,2-2.9,2.3-4.7c0.1-0.5,0.1-0.9,0.2-1.4C76.8,9.8,76.3,9.9,75.8,9.8L75.8,9.8z M74,9.8c0,0.2,0,0.4,0,0.5
		c-0.2,0.3,0.3,0.4,0.1,0.7c-0.1,0.1-0.2,0.1-0.3,0c-0.2,1-0.7,1.9-1.4,2.6h-0.1c0.2,0.1,0.3,0.3,0.5,0.4v-0.1c0,0,0-0.1,0.1-0.1
		c0.4,0.1,0.4,0.6,0.4,0.8c0.9-0.9,1.5-2.1,1.8-3.3c0-0.4,0.1-0.9,0.2-1.3c-0.5,0-0.9,0-1.4,0L74,9.8z M62.7,9.8
		c0.1,0.3,0.2,0.7,0.1,1c0-0.2,0.3-0.3,0.1-0.5c0.1-0.2,0-0.5,0.2-0.5C63,9.9,62.8,10,62.6,10L62.7,9.8z M59,9.8
		c0.1,2.2,1,4.3,2.4,6c0.3-0.4,0.7-0.7,1.1-1c-0.2-0.1-0.3-0.3-0.5-0.5c-0.2-0.1-0.4-0.2-0.4-0.5c0,0,0,0,0,0.1
		c-0.2,0.1-0.3-0.2-0.4-0.2c-0.1,0,0-0.4-0.2-0.2c-0.1-0.2-0.4-0.2-0.4-0.4l-0.1,0.1c-0.2,0-0.3-0.2-0.4-0.3
		c-0.3,0.1-0.2-0.4-0.4-0.5c-0.1-0.3,0-0.6,0.2-0.8c0.1-0.1,0.2-0.1,0.3,0c0.2,0.1,0.1-0.1,0.2-0.2c0.3-0.2,0.4,0.1,0.5,0.2
		c-0.2-0.6-0.3-1.2-0.3-1.9C60.1,9.8,59.6,9.9,59,9.8L59,9.8z M60.9,9.8L60.9,9.8c0.1,0.7,0.3,1.3,0.3,2c0.1-0.1,0-0.2,0.1-0.2
		c0-0.3,0.1-0.6,0.3-0.9c0.3,0,0.3-0.4,0.6-0.4c0.1,0.1,0.2,0.1,0.2,0.2c-0.1-0.2-0.2-0.5-0.1-0.7c-0.5,0.1-1,0.2-1.5,0.2L60.9,9.8z
		 M64.8,10.4l0.1,0.1c0.1,0.4,0.3,0.8,0.6,1.2l0.4-0.4c0-0.1,0-0.1,0-0.2c0,0,0-0.3-0.1-0.4s0.1,0.1,0,0.2c-0.2,0-0.3-0.1-0.3-0.3
		c0-0.2-0.1-0.1-0.2-0.1c-0.1-0.1-0.3,0.1-0.4,0L64.8,10.4z M66.3,10.7c0,0.1-0.1,0.2-0.2,0.3c0.1,0,0.2-0.2,0.3-0.2L66.3,10.7z
		 M78.7,10.9c-0.8,1.9-0.2,4.3-1.3,6.1l0.2-0.1c2-1.1,4.5-3,4.1-5.7c0,0.4-0.1,0.7-0.3,1c-0.8,1.5-2.2,2.5-2.9,3.7
		c0,0-0.1,0.1-0.1,0l0.1-0.2c1-1.4,0.1-3.1,0.2-4.6L78.7,10.9z M70.1,11c-0.2,0.3,0.2,0.3,0.2,0.5h0.1c0,0,0-0.2-0.1-0.3
		s-0.2,0-0.3,0L70.1,11z M57.5,11c0,0.6,0,1.1-0.2,1.7c-0.3,1-0.2,2.2,0.5,3.1c-0.2-0.1-0.3-0.3-0.5-0.5c-0.8-1.4-2.6-2.2-2.8-4
		c0,0.6,0,1.2,0.2,1.8c0.5,1.9,2.7,2.9,4.1,3.9c-1.1-1.5-0.5-3.9-1.3-5.7V11z M72.5,11.1c-0.3-0.2-0.2,0.2-0.4,0.2S72,11.2,72,11.1
		c0,0.2-0.2,0.4-0.3,0.5c-0.4-0.1-0.3,0.5-0.7,0.3c0,0.2,0.2,0,0.3,0c0.1,0,0.1-0.1,0.1-0.1c0.1-0.2,0.2-0.2,0.4-0.2l0,0
		c0.1,0.2,0.1,0.3,0.1,0.5c-0.1,0.1-0.1,0.2-0.1,0.3S71.7,13,71.4,13c-0.4-0.2-0.8-0.2-1.3-0.3v0.1c0.3,0.1,0.6,0.1,0.8,0.3
		c0.3,0,0.6,0,0.8-0.1c0-0.2,0.1-0.3,0.2-0.5c0.2,0,0.1,0.2,0.2,0.3c0.5-0.5,0.9-1.2,1.1-1.9C72.9,11.1,72.8,11.3,72.5,11.1
		L72.5,11.1z M66.7,11.1l-0.9,1c0.5,0.4,1.1,0.7,1.7,0.8c0-0.2,0-0.3,0.1-0.5c0.1-0.1,0.2,0,0.3-0.1c0.1-0.1-0.1-0.1-0.1-0.1
		c0-0.1,0-0.2,0-0.3s-0.1-0.2,0-0.3c-0.3,0.1-0.5,0-0.8-0.1s-0.3,0.1-0.4-0.2L66.7,11.1z M69.5,12.1c0.1-0.1,0.3-0.1,0.4-0.3
		c-0.2,0.1-0.5,0.3-0.4,0.5V12.1z M70,12.3c-0.1,0.1-0.2,0.1-0.2,0.2s-0.3,0-0.4-0.1s0.1,0.1,0,0.2c-0.1,0.1-0.2-0.1-0.3-0.1
		c-0.1,0.4-0.2-0.1-0.4,0c-0.1-0.2-0.2,0-0.4,0c-0.2,0-0.1,0.4-0.3,0.3c0,0.1-0.2,0.1-0.2,0.2c0,0.1,0.2,0.1,0.3,0
		c0.2-0.2,0.4-0.1,0.6-0.1c0,0.3,0.4,0.1,0.5,0.3c0.1,0,0.1-0.1,0.2-0.3c0.3,0,0.5-0.2,0.7-0.4C70.1,12.6,70.2,12.5,70,12.3L70,12.3
		z M65.4,12.5c-0.3,0.4-0.6,0.7-1,1h0.1c0.8,0.7,1.7,1.1,2.7,1.3c-0.3,0-0.5-0.4-0.6-0.6s0.2-0.3,0.2-0.5c0.1-0.2,0.3-0.3,0.5-0.3
		L67,13.6c-0.6-0.2-1.2-0.5-1.6-0.9V12.5z M77.8,13.6l-0.8,1c-1,1.4-0.9,3.3-2.3,4.5c0.8-0.2,1.5-0.4,2.3-0.5c1.9-0.5,3.3-2,3.7-3.9
		c-0.4,0.7-0.9,1.3-1.6,1.7c-1.2,0.5-2.2,1.3-3.2,2.1h-0.1l0.1-0.1C77.5,17.4,77.1,15.3,77.8,13.6L77.8,13.6z M72,13.9L72,13.9
		c-0.7,0.5,0.3,0.5,0.3,0.9c-0.1,0.2-0.5,0.4-0.2,0.6c0.1,0.1,0,0.1-0.1,0.2l0.9-0.8c-0.1,0.1-0.2,0-0.3-0.1l0,0
		C72.7,14.4,72.2,14.3,72,13.9z M58.3,13.9l0.3,0.7c0.3,1.5,0.4,3.1,1.7,4.1l0,0c-0.4-0.2-0.8-0.5-1.2-0.8c-1.3-0.8-3-1.2-3.8-2.8
		c0.3,1.2,1,2.2,1.9,2.9c1.1,1,2.7,0.9,4.1,1.3c-0.5-0.4-0.8-0.9-1-1.4C60,16.5,59.3,15.1,58.3,13.9L58.3,13.9z M64.3,14.2
		L64.3,14.2L64.3,14.2z M64.4,14.4c0,0.1,0.2,0.2,0.1,0.4c-0.3,0.2-0.7,0-1,0.3S63,14.9,62.8,15c1.3,1.2,2.9,1.9,4.6,2l0.1,0.1
		c0-0.5,0-0.9,0-1.4C66.5,15.6,65.4,15.2,64.4,14.4L64.4,14.4z M73.3,15.2c-0.2,0.3-0.5,0.5-0.8,0.7c-0.9,0.3-1,1.4-1.9,1.7
		c-0.4,0.1-0.6-0.3-0.9-0.4c-0.5,0.1-1,0.2-1.5,0.1v1.5h0.1c2.2-0.1,4.4-1,6-2.5C73.9,16,73.6,15.6,73.3,15.2L73.3,15.2z M62.6,15.3
		l-1,1c1.7,1.5,3.8,2.4,6,2.5l-0.1-0.1c0-0.5,0-0.9,0-1.4l0,0C65.8,17.3,64,16.6,62.6,15.3L62.6,15.3z M68.1,15.6l0.1,0.2v1.1
		c0.4-0.1,0.7-0.1,1.1-0.2c-0.2-0.2-0.4-0.2-0.5-0.4s0.1-0.4,0-0.5S68.4,15.9,68.1,15.6L68.1,15.6z M75.8,16.7
		c-0.9,0.7-1.8,1.9-2.8,2.6c-0.5,0.3-1.1,0.6-1.8,0.7c1.3,0.1,2.5,0.7,3.9,0.6c1.5-0.1,2.9-0.9,3.6-2.3c-1,1.2-2.7,1.2-4.3,1.3
		c-0.5,0.1-1,0.2-1.5,0.2c0,0,0-0.1,0.1,0C74.7,19.7,75.2,17.9,75.8,16.7L75.8,16.7z M60.2,16.8c0.7,0.8,0.7,1.9,1.7,2.5
		c0.4,0.3,0.8,0.4,1.3,0.6c-0.5,0-0.9-0.1-1.3-0.2c-1.6-0.2-3.3,0-4.5-1.3c0.5,0.9,1.4,1.6,2.4,2c1.8,0.7,3.4-0.3,5.2-0.5
		C63,20,61.9,17.8,60.2,16.8L60.2,16.8z M73.2,21c-1.5-0.7-3.3-1.5-5.1-0.8c-1-0.3-2-0.3-3,0c-1.6,0.7-3.8,1.8-5.4,0.6
		c0.3,0.3,0.6,0.6,1,0.8c1.2,0.6,2.6,0.7,3.8,0.1c1-0.4,1.8-1.7,3.1-1.3c-1.1,0.6-2.1,1.3-3,2.2l0.6,0.5c0.8-1.1,1.9-1.9,3.1-2.4
		c1.1,0.6,2.2,1.4,3,2.4l0.6-0.5c-0.9-0.9-1.9-1.6-3-2.1c0.3-0.1,0.6-0.1,0.9,0c1.2,0.5,2.1,1.5,3.4,1.7s2.7-0.3,3.5-1.4L76,21.2
		C75,21.4,74.1,21.4,73.2,21L73.2,21z"/>
	<path class="st0" d="M160.8,7.2c2.9-0.1,5.7-0.5,8.5-1.2V0.1h-8.5V7.2z"/>
	<path class="st0" d="M178,6.8c-1.6,0.8-3.2,1.5-4.9,2v6.6c2.8-2.1,5.1-4.7,6.9-7.8V5.7C179.3,6.1,178.6,6.5,178,6.8z"/>
	<path class="st0" d="M169.3,17.6V9.8c-2.8,0.6-5.6,1-8.5,1.1V20C163.7,19.7,166.6,18.9,169.3,17.6z"/>
	<path class="st0" d="M173,0.1v4.8c2.5-0.8,4.8-2.1,6.9-3.7V0.1H173z"/>
	<path class="st0" d="M156.4,0.1h-8.9V6c2.9,0.7,5.9,1.1,8.9,1.3V0.1z"/>
	<path class="st0" d="M143.7,4.8V0.1h-6.4v1.2c1.1,0.9,2.3,1.7,3.5,2.3C141.7,4,142.7,4.4,143.7,4.8z"/>
	<path class="st0" d="M156.4,10.8c-3-0.1-6-0.5-8.9-1.1v7.7c2.8,1.4,5.8,2.3,8.9,2.6V10.8z"/>
	<path class="st0" d="M143.7,15.1V8.7c-2.3-0.7-4.4-1.7-6.4-3v1.9C138.9,10.5,141,13,143.7,15.1z"/>
	<path class="st0" d="M147.3,43.1V39h9v-4.1h-9v-4.1h9v-7c-7.4-0.6-14.3-4-19.1-9.6v36.3h19.1v-7.2h-9V43.1z"/>
	<path class="st0" d="M160.8,23.7v7h8.6v4.1h-8.6v4.1h8.6v4.2h-8.6v7.2h19.1V14C175.1,19.6,168.1,23.1,160.8,23.7z"/>
</g>
</svg>
