<?xml version="1.0" encoding="utf-8"?>
<!-- Generator: Adobe Illustrator 26.1.0, SVG Export Plug-In . SVG Version: 6.00 Build 0)  -->
<svg version="1.1" id="Layer_1" xmlns="http://www.w3.org/2000/svg" xmlns:xlink="http://www.w3.org/1999/xlink" x="0px" y="0px"
	 viewBox="0 0 725 725" style="enable-background:new 0 0 725 725;" xml:space="preserve">
<style type="text/css">
	.st0{opacity:0.5;}
	.st1{fill:#FFFFFF;}
	.st2{fill-rule:evenodd;clip-rule:evenodd;fill:#FFFFFF;}
</style>
<g class="st0">
	<g>
		<path class="st1" d="M113.3,346.2C113.3,346.2,113.3,346.2,113.3,346.2L113.3,346.2c-1.9-9.5,4.3-18.7,13.8-20.6l0,0
			c9.5-1.9,18.7,4.3,20.6,13.8l0,0c1.9,9.5-4.3,18.7-13.8,20.6l0,0c-1.5,0.3-3,0.4-4.4,0.3l0,0C121.7,359.9,114.9,354.2,113.3,346.2
			z M601.9,356.9c-9.5-1.7-15.9-10.8-14.2-20.3l0,0c1.7-9.5,10.7-15.9,20.3-14.2l0,0c9.5,1.7,15.9,10.8,14.2,20.3l0,0l0,0l0,0
			c-1.6,8.8-9.5,14.9-18.2,14.4l0,0C603.3,357.1,602.6,357,601.9,356.9z M108.9,281.4c0-0.1,0-0.2,0-0.3l0,0c0-0.1,0-0.2,0-0.3l0,0
			c0.6-9.6,8.8-17,18.5-16.5l0,0c9.7,0.6,17,8.8,16.5,18.5l0,0c0,0.1,0,0.2,0,0.3l0,0c0,0.1,0,0.2,0,0.2l0,0
			c-0.5,9.6-8.8,17-18.4,16.5l0,0c0,0,0,0,0,0l0,0C115.7,299.3,108.3,291,108.9,281.4z M143.8,283.3L143.8,283.3L143.8,283.3
			L143.8,283.3z M590.9,280.1L590.9,280.1c-0.6-9.6,6.8-17.9,16.4-18.5l0,0c9.6-0.6,17.9,6.8,18.5,16.4l0,0
			c0.6,9.7-6.8,17.9-16.4,18.5l0,0c-0.7,0-1.4,0-2.1,0l0,0C598.6,296,591.5,289.1,590.9,280.1z M132.1,238.8
			c-9.2-2.9-14.3-12.8-11.4-22l0,0c2.9-9.2,12.8-14.3,22-11.4l0,0c9.2,2.9,14.3,12.8,11.4,22l0,0c-2.5,7.8-9.9,12.6-17.7,12.2l0,0
			C134.9,239.5,133.5,239.3,132.1,238.8z M580.8,224.6L580.8,224.6c-2.9-9.2,2.3-19,11.5-21.9l0,0c9.2-2.9,19,2.3,21.9,11.5l0,0
			c2.9,9.2-2.3,19-11.5,21.9l0,0c-2.1,0.7-4.2,0.9-6.2,0.8l0,0C589.4,236.4,583,231.7,580.8,224.6z M153.6,181.9
			c-8.2-5.1-10.6-16-5.5-24.1l0,0c5.1-8.2,15.9-10.6,24.1-5.5l0,0c8.2,5.1,10.6,16,5.5,24.1l0,0c-3.5,5.6-9.7,8.5-15.8,8.2l0,0
			C159.1,184.4,156.2,183.5,153.6,181.9z M557.4,173.5L557.4,173.5c-5.1-8.2-2.6-19,5.5-24.1l0,0c8.2-5.1,19-2.6,24.1,5.5l0,0l0,0
			l0,0c5.1,8.2,2.6,19-5.5,24.1l0,0c-3.2,2-6.8,2.8-10.3,2.6l0,0C565.8,181.4,560.6,178.5,557.4,173.5z M188.7,132.2
			c-6.7-7-6.4-18.1,0.7-24.7l0,0c7-6.7,18.1-6.4,24.7,0.7l0,0c6.6,7,6.4,18.1-0.7,24.7l0,0c-3.7,3.5-8.4,5-13.1,4.8l0,0
			C196.1,137.4,191.9,135.6,188.7,132.2z M521.6,130.5c-7.1-6.5-7.6-17.6-1.1-24.7l0,0c6.5-7.1,17.6-7.6,24.7-1.1l0,0
			c7.1,6.5,7.6,17.6,1.1,24.7l0,0c-3.7,4-8.9,6-13.9,5.7l0,0C528.6,134.8,524.7,133.3,521.6,130.5z M235,92.8
			c-4.7-8.4-1.7-19.1,6.8-23.8l0,0c8.4-4.7,19.1-1.7,23.8,6.8l0,0c4.7,8.4,1.7,19.1-6.8,23.8l0,0c-3,1.7-6.3,2.4-9.5,2.2l0,0
			C243.5,101.4,238,98.2,235,92.8z M475.6,98.5L475.6,98.5c-8.6-4.4-11.9-15-7.5-23.6l0,0c4.4-8.6,15-11.9,23.6-7.5l0,0c0,0,0,0,0,0
			l0,0c8.6,4.4,12,15,7.5,23.6l0,0c-3.3,6.3-9.9,9.8-16.6,9.4l0,0C480.3,100.3,477.9,99.7,475.6,98.5z M289.6,66
			c-2.5-9.3,3.1-18.9,12.5-21.4l0,0c0,0,0,0,0,0l0,0c9.3-2.5,18.9,3.1,21.4,12.5l0,0c2.5,9.3-3.1,18.9-12.5,21.4l0,0
			c-1.8,0.5-3.7,0.7-5.5,0.6l0,0C298.2,78.6,291.6,73.5,289.6,66z M422.6,78.7L422.6,78.7c-9.4-2.3-15.1-11.8-12.8-21.2l0,0
			c2.3-9.4,11.8-15.1,21.2-12.8l0,0l0,0l0,0c9.4,2.3,15.1,11.8,12.8,21.2l0,0c-2.1,8.3-9.7,13.7-18,13.2l0,0
			C424.8,79.2,423.7,79,422.6,78.7z M349.2,53.8c0-9.7,7.8-17.5,17.4-17.6l0,0c9.7,0,17.5,7.8,17.6,17.4l0,0
			c0,9.7-7.8,17.5-17.4,17.6l0,0c-0.4,0-0.7,0-1.1,0l0,0C356.5,70.6,349.3,63.1,349.2,53.8z"/>
	</g>
</g>
<path class="st2" d="M480.9,226.2c-35.8-79.9-141.2-113.8-141.2-113.8s48.5,82.7-13.5,135.2c-29.8,25.5-46.1,56.5-44.5,90.7
	c0,0.8,0,1.6,0,2.8c0,26.3,11.5,49.7,29.8,66.4c-23.5,16.3-47.7,27-70.4,31.8c28.2,9.9,65.2,4,97-14.7c12.3,5.2,25.9,8.4,40.2,8.4
	c15.9,0,31-3.6,44.1-10.3l0,0c38.6-15.1,64.4-53.7,71.6-87.9C501.2,299.4,495.2,258,480.9,226.2z M470.1,330.4
	c-4.4,21.5-19.5,48.1-43.4,63.6l-15.5,7.6c-10.3,5.2-21.9,8-33.8,8c-5.6,0-10.7-0.8-15.9-1.6c2.8-2.4,5.6-5.2,8.4-8
	c30.6-31.8,37.8-69.2,22.7-95.1c-6.8,22.7-21.5,47.7-44.1,71.2c-6,6-11.9,11.9-18.3,17.1c-15.1-13.1-25.1-31.4-25.1-52.1v-0.4
	c0-0.4,0-0.8,0-1.6V338v-1.2c-1.2-26.3,11.1-50.1,36.2-71.2c32.2-27,45.3-64.8,38.2-109c1.6,0.8,3.2,2,4.8,2.8
	c25.1,15.1,58.5,40.6,74.8,76C472.1,264.8,476.5,301,470.1,330.4z"/>
<path class="st1" d="M104.7,561.8c1.6,2.2,3.4,4.3,5.5,6.1l45.1,39.5c3.3,2.9,7.1,5.9,11.1,9c13.9,10.9,29.6,23.2,28.7,36.5
	c-0.6,7.8-1.4,15.7-2.3,23.5l-0.1,0.8l22.7,1.7c0.9-8.1,1.8-16.2,2.3-24.3c1.8-25.4-19.9-42.4-37.4-56.1c-3.7-2.9-7.2-5.6-10.2-8.2
	l-45.1-39.5c-0.7-0.6-1.3-1.3-1.8-2.1l-65.5-93.6c-1.6-2.2-2.2-5-1.7-7.7c0.5-2.7,2.1-5,4.3-6.6c4.3-2.8,10-2.1,13.3,1.8l52.1,60.8
	c3.8,4.4,8.6,7.7,14.3,9.9l30.7,10.2l0.2,0.4l0.4-0.2L223,541l2.4,4.2c1,1.7,1.5,3.7,1.5,5.7v13.6h22.8v-13.6c0-6-1.6-11.9-4.6-17.1
	L221,492.2c-2.2-4.5-0.4-8.3,0.4-9.7c0.9-1.4,3.5-4.7,8.5-4.7c3.2,0,6.3,1.6,8.1,4.2l41.3,58.4c19.7,27.7,18.1,61.2,16.5,96.8
	c-0.6,13.8-1.3,28-0.6,41.9l22.8-1.2c-0.6-12.7,0-25.8,0.6-39.7c1.7-37.8,3.5-76.9-20.5-110.7c-0.1-0.1-0.1-0.1-41.5-58.6
	c-6.1-8.7-16.1-13.8-26.7-13.8c-11.4,0-21.8,5.8-27.8,15.5c-6,9.7-6.5,21.6-1.1,32.4l4.8,8.3l-18.6-6.2l-29.2-58.4l-7.8-31.1
	c-3.2-12.9-14.7-21.9-27.9-21.9c-8.5,0-16.5,3.7-22,10.2c-5.5,6.5-7.8,15-6.4,23.4l0.8,4.7l-3.4-3.9c-10.8-12.6-29.4-15.2-43.2-6
	c-7.4,5-12.4,12.5-14.1,21.3s0.3,17.6,5.4,24.9L104.7,561.8z M117.6,418.6c0.7-0.8,2.2-2.1,4.6-2.1c2.8,0,5.2,1.9,5.9,4.6l8.1,32.4
	c0.2,0.8,0.5,1.6,0.9,2.3l19.6,39.2l-8.6-2.9c-1.8-0.7-3.4-1.8-4.6-3.2l-20.1-23.4l-7-41.9C115.8,421.1,116.9,419.4,117.6,418.6z"/>
<path class="st1" d="M686.2,422c-13.8-9.2-32.4-6.7-43.2,6l-3.4,3.9l0.8-4.7c1.4-8.4-0.9-16.9-6.4-23.4c-5.5-6.5-13.5-10.2-22-10.2
	c-13.3,0-24.8,9-28,21.8l-7.8,31.2l-29.2,58.4l-18.6,6.2l5.1-8.9c5.1-10.2,4.6-22.1-1.4-31.8c-6-9.7-16.4-15.5-27.8-15.5
	c-10.6,0-20.6,5.2-26.7,13.8c-39.5,55.8-41.3,58.3-41.3,58.3s0,0,0,0c-24.2,34.1-22.4,73.2-20.7,111c0.6,13.9,1.2,27,0.6,39.7
	l22.8,1.2c0.7-13.8,0.1-28.1-0.6-41.9c-1.6-35.5-3.2-69.1,16.5-96.8L496,482c1.9-2.6,4.9-4.2,8.1-4.2c5,0,7.6,3.3,8.5,4.7
	c0.9,1.4,2.7,5.2,0.8,9.1l-24.4,42.2c-3,5.2-4.6,11.1-4.6,17.1v13.6h22.8v-13.6c0-2,0.5-4,1.5-5.7l2.4-4.2l51.4-17.2l0.4,0.2
	l0.2-0.4l31-10.4c5.4-2,10.2-5.4,14-9.8l52.1-60.8c3.3-3.9,9-4.7,13.3-1.8c2.3,1.5,3.8,3.9,4.3,6.6c0.5,2.7-0.1,5.4-1.7,7.7
	l-65.5,93.6c-0.5,0.7-1.2,1.4-1.8,2l-45.1,39.5c-3,2.6-6.5,5.4-10.2,8.2c-17.5,13.6-39.2,30.6-37.4,56.1c0.6,8.1,1.5,16.2,2.3,24.3
	l11.4-0.5l11.2-2c-0.9-7.8-1.7-15.6-2.3-23.5c-1-13.3,14.8-25.6,28.7-36.5c4-3.1,7.8-6.1,11.1-9l45.1-39.5c2.1-1.8,3.9-3.9,5.5-6.1
	l65.5-93.6c5.1-7.3,7-16.2,5.4-25C698.6,434.5,693.6,426.9,686.2,422z M610.9,465.3l-20.1,23.4c-1.3,1.5-2.9,2.6-4.3,3.1l-9,3
	l19.6-39.2c0.4-0.7,0.7-1.5,0.9-2.3L606,421c0.7-2.7,3.1-4.5,5.9-4.5c2.4,0,3.9,1.3,4.6,2.1c0.7,0.8,1.8,2.5,1.4,4.9L610.9,465.3z"
	/>
</svg>
