<?xml version="1.0" encoding="utf-8"?>
<!-- Generator: Adobe Illustrator 26.1.0, SVG Export Plug-In . SVG Version: 6.00 Build 0)  -->
<svg version="1.1" id="Layer_3" xmlns="http://www.w3.org/2000/svg" xmlns:xlink="http://www.w3.org/1999/xlink" x="0px" y="0px"
	 viewBox="0 0 900 471" style="enable-background:new 0 0 900 471;" xml:space="preserve">
<style type="text/css">
	.st0{fill:#FFFFFF;}
	.st1{opacity:0.66;}
	.st2{opacity:0.5;fill:#FFFFFF;}
</style>
<g>
	<path class="st0" d="M349.1,241.5c-4.1-1.6-7.6-3.9-10.7-7.1c-3.1-3.1-5.5-7.1-7.2-12c-1.8-4.9-2.6-10.4-2.6-16.6
		c0-6.2,0.9-11.8,2.6-16.6c1.7-4.9,4.1-8.9,7.2-12.1c3.1-3.2,6.6-5.6,10.7-7.2c4.1-1.6,8.4-2.4,13.1-2.4c4.6,0,8.9,0.8,13,2.4
		c4.1,1.6,7.6,4,10.7,7.2s5.5,7.2,7.2,12.1c1.7,4.9,2.6,10.4,2.6,16.6c0,6.2-0.9,11.8-2.6,16.6c-1.8,4.9-4.1,8.9-7.2,12
		c-3,3.1-6.6,5.5-10.7,7.1s-8.4,2.4-13,2.4C357.5,243.9,353.2,243.1,349.1,241.5z M371.9,228.1c2.7-2,4.7-4.8,6.2-8.5
		s2.1-8.3,2.1-13.8c0-5.6-0.7-10.2-2.1-13.9s-3.5-6.5-6.2-8.5s-5.9-2.9-9.8-2.9c-1.9,0-3.6,0.3-5.4,0.7c-1.7,0.5-3.3,1.3-4.8,2.4
		c-1.5,1.1-2.8,2.5-3.9,4.2s-2.1,4-2.9,7c-0.9,2.9-1.3,6.6-1.3,11c0,5.5,0.7,10.1,2.1,13.8s3.5,6.5,6.2,8.5s6,3,9.9,3
		C365.9,231.1,369.2,230.1,371.9,228.1z"/>
	<path class="st0" d="M422.7,198.1v45.1h-14.8v-75H423l22.3,46.8l23-46.8h14.3v75h-14.8l0.3-46.5L450,233.8h-10.2L422.7,198.1z"/>
	<path class="st0" d="M498.5,243.2v-75h47.4v12h-32.6v19.9h25.6v11.8h-25.6v19.3h32.6v12H498.5z"/>
	<path class="st0" d="M600.8,243.2l-27.9-47.7v47.7h-14.8v-75h15.3l28,49.4v-49.4h14.8v75H600.8z"/>
	<path class="st0" d="M631.5,168.8c1.6-1.7,3.6-2.5,5.8-2.5c1.8,0,3.4,0.5,4.9,1.4c1.5,1,2.6,2.2,3.2,3.8c0.6,1.6,0.9,3.1,0.9,4.5
		c0,3.9-0.6,7.5-1.9,10.7c-1.3,3.2-2.9,5.7-5,7.6s-3.8,3.1-5.4,3.6l-3.7-5.9c1.8-1,3.4-2.3,4.9-4s2.2-3.3,2.2-5
		c-2.3,0-4.2-0.8-5.8-2.5c-1.6-1.6-2.4-3.6-2.4-5.8C629.1,172.5,629.9,170.5,631.5,168.8z"/>
	<path class="st0" d="M701.2,188.9c-0.6-1.1-1.6-2.4-3.1-3.9s-3.4-2.7-5.8-3.6c-2.4-0.9-5-1.4-7.8-1.4s-5.2,0.5-7.2,1.4
		c-2,1-3.4,2.1-4.1,3.5c-0.7,1.4-1.1,2.6-1.1,3.9c0,2.4,0.9,4.3,2.7,5.9c1.8,1.6,5.8,3.1,11.9,4.7c6.1,1.6,10.3,2.8,12.4,3.8
		c2.2,0.9,4,1.9,5.5,3.1c1.5,1.1,2.8,2.4,4,3.9c1.1,1.5,2,3.2,2.7,5.3c0.6,2.1,1,4.4,1,7c0,2.7-0.6,5.4-1.7,7.9
		c-1.1,2.6-2.8,4.9-5.1,6.9s-5.2,3.7-8.8,4.9s-7.8,1.8-12.5,1.8c-4,0-8.1-0.6-12.4-1.7c-4.3-1.1-8-3.1-11.4-5.8
		c-3.3-2.7-5.6-5.4-6.9-8l8.9-8.4c1,1.5,2.6,3.2,4.7,5.1c2.1,1.9,4.7,3.5,7.7,4.7s6.1,1.8,9.3,1.8c3.9,0,7-0.8,9.3-2.4
		s3.4-3.8,3.4-6.5c0-2.6-0.9-4.7-2.8-6.5c-1.9-1.8-5.9-3.3-11.9-4.8c-6-1.4-10.3-2.7-12.9-3.7c-2.6-1-4.8-2.3-6.7-3.9
		c-1.9-1.6-3.4-3.6-4.6-6.1c-1.1-2.5-1.7-5.5-1.7-8.9c0-2.9,0.6-5.6,1.8-8.1c1.2-2.6,3-4.9,5.3-6.9s5.2-3.6,8.6-4.7
		c3.4-1.1,7.2-1.7,11.4-1.7c3.9,0,7.9,0.5,11.9,1.6s7.5,2.9,10.4,5.4s4.9,5,5.8,7.4L701.2,188.9z"/>
</g>
<g>
	<g>
		<path class="st0" d="M393.1,343.3c-1.9,0.5-4.5,0.7-7.7,0.7c-3.9,0-7.4-0.9-10.3-2.8c-3-1.9-5.6-5.3-7.9-10.3s-3.8-8.1-4.6-9.4
			c-0.8-1.2-1.6-2.3-2.6-3.3c-1-0.9-2-1.6-3.1-2.1s-2.4-0.7-3.9-0.7h-7.9v28.1h-14.8v-75h26.3c9.4,0,16.5,1.9,21.2,5.6
			s7.1,9.7,7.1,17.9c0,2.6-0.5,5.2-1.4,7.8c-0.9,2.6-2.5,4.9-4.7,7c-2.2,2-4.5,3.5-6.9,4.3c0.9,0.8,1.9,1.8,2.9,3.2
			c1,1.3,2.2,3.5,3.7,6.5s2.6,5,3.2,5.9c0.6,1,1.3,1.8,1.9,2.5c0.7,0.7,1.5,1.4,2.6,1.9c1,0.6,2.3,0.9,3.7,0.9h3.1L393.1,343.3
			L393.1,343.3z M354.9,304.3c2.1,0,4.3-0.3,6.8-1s4.5-1.9,6.2-3.8c1.6-1.9,2.5-4.2,2.5-7c0-1.7-0.4-3.5-1.2-5.5s-2.4-3.5-4.7-4.7
			s-5.1-1.8-8.4-1.8h-11v23.8H354.9z"/>
		<path class="st0" d="M402.3,343.5v-75h47.4v12h-32.6v19.9h25.6v11.8h-25.6v19.3h32.6v12L402.3,343.5L402.3,343.5z"/>
		<path class="st0" d="M504.1,289.1c-0.6-1.1-1.6-2.4-3.1-3.9s-3.4-2.7-5.8-3.6c-2.4-0.9-5-1.4-7.8-1.4s-5.2,0.5-7.2,1.4
			c-2,1-3.4,2.1-4.1,3.5s-1.1,2.6-1.1,3.9c0,2.4,0.9,4.3,2.7,5.9c1.8,1.6,5.8,3.1,11.9,4.7c6.1,1.6,10.3,2.8,12.4,3.7
			c2.2,0.9,4,1.9,5.5,3.1c1.5,1.1,2.8,2.4,4,3.9c1.1,1.5,2,3.2,2.7,5.3c0.6,2.1,1,4.4,1,7c0,2.7-0.6,5.4-1.7,7.9
			c-1.1,2.6-2.8,4.9-5.1,6.9s-5.2,3.7-8.8,4.9c-3.6,1.2-7.8,1.8-12.5,1.8c-4,0-8.1-0.6-12.4-1.7c-4.3-1.1-8-3.1-11.4-5.8
			c-3.3-2.7-5.6-5.4-6.9-8l8.9-8.4c1,1.5,2.6,3.2,4.7,5.1s4.7,3.5,7.7,4.7s6.1,1.8,9.3,1.8c3.9,0,7-0.8,9.3-2.4
			c2.2-1.6,3.4-3.8,3.4-6.5c0-2.6-0.9-4.7-2.8-6.5c-1.9-1.7-5.9-3.3-11.9-4.8c-6-1.4-10.3-2.7-12.9-3.7s-4.8-2.3-6.8-3.9
			c-1.9-1.6-3.4-3.6-4.6-6.1c-1.1-2.5-1.7-5.5-1.7-8.9c0-2.9,0.6-5.6,1.8-8.1c1.2-2.6,3-4.9,5.3-6.9s5.2-3.6,8.6-4.7
			s7.2-1.7,11.4-1.7c3.9,0,7.9,0.5,11.9,1.6s7.5,2.9,10.4,5.4s4.9,5,5.8,7.4L504.1,289.1z"/>
		<path class="st0" d="M527.1,343.5v-75h14.8v75H527.1z"/>
		<path class="st0" d="M557.8,343.5v-75h14.8v63h33.1v12H557.8z"/>
		<path class="st0" d="M614.8,343.5v-75h14.8v75H614.8z"/>
		<path class="st0" d="M645.4,343.5v-75h47.4v12h-32.6v19.9h25.6v11.8h-25.6v19.3h32.6v12L645.4,343.5L645.4,343.5z"/>
		<path class="st0" d="M747.8,343.5l-27.9-47.7v47.7h-14.8v-75h15.3l28,49.4v-49.4h14.8v75H747.8z"/>
		<path class="st0" d="M837.9,330.1c-1.1,1.8-2.9,3.8-5.5,6.2c-2.6,2.3-5.8,4.2-9.6,5.7s-7.9,2.2-12.2,2.2c-5.1,0-9.9-0.8-14.2-2.4
			s-8-4-11.1-7.2s-5.5-7.2-7.2-12s-2.5-10.3-2.5-16.4s0.8-11.6,2.3-16.4s3.8-8.8,6.6-12.1c2.9-3.2,6.4-5.6,10.6-7.3
			s8.7-2.5,13.7-2.5c4.6,0,8.7,0.6,12.1,1.9c3.4,1.3,6.3,3.1,8.8,5.5s4.4,5.3,5.8,8.8c1.4,3.5,2.1,6.8,2.1,10l-13.7,2.2
			c-0.1-2-0.6-4.3-1.6-6.8s-2.7-4.6-5-6.2s-5.1-2.4-8.4-2.4c-2.6,0-5,0.5-7.2,1.6c-2.2,1-4.1,2.6-5.8,4.7c-1.6,2.1-2.9,4.7-3.8,7.9
			c-0.9,3.2-1.3,6.9-1.3,11.1c0,5.3,0.8,9.8,2.5,13.4s4.1,6.5,7.1,8.6c3.1,2.1,6.7,3.1,10.9,3.1c3.7,0,7.2-1.1,10.4-3.2
			s5.7-4.5,7.4-7L837.9,330.1z"/>
		<path class="st0" d="M849,343.5v-75h47.4v12h-32.6v19.9h25.6v11.8h-25.6v19.3h32.6v12L849,343.5L849,343.5z"/>
	</g>
	<g class="st1">
		<path class="st0" d="M350.2,427.1v-48.7h-19.9v-9.3h50.3v9.3h-19.1v48.7H350.2z"/>
		<path class="st0" d="M398.7,425.8c-3.1-1.2-5.9-3-8.3-5.5c-2.4-2.4-4.2-5.5-5.6-9.3s-2-8-2-12.8s0.7-9.1,2-12.8
			c1.3-3.8,3.2-6.9,5.5-9.4c2.4-2.5,5.1-4.3,8.3-5.5c3.1-1.2,6.5-1.8,10.1-1.8c3.5,0,6.9,0.6,10,1.9c3.1,1.2,5.9,3.1,8.3,5.5
			c2.4,2.5,4.2,5.6,5.5,9.3c1.3,3.8,2,8,2,12.8s-0.7,9.1-2,12.8c-1.4,3.8-3.2,6.8-5.5,9.3c-2.3,2.4-5.1,4.2-8.2,5.5
			c-3.1,1.2-6.5,1.8-10,1.8C405.2,427.6,401.9,427,398.7,425.8z M416.3,415.4c2.1-1.5,3.7-3.7,4.8-6.6s1.7-6.4,1.7-10.6
			c0-4.3-0.6-7.9-1.7-10.7c-1.1-2.8-2.7-5-4.8-6.5c-2.1-1.5-4.6-2.3-7.6-2.3c-1.4,0-2.8,0.2-4.1,0.6c-1.3,0.4-2.6,1-3.7,1.8
			s-2.1,1.9-3,3.2c-0.9,1.3-1.6,3.1-2.3,5.4c-0.7,2.3-1,5.1-1,8.5c0,4.2,0.6,7.8,1.7,10.6c1.1,2.8,2.7,5,4.8,6.6s4.6,2.3,7.7,2.3
			C411.7,417.8,414.3,417,416.3,415.4z"/>
		<path class="st0" d="M462.4,427.1v-57.9h17c3.9,0,7.6,0.6,11,1.7s6.5,2.9,9.2,5.3s4.8,5.5,6.3,9.4s2.3,8.4,2.3,13.6
			c0,3.6-0.5,7.2-1.4,10.7s-2.5,6.5-4.7,9.1c-2.2,2.5-5,4.5-8.3,6c-3.4,1.5-7.3,2.2-11.9,2.2h-19.5V427.1z M481.8,417.8
			c4.5,0,8.2-1.6,10.9-4.9c2.8-3.3,4.1-7.9,4.1-13.9c0-6.6-1.5-11.6-4.4-15.2s-7.3-5.3-13.2-5.3h-5.4v39.4h8V417.8z"/>
		<path class="st0" d="M517.8,427.1v-57.9h11.4v57.9H517.8z"/>
		<path class="st0" d="M574.2,385.1c-0.4-0.9-1.2-1.9-2.4-3s-2.7-2.1-4.5-2.8c-1.8-0.7-3.8-1.1-6-1.1s-4,0.4-5.5,1.1
			s-2.6,1.6-3.1,2.7c-0.6,1-0.8,2-0.8,3c0,1.8,0.7,3.3,2.1,4.6c1.4,1.2,4.5,2.4,9.2,3.6s7.9,2.2,9.6,2.9c1.7,0.7,3.1,1.5,4.3,2.4
			s2.2,1.8,3.1,3c0.9,1.1,1.6,2.5,2.1,4.1s0.7,3.4,0.7,5.4c0,2.1-0.4,4.1-1.3,6.1s-2.2,3.8-3.9,5.3c-1.8,1.6-4,2.8-6.8,3.8
			c-2.8,0.9-6,1.4-9.6,1.4c-3.1,0-6.3-0.4-9.6-1.3s-6.2-2.4-8.8-4.5s-4.3-4.2-5.3-6.2l6.9-6.5c0.8,1.2,2,2.5,3.6,4
			c1.7,1.5,3.6,2.7,6,3.6c2.3,0.9,4.7,1.4,7.2,1.4c3,0,5.4-0.6,7.2-1.9c1.7-1.2,2.6-2.9,2.6-5c0-2-0.7-3.7-2.2-5
			c-1.5-1.4-4.5-2.6-9.2-3.7s-8-2.1-10-2.9s-3.7-1.8-5.2-3s-2.7-2.8-3.5-4.7c-0.9-1.9-1.3-4.2-1.3-6.9c0-2.2,0.5-4.3,1.4-6.3
			s2.3-3.8,4.1-5.3s4-2.7,6.6-3.6s5.6-1.3,8.8-1.3c3,0,6.1,0.4,9.2,1.2c3.1,0.8,5.8,2.2,8,4.2c2.3,2,3.8,3.9,4.5,5.8L574.2,385.1z"
			/>
		<path class="st0" d="M623.1,412.6h-20.5l-4.9,14.5h-11.9l21.3-57.9h11.7l21.3,57.9h-11.8L623.1,412.6z M605.7,403.9h14.6l-7.4-21
			L605.7,403.9z"/>
		<path class="st0" d="M679.6,385.1c-0.4-0.9-1.2-1.9-2.4-3s-2.7-2.1-4.5-2.8c-1.8-0.7-3.8-1.1-6-1.1s-4,0.4-5.5,1.1
			s-2.6,1.6-3.1,2.7c-0.6,1-0.8,2-0.8,3c0,1.8,0.7,3.3,2.1,4.6c1.4,1.2,4.5,2.4,9.2,3.6s7.9,2.2,9.6,2.9c1.7,0.7,3.1,1.5,4.3,2.4
			s2.2,1.8,3.1,3c0.9,1.1,1.6,2.5,2.1,4.1s0.7,3.4,0.7,5.4c0,2.1-0.4,4.1-1.3,6.1s-2.2,3.8-3.9,5.3c-1.8,1.6-4,2.8-6.8,3.8
			c-2.8,0.9-6,1.4-9.6,1.4c-3.1,0-6.3-0.4-9.6-1.3s-6.2-2.4-8.8-4.5s-4.3-4.2-5.3-6.2l6.9-6.5c0.8,1.2,2,2.5,3.6,4
			c1.7,1.5,3.6,2.7,6,3.6c2.3,0.9,4.7,1.4,7.2,1.4c3,0,5.4-0.6,7.2-1.9c1.7-1.2,2.6-2.9,2.6-5c0-2-0.7-3.7-2.2-5
			c-1.5-1.4-4.5-2.6-9.2-3.7s-8-2.1-10-2.9s-3.7-1.8-5.2-3s-2.7-2.8-3.5-4.7c-0.9-1.9-1.3-4.2-1.3-6.9c0-2.2,0.5-4.3,1.4-6.3
			s2.3-3.8,4.1-5.3s4-2.7,6.6-3.6s5.6-1.3,8.8-1.3c3,0,6.1,0.4,9.2,1.2c3.1,0.8,5.8,2.2,8,4.2c2.3,2,3.8,3.9,4.5,5.8L679.6,385.1z"
			/>
		<path class="st0" d="M712.2,427.1v-48.7h-19.9v-9.3h50.3v9.3h-19.1v48.7H712.2z"/>
		<path class="st0" d="M749.8,427.1v-57.9h36.6v9.3h-25.2v15.4H781v9.1h-19.8v14.9h25.2v9.3L749.8,427.1L749.8,427.1z"/>
		<path class="st0" d="M844.4,426.9c-1.5,0.4-3.5,0.6-6,0.6c-3,0-5.7-0.7-8-2.2s-4.3-4.1-6.1-8s-2.9-6.3-3.5-7.2
			c-0.6-1-1.2-1.8-2-2.5c-0.7-0.7-1.5-1.3-2.4-1.6c-0.9-0.4-1.9-0.5-3-0.5h-6.1v21.7h-11.4v-57.9h20.4c7.3,0,12.7,1.4,16.4,4.3
			c3.6,2.9,5.5,7.5,5.5,13.9c0,2-0.4,4-1.1,6s-1.9,3.8-3.6,5.4c-1.7,1.6-3.5,2.7-5.3,3.4c0.7,0.6,1.5,1.4,2.2,2.4
			c0.8,1,1.7,2.7,2.9,5s2,3.8,2.4,4.6c0.5,0.7,1,1.4,1.5,1.9c0.5,0.6,1.2,1,2,1.5c0.8,0.4,1.8,0.7,2.9,0.7h2.4v8.5H844.4z
			 M815,396.8c1.6,0,3.4-0.3,5.3-0.8c1.9-0.5,3.5-1.5,4.8-2.9s1.9-3.2,1.9-5.4c0-1.3-0.3-2.7-1-4.2c-0.6-1.5-1.8-2.7-3.6-3.6
			s-3.9-1.4-6.5-1.4h-8.5v18.4h7.6V396.8z"/>
		<path class="st0" d="M884.3,385.1c-0.4-0.9-1.2-1.9-2.4-3s-2.7-2.1-4.5-2.8c-1.8-0.7-3.8-1.1-6-1.1s-4,0.4-5.5,1.1
			s-2.6,1.6-3.1,2.7c-0.6,1-0.8,2-0.8,3c0,1.8,0.7,3.3,2.1,4.6c1.4,1.2,4.5,2.4,9.2,3.6s7.9,2.2,9.6,2.9c1.7,0.7,3.1,1.5,4.3,2.4
			s2.2,1.8,3.1,3c0.9,1.1,1.6,2.5,2.1,4.1s0.7,3.4,0.7,5.4c0,2.1-0.4,4.1-1.3,6.1c-0.9,2-2.2,3.8-3.9,5.3c-1.8,1.6-4,2.8-6.8,3.8
			c-2.8,0.9-6,1.4-9.6,1.4c-3.1,0-6.3-0.4-9.6-1.3s-6.2-2.4-8.8-4.5s-4.3-4.2-5.3-6.2l6.9-6.5c0.8,1.2,2,2.5,3.6,4
			c1.7,1.5,3.6,2.7,6,3.6c2.3,0.9,4.7,1.4,7.2,1.4c3,0,5.4-0.6,7.2-1.9c1.7-1.2,2.6-2.9,2.6-5c0-2-0.7-3.7-2.2-5
			c-1.5-1.4-4.5-2.6-9.2-3.7s-8-2.1-10-2.9s-3.7-1.8-5.2-3s-2.7-2.8-3.5-4.7c-0.9-1.9-1.3-4.2-1.3-6.9c0-2.2,0.5-4.3,1.4-6.3
			s2.3-3.8,4.1-5.3s4-2.7,6.6-3.6s5.6-1.3,8.8-1.3c3,0,6.1,0.4,9.2,1.2c3.1,0.8,5.8,2.2,8,4.2c2.3,2,3.8,3.9,4.5,5.8L884.3,385.1z"
			/>
	</g>
</g>
<path class="st2" d="M448.9,1c-0.9-0.2-2.5,0-4.1,0c-2.1,0.1-4.1,0.2-4.8-0.3c-0.8-0.5-1.8-0.4-2.7,0L434.1,2
	c-2.1,0.9-4.2,1.6-6.2,2.5c-4.1,1.9-8.1,3.7-12.2,5.5c-2.1,0.9-4.1,1.9-6,3l-5.8,3.2l-5.7,3.1c0,0-0.1,0.1-0.1,0.1l-5.6,3.5
	l-5.6,3.5c-1.9,1.2-3.7,2.3-5.5,3.7l-10.6,7.8c-3.5,2.6-6.7,5.5-10,8.3c-1.6,1.4-3.3,2.8-4.9,4.2l-4.8,4.4l-4.6,4.4
	c-1.6,1.4-3.2,3-4.6,4.6l-8.8,9.3c-2.8,3.2-5.5,6.5-8.3,9.7l-4.1,4.9l-3.9,5.1c-10.4,13.3-19.7,27.4-28.4,41.7
	c-0.1,0.1-0.1,0.2-0.2,0.4c-1.1,2.7-3.3,7-6.3,12.7c-2.8,5.8-6.7,12.9-10.4,21.1c-7.8,16.4-16.7,36.8-24.8,58
	c-16.4,42.3-29.6,87-35.4,105c-0.4,1.1-0.5,2.3-0.9,3.3c-1.8,5.8-3.5,11.9-5.2,18.1c-0.3-2.1-0.7-4-0.8-6.1c-0.3-5-0.9-10-1.4-15.2
	c0-0.2-0.1-0.4-0.1-0.6c-0.3-0.8-0.4-1.9-0.7-3.1c0-0.1,0-0.2-0.1-0.3c-0.2-1.6-0.5-3.3-0.7-5.1c-0.5-4.1-1.1-9.2-1.6-14.8
	c-0.5-5.8-0.7-12.2-0.9-19c0-1.6-0.2-3.3-0.2-5.1s0-3.5,0-5.3c0-3.5,0.2-7,0.2-10.7c0.5-14.6,1.8-29.4,3.5-42.1
	c0.7-6.3,1.9-12.2,2.8-17.1c0.9-4.9,1.7-9.1,2.4-12.1c0-0.1,0-0.1,0-0.2l0.3-2.1c0-0.1,0-0.1,0-0.2c0.7-3.3,1.6-6.8,2.3-10.3
	c0.4-1.9,0.7-3.7,1.1-5.5l0.5-2.6c0.2-0.9,0.4-1.8,0.5-2.6c1.4-7.2,2.3-14,2.6-20c0-0.1,0-0.1,0-0.2c0-3.3-0.1-6.6-0.3-10
	c-0.1-2.4-3-3.6-4.7-1.9c-0.3,0.3-0.5,0.5-0.8,0.7c1.8-5.1,3.5-10.4,3-12.9c1.2-12-4.4-6.9-10.4-4.1c-1.8,1.4-3.1,0.3-4.5-0.1
	c-1.6-0.5-2.6-2.2-1.9-3.7c0.4-1.1,0.9-2.2,1.5-3.6c-0.9-0.5-1.6,2.5-2.5,4.9c-0.9,2.5-1.4,4.8-2.6,3c1.8-3.2,2.1-7.6,3.5-11.1
	c-1.4,0.2-2.8,3.3-4.1,6.2c-1.4,2.8-2.3,5.5-3.5,4.8c-0.2-2.3,6.9-9.2,4.1-10.9c-0.5-0.4-1.9,3.3-2.6,5.1c2-7.3,2.5-13,0.7-13.7
	c-1.5-0.6-2-2.5-1.3-4c0.7-1.4,1.2-2.8,1.5-4.2c-0.9,1.9-2.6,4.9-3.3,6.7c0.7-2.3,1.6-4.4,2.5-6.5c-0.7,0.2-1.2,0.5-1.8,0.7
	c-0.6,1.2-1.3,2.2-1.9,3.4c0.4-1,0.8-1.9,1.1-2.9c-1.4,0.7-2.8,1.6-4.2,2.6c-3.9,4.4-8.6,8.5-9.7,11.3c-0.1,0.4-0.3,0.8-0.5,1.1
	c-2-2-3.7-4.7-4.5-8.5c-0.9-4.2-0.5-10,2.1-17.6c0-0.1,0.1-0.2,0.1-0.3c2.5-5.8,9.6-12.5,9.6-15c0.1-3.1-4.8,1.7-6.8,1.8
	c-1,0.1-1.9,0.5-2.4,1.2c-2.8,4.1-5.4,8.1-7.9,12.3c-3.2,4.9-6,9.9-8.8,15l-4.2,7.6c-1.4,2.5-2.6,5.1-4.1,7.6l-8.3,15
	c-10.2,20.6-19.5,41.5-28.8,63.1c-0.1,0.1-0.1,0.2-0.1,0.4c-1.1,4-3.9,13.2-8.2,25c-2.1,6-4.4,12.9-6.9,19.9
	c-0.5,1.4-0.9,2.8-1.4,4.2c-1.9-12.1-4.4-33.3-7.9-55.1c-2.3-14.4-4.8-29.1-7-41.6c-2.3-12.4-4.4-23-5.4-29.2c0-0.1,0-0.1,0-0.2
	l-0.5-2c-2.6-13.3-7.4-29.3-13.2-39.9c0-0.1-0.1-0.2-0.1-0.2c-1.8-2.9-3.9-5.7-6-8.4c-1.5-2-4.6-1.1-5,1.3c-0.1,0.4-0.1,0.7-0.2,1.1
	c-0.7-2.6-1.6-5.3-2.5-7.4c-0.9-2.1-1.8-3.9-2.6-4.6c-3.3-4.9-5.5-5.6-6.7-4.2c-1.4,1.4-2.3,4.6-3.9,7.4c-0.5,2.1-2.2,2-3.6,2.6
	c-1.5,0.6-3.2-0.2-3.7-1.8c-0.3-0.9-0.6-1.9-1-3.1c-1.9,0.4,4.6,9.7,0.7,8.5c-0.4-3.3-2.8-6.5-3.9-9.7c-1.9,1.9,3.2,11.5,0.5,11.8
	c-1.2-1.6,0.2-10.2-3.2-9.7c-0.7,0.2,0.5,3.3,1.1,4.9c-2.9-6-5.9-9.7-7.7-9.3c-1.6,0.4-3.3-0.2-3.8-1.8c-0.3-1.1-0.7-2.1-1.2-3
	c0.5,1.6,1.1,4.6,1.6,6c-0.7-1.8-1.4-3.5-2.1-5.3c-0.4,0.5-0.5,0.9-0.9,1.4c0.2,1.4,0.4,2.8,0.9,4.2c-0.5-1.2-0.9-2.3-1.4-3.5
	c-0.5,1.1-1,2.4-1.4,3.7c-0.1,0.2-0.1,0.5-0.2,0.8c-0.2,2.3-0.5,4.6-0.8,6.5c0,0.1,0,0.2-0.1,0.3c-0.7,2.4-0.8,4.1-0.5,5.1
	c2.6,9.5,4.9,19.2,7.2,28.9c2.1,8.9,4,17.9,5.9,26.8c0.3,1.3,1.4,1.9,2.7,2c0.3,0,0.6,0.2,0.9,0.7c2.3,4.9-0.7,10,1.4,15
	c0.7,0,1.4,0,1.9,0c0,4.1-0.2,8.4-0.3,12.7c0,0.2,0,0.5,0.1,0.7c0.9,3.8,1.7,7.7,2.6,11.4c0.7,3.2,1.4,6.4,2.2,9.6
	c0.2,0.9,1,1.5,1.9,1.9c0.2,0.1,0.3,0.2,0.5,0.4c1.1,3.2,1.1,7.9,1.6,12.7c0.2,0.7,0.4,1.4,0.7,2.1c0.1,0.1,0.2,0.2,0.3,0.2
	c0.8,0.5,1.4,1.3,1.5,2.2c0.1,1.3,0.2,2.5,0.2,3.7c0,0.3,0,0.5,0.1,0.7c6.8,22.7,13.5,46.2,18.9,72.1c0,0.1,0.1,0.2,0.1,0.3
	c1.9,5.4,3.8,10.9,4.7,16c0,0.1,0,0.2,0,0.3c0.3,4,0.2,8.3,0,12.9c-0.3,3.4-0.6,7-0.8,10.2c-0.1,1.2,0.5,2.4,1.6,2.8
	c2.5,1,4.4,4.7,6.4,8.3c1.2,2.2,2.4,4.3,3.7,5.7c-1,3.4-1.9,6.3-2.6,8.6c0,0.1,0,0.2-0.1,0.3l-0.5,2.3c-1.9,7.2-3.9,15.5-5.1,23.4
	c-1.2,7.9-1.9,15.6-1.9,22c0,0.1,0,0.2,0,0.3c0.3,3.6,0.8,7.2,1.3,10.8c0.3,2.5,3.6,3.3,5.1,1.3c0.2-0.2,0.3-0.4,0.5-0.6
	c-1.2,5.8-2.5,11.6-1.4,14.1c1.1,13,5.5,6.3,10.9,2.3c1.5-1.8,2.9-0.9,4.3-0.8c1.6,0.2,2.8,1.6,2.5,3.3c-0.2,1.2-0.4,2.4-0.7,4
	c0.9,0.4,1.1-2.6,1.4-5.3c0.4-2.6,0.9-5.1,2.1-3.5c-1.4,3.5-0.7,7.9-1.4,11.6c2.8-0.9,3-13,5.5-12c0.2,2.1-5.1,10.2-2.1,11.5
	c0.7,0.2,1.2-3.5,1.6-5.5c-0.5,7.7,0.3,13.2,2.2,13.5c1.6,0.2,2.4,2.1,2,3.6c-0.4,1.4-0.6,2.9-0.7,4.2c0.4-1.9,1.6-5.1,1.9-7
	c-0.4,2.1-0.7,4.4-1.2,6.7l0.9-0.6c0.5-0.3,0.8-0.7,1-1.3c0.5-1.3,1-2.7,1.3-4.1c-0.2,1.4-0.5,3-0.7,4.4c1.2-0.8,2.3-2,3.4-3.1
	c0.1-0.1,0.2-0.3,0.3-0.4c2.8-4.8,6.6-9.2,6.9-11.9c5.4-21.2,10.5-42.4,15.8-63.5c0.3-1.3-0.4-2.5-1.5-3.2c-0.3-0.2-0.5-0.5-0.5-1.1
	c0.2-5.3,4.1-8.6,5.4-13.3c0.4-1.3-0.2-2.6-1.3-3.3c0,0,0,0,0,0c1.9-4.1,4.1-8.4,6.4-12.7c0.1-0.2,0.2-0.4,0.2-0.6
	c2-7.9,3.8-15.6,5.7-23.5c0.2-1,0.1-2.1-0.6-2.7c-0.2-0.2-0.3-0.4-0.3-0.8c0.7-3.7,2.8-8.3,4.7-13.2c0.1-0.1,0.1-0.3,0.1-0.4
	c0.2-0.7,0.3-1.5,0.5-2.1c0-0.1-0.1-0.3-0.2-0.4c-0.5-0.8-0.7-1.8-0.3-2.7c0.6-1.4,1.1-2.6,1.7-3.8c0.1-0.2,0.2-0.5,0.2-0.7
	c2-10.6,4.2-21.4,6.5-32.3c0.2,0.2,0.4,0.5,0.6,0.6c0.2,0.1,0.3,0.3,0.4,0.6c0.2,3.9-1.1,9.3-1.6,15c0,0.9,0.2,1.6,0.2,2.5
	c0.1,0.2,0.3,0.4,0.4,0.5c0.6,0.5,0.9,1.4,0.8,2.2c-0.1,1.7-0.3,3.3-0.5,4.8c0,0.2,0,0.5,0,0.7c2.8,27.7,7.9,55.3,15.6,84.4
	c0,0.1,0.1,0.3,0.1,0.4c2.6,6.1,5.2,11.9,6.8,17.6c0,0.1,0,0.2,0.1,0.3c0.9,4.4,1.7,9.3,2.3,14.3c0.6,4,1,8.1,1.5,11.7
	c0.2,1.2,1.1,2.3,2.3,2.6c2.8,0.4,5.6,3.9,8.5,7.1c2.7,3,5.3,5.8,7.8,5.6c1.3-0.1,2.5,0.9,2.8,2.2c1.1,5.1,2.9,10.6,4.5,10.6
	c0.3,0,0.5,0,0.8,0c-0.3,1.8-0.4,3.3-0.3,4.4c0,0.2,0,0.3,0,0.5c-1.3,17.3,4.5,8.5,10.6,3.3c1.8-2.4,3-1.1,4.5-0.8
	c0.7,0.9,1.5,1.8,2.3,2.9c0,0.2,0,0.4-0.1,0.6c-0.5,1.9-1,3.9-1.7,6.5c0.8,0.5,1.6-3,2.3-6.4c0.3,0.5,0.7,0.9,1,1.4
	c-0.6,3-1,6.1-1.7,9.1c1.2-0.5,2.4-3.3,3.4-6.5c0,0,0,0,0,0c0.1,0.1,0.1,0.2,0.2,0.3c0.1,0.1,0.1,0.2,0.2,0.3
	c-0.8,2.3-1.1,4.3-0.1,5c0.2,0.2,0.7-0.8,1.1-2.2c0.2,0.5,0.3,1.1,0.4,1.6c-0.9,6.9-0.8,11.5,0.7,11.8c1.6,0.3,2.4,2.1,1.9,3.6
	c-0.9,2.6-1.6,5.1-2,7.4c0.9-2.6,2.6-7.2,3.3-9.7c-0.9,3-1.6,6.2-2.5,9.2c0.3-0.2,0.7-0.4,1-0.6c0.5-0.3,0.8-0.8,1-1.3
	c0.8-2,1.6-4,2.2-6.2c-0.5,2.1-1.1,4.1-1.6,6.2c1.4-1.4,2.7-2.7,4.1-4.4c0.1-0.1,0.2-0.2,0.3-0.4c3.9-6.6,8.5-12.9,9.6-16.7
	c9.4-31.1,16.3-58.5,25.5-89.1c0.2-0.7,0.1-1.4-0.2-2c-0.4-0.9,0-2.7,0.1-4.7c1-7.8,6.1-12.9,7.9-20.2c0.3-1.2-0.2-2.4-1.2-3
	c-0.1,0-0.1-0.1-0.2-0.1c2.6-5.9,5.6-11.9,8.5-18.1c0.1-0.1,0.1-0.3,0.2-0.4c3.5-11.4,6.8-22.7,10.3-34c0.2-0.8-0.1-1.5-0.5-2.2
	c-0.1-0.2-0.2-0.5-0.1-1c0.5-2.6,1.8-5.5,3-8.6c1.2-3.1,2.8-6.4,4.2-9.7c0-0.1,0.1-0.2,0.1-0.3c0.3-1,0.5-2,0.8-3
	c-0.1-0.4-0.2-0.6-0.3-0.8c-0.4-0.7-0.5-1.6-0.2-2.3c1-2.5,2.2-4.6,3.2-6.6c0.1-0.1,0.1-0.3,0.2-0.5c5.1-17.4,10.7-34.9,17.5-52.4
	c6.9-17.6,14.8-35.2,24.4-52.7c0-0.1,0.1-0.1,0.1-0.2c1.7-4,3.3-8,5.4-11.7c1.9-3.7,4-7.5,6.3-10.8c0-0.1,0.1-0.1,0.1-0.2
	c3.7-4.7,8.1-10,13.1-14.7c2.5-2.5,4.9-4.9,7.4-7c1.8-1.5,3.6-3,5.2-4.5c0.8-0.7,1.2-1.9,0.8-3c-0.4-1.1-0.3-2.7,0.3-4.5
	c0.9-2.6,2.6-5.8,4.2-8.8c1.6-3,3.2-6,3.9-8.3c0.4-1.2,0.4-2.1,0.1-2.9c-0.5-1.3-0.3-2.8,0.9-3.6c2.8-2,5.7-4.1,8.2-6
	c3.5-2.5,6-4.6,5.8-5.6c-0.7-3-0.7-6.7,1.9-11.8c1.4-2.5,3.3-5.1,6.3-8.1c1.6-1.6,3.2-3.2,5.1-4.8c1.9-1.6,4.2-2.9,6.6-4.7
	c0.1-0.1,0.2-0.1,0.3-0.2c2.1-1.2,4.5-2.2,6.9-3.3c2.5-1.2,5.3-1.8,7.8-2.6c4.9-1.4,9.2-2.6,10.6-3.9C450,1.7,449.8,1.1,448.9,1z
	 M222.3,432.1c0.3-0.4,0.6-0.5,0.9-0.3c0,0.5-0.2,1.1-0.5,1.9C222.6,433.1,222.5,432.6,222.3,432.1z"/>
<g>
	<path class="st0" d="M47.8,167.4l27.1-29.5c-1.2-6.3-2.2-11.7-3-15.8l-24.1,26V167.4z"/>
	<path class="st0" d="M30.3,141.1v-19l-24-25.9c0.4,1.5,0.7,3.1,1.1,4.6c1.8,7.6,3.4,15.2,5,22.8l-0.3-2L30.3,141.1z"/>
	<path class="st0" d="M118.2,361.7l-56.7-10.6l0.6-4.3c-1.7,6.5-3.3,13.5-4.3,20.4c-1.2,7.9-1.9,15.7-1.9,22.2
		c0.5,6,1.6,12.2,2.3,18.3c1.6-2.5,3.2-4.8,4.6-6.7c-1.2,5.8-2.5,11.6-1.4,14.1c1.1,13,5.5,6.3,10.9,2.3c2.6-3.2,4.9,1.9,7.9-3
		c-0.9,3.9-1.1,5.6-1.8,9.5c0.9,0.4,1.1-2.6,1.4-5.3c0.4-2.6,0.9-5.1,2.1-3.5c-1.4,3.5-0.7,7.9-1.4,11.6c2.8-0.9,3-13,5.5-12
		c0.2,2.1-5.1,10.2-2.1,11.5c0.7,0.2,1.2-3.5,1.6-5.5c-0.7,12,1.4,18.7,6.5,8.6c-0.7,3.7-2.8,8.6-3,12.7c0.4-1.9,1.6-5.1,1.9-7
		c-0.4,2.1-0.7,4.4-1.2,6.7c0.5-0.4,1.1-0.7,1.6-1.1c0.7-1.6,1.2-3.2,1.6-4.9c-0.2,1.4-0.5,3-0.7,4.4c1.2-0.9,2.5-2.1,3.5-3.3
		c2.8-4.9,6.7-9.3,7-12.2c3-11.7,5.9-23.4,8.7-35.1l-16.1-3.3l-16.2,24.5l-8.5-28.4l-14.3-2.6l0.5-5.6l12,2.3l-2.5-8.1l-8.1-1.6
		l0.9-5.6l56.6,11.1l-0.2,0.8c1.2-4.9,2.4-9.8,3.7-14.7c-0.1,0-0.2,0-0.4-0.1L118.2,361.7z"/>
	<path class="st0" d="M98.7,381.3l14.1,2.8l-0.2,0.9c0.6-2.5,1.2-4.9,1.9-7.4l-11.9-2.1L98.7,381.3z"/>
	<polygon class="st0" points="96.9,374.1 72.8,369.5 81.2,397.5 	"/>
	<path class="st0" d="M104.5,345.4l2.8,8.6l9.3,1.8c0.6-4.4,3.6-7.5,5-11.4l-1.9,3.5L104.5,345.4z"/>
	<polygon class="st0" points="92,324.4 77,348 86.3,349.9 101,352.4 	"/>
	<path class="st0" d="M195.2,122.3l-0.1,0.9l0.1,0.1c0.6-1.5,1.2-3,2-5c-0.8-0.5-1.4,1.8-2.2,4L195.2,122.3z"/>
	<path class="st0" d="M191.3,121.8l2.3,0.3c0.6-2.3,1.1-4.8,2-7c-1.4,0.2-2.8,3.3-4.1,6.2C191.4,121.4,191.3,121.6,191.3,121.8z"/>
	<path class="st0" d="M209.7,142.4l5.6,7.3c-0.1-4.2-0.3-8.4-0.4-12.8C213.1,139,211.4,140.8,209.7,142.4z"/>
	<path class="st0" d="M209.6,142.3c1.7-5,3.4-10.2,2.9-12.6c1.2-12-4.4-6.9-10.4-4.1c-2.1,1.7-3.5-0.2-5.3-0.2L209.6,142.3z"/>
	<path class="st0" d="M145.1,244.8c0.5,0,1,0.1,1.1,0.8c0.1,2.4-0.3,5.5-0.8,8.8l24.2,28.4l30.2-29.2c0.5-6.8,1.1-13.4,1.8-19.6
		L172.5,261l-24-29.2l-4.1,2.5l0.4-6.5l4.6-3.7l23.8,28.9l29.7-28.3c0.7-5.5,1.8-10.7,2.6-15.1c0.9-4.9,1.8-9.2,2.5-12.2l0.4-2.3
		c0.6-2.7,1.3-5.6,1.9-8.5l-3.3,2.7l-21.5-30.7L151,184l1.8-8.8l33.7-24.7l21.8,31l3.4-2.5l0.5-2.4c0.2-0.9,0.4-1.8,0.5-2.6
		c1.1-5.4,1.8-10.6,2.3-15.4l-23.2-31.5L158.9,153l2.8-8.5l27.8-22.9l0.6,0.1c1.7-2.6,3.6-5.5,1.9-6.6c-0.5-0.4-1.9,3.3-2.6,5.1
		c3.2-11.5,2.5-18.9-4.6-9.7c1.4-3.5,4.6-8.1,5.5-12.2c-0.9,1.9-2.6,4.9-3.3,6.7c0.7-2.3,1.6-4.4,2.5-6.5c-0.7,0.2-1.2,0.5-1.8,0.7
		c-0.9,1.6-1.8,3-2.5,4.8c0.7-1.4,1.2-2.8,1.8-4.2c-1.4,0.7-2.8,1.6-4.2,2.6c-3.9,4.4-8.6,8.5-9.7,11.3c-0.1,0.4-0.3,0.7-0.5,1.1
		c-2-2-3.7-4.7-4.5-8.5c-0.9-4.2-0.5-10,2.1-17.8c2.5-5.8,9.7-12.7,9.7-15.2c0.2-3.9-7.8,4.8-7.6,0.7c-3.3,4.9-6.5,9.7-9.5,14.6
		c-3.2,4.9-6,9.9-8.8,15l-4.2,7.6c-1.4,2.5-2.6,5.1-4.1,7.6l-8.3,15c-10.2,20.6-19.6,41.6-28.9,63.3c-1.1,3.9-3.9,13.2-8.3,25.2
		c-2.1,6-4.4,12.9-6.9,19.9c-0.5,1.4-0.9,2.8-1.4,4.2c-1.9-12.1-4.4-33.3-7.9-55.1c-2.3-14.4-4.8-29.1-7-41.6
		c-0.6-3.3-1.2-6.5-1.8-9.5v5.2l-33.1,36.3V94.8h5.6v21.8l10.7-10.7l4.1,3.9l-14.8,14.8v15.5l20.1-21.7l4,3.7
		c-0.1-0.6-0.2-1.2-0.3-1.7l-0.5-2.1c-2.6-13.4-7.4-29.4-13.2-40c-3-4.8-6.7-9.3-10.2-13.7c-0.4,2.8-0.7,5.3-1.1,7.6
		c-0.7-2.6-1.6-5.3-2.5-7.4c-0.9-2.1-1.8-3.9-2.6-4.6c-3.3-4.9-5.5-5.6-6.7-4.2c-1.4,1.4-2.3,4.6-3.9,7.4c-0.9,3.7-5.3,0.7-5.6,6
		c-1.1-3.3-1.6-4.9-2.6-8.3c-1.9,0.4,4.6,9.7,0.7,8.5c-0.4-3.3-2.8-6.5-3.9-9.7c-1.9,1.9,3.2,11.5,0.5,11.8
		c-1.2-1.6,0.2-10.2-3.2-9.7c-0.7,0.2,0.5,3.3,1.1,4.9c-4.6-9.5-9.5-13.4-9.5-3.5c-1.1-3-1.6-7.8-3.2-10.6c0.5,1.6,1.1,4.6,1.6,6
		c-0.7-1.8-1.4-3.5-2.1-5.3c-0.4,0.5-0.5,0.9-0.9,1.4c0.2,1.4,0.4,2.8,0.9,4.2c-0.5-1.2-0.9-2.3-1.4-3.5c-0.5,1.2-1.1,2.6-1.6,4.1
		c-0.2,2.5-0.5,4.9-0.9,7c-0.7,2.5-0.9,4.2-0.5,5.3c2.2,7.9,4.1,16,6.1,24.1l4-3.8l20.1,21.7V98.3L15.5,83.5l4.1-3.9l10.7,10.7V68.6
		h5.6v87l-18.1-20.5c0,3.4-0.9,6.9,0.5,10.3c0.7,0,1.4,0,1.9,0c0,4.2-0.2,8.6-0.4,13c0.9,3.9,1.8,7.9,2.6,11.8
		c0.9,3.9,1.8,7.9,2.8,11.8c0.7-0.4,1.2-0.5,1.8,0.2c1.1,3.2,1.1,7.9,1.6,12.7c0.2,0.7,0.4,1.4,0.7,2.1c0.5,0.5,1.2,0.5,1.6,0.5
		c0.2,2.1,0.4,4.1,0.4,6c6.9,22.9,13.6,46.5,19,72.6c1.9,5.5,3.9,11.1,4.8,16.4c0.4,4.1,0.2,8.5,0,13c-0.4,4.4-0.7,9-1.1,12.9
		c3.5-0.5,5.8,4.1,8.3,8.5c1.2,2.2,2.4,4.3,3.7,5.7c-1,3.4-1.9,6.4-2.7,8.8l-0.5,2.5c-0.1,0.4-0.2,0.9-0.3,1.3l8.3,1.5l3.5-5.5
		l-10-1.8l1.4-5.1l12,1.8l15.9-24.8l9.2,28.2l19.3,3.3c0.1-0.5,0.2-1,0.2-1.5c-0.5-0.4-1.2-0.5-1.8-0.9c1.9-4.2,4.2-8.6,6.5-13
		c2.3-8.8,4.2-17.4,6.3-26.3c-0.7,0-1.4,0-1.4-1.1c0.7-3.7,2.8-8.5,4.8-13.4c0.2-0.7,0.4-1.6,0.5-2.3c-0.2-0.7-0.9-1.1-1.2-1.2
		c0.9-2.3,1.8-4.2,2.6-6C140.7,266.4,142.8,255.7,145.1,244.8z M180.4,184.7l12.7,14.4l-4.2,3.7l-9-10.4l-10.9,9l-3.7-4.2
		L180.4,184.7z M166.3,209.2l9.7,9.5l10.2-9.9l3.9,4.1L176,226.6L162.3,213L166.3,209.2z"/>
	<path class="st0" d="M213.7,325.5c-0.7,2.2-1.3,4.2-1.9,6l18.1,34.1l34.1-15.4c0.7-4.7,3-8.5,5-12.5L248.4,305L213.7,325.5z
		 M237.3,347.5l-9.3-16l16-9.3l10,17.1L237.3,347.5z"/>
	<path class="st0" d="M198.2,431.3c0,0.5,0,0.9,0.1,1.2c-1.4,17.6,4.4,8.8,10.6,3.5c1.8-2.4,3-1.1,4.5-0.8c0.8,0.9,1.5,1.9,2.3,3
		c-0.6,2.1-1.1,4.2-1.9,7c0.8,0.5,1.6-3,2.3-6.4c0.3,0.5,0.7,0.9,1,1.4c-0.6,3-1,6.1-1.7,9.1c1.2-0.5,2.4-3.3,3.4-6.5
		c0,0.1,0.1,0.1,0.1,0.2c0.1,0.2,0.2,0.3,0.2,0.5c-0.8,2.3-1.1,4.3-0.1,5c0.2,0.2,0.6-0.8,1.1-2.2c0.2,0.5,0.3,1.1,0.4,1.6
		c-1.2,9.2-0.6,14.3,2.7,10.5c0.1,0.1,0.1,0.2,0.2,0.2c0.6,0.6,1.1,0.4,1.4-0.2c-1.4,4.1-3.1,8.5-3.7,12.2c0.9-2.6,2.6-7.2,3.3-9.7
		c-0.9,3-1.6,6.2-2.5,9.2c0.5-0.4,1.2-0.7,1.8-1.2c0.9-2.3,1.8-4.4,2.5-6.9c-0.5,2.1-1.1,4.1-1.6,6.2c1.4-1.4,2.8-2.8,4.2-4.6
		c3.6-6.2,7.9-12,9.3-15.9L219,418.1L198.2,431.3z"/>
	<path class="st0" d="M448.9,2c-0.9-0.2-2.5,0-4.1,0c-3.3,0.2-6.5,0.2-4.4-1.6L434.1,3c-2.1,0.9-4.2,1.6-6.2,2.5
		c-4.1,1.9-8.1,3.7-12.2,5.5c-2.1,0.9-4.1,1.9-6,3l-5.8,3.2c-1.9,1.1-3.9,2.1-5.8,3.2l-5.6,3.5l-5.6,3.5c-1.9,1.2-3.7,2.3-5.5,3.7
		l-10.6,7.8c-3.5,2.6-6.7,5.5-10,8.3c-1.6,1.4-3.3,2.8-4.9,4.2l-4.8,4.4l-4.6,4.4c-1.6,1.4-3.2,3-4.6,4.6l-8.8,9.3
		c-2.8,3.2-5.5,6.5-8.3,9.7l-4.1,4.9l-3.9,5.1c-10.4,13.4-19.7,27.5-28.5,41.9c-1.1,2.6-3.3,7-6.3,12.9c-2.8,5.8-6.7,12.9-10.4,21.1
		c-7.8,16.4-16.7,36.8-24.8,58c-8.7,22.5-16.5,45.7-22.8,65.2l15.3-8.8l2.6,4.9l-20.2,11c-2.1,6.5-4,12.5-5.6,17.8l34.2-20.4
		l21.2,34.1c0.3-0.9,0.5-1.9,0.7-3c-0.7-0.5-1.2-0.9-1.8-1.2c1.9-4.2,3.9-8.5,6-12.8l-18-26.1l4.8-3.2l15.9,23.5
		c3.7-12.1,7.2-23.9,10.8-35.8c-0.7,0.2-1.4,0-1.2-1.2c0.5-2.6,1.8-5.5,3-8.6c1.2-3.2,2.8-6.5,4.2-9.9c0.4-1.1,0.5-2.1,0.9-3.2
		c-0.2-1.1-0.7-1.4-1.1-1.8c1.2-3.2,2.6-5.8,3.9-8.3c5.1-17.4,10.7-35.1,17.6-52.7s14.8-35.2,24.5-52.9c1.8-4.1,3.3-8.1,5.5-11.8
		c1.9-3.7,4.1-7.6,6.3-10.9c3.7-4.8,8.1-10,13.2-14.8c2.5-2.5,4.9-4.9,7.4-7c2.5-2.1,4.9-4.2,7-6.2c-1.6-1.1-1.6-3.2-0.7-5.8
		c0.9-2.6,2.6-5.8,4.2-8.8c1.6-3,3.2-6,3.9-8.3c0.7-2.3,0.4-3.9-1.9-4.4c3.5-2.5,7.8-5.5,11.1-8.1c3.5-2.5,6-4.6,5.8-5.6
		c-0.7-3-0.7-6.7,1.9-11.8c1.4-2.5,3.3-5.1,6.3-8.1c1.6-1.6,3.2-3.2,5.1-4.8c1.9-1.6,4.2-3,6.7-4.8c2.1-1.2,4.6-2.3,7-3.3
		c2.5-1.2,5.3-1.8,7.8-2.6c4.9-1.4,9.2-2.6,10.6-3.9C450,2.7,449.8,2.1,448.9,2z"/>
	<path class="st0" d="M246.8,418.4c1.7-6.1,3.4-12.2,5.1-18.2l-14,7.9L246.8,418.4z"/>
	<path class="st0" d="M227.5,373l-18.1-33c-1.4,4.6-2.7,9.3-4,14.1c-0.3-2.1-0.7-4.1-0.8-6.2c-0.4-5.1-0.9-10.2-1.4-15.5
		c-0.4-0.9-0.5-2.1-0.9-3.5c-0.2-1.6-0.5-3.3-0.7-5.3c-0.5-4.1-1.1-9.2-1.6-14.8c-0.5-5.8-0.7-12.2-0.9-19c0-1.6-0.2-3.3-0.2-5.1
		s0-3.5,0-5.3c0-3.5,0.2-7,0.2-10.7c0.1-2.4,0.2-4.8,0.3-7.2L172,288.3l-3.9,44.6l-5.6-0.5l3.5-45.8l-21.2-24.1c0,0.2,0,0.4,0,0.7
		c0.4,0.7,1.1,0.9,1.4,1.1c-0.2,2.5-0.4,4.8-0.7,6.9c2.8,27.8,7.9,55.7,15.7,84.9c2.6,6.2,5.3,12.2,6.9,18c0.9,4.4,1.8,9.3,2.3,14.4
		c0.7,5.1,1.2,10.2,1.9,14.4c3.3-1.4,6.9,3,10.4,6.9c3.5,3.9,6.9,7.4,9.9,4.6c0.7,3.8,1.9,8.6,3.2,11.5l25-15l19.8,29.1
		c1.5-5.1,3-10.1,4.4-15l-0.1,0.2l-16-18.5l25.1-13.9c2.2-8,4.5-16.1,6.9-24.3l-2.8,9.1l-32.8,20.4L203.9,360l2.3-6.9l21.1,36.6
		l33.6-21.7c1.1-3.9,2.3-7.9,3.5-12c-0.2-0.1-0.4-0.2-0.5-0.4L227.5,373z M216.7,401l-19.9,12.9v-7l12.5-7.8l-10.2-17.6l2.3-8.8
		L216.7,401z"/>
</g>
</svg>
